%TF.GenerationSoftware,KiCad,Pcbnew,10.0.4*%
%TF.CreationDate,2026-07-08T21:49:28+03:00*%
%TF.ProjectId,motor_testbench_v1_0,6d6f746f-725f-4746-9573-7462656e6368,rev?*%
%TF.SameCoordinates,Original*%
%TF.FileFunction,Copper,L3,Inr*%
%TF.FilePolarity,Positive*%
%FSLAX46Y46*%
G04 Gerber Fmt 4.6, Leading zero omitted, Abs format (unit mm)*
G04 Created by KiCad (PCBNEW 10.0.4) date 2026-07-08 21:49:28*
%MOMM*%
%LPD*%
G01*
G04 APERTURE LIST*
G04 Aperture macros list*
%AMRoundRect*
0 Rectangle with rounded corners*
0 $1 Rounding radius*
0 $2 $3 $4 $5 $6 $7 $8 $9 X,Y pos of 4 corners*
0 Add a 4 corners polygon primitive as box body*
4,1,4,$2,$3,$4,$5,$6,$7,$8,$9,$2,$3,0*
0 Add four circle primitives for the rounded corners*
1,1,$1+$1,$2,$3*
1,1,$1+$1,$4,$5*
1,1,$1+$1,$6,$7*
1,1,$1+$1,$8,$9*
0 Add four rect primitives between the rounded corners*
20,1,$1+$1,$2,$3,$4,$5,0*
20,1,$1+$1,$4,$5,$6,$7,0*
20,1,$1+$1,$6,$7,$8,$9,0*
20,1,$1+$1,$8,$9,$2,$3,0*%
G04 Aperture macros list end*
%TA.AperFunction,HeatsinkPad*%
%ADD10C,0.600000*%
%TD*%
%TA.AperFunction,ComponentPad*%
%ADD11C,4.100000*%
%TD*%
%TA.AperFunction,ComponentPad*%
%ADD12RoundRect,1.025000X1.025000X-1.025000X1.025000X1.025000X-1.025000X1.025000X-1.025000X-1.025000X0*%
%TD*%
%TA.AperFunction,ComponentPad*%
%ADD13R,2.000000X0.900000*%
%TD*%
%TA.AperFunction,ComponentPad*%
%ADD14RoundRect,1.025000X-1.025000X-1.025000X1.025000X-1.025000X1.025000X1.025000X-1.025000X1.025000X0*%
%TD*%
%TA.AperFunction,ComponentPad*%
%ADD15R,0.900000X2.000000*%
%TD*%
%TA.AperFunction,ComponentPad*%
%ADD16R,1.700000X1.700000*%
%TD*%
%TA.AperFunction,ComponentPad*%
%ADD17C,1.700000*%
%TD*%
%TA.AperFunction,ComponentPad*%
%ADD18C,1.600000*%
%TD*%
%TA.AperFunction,ViaPad*%
%ADD19C,0.600000*%
%TD*%
%TA.AperFunction,Conductor*%
%ADD20C,0.200000*%
%TD*%
G04 APERTURE END LIST*
D10*
%TO.N,Net-(U1-GND-Pad1)*%
%TO.C,U1*%
X163235000Y-60915000D03*
X161735000Y-60915000D03*
X163985000Y-61665000D03*
X162485000Y-61665000D03*
X160985000Y-61665000D03*
X163235000Y-62415000D03*
X161735000Y-62415000D03*
X163985000Y-63165000D03*
X162485000Y-63165000D03*
X160985000Y-63165000D03*
X163235000Y-63915000D03*
X161735000Y-63915000D03*
%TD*%
D11*
%TO.N,/Voltage and Current Measurements/V_bat_in*%
%TO.C,J7*%
X86500000Y-58900000D03*
D12*
%TO.N,GND_ISO*%
X86500000Y-66100000D03*
D13*
%TO.N,*%
X80500000Y-55750000D03*
X80500000Y-69250000D03*
%TD*%
D11*
%TO.N,/Voltage and Current Measurements/V_bat_out*%
%TO.C,J8*%
X86500000Y-87400000D03*
D12*
%TO.N,GND_ISO*%
X86500000Y-94600000D03*
D13*
%TO.N,*%
X80500000Y-84250000D03*
X80500000Y-97750000D03*
%TD*%
D11*
%TO.N,+VBat_Secondary*%
%TO.C,J9*%
X137050000Y-54800000D03*
D14*
%TO.N,GND*%
X129850000Y-54800000D03*
D15*
%TO.N,*%
X140200000Y-48800000D03*
X126700000Y-48800000D03*
%TD*%
D16*
%TO.N,Net-(D6-K)*%
%TO.C,J10*%
X159650000Y-56300000D03*
D17*
%TO.N,+12V_Fan_Supply*%
X159650000Y-58840000D03*
%TD*%
D16*
%TO.N,+3V3_DIO*%
%TO.C,J11*%
X146625000Y-74900000D03*
D17*
%TO.N,GND*%
X149165000Y-74900000D03*
%TD*%
D18*
%TO.N,/Voltage and Current Measurements/V_bat_in*%
%TO.C,C12*%
X94700000Y-53100000D03*
%TO.N,GND_ISO*%
X98200000Y-53100000D03*
%TD*%
%TO.N,/Voltage and Current Measurements/V_bat_out*%
%TO.C,C9*%
X94350000Y-96200000D03*
%TO.N,GND_ISO*%
X97850000Y-96200000D03*
%TD*%
%TO.N,/Voltage and Current Measurements/V_bat_in*%
%TO.C,C10*%
X94650000Y-62100000D03*
%TO.N,GND_ISO*%
X98150000Y-62100000D03*
%TD*%
D16*
%TO.N,GND*%
%TO.C,J13*%
X124550000Y-106410000D03*
D17*
%TO.N,Net-(J13-Pin_2)*%
X124550000Y-103870000D03*
%TO.N,Net-(J13-Pin_3)*%
X124550000Y-101330000D03*
%TO.N,+3V3_LC*%
X124550000Y-98790000D03*
%TD*%
D16*
%TO.N,/ESP_GPIO8*%
%TO.C,J2*%
X165100000Y-78870000D03*
D17*
%TO.N,/ESP_GPIO3*%
X165100000Y-81410000D03*
%TO.N,/ESP_GPIO46*%
X165100000Y-83950000D03*
%TO.N,/ESP_GPIO9*%
X165100000Y-86490000D03*
%TO.N,/ESP_GPIO10*%
X165100000Y-89030000D03*
%TD*%
D16*
%TO.N,GND*%
%TO.C,J3*%
X160700000Y-89000000D03*
%TD*%
%TO.N,+5V_Ana*%
%TO.C,J12*%
X124500000Y-92225000D03*
D17*
%TO.N,GND*%
X124500000Y-94765000D03*
%TD*%
D18*
%TO.N,/Voltage and Current Measurements/V_bat_out*%
%TO.C,C11*%
X94600000Y-87000000D03*
%TO.N,GND_ISO*%
X98100000Y-87000000D03*
%TD*%
D16*
%TO.N,/ESP_5V*%
%TO.C,J4*%
X164400000Y-101900000D03*
%TD*%
D19*
%TO.N,GND*%
X152600000Y-50807866D03*
X152100000Y-54700000D03*
X150700000Y-53400000D03*
X149951154Y-52999230D03*
%TO.N,+6V_Buck_Out*%
X150700000Y-52500000D03*
%TO.N,GND*%
X150400003Y-55200000D03*
X150400003Y-57800000D03*
%TO.N,Net-(U12-EN)*%
X149600000Y-57800000D03*
X149600000Y-55200000D03*
%TO.N,+6V_Buck_Out*%
X150700000Y-52500000D03*
%TO.N,GND*%
X153530000Y-48680000D03*
X156290000Y-48700000D03*
X155087500Y-50850000D03*
X158050000Y-48900000D03*
X156290000Y-47200000D03*
X153530000Y-47180000D03*
X151610000Y-49600000D03*
X158540000Y-57790000D03*
X159640000Y-60320000D03*
X158580000Y-59900000D03*
X161110000Y-58970000D03*
X160790000Y-57900000D03*
X154780000Y-59050000D03*
X161400000Y-77200003D03*
X121100000Y-68500000D03*
X154900000Y-45200000D03*
%TO.N,unconnected-(U1-MTMS{slash}IO42-Pad35)*%
X161400000Y-72100003D03*
%TO.N,GND*%
X161400000Y-64500000D03*
X146200000Y-68500000D03*
X115875000Y-52200000D03*
X146162000Y-98200000D03*
X166100000Y-59850000D03*
X122825000Y-60775000D03*
X144950000Y-76000003D03*
X114620000Y-44890000D03*
X132396744Y-99490297D03*
X134400000Y-81980000D03*
X112500000Y-81000000D03*
X150997673Y-102650000D03*
X143167500Y-44384370D03*
%TO.N,unconnected-(U1-MTMS{slash}IO42-Pad35)*%
X161400000Y-72999997D03*
%TO.N,GND*%
X111100000Y-69600000D03*
X142400000Y-53100000D03*
X115875000Y-53100000D03*
X114670000Y-40890000D03*
X115875000Y-51300000D03*
X135100000Y-63100000D03*
X114775000Y-49491075D03*
X161400000Y-69500003D03*
X119975000Y-62075000D03*
X108700000Y-79700000D03*
X120425000Y-52200000D03*
X167350000Y-46650000D03*
X138387500Y-87075000D03*
X165100000Y-59000000D03*
X145987500Y-82075000D03*
X113896142Y-73262352D03*
X135100000Y-59662497D03*
X136300000Y-58600000D03*
X136325000Y-101125000D03*
X114775000Y-51300000D03*
X126100000Y-53100000D03*
X140957100Y-81150000D03*
X113725000Y-54050000D03*
X118070000Y-40890000D03*
X123220000Y-48140000D03*
X149413994Y-78498859D03*
X126100000Y-51300000D03*
X152400000Y-65000000D03*
X145900000Y-64800000D03*
X118175000Y-51300000D03*
X114775000Y-53100000D03*
X126100000Y-51300000D03*
X141825000Y-71275000D03*
X137400000Y-89399997D03*
X114670000Y-41790000D03*
X140075000Y-76300000D03*
X139000000Y-100525000D03*
X123800000Y-53100000D03*
X144637500Y-46443750D03*
X121575000Y-54050000D03*
X136200000Y-104500000D03*
X150400000Y-63400000D03*
X146162000Y-96550000D03*
X135125000Y-98450000D03*
X124950000Y-52200000D03*
X144200000Y-94859620D03*
X114250000Y-85450000D03*
X119325000Y-51300000D03*
X151100000Y-74800000D03*
X115770000Y-40890000D03*
X114775000Y-54050000D03*
X142537500Y-45981250D03*
X116987500Y-56662500D03*
X140821000Y-82801000D03*
X139325000Y-73093750D03*
X116400000Y-81350000D03*
X119220000Y-42690000D03*
X127699997Y-80000000D03*
X125872500Y-80445000D03*
X141475000Y-108275000D03*
X142587500Y-81393767D03*
X161400000Y-67900000D03*
X113670000Y-40890000D03*
X121275000Y-64575000D03*
X164600000Y-42850000D03*
X151350000Y-47900000D03*
X134650389Y-75225000D03*
X147913991Y-76998859D03*
X136637557Y-97316201D03*
X135431154Y-74400222D03*
X132800000Y-70600000D03*
X114500000Y-76700000D03*
X122700000Y-57399997D03*
X113725000Y-52200000D03*
X123800000Y-54050000D03*
X113670000Y-41790000D03*
X120425000Y-53100000D03*
X121575000Y-52200000D03*
X143200000Y-53100000D03*
X121275000Y-65475000D03*
X132775000Y-68775000D03*
X121169997Y-44590000D03*
X129331250Y-95350000D03*
X123800000Y-51300000D03*
X139500000Y-105900003D03*
X112876814Y-83628285D03*
X118175000Y-54050000D03*
X140450000Y-70015380D03*
X127400000Y-103000000D03*
X114812500Y-72347408D03*
X130450000Y-59550000D03*
X134381250Y-95225000D03*
X116050000Y-89200000D03*
X132587500Y-79950000D03*
X120650000Y-93950000D03*
X137875000Y-107225000D03*
X128650000Y-112100003D03*
X150400000Y-66700000D03*
X126100000Y-52200000D03*
X119220000Y-44690000D03*
X122725000Y-51300000D03*
X113725000Y-53100000D03*
X142600000Y-94859620D03*
X119220000Y-45640000D03*
X113725000Y-48591075D03*
X117025000Y-51300000D03*
X117025000Y-52200000D03*
X165100000Y-60700000D03*
X124950000Y-54050000D03*
X142600000Y-65100000D03*
X146687500Y-59231250D03*
X120000000Y-60775000D03*
X108200000Y-69050000D03*
X122725000Y-54050000D03*
X144187500Y-81418431D03*
X161400000Y-62900000D03*
X116000000Y-62100000D03*
X119325000Y-54050000D03*
X106100000Y-79700000D03*
X159490000Y-45500000D03*
X134550000Y-73500000D03*
X151100000Y-81500000D03*
X165850000Y-49300000D03*
X143237500Y-73100000D03*
X119220000Y-40890000D03*
X134402206Y-84115590D03*
X119220000Y-41790000D03*
X116920000Y-42690000D03*
X148400840Y-85306184D03*
X118175000Y-53100000D03*
X136575000Y-70000000D03*
X144769027Y-59255973D03*
X106800000Y-68100000D03*
X120299980Y-77805971D03*
X138500000Y-94400000D03*
X118175000Y-52200000D03*
X109450000Y-69550000D03*
X123800000Y-52200000D03*
X138217505Y-97284268D03*
X117025000Y-53100000D03*
X147901464Y-82875000D03*
X116050000Y-87500000D03*
X119325000Y-52200000D03*
X144750000Y-100525000D03*
X114500000Y-77900000D03*
X132952028Y-73443002D03*
X149522920Y-43423750D03*
X161400000Y-67000000D03*
X140612500Y-60156910D03*
X112750000Y-69600000D03*
X117150000Y-62950000D03*
X105400000Y-69000000D03*
X133300000Y-86625000D03*
X150600000Y-62600000D03*
X142075000Y-100525000D03*
X127400000Y-65330000D03*
X127650000Y-62900000D03*
X119325000Y-51300000D03*
X122337500Y-56537500D03*
X141900000Y-55200000D03*
X164100000Y-59850000D03*
X109500000Y-79700000D03*
X161400000Y-74600003D03*
X136400000Y-81250000D03*
X119325000Y-53100000D03*
X161400000Y-65400000D03*
X134800000Y-70450000D03*
X117025000Y-54050000D03*
X122600000Y-68500000D03*
X134000000Y-58600000D03*
X106850000Y-79000000D03*
X139700000Y-108300000D03*
X164600000Y-44600000D03*
X145200000Y-45400000D03*
X161400000Y-75599997D03*
X126100000Y-54050000D03*
X118070000Y-41790000D03*
X111200000Y-79700000D03*
X121575000Y-51300000D03*
X146700000Y-61350000D03*
X132112500Y-77250000D03*
X120425000Y-51300000D03*
X108350000Y-77950000D03*
X125856034Y-65325000D03*
X129725000Y-96650000D03*
X126175000Y-62112500D03*
X131843750Y-93750000D03*
X135200000Y-82450000D03*
X128400000Y-97000000D03*
X143275000Y-108225000D03*
X125800000Y-72400000D03*
X132900000Y-77200000D03*
X116920000Y-41790000D03*
X114670000Y-42690000D03*
X114775000Y-50391075D03*
X139700000Y-78850000D03*
X135200000Y-81550000D03*
X142000000Y-105725000D03*
X165600000Y-55400000D03*
X113725000Y-49491075D03*
X121575000Y-53100000D03*
X115770000Y-42690000D03*
X122725000Y-53100000D03*
X151000000Y-104850000D03*
X136200000Y-105700000D03*
X151000000Y-107050000D03*
X141900000Y-57800000D03*
X123098955Y-46439725D03*
X141224000Y-76327000D03*
X135100000Y-111200000D03*
X160950000Y-46027080D03*
X116920000Y-40890000D03*
X130000000Y-64600000D03*
X123500000Y-58200000D03*
X119220000Y-43790000D03*
X120351127Y-88300002D03*
X115770000Y-41790000D03*
X125400000Y-62300000D03*
X118862500Y-50087500D03*
X122725000Y-52200000D03*
X105400000Y-77950000D03*
X124950000Y-51300000D03*
X118070000Y-42690000D03*
X141225000Y-73500000D03*
X136937500Y-86725000D03*
X149700000Y-69150000D03*
X144322920Y-43423750D03*
X113725000Y-51300000D03*
X115875000Y-54050000D03*
X168700000Y-45400000D03*
X122725000Y-51300000D03*
X145650003Y-110550000D03*
X151350000Y-46300000D03*
X161400000Y-70499997D03*
X113670000Y-42690000D03*
X124450000Y-81400000D03*
X120425000Y-54050000D03*
X114620000Y-43790000D03*
X165900000Y-45500000D03*
X151000000Y-100550000D03*
X136400000Y-79650000D03*
X132300000Y-86625000D03*
X113725000Y-50391075D03*
X138550000Y-68650000D03*
X119220000Y-40890000D03*
X144200000Y-61700000D03*
X165925000Y-50650000D03*
X116350000Y-83150000D03*
X118662500Y-56537500D03*
X124950000Y-53100000D03*
X114775000Y-52200000D03*
X136850000Y-79050000D03*
X135200000Y-83375000D03*
X143725000Y-59225000D03*
X127400000Y-106500000D03*
%TO.N,+1V8_MCP_AVIN*%
X135200000Y-84175000D03*
X135450000Y-75200000D03*
%TO.N,+5V_Ana*%
X120350000Y-87500000D03*
X137400000Y-90200000D03*
X107800000Y-79700000D03*
X128500000Y-80000000D03*
X119500000Y-77800000D03*
%TO.N,GND_ISO*%
X107370000Y-41790000D03*
X106320000Y-43640000D03*
X108470000Y-43590000D03*
X99500000Y-55130000D03*
X103920000Y-62390000D03*
X108470000Y-45340000D03*
X109420000Y-52190000D03*
X109470000Y-41790000D03*
X97100000Y-55130000D03*
X107282500Y-56977500D03*
X103170000Y-40890000D03*
X99720000Y-46090000D03*
X109470000Y-40890000D03*
X106320000Y-49490000D03*
X109420000Y-48590000D03*
X107370000Y-50390000D03*
X99500000Y-56560000D03*
X104220000Y-40890000D03*
X108420000Y-42690000D03*
X109420000Y-50390000D03*
X100300000Y-55130000D03*
X107370000Y-47690000D03*
X108420000Y-49490000D03*
X107370000Y-49490000D03*
X97900000Y-56560000D03*
X107370000Y-42690000D03*
X109470000Y-42690000D03*
X109420000Y-51290000D03*
X102770000Y-52440000D03*
X106320000Y-40890000D03*
X108420000Y-41790000D03*
X105200000Y-60840000D03*
X105200000Y-62090000D03*
X100957500Y-47852500D03*
X106320000Y-47690000D03*
X108420000Y-40890000D03*
X97100000Y-56560000D03*
X98700000Y-56560000D03*
X109420000Y-49490000D03*
X106320000Y-51290000D03*
X106320000Y-50390000D03*
X99720000Y-42490000D03*
X106320000Y-42690000D03*
X106320000Y-41790000D03*
X98700000Y-55130000D03*
X106320000Y-44490000D03*
X106320000Y-45390000D03*
X108470000Y-44440000D03*
X101100000Y-56560000D03*
X105270000Y-40890000D03*
X108420000Y-51290000D03*
X109420000Y-53090000D03*
X106320000Y-48590000D03*
X104720000Y-41727500D03*
X108220000Y-54240000D03*
X108420000Y-53090000D03*
X107370000Y-40890000D03*
X101100000Y-55130000D03*
X102120000Y-40890000D03*
X99720000Y-44290000D03*
X108420000Y-48590000D03*
X107370000Y-48590000D03*
X100300000Y-56560000D03*
X97900000Y-55130000D03*
X108420000Y-50390000D03*
%TO.N,MISO*%
X147601491Y-85273859D03*
X148613991Y-78498859D03*
%TO.N,DS_ADC_SPI_MISO*%
X161400000Y-66200000D03*
X150000000Y-102650000D03*
%TO.N,+5V5_bus*%
X145200000Y-64100000D03*
X145200000Y-65500000D03*
X146600000Y-64100000D03*
X146600000Y-65500000D03*
X132800000Y-69700000D03*
%TO.N,+6V_Buck_Out*%
X123120000Y-45640000D03*
X121970000Y-44590000D03*
X142400000Y-52200000D03*
X143200000Y-52200000D03*
%TO.N,+SAR_1_5V_Ref*%
X136400000Y-80450000D03*
X133749997Y-73500000D03*
%TO.N,SCLK*%
X147113991Y-76998859D03*
X147101491Y-82868145D03*
%TO.N,+3V3_DIO*%
X143387500Y-80900000D03*
X144950000Y-75200000D03*
X143393426Y-81800832D03*
X143400000Y-95200000D03*
X143400000Y-94400000D03*
%TO.N,+3V3_LC*%
X132700000Y-98750000D03*
X137425000Y-97175000D03*
%TO.N,/Load Cell and Temperature Measurements/NTC_3*%
X128650000Y-111300000D03*
X112000000Y-83600000D03*
%TO.N,/Load Cell and Temperature Measurements/NTC_2*%
X139500000Y-105100000D03*
X134400000Y-82920000D03*
%TO.N,/Load Cell and Temperature Measurements/NTC_1*%
X144900000Y-106900000D03*
%TO.N,+MCP_Ref*%
X135100000Y-60462500D03*
%TO.N,+5V_Ratiometric_Supply*%
X113912500Y-72362500D03*
X122700000Y-58200000D03*
%TO.N,/Voltage and Current Measurements/GND_bat_sense*%
X100725688Y-57267033D03*
%TO.N,/Voltage and Current Measurements/V_bat_sense*%
X100721346Y-55855283D03*
%TO.N,Net-(IC5-MCLK)*%
X161400000Y-68700000D03*
X150000000Y-100574528D03*
%TO.N,Net-(IC5-~{IRQ}{slash}MDAT)*%
X151000000Y-101550000D03*
X161400000Y-71300000D03*
%TO.N,Net-(IC5-SDI)*%
X161400000Y-73800000D03*
X151000000Y-103750000D03*
%TO.N,Net-(IC5-SCK)*%
X161400000Y-63700000D03*
X150000000Y-104850000D03*
%TO.N,Net-(IC5-~{CS})*%
X161400000Y-76400000D03*
X151000000Y-105950000D03*
%TD*%
%TO.N,/Load Cell and Temperature Measurements/NTC_3*%
D20*
X128650000Y-111300000D02*
X114900000Y-111300000D01*
X114900000Y-111300000D02*
X113200000Y-109600000D01*
X113200000Y-84800000D02*
X112000000Y-83600000D01*
X113200000Y-109600000D02*
X113200000Y-84800000D01*
%TD*%
%TA.AperFunction,Conductor*%
%TO.N,GND_ISO*%
G36*
X72206297Y-39471201D02*
G01*
X72217150Y-39474387D01*
X72232122Y-39484007D01*
X72249205Y-39489013D01*
X72260907Y-39502503D01*
X72275931Y-39512157D01*
X72283326Y-39528347D01*
X72294989Y-39541792D01*
X72297540Y-39559466D01*
X72304960Y-39575711D01*
X72302430Y-39593343D01*
X72304971Y-39610945D01*
X72295046Y-39644815D01*
X72294792Y-39645372D01*
X72260917Y-39689543D01*
X72259185Y-39690973D01*
X72249504Y-39697694D01*
X72249066Y-39698201D01*
X72248560Y-39698349D01*
X72242239Y-39702739D01*
X72150626Y-39755634D01*
X72150614Y-39755642D01*
X72150612Y-39755643D01*
X71945403Y-39913105D01*
X71945388Y-39913119D01*
X71945380Y-39913126D01*
X71762485Y-40096021D01*
X71762478Y-40096029D01*
X71762464Y-40096044D01*
X71605006Y-40301249D01*
X71604996Y-40301263D01*
X71604984Y-40301280D01*
X71475646Y-40525298D01*
X71445383Y-40598361D01*
X71444034Y-40600034D01*
X71443733Y-40602163D01*
X71427373Y-40628714D01*
X71421728Y-40635719D01*
X71407084Y-40645886D01*
X71401542Y-40652764D01*
X71387416Y-40659542D01*
X71364336Y-40675567D01*
X71294511Y-40678061D01*
X71234422Y-40642409D01*
X71204497Y-40586411D01*
X71203317Y-40581418D01*
X71202353Y-40573141D01*
X71201303Y-40570854D01*
X71201733Y-40567812D01*
X71200000Y-40552928D01*
X71200000Y-39608009D01*
X71205023Y-39573073D01*
X71209427Y-39558075D01*
X71247172Y-39499324D01*
X71248541Y-39498137D01*
X71303420Y-39470657D01*
X71310979Y-39469013D01*
X71337332Y-39466180D01*
X72171370Y-39466180D01*
X72206297Y-39471201D01*
G37*
%TD.AperFunction*%
%TD*%
%TA.AperFunction,NonConductor*%
G36*
X98525000Y-51838697D02*
G01*
X98699031Y-51895244D01*
X98881350Y-51988141D01*
X98881359Y-51988147D01*
X98925921Y-52020523D01*
X98925922Y-52020524D01*
X98525000Y-52421446D01*
X98525000Y-52862915D01*
X98572741Y-52945606D01*
X98600000Y-53047339D01*
X98600000Y-53053551D01*
X99279474Y-52374076D01*
X99279474Y-52374077D01*
X99311859Y-52418650D01*
X99404755Y-52600968D01*
X99467990Y-52795582D01*
X99500000Y-52997682D01*
X99500000Y-53202317D01*
X99467990Y-53404417D01*
X99404755Y-53599031D01*
X99311859Y-53781349D01*
X99279474Y-53825921D01*
X98600000Y-53146447D01*
X98600000Y-53152661D01*
X98572741Y-53254394D01*
X98525000Y-53337084D01*
X98525000Y-53778553D01*
X98925921Y-54179474D01*
X98881349Y-54211859D01*
X98699031Y-54304755D01*
X98525000Y-54361302D01*
X98525000Y-55789391D01*
X98525000Y-57201141D01*
X98525000Y-60854944D01*
X98649029Y-60895244D01*
X98831350Y-60988141D01*
X98831359Y-60988147D01*
X98875921Y-61020523D01*
X98875922Y-61020524D01*
X98525000Y-61371446D01*
X98525000Y-61954036D01*
X98550000Y-62047339D01*
X98550000Y-62053550D01*
X99229474Y-61374076D01*
X99229474Y-61374077D01*
X99261859Y-61418650D01*
X99354755Y-61600968D01*
X99417990Y-61795582D01*
X99450000Y-61997682D01*
X99450000Y-62202317D01*
X99417990Y-62404417D01*
X99354755Y-62599031D01*
X99261859Y-62781349D01*
X99229474Y-62825921D01*
X99229474Y-62825922D01*
X98550000Y-62146448D01*
X98550000Y-62152661D01*
X98525000Y-62245963D01*
X98525000Y-62828553D01*
X98875921Y-63179474D01*
X98831349Y-63211859D01*
X98649509Y-63304509D01*
X99325000Y-63980000D01*
X101299998Y-63980000D01*
X96400000Y-68879998D01*
X96400000Y-68879999D01*
X96400000Y-68880000D01*
X96400000Y-82440000D01*
X101280000Y-87320000D01*
X108120808Y-87320000D01*
X108153056Y-87324636D01*
X108155740Y-87325021D01*
X108180984Y-87332434D01*
X108233730Y-87363730D01*
X109251073Y-88381073D01*
X109272223Y-88409325D01*
X109284831Y-88432414D01*
X109300000Y-88491843D01*
X109300000Y-113756070D01*
X109299999Y-113756076D01*
X109300000Y-113756079D01*
X109294975Y-113791014D01*
X109290570Y-113806012D01*
X109252827Y-113864755D01*
X109252792Y-113864785D01*
X109252791Y-113864787D01*
X109252789Y-113864787D01*
X109251458Y-113865942D01*
X109196597Y-113893418D01*
X109189039Y-113895063D01*
X109162668Y-113897900D01*
X73206643Y-113897900D01*
X73202191Y-113897820D01*
X73197765Y-113897661D01*
X73193371Y-113897425D01*
X72968503Y-113881342D01*
X72959701Y-113880396D01*
X72950945Y-113879137D01*
X72942235Y-113877565D01*
X72728456Y-113831060D01*
X72719879Y-113828871D01*
X72711392Y-113826379D01*
X72702994Y-113823584D01*
X72497997Y-113747125D01*
X72489827Y-113743741D01*
X72481772Y-113740062D01*
X72473868Y-113736105D01*
X72281844Y-113631252D01*
X72274227Y-113626733D01*
X72266779Y-113621946D01*
X72259513Y-113616900D01*
X72084374Y-113485793D01*
X72077482Y-113480239D01*
X72070793Y-113474443D01*
X72064314Y-113468411D01*
X71909616Y-113313713D01*
X71903584Y-113307234D01*
X71897788Y-113300545D01*
X71892234Y-113293653D01*
X71761127Y-113118514D01*
X71756081Y-113111248D01*
X71751294Y-113103800D01*
X71746775Y-113096183D01*
X71711104Y-113030857D01*
X71641915Y-112904145D01*
X71637965Y-112896255D01*
X71634287Y-112888204D01*
X71630909Y-112880048D01*
X71554441Y-112675028D01*
X71551648Y-112666636D01*
X71549157Y-112658154D01*
X71546970Y-112649588D01*
X71500460Y-112435780D01*
X71498890Y-112427079D01*
X71497632Y-112418332D01*
X71496687Y-112409547D01*
X71489148Y-112304139D01*
X71480602Y-112184645D01*
X71480366Y-112180235D01*
X71480208Y-112175806D01*
X71480129Y-112171385D01*
X71480129Y-111193707D01*
X72549500Y-111193707D01*
X72549500Y-111406291D01*
X72582752Y-111616239D01*
X72648445Y-111818418D01*
X72741532Y-112001111D01*
X72744951Y-112007820D01*
X72869890Y-112179786D01*
X72869892Y-112179788D01*
X73020216Y-112330112D01*
X73192169Y-112455042D01*
X73192177Y-112455047D01*
X73192179Y-112455048D01*
X73192181Y-112455049D01*
X73192182Y-112455050D01*
X73192200Y-112455060D01*
X73192442Y-112455182D01*
X73381588Y-112551557D01*
X73583757Y-112617246D01*
X73793713Y-112650500D01*
X73793714Y-112650500D01*
X74006286Y-112650500D01*
X74006287Y-112650500D01*
X74216243Y-112617246D01*
X74418412Y-112551557D01*
X74607816Y-112455051D01*
X74664391Y-112413947D01*
X74779786Y-112330109D01*
X74779788Y-112330106D01*
X74779792Y-112330104D01*
X74779794Y-112330102D01*
X74779844Y-112330066D01*
X74780605Y-112329290D01*
X74930104Y-112179792D01*
X74930106Y-112179788D01*
X74930109Y-112179786D01*
X75055048Y-112007820D01*
X75055047Y-112007820D01*
X75055051Y-112007816D01*
X75055053Y-112007810D01*
X75075445Y-111979744D01*
X75083730Y-111951529D01*
X75151557Y-111818412D01*
X75217246Y-111616243D01*
X75250500Y-111406287D01*
X75250500Y-111193713D01*
X75250499Y-111193707D01*
X105149500Y-111193707D01*
X105149500Y-111406291D01*
X105182752Y-111616239D01*
X105248445Y-111818418D01*
X105341532Y-112001111D01*
X105344951Y-112007820D01*
X105469890Y-112179786D01*
X105469892Y-112179788D01*
X105620216Y-112330112D01*
X105792169Y-112455042D01*
X105792177Y-112455047D01*
X105792179Y-112455048D01*
X105792181Y-112455049D01*
X105792182Y-112455050D01*
X105792200Y-112455060D01*
X105792442Y-112455182D01*
X105981588Y-112551557D01*
X106183757Y-112617246D01*
X106393713Y-112650500D01*
X106393714Y-112650500D01*
X106606286Y-112650500D01*
X106606287Y-112650500D01*
X106816243Y-112617246D01*
X107018412Y-112551557D01*
X107207816Y-112455051D01*
X107264391Y-112413947D01*
X107379786Y-112330109D01*
X107379788Y-112330106D01*
X107379792Y-112330104D01*
X107379794Y-112330102D01*
X107379844Y-112330066D01*
X107380605Y-112329290D01*
X107530104Y-112179792D01*
X107530106Y-112179788D01*
X107530109Y-112179786D01*
X107655048Y-112007820D01*
X107655047Y-112007820D01*
X107655051Y-112007816D01*
X107655053Y-112007810D01*
X107675445Y-111979744D01*
X107683730Y-111951529D01*
X107751557Y-111818412D01*
X107817246Y-111616243D01*
X107850500Y-111406287D01*
X107850500Y-111193713D01*
X107817246Y-110983757D01*
X107751557Y-110781588D01*
X107655051Y-110592184D01*
X107655049Y-110592181D01*
X107655048Y-110592179D01*
X107654702Y-110591703D01*
X107654700Y-110591699D01*
X107530112Y-110420216D01*
X107379788Y-110269892D01*
X107379786Y-110269890D01*
X107207820Y-110144951D01*
X107194167Y-110137994D01*
X107040245Y-110059567D01*
X107040240Y-110059565D01*
X107018414Y-110048444D01*
X107018413Y-110048443D01*
X107018412Y-110048443D01*
X106921550Y-110016970D01*
X106825074Y-109985623D01*
X106820552Y-109983770D01*
X106811362Y-109981600D01*
X106806599Y-109981226D01*
X106654957Y-109957208D01*
X106635489Y-109954124D01*
X106606290Y-109949500D01*
X106606287Y-109949500D01*
X106393713Y-109949500D01*
X106393709Y-109949500D01*
X106354776Y-109955666D01*
X106345042Y-109957208D01*
X106307654Y-109963129D01*
X106183763Y-109982752D01*
X105981582Y-110048445D01*
X105792182Y-110144949D01*
X105620210Y-110269892D01*
X105469892Y-110420210D01*
X105344949Y-110592182D01*
X105248445Y-110781580D01*
X105182752Y-110983759D01*
X105149500Y-111193707D01*
X75250499Y-111193707D01*
X75217246Y-110983757D01*
X75151557Y-110781588D01*
X75055051Y-110592184D01*
X75055049Y-110592181D01*
X75055048Y-110592179D01*
X75054702Y-110591703D01*
X75054700Y-110591699D01*
X74930112Y-110420216D01*
X74779788Y-110269892D01*
X74779786Y-110269890D01*
X74607820Y-110144951D01*
X74594167Y-110137994D01*
X74440245Y-110059567D01*
X74440240Y-110059565D01*
X74418414Y-110048444D01*
X74418413Y-110048443D01*
X74418412Y-110048443D01*
X74321550Y-110016970D01*
X74225074Y-109985623D01*
X74220552Y-109983770D01*
X74211362Y-109981600D01*
X74206599Y-109981226D01*
X74054957Y-109957208D01*
X74035489Y-109954124D01*
X74006290Y-109949500D01*
X74006287Y-109949500D01*
X73793713Y-109949500D01*
X73793709Y-109949500D01*
X73754776Y-109955666D01*
X73745042Y-109957208D01*
X73707654Y-109963129D01*
X73583763Y-109982752D01*
X73381582Y-110048445D01*
X73192182Y-110144949D01*
X73020210Y-110269892D01*
X72869892Y-110420210D01*
X72744949Y-110592182D01*
X72648445Y-110781580D01*
X72582752Y-110983759D01*
X72549500Y-111193707D01*
X71480129Y-111193707D01*
X71480129Y-97280247D01*
X79299500Y-97280247D01*
X79299500Y-98219752D01*
X79311131Y-98278229D01*
X79311132Y-98278230D01*
X79311132Y-98278231D01*
X79311134Y-98278233D01*
X79355447Y-98344552D01*
X79421765Y-98388864D01*
X79421767Y-98388866D01*
X79421770Y-98388868D01*
X79472612Y-98398981D01*
X79475337Y-98399703D01*
X79480249Y-98400500D01*
X81519750Y-98400500D01*
X81523873Y-98400500D01*
X81531732Y-98398116D01*
X81551381Y-98394208D01*
X81566258Y-98391249D01*
X81572354Y-98390648D01*
X81572386Y-98390639D01*
X81583311Y-98387902D01*
X81593515Y-98378654D01*
X81644552Y-98344552D01*
X81688867Y-98278231D01*
X81688867Y-98278229D01*
X81688868Y-98278229D01*
X81691030Y-98267355D01*
X81691166Y-98267090D01*
X81691249Y-98266256D01*
X81700068Y-98221917D01*
X81700500Y-98219931D01*
X81700500Y-97282295D01*
X81700500Y-97280249D01*
X81700499Y-97280247D01*
X81688868Y-97221770D01*
X81688867Y-97221769D01*
X81644552Y-97155447D01*
X81608146Y-97131121D01*
X81588385Y-97117917D01*
X81583641Y-97114024D01*
X81578230Y-97111132D01*
X81578229Y-97111131D01*
X81519752Y-97099500D01*
X81519750Y-97099500D01*
X79480249Y-97099500D01*
X79480247Y-97099500D01*
X79421770Y-97111131D01*
X79421769Y-97111131D01*
X79421768Y-97111132D01*
X79416355Y-97114024D01*
X79411614Y-97117916D01*
X79355447Y-97155446D01*
X79355446Y-97155447D01*
X79328272Y-97196114D01*
X79328270Y-97196119D01*
X79311132Y-97221769D01*
X79311131Y-97221770D01*
X79299500Y-97280247D01*
X71480129Y-97280247D01*
X71480129Y-96272094D01*
X93344237Y-96272094D01*
X93387945Y-96491822D01*
X93387946Y-96491826D01*
X93387947Y-96491829D01*
X93387950Y-96491839D01*
X93387953Y-96491847D01*
X93387958Y-96491861D01*
X93463360Y-96673900D01*
X93463365Y-96673909D01*
X93463375Y-96673926D01*
X93572861Y-96837783D01*
X93572862Y-96837784D01*
X93572867Y-96837790D01*
X93712208Y-96977131D01*
X93712214Y-96977136D01*
X93712218Y-96977139D01*
X93876079Y-97086628D01*
X93876092Y-97086635D01*
X93876094Y-97086635D01*
X93876098Y-97086638D01*
X94042219Y-97155446D01*
X94042221Y-97155447D01*
X94052556Y-97159727D01*
X94056964Y-97161812D01*
X94058169Y-97162051D01*
X94058170Y-97162052D01*
X94086133Y-97167614D01*
X94251453Y-97200500D01*
X94448543Y-97200500D01*
X94448544Y-97200500D01*
X94470592Y-97196114D01*
X94578582Y-97174632D01*
X94578583Y-97174632D01*
X94591301Y-97172102D01*
X94641835Y-97162051D01*
X94823914Y-97086632D01*
X94987782Y-96977139D01*
X95127139Y-96837782D01*
X95236632Y-96673914D01*
X95312051Y-96491835D01*
X95350500Y-96298541D01*
X95350500Y-96101459D01*
X95350500Y-96101456D01*
X95350500Y-96101453D01*
X95312112Y-95908471D01*
X95312112Y-95908472D01*
X95312052Y-95908170D01*
X95312051Y-95908169D01*
X95311811Y-95906964D01*
X95309735Y-95902573D01*
X95236635Y-95726092D01*
X95236628Y-95726079D01*
X95127139Y-95562218D01*
X95127136Y-95562214D01*
X95127131Y-95562208D01*
X94987790Y-95422867D01*
X94987784Y-95422862D01*
X94987783Y-95422861D01*
X94823926Y-95313375D01*
X94823925Y-95313374D01*
X94823920Y-95313371D01*
X94823907Y-95313364D01*
X94823900Y-95313360D01*
X94641861Y-95237958D01*
X94641847Y-95237953D01*
X94641839Y-95237950D01*
X94641829Y-95237947D01*
X94641826Y-95237946D01*
X94641822Y-95237945D01*
X94448546Y-95199500D01*
X94448543Y-95199500D01*
X94448541Y-95199500D01*
X94251459Y-95199500D01*
X94251457Y-95199500D01*
X94251453Y-95199500D01*
X94058176Y-95237945D01*
X94058170Y-95237947D01*
X94058160Y-95237950D01*
X94058155Y-95237951D01*
X94058137Y-95237958D01*
X93876098Y-95313360D01*
X93876089Y-95313365D01*
X93876072Y-95313375D01*
X93712215Y-95422861D01*
X93712214Y-95422862D01*
X93712208Y-95422867D01*
X93572867Y-95562208D01*
X93572862Y-95562214D01*
X93572861Y-95562215D01*
X93463375Y-95726072D01*
X93463365Y-95726089D01*
X93463360Y-95726098D01*
X93387958Y-95908137D01*
X93387945Y-95908176D01*
X93349500Y-96101451D01*
X93349500Y-96254174D01*
X93344237Y-96272094D01*
X71480129Y-96272094D01*
X71480129Y-87252478D01*
X84249500Y-87252478D01*
X84249500Y-87547513D01*
X84279732Y-87777136D01*
X84279732Y-87777137D01*
X84288006Y-87839990D01*
X84364359Y-88124947D01*
X84364367Y-88124970D01*
X84476972Y-88396819D01*
X84477232Y-88397457D01*
X84477256Y-88397507D01*
X84477258Y-88397510D01*
X84624761Y-88652993D01*
X84804352Y-88887040D01*
X84804358Y-88887047D01*
X85012952Y-89095641D01*
X85012959Y-89095647D01*
X85247006Y-89275238D01*
X85348242Y-89333686D01*
X85499029Y-89420744D01*
X85504244Y-89423754D01*
X85504263Y-89423765D01*
X85504849Y-89424103D01*
X85509988Y-89425847D01*
X85775048Y-89535639D01*
X86060007Y-89611993D01*
X86352494Y-89650500D01*
X86352501Y-89650500D01*
X86647499Y-89650500D01*
X86647506Y-89650500D01*
X86939993Y-89611993D01*
X87224952Y-89535639D01*
X87497507Y-89422743D01*
X87752994Y-89275238D01*
X87987042Y-89095646D01*
X88195646Y-88887042D01*
X88375238Y-88652994D01*
X88522743Y-88397507D01*
X88635639Y-88124952D01*
X88711993Y-87839993D01*
X88750500Y-87547506D01*
X88750500Y-87252494D01*
X88726750Y-87072094D01*
X93594237Y-87072094D01*
X93637945Y-87291822D01*
X93637946Y-87291826D01*
X93637947Y-87291829D01*
X93637950Y-87291839D01*
X93637953Y-87291847D01*
X93637958Y-87291861D01*
X93713360Y-87473900D01*
X93713365Y-87473909D01*
X93713375Y-87473926D01*
X93822861Y-87637783D01*
X93822862Y-87637784D01*
X93822867Y-87637790D01*
X93962208Y-87777131D01*
X93962214Y-87777136D01*
X93962218Y-87777139D01*
X94126079Y-87886628D01*
X94126092Y-87886635D01*
X94308160Y-87962049D01*
X94308165Y-87962051D01*
X94308169Y-87962051D01*
X94308170Y-87962052D01*
X94308442Y-87962106D01*
X94308469Y-87962112D01*
X94501453Y-88000500D01*
X94698543Y-88000500D01*
X94698544Y-88000500D01*
X94720216Y-87996188D01*
X94828582Y-87974632D01*
X94828583Y-87974632D01*
X94841301Y-87972102D01*
X94891835Y-87962051D01*
X95073914Y-87886632D01*
X95237782Y-87777139D01*
X95237781Y-87777139D01*
X95237785Y-87777137D01*
X95237785Y-87777136D01*
X95377136Y-87637785D01*
X95377138Y-87637783D01*
X95377139Y-87637782D01*
X95486632Y-87473914D01*
X95562051Y-87291835D01*
X95600500Y-87098541D01*
X95600500Y-86901459D01*
X95600500Y-86901456D01*
X95600500Y-86901453D01*
X95561812Y-86706964D01*
X95559728Y-86702556D01*
X95548334Y-86675048D01*
X95548326Y-86675028D01*
X95486638Y-86526098D01*
X95486633Y-86526089D01*
X95486628Y-86526079D01*
X95377139Y-86362218D01*
X95377136Y-86362214D01*
X95377131Y-86362208D01*
X95237790Y-86222867D01*
X95237784Y-86222862D01*
X95237783Y-86222861D01*
X95073926Y-86113375D01*
X95073925Y-86113374D01*
X95073920Y-86113371D01*
X95073907Y-86113364D01*
X95073900Y-86113360D01*
X94891861Y-86037958D01*
X94891847Y-86037953D01*
X94891839Y-86037950D01*
X94891829Y-86037947D01*
X94891826Y-86037946D01*
X94891822Y-86037945D01*
X94698546Y-85999500D01*
X94698543Y-85999500D01*
X94698541Y-85999500D01*
X94501459Y-85999500D01*
X94501457Y-85999500D01*
X94501453Y-85999500D01*
X94308176Y-86037945D01*
X94308170Y-86037947D01*
X94308160Y-86037950D01*
X94308155Y-86037951D01*
X94308137Y-86037958D01*
X94126098Y-86113360D01*
X94126089Y-86113365D01*
X94126072Y-86113375D01*
X93962215Y-86222861D01*
X93962214Y-86222862D01*
X93962208Y-86222867D01*
X93822867Y-86362208D01*
X93822862Y-86362214D01*
X93822861Y-86362215D01*
X93713375Y-86526072D01*
X93713365Y-86526089D01*
X93713360Y-86526098D01*
X93637958Y-86708137D01*
X93637945Y-86708176D01*
X93599500Y-86901451D01*
X93599500Y-87054174D01*
X93594237Y-87072094D01*
X88726750Y-87072094D01*
X88711993Y-86960007D01*
X88635639Y-86675048D01*
X88522743Y-86402493D01*
X88499490Y-86362218D01*
X88499484Y-86362208D01*
X88375241Y-86147010D01*
X88349424Y-86113365D01*
X88195647Y-85912959D01*
X88195641Y-85912952D01*
X87987047Y-85704358D01*
X87987040Y-85704352D01*
X87752993Y-85524761D01*
X87497510Y-85377258D01*
X87497511Y-85377258D01*
X87497507Y-85377256D01*
X87497457Y-85377232D01*
X87496819Y-85376972D01*
X87229003Y-85266037D01*
X87229002Y-85266037D01*
X87224962Y-85264363D01*
X87003833Y-85205112D01*
X86939993Y-85188007D01*
X86939987Y-85188006D01*
X86939986Y-85188006D01*
X86921758Y-85185606D01*
X86891113Y-85181571D01*
X86891112Y-85181570D01*
X86647520Y-85149500D01*
X86647513Y-85149500D01*
X86647506Y-85149500D01*
X86352494Y-85149500D01*
X86352486Y-85149500D01*
X86352478Y-85149500D01*
X86074085Y-85186152D01*
X86074085Y-85186153D01*
X86072447Y-85186368D01*
X86060007Y-85188006D01*
X85775051Y-85264359D01*
X85775028Y-85264368D01*
X85503179Y-85376972D01*
X85502549Y-85377228D01*
X85502491Y-85377256D01*
X85247005Y-85524761D01*
X85012958Y-85704353D01*
X85012951Y-85704359D01*
X85012943Y-85704366D01*
X84804366Y-85912943D01*
X84804359Y-85912951D01*
X84804353Y-85912958D01*
X84624761Y-86147005D01*
X84477256Y-86402491D01*
X84477228Y-86402549D01*
X84476972Y-86403179D01*
X84364364Y-86675038D01*
X84364362Y-86675045D01*
X84364361Y-86675048D01*
X84301992Y-86907815D01*
X84288008Y-86960001D01*
X84288006Y-86960013D01*
X84288003Y-86960035D01*
X84249500Y-87252478D01*
X71480129Y-87252478D01*
X71480129Y-83780247D01*
X79299500Y-83780247D01*
X79299500Y-84719752D01*
X79311131Y-84778229D01*
X79311132Y-84778230D01*
X79311132Y-84778231D01*
X79311134Y-84778233D01*
X79355447Y-84844552D01*
X79421765Y-84888864D01*
X79421767Y-84888866D01*
X79421770Y-84888868D01*
X79472612Y-84898981D01*
X79475337Y-84899703D01*
X79480249Y-84900500D01*
X81519750Y-84900500D01*
X81523873Y-84900500D01*
X81531732Y-84898116D01*
X81551381Y-84894208D01*
X81566258Y-84891249D01*
X81572354Y-84890648D01*
X81572386Y-84890639D01*
X81583311Y-84887902D01*
X81593515Y-84878654D01*
X81644552Y-84844552D01*
X81688867Y-84778231D01*
X81688867Y-84778229D01*
X81688868Y-84778229D01*
X81691030Y-84767355D01*
X81691166Y-84767090D01*
X81691249Y-84766256D01*
X81700068Y-84721917D01*
X81700500Y-84719931D01*
X81700500Y-83782295D01*
X81700500Y-83780249D01*
X81700499Y-83780247D01*
X81688868Y-83721770D01*
X81688867Y-83721769D01*
X81644552Y-83655447D01*
X81608146Y-83631121D01*
X81588385Y-83617917D01*
X81583641Y-83614024D01*
X81578230Y-83611132D01*
X81578229Y-83611131D01*
X81519752Y-83599500D01*
X81519750Y-83599500D01*
X79480249Y-83599500D01*
X79480247Y-83599500D01*
X79421770Y-83611131D01*
X79421769Y-83611131D01*
X79421768Y-83611132D01*
X79416355Y-83614024D01*
X79411614Y-83617916D01*
X79355447Y-83655446D01*
X79355446Y-83655447D01*
X79328272Y-83696114D01*
X79328270Y-83696119D01*
X79311132Y-83721769D01*
X79311131Y-83721770D01*
X79299500Y-83780247D01*
X71480129Y-83780247D01*
X71480129Y-76093707D01*
X72549500Y-76093707D01*
X72549500Y-76306291D01*
X72582752Y-76516239D01*
X72648445Y-76718418D01*
X72741532Y-76901111D01*
X72744951Y-76907820D01*
X72869890Y-77079786D01*
X72869892Y-77079788D01*
X73020216Y-77230112D01*
X73192169Y-77355042D01*
X73192177Y-77355047D01*
X73192179Y-77355048D01*
X73192181Y-77355049D01*
X73192182Y-77355050D01*
X73192200Y-77355060D01*
X73192442Y-77355182D01*
X73381588Y-77451557D01*
X73583757Y-77517246D01*
X73793713Y-77550500D01*
X73793714Y-77550500D01*
X74006286Y-77550500D01*
X74006287Y-77550500D01*
X74216243Y-77517246D01*
X74418412Y-77451557D01*
X74607816Y-77355051D01*
X74629789Y-77339086D01*
X74779786Y-77230109D01*
X74779786Y-77230108D01*
X74779844Y-77230066D01*
X74780605Y-77229290D01*
X74930104Y-77079792D01*
X74930106Y-77079788D01*
X74930109Y-77079786D01*
X75055048Y-76907820D01*
X75055047Y-76907820D01*
X75055051Y-76907816D01*
X75055053Y-76907810D01*
X75075445Y-76879744D01*
X75083730Y-76851529D01*
X75151557Y-76718412D01*
X75217246Y-76516243D01*
X75250500Y-76306287D01*
X75250500Y-76093713D01*
X75217246Y-75883757D01*
X75151557Y-75681588D01*
X75055051Y-75492184D01*
X75055049Y-75492181D01*
X75055048Y-75492179D01*
X75054702Y-75491703D01*
X75054700Y-75491699D01*
X74930112Y-75320216D01*
X74779788Y-75169892D01*
X74779786Y-75169890D01*
X74607820Y-75044951D01*
X74594167Y-75037994D01*
X74440245Y-74959567D01*
X74440240Y-74959565D01*
X74418414Y-74948444D01*
X74418413Y-74948443D01*
X74418412Y-74948443D01*
X74321550Y-74916970D01*
X74225074Y-74885623D01*
X74220552Y-74883770D01*
X74211362Y-74881600D01*
X74206599Y-74881226D01*
X74054957Y-74857208D01*
X74035489Y-74854124D01*
X74006290Y-74849500D01*
X74006287Y-74849500D01*
X73793713Y-74849500D01*
X73793709Y-74849500D01*
X73754776Y-74855666D01*
X73745042Y-74857208D01*
X73707654Y-74863129D01*
X73583763Y-74882752D01*
X73381582Y-74948445D01*
X73192182Y-75044949D01*
X73020210Y-75169892D01*
X72869892Y-75320210D01*
X72744949Y-75492182D01*
X72648445Y-75681580D01*
X72582752Y-75883759D01*
X72549500Y-76093707D01*
X71480129Y-76093707D01*
X71480129Y-68780247D01*
X79299500Y-68780247D01*
X79299500Y-69719752D01*
X79311131Y-69778229D01*
X79311132Y-69778230D01*
X79311132Y-69778231D01*
X79311134Y-69778233D01*
X79355447Y-69844552D01*
X79421765Y-69888864D01*
X79421767Y-69888866D01*
X79421770Y-69888868D01*
X79472612Y-69898981D01*
X79475337Y-69899703D01*
X79480249Y-69900500D01*
X81519750Y-69900500D01*
X81523873Y-69900500D01*
X81531732Y-69898116D01*
X81551381Y-69894208D01*
X81566258Y-69891249D01*
X81572354Y-69890648D01*
X81572386Y-69890639D01*
X81583311Y-69887902D01*
X81593515Y-69878654D01*
X81644552Y-69844552D01*
X81688867Y-69778231D01*
X81688867Y-69778229D01*
X81688868Y-69778229D01*
X81691030Y-69767355D01*
X81691166Y-69767090D01*
X81691249Y-69766256D01*
X81700068Y-69721917D01*
X81700500Y-69719931D01*
X81700500Y-68782295D01*
X81700500Y-68780249D01*
X81700499Y-68780247D01*
X81688868Y-68721770D01*
X81688867Y-68721769D01*
X81644552Y-68655447D01*
X81608146Y-68631121D01*
X81588385Y-68617917D01*
X81583641Y-68614024D01*
X81578230Y-68611132D01*
X81578229Y-68611131D01*
X81519752Y-68599500D01*
X81519750Y-68599500D01*
X79480249Y-68599500D01*
X79480247Y-68599500D01*
X79421770Y-68611131D01*
X79421769Y-68611131D01*
X79421768Y-68611132D01*
X79416355Y-68614024D01*
X79411614Y-68617916D01*
X79355447Y-68655446D01*
X79355446Y-68655447D01*
X79328272Y-68696114D01*
X79328270Y-68696119D01*
X79311132Y-68721769D01*
X79311131Y-68721770D01*
X79299500Y-68780247D01*
X71480129Y-68780247D01*
X71480129Y-62172094D01*
X93644237Y-62172094D01*
X93687945Y-62391822D01*
X93687946Y-62391826D01*
X93687947Y-62391829D01*
X93687950Y-62391839D01*
X93687953Y-62391847D01*
X93687958Y-62391861D01*
X93763360Y-62573900D01*
X93763365Y-62573909D01*
X93763375Y-62573926D01*
X93872861Y-62737783D01*
X93872862Y-62737784D01*
X93872867Y-62737790D01*
X94012208Y-62877131D01*
X94012214Y-62877136D01*
X94012218Y-62877139D01*
X94176079Y-62986628D01*
X94176092Y-62986635D01*
X94358160Y-63062049D01*
X94358165Y-63062051D01*
X94358169Y-63062051D01*
X94358170Y-63062052D01*
X94358442Y-63062106D01*
X94358469Y-63062112D01*
X94551453Y-63100500D01*
X94748543Y-63100500D01*
X94748544Y-63100500D01*
X94770216Y-63096188D01*
X94878582Y-63074632D01*
X94878583Y-63074632D01*
X94891301Y-63072102D01*
X94941835Y-63062051D01*
X95123914Y-62986632D01*
X95287782Y-62877139D01*
X95427139Y-62737782D01*
X95536632Y-62573914D01*
X95612051Y-62391835D01*
X95650500Y-62198541D01*
X95650500Y-62001459D01*
X95650500Y-62001456D01*
X95650500Y-62001453D01*
X95612112Y-61808471D01*
X95612112Y-61808472D01*
X95612052Y-61808170D01*
X95612051Y-61808169D01*
X95611811Y-61806964D01*
X95609735Y-61802573D01*
X95536635Y-61626092D01*
X95536628Y-61626079D01*
X95427139Y-61462218D01*
X95427136Y-61462214D01*
X95427131Y-61462208D01*
X95287790Y-61322867D01*
X95287784Y-61322862D01*
X95287783Y-61322861D01*
X95123926Y-61213375D01*
X95123925Y-61213374D01*
X95123920Y-61213371D01*
X95123907Y-61213364D01*
X95123900Y-61213360D01*
X94941861Y-61137958D01*
X94941847Y-61137953D01*
X94941839Y-61137950D01*
X94941829Y-61137947D01*
X94941826Y-61137946D01*
X94941822Y-61137945D01*
X94748546Y-61099500D01*
X94748543Y-61099500D01*
X94748541Y-61099500D01*
X94551459Y-61099500D01*
X94551457Y-61099500D01*
X94551453Y-61099500D01*
X94358176Y-61137945D01*
X94358170Y-61137947D01*
X94358160Y-61137950D01*
X94358155Y-61137951D01*
X94358137Y-61137958D01*
X94176098Y-61213360D01*
X94176089Y-61213365D01*
X94176072Y-61213375D01*
X94012215Y-61322861D01*
X94012214Y-61322862D01*
X94012208Y-61322867D01*
X93872867Y-61462208D01*
X93872862Y-61462214D01*
X93872861Y-61462215D01*
X93763375Y-61626072D01*
X93763365Y-61626089D01*
X93763360Y-61626098D01*
X93687958Y-61808137D01*
X93687945Y-61808176D01*
X93649500Y-62001451D01*
X93649500Y-62154174D01*
X93644237Y-62172094D01*
X71480129Y-62172094D01*
X71480129Y-58752478D01*
X84249500Y-58752478D01*
X84249500Y-59047520D01*
X84281571Y-59291111D01*
X84288042Y-59340257D01*
X84288579Y-59342127D01*
X84364359Y-59624947D01*
X84364367Y-59624970D01*
X84476972Y-59896819D01*
X84477232Y-59897457D01*
X84477256Y-59897507D01*
X84477258Y-59897510D01*
X84624761Y-60152993D01*
X84804352Y-60387040D01*
X84804358Y-60387047D01*
X85012952Y-60595641D01*
X85012959Y-60595647D01*
X85247006Y-60775238D01*
X85348242Y-60833686D01*
X85499029Y-60920744D01*
X85504244Y-60923754D01*
X85504263Y-60923765D01*
X85504849Y-60924103D01*
X85509988Y-60925847D01*
X85775048Y-61035639D01*
X86060007Y-61111993D01*
X86352494Y-61150500D01*
X86352501Y-61150500D01*
X86647499Y-61150500D01*
X86647506Y-61150500D01*
X86939993Y-61111993D01*
X87224952Y-61035639D01*
X87497507Y-60922743D01*
X87752994Y-60775238D01*
X87987042Y-60595646D01*
X88195646Y-60387042D01*
X88375238Y-60152994D01*
X88522743Y-59897507D01*
X88635639Y-59624952D01*
X88711993Y-59339993D01*
X88750500Y-59047506D01*
X88750500Y-58752494D01*
X88711993Y-58460007D01*
X88635639Y-58175048D01*
X88522743Y-57902493D01*
X88522741Y-57902489D01*
X88522739Y-57902485D01*
X88444823Y-57767532D01*
X88444822Y-57767531D01*
X88425131Y-57733425D01*
X88375238Y-57647006D01*
X88195647Y-57412959D01*
X88195641Y-57412952D01*
X87987047Y-57204358D01*
X87987040Y-57204352D01*
X87752993Y-57024761D01*
X87497510Y-56877258D01*
X87497511Y-56877258D01*
X87497507Y-56877256D01*
X87497457Y-56877232D01*
X87496819Y-56876972D01*
X87229003Y-56766037D01*
X87229002Y-56766037D01*
X87224962Y-56764363D01*
X87003833Y-56705112D01*
X86939993Y-56688007D01*
X86939987Y-56688006D01*
X86939986Y-56688006D01*
X86921758Y-56685606D01*
X86891113Y-56681571D01*
X86891112Y-56681570D01*
X86647520Y-56649500D01*
X86647513Y-56649500D01*
X86647506Y-56649500D01*
X86352494Y-56649500D01*
X86352486Y-56649500D01*
X86352478Y-56649500D01*
X86074085Y-56686152D01*
X86074085Y-56686153D01*
X86072447Y-56686368D01*
X86060007Y-56688006D01*
X85775051Y-56764359D01*
X85775028Y-56764368D01*
X85503179Y-56876972D01*
X85502549Y-56877228D01*
X85502491Y-56877256D01*
X85247005Y-57024761D01*
X85012958Y-57204353D01*
X85012951Y-57204359D01*
X85012943Y-57204366D01*
X84804366Y-57412943D01*
X84804359Y-57412951D01*
X84804353Y-57412958D01*
X84624761Y-57647005D01*
X84477256Y-57902491D01*
X84477228Y-57902549D01*
X84476972Y-57903179D01*
X84364368Y-58175028D01*
X84364359Y-58175051D01*
X84288008Y-58460004D01*
X84288008Y-58460005D01*
X84288006Y-58460012D01*
X84288003Y-58460035D01*
X84249500Y-58752478D01*
X71480129Y-58752478D01*
X71480129Y-55280247D01*
X79299500Y-55280247D01*
X79299500Y-56219752D01*
X79311131Y-56278229D01*
X79311132Y-56278230D01*
X79311132Y-56278231D01*
X79311134Y-56278233D01*
X79355447Y-56344552D01*
X79421765Y-56388864D01*
X79421767Y-56388866D01*
X79421770Y-56388868D01*
X79472612Y-56398981D01*
X79475337Y-56399703D01*
X79480249Y-56400500D01*
X81519750Y-56400500D01*
X81523873Y-56400500D01*
X81531732Y-56398116D01*
X81551381Y-56394208D01*
X81566258Y-56391249D01*
X81572354Y-56390648D01*
X81572386Y-56390639D01*
X81583311Y-56387902D01*
X81593515Y-56378654D01*
X81644552Y-56344552D01*
X81688867Y-56278231D01*
X81688867Y-56278229D01*
X81688868Y-56278229D01*
X81691030Y-56267355D01*
X81691166Y-56267090D01*
X81691249Y-56266256D01*
X81693333Y-56255782D01*
X81700072Y-56221896D01*
X81700500Y-56219931D01*
X81700500Y-55282295D01*
X81700500Y-55280249D01*
X81700499Y-55280247D01*
X81688868Y-55221770D01*
X81688867Y-55221769D01*
X81644552Y-55155447D01*
X81608146Y-55131121D01*
X81588385Y-55117917D01*
X81583641Y-55114024D01*
X81578230Y-55111132D01*
X81578229Y-55111131D01*
X81519752Y-55099500D01*
X81519750Y-55099500D01*
X79480249Y-55099500D01*
X79480247Y-55099500D01*
X79421770Y-55111131D01*
X79421769Y-55111131D01*
X79421768Y-55111132D01*
X79416355Y-55114024D01*
X79411614Y-55117916D01*
X79355447Y-55155446D01*
X79355446Y-55155447D01*
X79328272Y-55196114D01*
X79328270Y-55196119D01*
X79311132Y-55221769D01*
X79311131Y-55221770D01*
X79299500Y-55280247D01*
X71480129Y-55280247D01*
X71480129Y-53172094D01*
X93694237Y-53172094D01*
X93737945Y-53391822D01*
X93737946Y-53391826D01*
X93737947Y-53391829D01*
X93737950Y-53391839D01*
X93737953Y-53391847D01*
X93737958Y-53391861D01*
X93813360Y-53573900D01*
X93813365Y-53573909D01*
X93813375Y-53573926D01*
X93922861Y-53737783D01*
X93922862Y-53737784D01*
X93922867Y-53737790D01*
X94062208Y-53877131D01*
X94062214Y-53877136D01*
X94062218Y-53877139D01*
X94226079Y-53986628D01*
X94226092Y-53986635D01*
X94408160Y-54062049D01*
X94408165Y-54062051D01*
X94408169Y-54062051D01*
X94408170Y-54062052D01*
X94408442Y-54062106D01*
X94408469Y-54062112D01*
X94601453Y-54100500D01*
X94798543Y-54100500D01*
X94798544Y-54100500D01*
X94820216Y-54096188D01*
X94928582Y-54074632D01*
X94928583Y-54074632D01*
X94941301Y-54072102D01*
X94991835Y-54062051D01*
X95173914Y-53986632D01*
X95337782Y-53877139D01*
X95477139Y-53737782D01*
X95586632Y-53573914D01*
X95662051Y-53391835D01*
X95700500Y-53198541D01*
X95700500Y-53001459D01*
X95700500Y-53001456D01*
X95700500Y-53001453D01*
X95662112Y-52808471D01*
X95662112Y-52808472D01*
X95662052Y-52808170D01*
X95662051Y-52808169D01*
X95661811Y-52806964D01*
X95659735Y-52802573D01*
X95586635Y-52626092D01*
X95586628Y-52626079D01*
X95477139Y-52462218D01*
X95477136Y-52462214D01*
X95477131Y-52462208D01*
X95337790Y-52322867D01*
X95337784Y-52322862D01*
X95337783Y-52322861D01*
X95173926Y-52213375D01*
X95173925Y-52213374D01*
X95173920Y-52213371D01*
X95173907Y-52213364D01*
X95173900Y-52213360D01*
X94991861Y-52137958D01*
X94991847Y-52137953D01*
X94991839Y-52137950D01*
X94991829Y-52137947D01*
X94991826Y-52137946D01*
X94991822Y-52137945D01*
X94798546Y-52099500D01*
X94798543Y-52099500D01*
X94798541Y-52099500D01*
X94601459Y-52099500D01*
X94601457Y-52099500D01*
X94601453Y-52099500D01*
X94408176Y-52137945D01*
X94408170Y-52137947D01*
X94408160Y-52137950D01*
X94408155Y-52137951D01*
X94408137Y-52137958D01*
X94226098Y-52213360D01*
X94226089Y-52213365D01*
X94226072Y-52213375D01*
X94062215Y-52322861D01*
X94062214Y-52322862D01*
X94062208Y-52322867D01*
X93922867Y-52462208D01*
X93922862Y-52462214D01*
X93922861Y-52462215D01*
X93813375Y-52626072D01*
X93813365Y-52626089D01*
X93813360Y-52626098D01*
X93737958Y-52808137D01*
X93737945Y-52808176D01*
X93699500Y-53001451D01*
X93699500Y-53154174D01*
X93694237Y-53172094D01*
X71480129Y-53172094D01*
X71480129Y-42093713D01*
X72599500Y-42093713D01*
X72599500Y-42098381D01*
X72599500Y-42306286D01*
X72632754Y-42516244D01*
X72632754Y-42516247D01*
X72694999Y-42707814D01*
X72698444Y-42718415D01*
X72698445Y-42718416D01*
X72794951Y-42907820D01*
X72919890Y-43079786D01*
X72919892Y-43079788D01*
X73070216Y-43230112D01*
X73242169Y-43355042D01*
X73242177Y-43355047D01*
X73242179Y-43355048D01*
X73242181Y-43355049D01*
X73242182Y-43355050D01*
X73242200Y-43355060D01*
X73242442Y-43355182D01*
X73431588Y-43451557D01*
X73633757Y-43517246D01*
X73843713Y-43550500D01*
X73843714Y-43550500D01*
X74056286Y-43550500D01*
X74056287Y-43550500D01*
X74266243Y-43517246D01*
X74468412Y-43451557D01*
X74657816Y-43355051D01*
X74679789Y-43339086D01*
X74829786Y-43230109D01*
X74829786Y-43230108D01*
X74829844Y-43230066D01*
X74830605Y-43229290D01*
X74980104Y-43079792D01*
X74980106Y-43079788D01*
X74980109Y-43079786D01*
X75105048Y-42907820D01*
X75105047Y-42907820D01*
X75105051Y-42907816D01*
X75105053Y-42907810D01*
X75125445Y-42879744D01*
X75133730Y-42851529D01*
X75201557Y-42718412D01*
X75267246Y-42516243D01*
X75300500Y-42306287D01*
X75300500Y-42093713D01*
X75268823Y-41893713D01*
X93749500Y-41893713D01*
X93749500Y-42106287D01*
X93782754Y-42316243D01*
X93847738Y-42516243D01*
X93848444Y-42518414D01*
X93944951Y-42707820D01*
X94069890Y-42879786D01*
X94069892Y-42879788D01*
X94220216Y-43030112D01*
X94392169Y-43155042D01*
X94392177Y-43155047D01*
X94392179Y-43155048D01*
X94392181Y-43155049D01*
X94392182Y-43155050D01*
X94392200Y-43155060D01*
X94392442Y-43155182D01*
X94581588Y-43251557D01*
X94783757Y-43317246D01*
X94993713Y-43350500D01*
X94993714Y-43350500D01*
X95206286Y-43350500D01*
X95206287Y-43350500D01*
X95416243Y-43317246D01*
X95618412Y-43251557D01*
X95807816Y-43155051D01*
X95911402Y-43079792D01*
X95979786Y-43030109D01*
X95979788Y-43030106D01*
X95979792Y-43030104D01*
X95979795Y-43030100D01*
X95979848Y-43030062D01*
X95980605Y-43029290D01*
X96130104Y-42879792D01*
X96130106Y-42879788D01*
X96130109Y-42879786D01*
X96255048Y-42707820D01*
X96255047Y-42707820D01*
X96255051Y-42707816D01*
X96255053Y-42707810D01*
X96275445Y-42679744D01*
X96283730Y-42651529D01*
X96351557Y-42518412D01*
X96417246Y-42316243D01*
X96450500Y-42106287D01*
X96450500Y-41893713D01*
X96448923Y-41883759D01*
X96417246Y-41683760D01*
X96417246Y-41683759D01*
X96417246Y-41683757D01*
X96351557Y-41481588D01*
X96255051Y-41292184D01*
X96255049Y-41292181D01*
X96255048Y-41292179D01*
X96254702Y-41291703D01*
X96254700Y-41291699D01*
X96130112Y-41120216D01*
X95979788Y-40969892D01*
X95979786Y-40969890D01*
X95807820Y-40844951D01*
X95794167Y-40837994D01*
X95640245Y-40759567D01*
X95640240Y-40759565D01*
X95618414Y-40748444D01*
X95618413Y-40748443D01*
X95618412Y-40748443D01*
X95521550Y-40716970D01*
X95425074Y-40685623D01*
X95420552Y-40683770D01*
X95411362Y-40681600D01*
X95406599Y-40681226D01*
X95361109Y-40674021D01*
X95254957Y-40657208D01*
X95226897Y-40652764D01*
X95206290Y-40649500D01*
X95206287Y-40649500D01*
X94993713Y-40649500D01*
X94993709Y-40649500D01*
X94954776Y-40655666D01*
X94945042Y-40657208D01*
X94919314Y-40661283D01*
X94783763Y-40682752D01*
X94581582Y-40748445D01*
X94392182Y-40844949D01*
X94392179Y-40844950D01*
X94392179Y-40844951D01*
X94342250Y-40881226D01*
X94220210Y-40969892D01*
X94069892Y-41120210D01*
X93944949Y-41292182D01*
X93848445Y-41481580D01*
X93782753Y-41683759D01*
X93751377Y-41881858D01*
X93751373Y-41881882D01*
X93751077Y-41883757D01*
X93749500Y-41893713D01*
X75268823Y-41893713D01*
X75267246Y-41883757D01*
X75201557Y-41681588D01*
X75105051Y-41492184D01*
X75105049Y-41492181D01*
X75105048Y-41492179D01*
X75104702Y-41491703D01*
X75104700Y-41491699D01*
X74980112Y-41320216D01*
X74829788Y-41169892D01*
X74829786Y-41169890D01*
X74657820Y-41044951D01*
X74644167Y-41037994D01*
X74490245Y-40959567D01*
X74490240Y-40959565D01*
X74468414Y-40948444D01*
X74468413Y-40948443D01*
X74468412Y-40948443D01*
X74350734Y-40910207D01*
X74275074Y-40885623D01*
X74270552Y-40883770D01*
X74261362Y-40881600D01*
X74256599Y-40881226D01*
X74104957Y-40857208D01*
X74085489Y-40854124D01*
X74056290Y-40849500D01*
X74056287Y-40849500D01*
X73843713Y-40849500D01*
X73843709Y-40849500D01*
X73804776Y-40855666D01*
X73795042Y-40857208D01*
X73757654Y-40863129D01*
X73633763Y-40882752D01*
X73431582Y-40948445D01*
X73242182Y-41044949D01*
X73070210Y-41169892D01*
X72919892Y-41320210D01*
X72794949Y-41492182D01*
X72698445Y-41681580D01*
X72697737Y-41683760D01*
X72632753Y-41883760D01*
X72631177Y-41893713D01*
X72599500Y-42093713D01*
X71480129Y-42093713D01*
X71480129Y-41406642D01*
X71480208Y-41402221D01*
X71480366Y-41397792D01*
X71480603Y-41393368D01*
X71485835Y-41320210D01*
X71497188Y-41161462D01*
X71498134Y-41152666D01*
X71499392Y-41143920D01*
X71500963Y-41135216D01*
X71504228Y-41120210D01*
X71548969Y-40914535D01*
X71551154Y-40905974D01*
X71551702Y-40904107D01*
X71553641Y-40897501D01*
X71556427Y-40889127D01*
X71635377Y-40677454D01*
X71638746Y-40669321D01*
X71642430Y-40661256D01*
X71646366Y-40653393D01*
X71754628Y-40455126D01*
X71759121Y-40447554D01*
X71763923Y-40440082D01*
X71768933Y-40432866D01*
X71904305Y-40252030D01*
X71909843Y-40245160D01*
X71915626Y-40238485D01*
X71921650Y-40232013D01*
X72081372Y-40072291D01*
X72087844Y-40066267D01*
X72094519Y-40060484D01*
X72101389Y-40054946D01*
X72282225Y-39919574D01*
X72289441Y-39914564D01*
X72296913Y-39909762D01*
X72304485Y-39905269D01*
X72502752Y-39797007D01*
X72510615Y-39793071D01*
X72518680Y-39789387D01*
X72526813Y-39786018D01*
X72738486Y-39707068D01*
X72746860Y-39704282D01*
X72755333Y-39701795D01*
X72763894Y-39699610D01*
X72984581Y-39651602D01*
X72993279Y-39650033D01*
X72995742Y-39649678D01*
X73002032Y-39648774D01*
X73010820Y-39647829D01*
X73242742Y-39631243D01*
X73247150Y-39631007D01*
X73247521Y-39630993D01*
X73251581Y-39630849D01*
X73256002Y-39630770D01*
X98525000Y-39630770D01*
X98525000Y-51838697D01*
G37*
%TD.AperFunction*%
%TA.AperFunction,Conductor*%
%TO.N,GND*%
G36*
X166647349Y-39630771D02*
G01*
X166657575Y-39630770D01*
X166657579Y-39630771D01*
X166662261Y-39630770D01*
X166672004Y-39630770D01*
X166672005Y-39630771D01*
X166693292Y-39630770D01*
X166697320Y-39630835D01*
X166701357Y-39630967D01*
X166705418Y-39631165D01*
X166928518Y-39645782D01*
X166936552Y-39646574D01*
X166944609Y-39647634D01*
X166952571Y-39648949D01*
X167147245Y-39687667D01*
X167165867Y-39691370D01*
X167173742Y-39693206D01*
X167181584Y-39695307D01*
X167189333Y-39697658D01*
X167395249Y-39767553D01*
X167402816Y-39770401D01*
X167410328Y-39773513D01*
X167417691Y-39776849D01*
X167608221Y-39870805D01*
X167612705Y-39873016D01*
X167619854Y-39876837D01*
X167626884Y-39880895D01*
X167633760Y-39885169D01*
X167814574Y-40005982D01*
X167821153Y-40010698D01*
X167827592Y-40015639D01*
X167833863Y-40020785D01*
X167997333Y-40164144D01*
X168003255Y-40169691D01*
X168008977Y-40175413D01*
X168014524Y-40181335D01*
X168157883Y-40344805D01*
X168163032Y-40351080D01*
X168167968Y-40357513D01*
X168172694Y-40364107D01*
X168293493Y-40544899D01*
X168297782Y-40551798D01*
X168301825Y-40558802D01*
X168305646Y-40565950D01*
X168401813Y-40760963D01*
X168405161Y-40768353D01*
X168408261Y-40775837D01*
X168411120Y-40783433D01*
X168481006Y-40989322D01*
X168483362Y-40997090D01*
X168485460Y-41004921D01*
X168487302Y-41012822D01*
X168529715Y-41226075D01*
X168531037Y-41234081D01*
X168532092Y-41242096D01*
X168532887Y-41250172D01*
X168547501Y-41473237D01*
X168547700Y-41477310D01*
X168547832Y-41481366D01*
X168547898Y-41485399D01*
X168547898Y-41538087D01*
X168547900Y-41538124D01*
X168547900Y-41742903D01*
X168544068Y-41755952D01*
X168542875Y-41777844D01*
X168540917Y-41784511D01*
X168531279Y-41799505D01*
X168528215Y-41809942D01*
X168519992Y-41817066D01*
X168503140Y-41843287D01*
X168439582Y-41872309D01*
X168370424Y-41862362D01*
X168339543Y-41835987D01*
X168327768Y-41828973D01*
X168325127Y-41823674D01*
X168318597Y-41818097D01*
X168315324Y-41813161D01*
X168300738Y-41782952D01*
X168299078Y-41777844D01*
X168251557Y-41631588D01*
X168155051Y-41442184D01*
X168155049Y-41442181D01*
X168155048Y-41442179D01*
X168154702Y-41441703D01*
X168154700Y-41441699D01*
X168030112Y-41270216D01*
X167879788Y-41119892D01*
X167879786Y-41119890D01*
X167707820Y-40994951D01*
X167694167Y-40987994D01*
X167540245Y-40909567D01*
X167540240Y-40909565D01*
X167518414Y-40898444D01*
X167518413Y-40898443D01*
X167518412Y-40898443D01*
X167421550Y-40866970D01*
X167325074Y-40835623D01*
X167320552Y-40833770D01*
X167311362Y-40831600D01*
X167306599Y-40831226D01*
X167224262Y-40818185D01*
X167154957Y-40807208D01*
X167135489Y-40804124D01*
X167106290Y-40799500D01*
X167106287Y-40799500D01*
X166893713Y-40799500D01*
X166893709Y-40799500D01*
X166854776Y-40805666D01*
X166845042Y-40807208D01*
X166807654Y-40813129D01*
X166683763Y-40832752D01*
X166481582Y-40898445D01*
X166292182Y-40994949D01*
X166292179Y-40994950D01*
X166292179Y-40994951D01*
X166206196Y-41057420D01*
X166120210Y-41119892D01*
X165969892Y-41270210D01*
X165844949Y-41442182D01*
X165748445Y-41631582D01*
X165682752Y-41833763D01*
X165650909Y-42034808D01*
X165650910Y-42034809D01*
X165649500Y-42043715D01*
X165649500Y-42256291D01*
X165659534Y-42319643D01*
X165679115Y-42443272D01*
X165682752Y-42466236D01*
X165682753Y-42466239D01*
X165682754Y-42466243D01*
X165694030Y-42500948D01*
X165701182Y-42522958D01*
X165748445Y-42668418D01*
X165841532Y-42851111D01*
X165844951Y-42857820D01*
X165969890Y-43029786D01*
X165969892Y-43029788D01*
X166120216Y-43180112D01*
X166292169Y-43305042D01*
X166292177Y-43305047D01*
X166292179Y-43305048D01*
X166292181Y-43305049D01*
X166292182Y-43305050D01*
X166292200Y-43305060D01*
X166292442Y-43305182D01*
X166481588Y-43401557D01*
X166683757Y-43467246D01*
X166893713Y-43500500D01*
X166893714Y-43500500D01*
X167106286Y-43500500D01*
X167106287Y-43500500D01*
X167316243Y-43467246D01*
X167518412Y-43401557D01*
X167707816Y-43305051D01*
X167798040Y-43239500D01*
X167879786Y-43180109D01*
X167879787Y-43180106D01*
X167879790Y-43180105D01*
X167879792Y-43180104D01*
X167879793Y-43180102D01*
X167879844Y-43180066D01*
X167880605Y-43179290D01*
X168030104Y-43029792D01*
X168030106Y-43029788D01*
X168030109Y-43029786D01*
X168155048Y-42857820D01*
X168155047Y-42857820D01*
X168155051Y-42857816D01*
X168155053Y-42857810D01*
X168175445Y-42829744D01*
X168183730Y-42801529D01*
X168251554Y-42668418D01*
X168251555Y-42668417D01*
X168251557Y-42668412D01*
X168300461Y-42517898D01*
X168308116Y-42506703D01*
X168316032Y-42486229D01*
X168319957Y-42480490D01*
X168333755Y-42469208D01*
X168339897Y-42460226D01*
X168349922Y-42455989D01*
X168374045Y-42436265D01*
X168443460Y-42428302D01*
X168506160Y-42459131D01*
X168527426Y-42493834D01*
X168536450Y-42504150D01*
X168537315Y-42509972D01*
X168541775Y-42517250D01*
X168543363Y-42522958D01*
X168547900Y-42556193D01*
X168547900Y-111945407D01*
X168547859Y-111948580D01*
X168547814Y-111950338D01*
X168545402Y-111967020D01*
X168545402Y-111993794D01*
X168545337Y-111997818D01*
X168545200Y-112002037D01*
X168544999Y-112006123D01*
X168529960Y-112235568D01*
X168529165Y-112243644D01*
X168528107Y-112251680D01*
X168526785Y-112259685D01*
X168483112Y-112479246D01*
X168481268Y-112487154D01*
X168479165Y-112495001D01*
X168476811Y-112502761D01*
X168404850Y-112714751D01*
X168401998Y-112722331D01*
X168398897Y-112729820D01*
X168395542Y-112737225D01*
X168296518Y-112938025D01*
X168292694Y-112945180D01*
X168288644Y-112952195D01*
X168284358Y-112959087D01*
X168159987Y-113145221D01*
X168155270Y-113151805D01*
X168150325Y-113158251D01*
X168145168Y-113164535D01*
X167997551Y-113332858D01*
X167992004Y-113338780D01*
X167986282Y-113344502D01*
X167980360Y-113350049D01*
X167812037Y-113497666D01*
X167805753Y-113502823D01*
X167799307Y-113507768D01*
X167792723Y-113512485D01*
X167698202Y-113575641D01*
X167606579Y-113636861D01*
X167599707Y-113641135D01*
X167592682Y-113645192D01*
X167585527Y-113649016D01*
X167384727Y-113748040D01*
X167377322Y-113751395D01*
X167369833Y-113754496D01*
X167362253Y-113757348D01*
X167150263Y-113829309D01*
X167142503Y-113831663D01*
X167134656Y-113833766D01*
X167126748Y-113835610D01*
X166907187Y-113879283D01*
X166899182Y-113880605D01*
X166891146Y-113881663D01*
X166883070Y-113882458D01*
X166653570Y-113897501D01*
X166649533Y-113897699D01*
X166645469Y-113897833D01*
X166641413Y-113897900D01*
X111941300Y-113897900D01*
X111906359Y-113892875D01*
X111891360Y-113888470D01*
X111832607Y-113850719D01*
X111831415Y-113849344D01*
X111803948Y-113794501D01*
X111802305Y-113786955D01*
X111799466Y-113760603D01*
X111799464Y-113749836D01*
X111792680Y-85272648D01*
X110906313Y-84259288D01*
X110906312Y-84259287D01*
X105971978Y-84253182D01*
X105971976Y-84253181D01*
X105971976Y-84253182D01*
X105937048Y-84248115D01*
X105911789Y-84240664D01*
X105859188Y-84209409D01*
X105263484Y-83613659D01*
X105183939Y-83534108D01*
X111499500Y-83534108D01*
X111499500Y-83665892D01*
X111509144Y-83701886D01*
X111509146Y-83701892D01*
X111510946Y-83708608D01*
X111533608Y-83793187D01*
X111564406Y-83846530D01*
X111569055Y-83854582D01*
X111599497Y-83907310D01*
X111599499Y-83907312D01*
X111599500Y-83907314D01*
X111692686Y-84000500D01*
X111806814Y-84066392D01*
X111934108Y-84100500D01*
X111934110Y-84100500D01*
X112006337Y-84100500D01*
X112041269Y-84105521D01*
X112066513Y-84112934D01*
X112119259Y-84144230D01*
X112850573Y-84875544D01*
X112871723Y-84903796D01*
X112884331Y-84926885D01*
X112899500Y-84986314D01*
X112899500Y-109639563D01*
X112913150Y-109690509D01*
X112913151Y-109690509D01*
X112913152Y-109690513D01*
X112919979Y-109715990D01*
X112919980Y-109715991D01*
X112919981Y-109715995D01*
X112920003Y-109716048D01*
X112920489Y-109716873D01*
X112957689Y-109781307D01*
X112959074Y-109783882D01*
X112959458Y-109784429D01*
X114715492Y-111540463D01*
X114716172Y-111540953D01*
X114718667Y-111542295D01*
X114784004Y-111580017D01*
X114784011Y-111580021D01*
X114860438Y-111600500D01*
X114939562Y-111600500D01*
X128173494Y-111600500D01*
X128208426Y-111605521D01*
X128233670Y-111612934D01*
X128286416Y-111644230D01*
X128342686Y-111700500D01*
X128456814Y-111766392D01*
X128584108Y-111800500D01*
X128584110Y-111800500D01*
X128715890Y-111800500D01*
X128715892Y-111800500D01*
X128843186Y-111766392D01*
X128957314Y-111700500D01*
X129050500Y-111607314D01*
X129116392Y-111493186D01*
X129150500Y-111365892D01*
X129150500Y-111234108D01*
X129126279Y-111143713D01*
X156824500Y-111143713D01*
X156824500Y-111356287D01*
X156857754Y-111566243D01*
X156922786Y-111766391D01*
X156922792Y-111766408D01*
X156922791Y-111766408D01*
X156923443Y-111768411D01*
X156923444Y-111768414D01*
X156939792Y-111800499D01*
X157017655Y-111953315D01*
X157019951Y-111957820D01*
X157144890Y-112129786D01*
X157144892Y-112129788D01*
X157295216Y-112280112D01*
X157467169Y-112405042D01*
X157467177Y-112405047D01*
X157467179Y-112405048D01*
X157467181Y-112405049D01*
X157467182Y-112405050D01*
X157467200Y-112405060D01*
X157467442Y-112405182D01*
X157656588Y-112501557D01*
X157858757Y-112567246D01*
X158068713Y-112600500D01*
X158068714Y-112600500D01*
X158281286Y-112600500D01*
X158281287Y-112600500D01*
X158491243Y-112567246D01*
X158693412Y-112501557D01*
X158882816Y-112405051D01*
X158904789Y-112389086D01*
X159054786Y-112280109D01*
X159054786Y-112280108D01*
X159054844Y-112280066D01*
X159055605Y-112279290D01*
X159205104Y-112129792D01*
X159205106Y-112129788D01*
X159205109Y-112129786D01*
X159266651Y-112045080D01*
X159324388Y-111965612D01*
X159327410Y-111961450D01*
X159330048Y-111957820D01*
X159330047Y-111957820D01*
X159330051Y-111957816D01*
X159426557Y-111768412D01*
X159492246Y-111566243D01*
X159525500Y-111356287D01*
X159525500Y-111143713D01*
X159492246Y-110933757D01*
X159426557Y-110731588D01*
X159330051Y-110542184D01*
X159330049Y-110542181D01*
X159330048Y-110542179D01*
X159329702Y-110541703D01*
X159329700Y-110541699D01*
X159205112Y-110370216D01*
X159054788Y-110219892D01*
X159054786Y-110219890D01*
X158882820Y-110094951D01*
X158869167Y-110087994D01*
X158715245Y-110009567D01*
X158715240Y-110009565D01*
X158693414Y-109998444D01*
X158693413Y-109998443D01*
X158693412Y-109998443D01*
X158596550Y-109966970D01*
X158500074Y-109935623D01*
X158495552Y-109933770D01*
X158486362Y-109931600D01*
X158481599Y-109931226D01*
X158329957Y-109907208D01*
X158310489Y-109904124D01*
X158281290Y-109899500D01*
X158281287Y-109899500D01*
X158068713Y-109899500D01*
X158068709Y-109899500D01*
X158029776Y-109905666D01*
X158020042Y-109907208D01*
X157982654Y-109913129D01*
X157858763Y-109932752D01*
X157656582Y-109998445D01*
X157467182Y-110094949D01*
X157295210Y-110219892D01*
X157144892Y-110370210D01*
X157019949Y-110542182D01*
X156923445Y-110731582D01*
X156857752Y-110933762D01*
X156830485Y-111105923D01*
X156830344Y-111106814D01*
X156824500Y-111143713D01*
X129126279Y-111143713D01*
X129116392Y-111106814D01*
X129050500Y-110992686D01*
X128957314Y-110899500D01*
X128900250Y-110866554D01*
X128843187Y-110833608D01*
X128779539Y-110816554D01*
X128715892Y-110799500D01*
X128715891Y-110799500D01*
X128584108Y-110799500D01*
X128456808Y-110833609D01*
X128456806Y-110833610D01*
X128342696Y-110899493D01*
X128342683Y-110899501D01*
X128291608Y-110950576D01*
X128267765Y-110968425D01*
X128263357Y-110971725D01*
X128240272Y-110984331D01*
X128180843Y-110999500D01*
X115093663Y-110999500D01*
X115058727Y-110994477D01*
X115033485Y-110987065D01*
X114980740Y-110955769D01*
X113549426Y-109524455D01*
X113549421Y-109524450D01*
X113528274Y-109496199D01*
X113515667Y-109473110D01*
X113500500Y-109413685D01*
X113500500Y-105512146D01*
X123200000Y-105512146D01*
X123200000Y-105512155D01*
X123200000Y-106160000D01*
X123937750Y-106160000D01*
X124004789Y-106179685D01*
X124050544Y-106232489D01*
X124060488Y-106301647D01*
X124057524Y-106316095D01*
X124050000Y-106344171D01*
X124050000Y-106475828D01*
X124057524Y-106503905D01*
X124055863Y-106573755D01*
X124016701Y-106631618D01*
X123952473Y-106659123D01*
X123937750Y-106660000D01*
X123200000Y-106660000D01*
X123200000Y-107307852D01*
X123206400Y-107367370D01*
X123206402Y-107367377D01*
X123256646Y-107502088D01*
X123256648Y-107502091D01*
X123342807Y-107617185D01*
X123342809Y-107617187D01*
X123342812Y-107617190D01*
X123457906Y-107703350D01*
X123457913Y-107703354D01*
X123592620Y-107753596D01*
X123592627Y-107753598D01*
X123599468Y-107754333D01*
X123652138Y-107759998D01*
X123652155Y-107759999D01*
X123652172Y-107760000D01*
X124300000Y-107760000D01*
X124300000Y-107022250D01*
X124319685Y-106955211D01*
X124372489Y-106909456D01*
X124441647Y-106899512D01*
X124456093Y-106902475D01*
X124484174Y-106910000D01*
X124615825Y-106910000D01*
X124615826Y-106910000D01*
X124643905Y-106902476D01*
X124713755Y-106904137D01*
X124771618Y-106943299D01*
X124799123Y-107007527D01*
X124800000Y-107022250D01*
X124800000Y-107760000D01*
X125447828Y-107760000D01*
X125447836Y-107760000D01*
X125447847Y-107759999D01*
X125483560Y-107756158D01*
X125507372Y-107753598D01*
X125507379Y-107753596D01*
X125642086Y-107703354D01*
X125642093Y-107703350D01*
X125757187Y-107617190D01*
X125757190Y-107617187D01*
X125843350Y-107502093D01*
X125843354Y-107502086D01*
X125893596Y-107367379D01*
X125893598Y-107367372D01*
X125895069Y-107353689D01*
X125899998Y-107307860D01*
X125900000Y-107307827D01*
X125900000Y-106834108D01*
X144399500Y-106834108D01*
X144399500Y-106965891D01*
X144410656Y-107007527D01*
X144433608Y-107093188D01*
X144466554Y-107150250D01*
X144499500Y-107207314D01*
X144592686Y-107300500D01*
X144706814Y-107366392D01*
X144834108Y-107400500D01*
X144834110Y-107400500D01*
X144965890Y-107400500D01*
X144965892Y-107400500D01*
X145093186Y-107366392D01*
X145207314Y-107300500D01*
X145300500Y-107207314D01*
X145366392Y-107093186D01*
X145400500Y-106965892D01*
X145400500Y-106834108D01*
X145366392Y-106706814D01*
X145366387Y-106706806D01*
X145339364Y-106660000D01*
X145300500Y-106592686D01*
X145207314Y-106499500D01*
X145122442Y-106450499D01*
X145093187Y-106433608D01*
X145028931Y-106416391D01*
X145028930Y-106416390D01*
X144982782Y-106404025D01*
X144965892Y-106399500D01*
X144965891Y-106399500D01*
X144834108Y-106399500D01*
X144706808Y-106433609D01*
X144706806Y-106433610D01*
X144592696Y-106499493D01*
X144592682Y-106499502D01*
X144592677Y-106499506D01*
X144499506Y-106592677D01*
X144499502Y-106592682D01*
X144499493Y-106592696D01*
X144433610Y-106706806D01*
X144433609Y-106706808D01*
X144433608Y-106706812D01*
X144399500Y-106834108D01*
X125900000Y-106834108D01*
X125900000Y-106660000D01*
X125162250Y-106660000D01*
X125095211Y-106640315D01*
X125049456Y-106587511D01*
X125039512Y-106518353D01*
X125042476Y-106503905D01*
X125049999Y-106475828D01*
X125050000Y-106475825D01*
X125050000Y-106344175D01*
X125049999Y-106344171D01*
X125042476Y-106316095D01*
X125044137Y-106246245D01*
X125083299Y-106188382D01*
X125147527Y-106160877D01*
X125162250Y-106160000D01*
X125900000Y-106160000D01*
X125900000Y-105884108D01*
X150499500Y-105884108D01*
X150499500Y-106015891D01*
X150516554Y-106079539D01*
X150533608Y-106143188D01*
X150559702Y-106188382D01*
X150566554Y-106200250D01*
X150599500Y-106257314D01*
X150692686Y-106350500D01*
X150791521Y-106407563D01*
X150806810Y-106416390D01*
X150806814Y-106416392D01*
X150934108Y-106450500D01*
X150934110Y-106450500D01*
X151065890Y-106450500D01*
X151065892Y-106450500D01*
X151193186Y-106416392D01*
X151307314Y-106350500D01*
X151400500Y-106257314D01*
X151466392Y-106143186D01*
X151500500Y-106015892D01*
X151500500Y-105884108D01*
X151466392Y-105756814D01*
X151466387Y-105756806D01*
X151457563Y-105741521D01*
X151400500Y-105642686D01*
X151307314Y-105549500D01*
X151222439Y-105500497D01*
X151193187Y-105483608D01*
X151129539Y-105466554D01*
X151065892Y-105449500D01*
X151065891Y-105449500D01*
X150934108Y-105449500D01*
X150806808Y-105483609D01*
X150806806Y-105483610D01*
X150692696Y-105549493D01*
X150692682Y-105549502D01*
X150692677Y-105549506D01*
X150599506Y-105642677D01*
X150599502Y-105642682D01*
X150599493Y-105642696D01*
X150533610Y-105756806D01*
X150533609Y-105756808D01*
X150533608Y-105756812D01*
X150499500Y-105884108D01*
X125900000Y-105884108D01*
X125900000Y-105512172D01*
X125899998Y-105512138D01*
X125893598Y-105452628D01*
X125893596Y-105452621D01*
X125892432Y-105449500D01*
X125843354Y-105317913D01*
X125843350Y-105317906D01*
X125757190Y-105202812D01*
X125757187Y-105202809D01*
X125757182Y-105202805D01*
X125653579Y-105125247D01*
X125653579Y-105125246D01*
X125652218Y-105124230D01*
X125651796Y-105123914D01*
X125651794Y-105123911D01*
X125651779Y-105123900D01*
X125651743Y-105123874D01*
X125642089Y-105116647D01*
X125642086Y-105116645D01*
X125642085Y-105116644D01*
X125642084Y-105116644D01*
X125507377Y-105066402D01*
X125507370Y-105066400D01*
X125447852Y-105060000D01*
X125447844Y-105060000D01*
X125063395Y-105060000D01*
X125061302Y-105059385D01*
X125059189Y-105059929D01*
X125028459Y-105054977D01*
X125019826Y-105052442D01*
X125004826Y-105042802D01*
X124996356Y-105040315D01*
X124989433Y-105034108D01*
X138999500Y-105034108D01*
X138999500Y-105165891D01*
X139009391Y-105202805D01*
X139033608Y-105293188D01*
X139047005Y-105316391D01*
X139099500Y-105407314D01*
X139192686Y-105500500D01*
X139306814Y-105566392D01*
X139434108Y-105600500D01*
X139434110Y-105600500D01*
X139565890Y-105600500D01*
X139565892Y-105600500D01*
X139693186Y-105566392D01*
X139807314Y-105500500D01*
X139900500Y-105407314D01*
X139966392Y-105293186D01*
X140000500Y-105165892D01*
X140000500Y-105034108D01*
X139966392Y-104906814D01*
X139900500Y-104792686D01*
X139891922Y-104784108D01*
X149499500Y-104784108D01*
X149499500Y-104915892D01*
X149500735Y-104920500D01*
X149504457Y-104934394D01*
X149504458Y-104934397D01*
X149518690Y-104987511D01*
X149533608Y-105043187D01*
X149547011Y-105066401D01*
X149599500Y-105157314D01*
X149692686Y-105250500D01*
X149806814Y-105316392D01*
X149934108Y-105350500D01*
X149934110Y-105350500D01*
X150065890Y-105350500D01*
X150065892Y-105350500D01*
X150193186Y-105316392D01*
X150307314Y-105250500D01*
X150400500Y-105157314D01*
X150466392Y-105043186D01*
X150500500Y-104915892D01*
X150500500Y-104784108D01*
X150466392Y-104656814D01*
X150466387Y-104656806D01*
X150452995Y-104633610D01*
X150400500Y-104542686D01*
X150307314Y-104449500D01*
X150250250Y-104416554D01*
X150193187Y-104383608D01*
X150129539Y-104366554D01*
X150065892Y-104349500D01*
X150065891Y-104349500D01*
X149934108Y-104349500D01*
X149806808Y-104383609D01*
X149806806Y-104383610D01*
X149692696Y-104449493D01*
X149692682Y-104449502D01*
X149692677Y-104449506D01*
X149599506Y-104542677D01*
X149599502Y-104542682D01*
X149599493Y-104542696D01*
X149533610Y-104656806D01*
X149533609Y-104656807D01*
X149533608Y-104656812D01*
X149522170Y-104699500D01*
X149522170Y-104699501D01*
X149522169Y-104699500D01*
X149499778Y-104783068D01*
X149499778Y-104783070D01*
X149499500Y-104784108D01*
X139891922Y-104784108D01*
X139807314Y-104699500D01*
X139733380Y-104656814D01*
X139693187Y-104633608D01*
X139629539Y-104616554D01*
X139565892Y-104599500D01*
X139565891Y-104599500D01*
X139434108Y-104599500D01*
X139306808Y-104633609D01*
X139306806Y-104633610D01*
X139192696Y-104699493D01*
X139192682Y-104699502D01*
X139192677Y-104699506D01*
X139099506Y-104792677D01*
X139099502Y-104792682D01*
X139099493Y-104792696D01*
X139033610Y-104906806D01*
X139033609Y-104906808D01*
X139004709Y-105014667D01*
X138999500Y-105034108D01*
X124989433Y-105034108D01*
X124984714Y-105029877D01*
X124961048Y-105014667D01*
X124932024Y-104951110D01*
X124941968Y-104881952D01*
X124982239Y-104832884D01*
X124986400Y-104829884D01*
X124993734Y-104825794D01*
X124995457Y-104823938D01*
X124998438Y-104823171D01*
X125011462Y-104815908D01*
X125047598Y-104800941D01*
X125219655Y-104685977D01*
X125365977Y-104539655D01*
X125480941Y-104367598D01*
X125560130Y-104176420D01*
X125600500Y-103973465D01*
X125600500Y-103766535D01*
X125600500Y-103766532D01*
X125587301Y-103700180D01*
X125587300Y-103700176D01*
X125584104Y-103684108D01*
X150499500Y-103684108D01*
X150499500Y-103815891D01*
X150516554Y-103879539D01*
X150533608Y-103943188D01*
X150551089Y-103973465D01*
X150551090Y-103973466D01*
X150599500Y-104057314D01*
X150692686Y-104150500D01*
X150806814Y-104216392D01*
X150934108Y-104250500D01*
X150934110Y-104250500D01*
X151065890Y-104250500D01*
X151065892Y-104250500D01*
X151193186Y-104216392D01*
X151307314Y-104150500D01*
X151400500Y-104057314D01*
X151466392Y-103943186D01*
X151500500Y-103815892D01*
X151500500Y-103684108D01*
X151466392Y-103556814D01*
X151466387Y-103556806D01*
X151457563Y-103541521D01*
X151400500Y-103442686D01*
X151307314Y-103349500D01*
X151250250Y-103316554D01*
X151193187Y-103283608D01*
X151129539Y-103266554D01*
X151065892Y-103249500D01*
X151065891Y-103249500D01*
X150934108Y-103249500D01*
X150806808Y-103283609D01*
X150806806Y-103283610D01*
X150692696Y-103349493D01*
X150692682Y-103349502D01*
X150692677Y-103349506D01*
X150599506Y-103442677D01*
X150599502Y-103442682D01*
X150599493Y-103442696D01*
X150533610Y-103556806D01*
X150533609Y-103556808D01*
X150533608Y-103556812D01*
X150499500Y-103684108D01*
X125584104Y-103684108D01*
X125560792Y-103566910D01*
X125560376Y-103564480D01*
X125560131Y-103563584D01*
X125560130Y-103563582D01*
X125560130Y-103563580D01*
X125480941Y-103372402D01*
X125366046Y-103200449D01*
X125366036Y-103200417D01*
X125365980Y-103200348D01*
X125365980Y-103200349D01*
X125365977Y-103200345D01*
X125365975Y-103200342D01*
X125365973Y-103200340D01*
X125365970Y-103200336D01*
X125219662Y-103054028D01*
X125219655Y-103054022D01*
X125133626Y-102996540D01*
X125047602Y-102939061D01*
X125047603Y-102939061D01*
X125047548Y-102939038D01*
X125047134Y-102938867D01*
X124856420Y-102859870D01*
X124856412Y-102859868D01*
X124856404Y-102859866D01*
X124856394Y-102859864D01*
X124653471Y-102819500D01*
X124653469Y-102819500D01*
X124653465Y-102819500D01*
X124446535Y-102819500D01*
X124446530Y-102819500D01*
X124446528Y-102819500D01*
X124243604Y-102859864D01*
X124243579Y-102859870D01*
X124052404Y-102939057D01*
X123880337Y-103054027D01*
X123734027Y-103200337D01*
X123619057Y-103372404D01*
X123539870Y-103563579D01*
X123539864Y-103563604D01*
X123499500Y-103766527D01*
X123499500Y-103973471D01*
X123534713Y-104150500D01*
X123539868Y-104176412D01*
X123539870Y-104176420D01*
X123611562Y-104349500D01*
X123619059Y-104367598D01*
X123673784Y-104449500D01*
X123675287Y-104451750D01*
X123675305Y-104451779D01*
X123734022Y-104539655D01*
X123734028Y-104539662D01*
X123880336Y-104685970D01*
X123880340Y-104685973D01*
X123880342Y-104685975D01*
X123880345Y-104685977D01*
X123880349Y-104685980D01*
X123880348Y-104685980D01*
X123880411Y-104686032D01*
X123880448Y-104686046D01*
X124052402Y-104800941D01*
X124085416Y-104814615D01*
X124087086Y-104815961D01*
X124089211Y-104816262D01*
X124115767Y-104832623D01*
X124122777Y-104838273D01*
X124132943Y-104852915D01*
X124139818Y-104858455D01*
X124146595Y-104872579D01*
X124162624Y-104895665D01*
X124165117Y-104965490D01*
X124129463Y-105025578D01*
X124073486Y-105055498D01*
X124068501Y-105056676D01*
X124060209Y-105057642D01*
X124057917Y-105058696D01*
X124054868Y-105058264D01*
X124039984Y-105060000D01*
X123652146Y-105060000D01*
X123592628Y-105066400D01*
X123592621Y-105066402D01*
X123457910Y-105116646D01*
X123457907Y-105116648D01*
X123342813Y-105202807D01*
X123342807Y-105202813D01*
X123256648Y-105317907D01*
X123256646Y-105317910D01*
X123206402Y-105452621D01*
X123206400Y-105452628D01*
X123200000Y-105512146D01*
X113500500Y-105512146D01*
X113500500Y-102584108D01*
X149499500Y-102584108D01*
X149499500Y-102715891D01*
X149513931Y-102769749D01*
X149533608Y-102843188D01*
X149563264Y-102894552D01*
X149599497Y-102957310D01*
X149599499Y-102957312D01*
X149599500Y-102957314D01*
X149692686Y-103050500D01*
X149806814Y-103116392D01*
X149934108Y-103150500D01*
X149934110Y-103150500D01*
X150065890Y-103150500D01*
X150065892Y-103150500D01*
X150193186Y-103116392D01*
X150307314Y-103050500D01*
X150400500Y-102957314D01*
X150466392Y-102843186D01*
X150500500Y-102715892D01*
X150500500Y-102584108D01*
X150466392Y-102456814D01*
X150466387Y-102456806D01*
X150457563Y-102441521D01*
X150400500Y-102342686D01*
X150307314Y-102249500D01*
X150250250Y-102216554D01*
X150193187Y-102183608D01*
X150129539Y-102166554D01*
X150065892Y-102149500D01*
X150065891Y-102149500D01*
X149934108Y-102149500D01*
X149806808Y-102183609D01*
X149806806Y-102183610D01*
X149692696Y-102249493D01*
X149692682Y-102249502D01*
X149692677Y-102249506D01*
X149599506Y-102342677D01*
X149599502Y-102342682D01*
X149599493Y-102342696D01*
X149533610Y-102456806D01*
X149533609Y-102456808D01*
X149533608Y-102456812D01*
X149499500Y-102584108D01*
X113500500Y-102584108D01*
X113500500Y-101433471D01*
X123499499Y-101433471D01*
X123539864Y-101636394D01*
X123539870Y-101636419D01*
X123619057Y-101827595D01*
X123619058Y-101827596D01*
X123619059Y-101827598D01*
X123638914Y-101857313D01*
X123638915Y-101857316D01*
X123734022Y-101999655D01*
X123734028Y-101999662D01*
X123880336Y-102145970D01*
X123880340Y-102145973D01*
X123880342Y-102145975D01*
X123880345Y-102145977D01*
X123880349Y-102145980D01*
X123880348Y-102145980D01*
X123880411Y-102146032D01*
X123880448Y-102146046D01*
X124052402Y-102260941D01*
X124243580Y-102340130D01*
X124434540Y-102378114D01*
X124443559Y-102379908D01*
X124445794Y-102380409D01*
X124446532Y-102380500D01*
X124653466Y-102380500D01*
X124657586Y-102380500D01*
X124665435Y-102378118D01*
X124856420Y-102340130D01*
X125047598Y-102260941D01*
X125219655Y-102145977D01*
X125365977Y-101999655D01*
X125480941Y-101827598D01*
X125560130Y-101636420D01*
X125590427Y-101484106D01*
X150499500Y-101484106D01*
X150499500Y-101484108D01*
X150499500Y-101615892D01*
X150516554Y-101679539D01*
X150533608Y-101743187D01*
X150566554Y-101800250D01*
X150599500Y-101857314D01*
X150692686Y-101950500D01*
X150806814Y-102016392D01*
X150934108Y-102050500D01*
X150934110Y-102050500D01*
X151065890Y-102050500D01*
X151065892Y-102050500D01*
X151193186Y-102016392D01*
X151307314Y-101950500D01*
X151400500Y-101857314D01*
X151466392Y-101743186D01*
X151500500Y-101615892D01*
X151500500Y-101484108D01*
X151466392Y-101356814D01*
X151466387Y-101356806D01*
X151457563Y-101341521D01*
X151400500Y-101242686D01*
X151307314Y-101149500D01*
X151283255Y-101135609D01*
X151276214Y-101131544D01*
X151276213Y-101131543D01*
X151207324Y-101091770D01*
X151200793Y-101086759D01*
X151185580Y-101080457D01*
X151177418Y-101079383D01*
X151161161Y-101075027D01*
X151065892Y-101049500D01*
X151065891Y-101049500D01*
X150934108Y-101049500D01*
X150806808Y-101083609D01*
X150806806Y-101083610D01*
X150692696Y-101149493D01*
X150692682Y-101149502D01*
X150692677Y-101149506D01*
X150599506Y-101242677D01*
X150599502Y-101242682D01*
X150599493Y-101242696D01*
X150533610Y-101356806D01*
X150533609Y-101356809D01*
X150533608Y-101356811D01*
X150533608Y-101356812D01*
X150513068Y-101433469D01*
X150508160Y-101451788D01*
X150499500Y-101484106D01*
X125590427Y-101484106D01*
X125600500Y-101433465D01*
X125600500Y-101226535D01*
X125560130Y-101023580D01*
X125480941Y-100832402D01*
X125365977Y-100660345D01*
X125365975Y-100660342D01*
X125293015Y-100587382D01*
X125292990Y-100587356D01*
X125219662Y-100514028D01*
X125219655Y-100514022D01*
X125211594Y-100508636D01*
X149499500Y-100508636D01*
X149499500Y-100640419D01*
X149504837Y-100660337D01*
X149533608Y-100767716D01*
X149566554Y-100824778D01*
X149599500Y-100881842D01*
X149692686Y-100975028D01*
X149806814Y-101040920D01*
X149934108Y-101075028D01*
X149934110Y-101075028D01*
X150065890Y-101075028D01*
X150065892Y-101075028D01*
X150193186Y-101040920D01*
X150211672Y-101030247D01*
X163349500Y-101030247D01*
X163349500Y-102769752D01*
X163361131Y-102828229D01*
X163361132Y-102828230D01*
X163361132Y-102828231D01*
X163361134Y-102828233D01*
X163405447Y-102894552D01*
X163471765Y-102938864D01*
X163471767Y-102938866D01*
X163471770Y-102938868D01*
X163522612Y-102948981D01*
X163525337Y-102949703D01*
X163530249Y-102950500D01*
X165269750Y-102950500D01*
X165273873Y-102950500D01*
X165281732Y-102948116D01*
X165301381Y-102944208D01*
X165316258Y-102941249D01*
X165322354Y-102940648D01*
X165322386Y-102940639D01*
X165333311Y-102937902D01*
X165343515Y-102928654D01*
X165394552Y-102894552D01*
X165438867Y-102828231D01*
X165438867Y-102828229D01*
X165438868Y-102828229D01*
X165441030Y-102817355D01*
X165441166Y-102817090D01*
X165441249Y-102816256D01*
X165450068Y-102771917D01*
X165450500Y-102769931D01*
X165450500Y-101032295D01*
X165450500Y-101030249D01*
X165450499Y-101030247D01*
X165438868Y-100971770D01*
X165438867Y-100971769D01*
X165394552Y-100905447D01*
X165358146Y-100881121D01*
X165338385Y-100867917D01*
X165333641Y-100864024D01*
X165328230Y-100861132D01*
X165328229Y-100861131D01*
X165269752Y-100849500D01*
X165269750Y-100849500D01*
X163530249Y-100849500D01*
X163530247Y-100849500D01*
X163471770Y-100861131D01*
X163471769Y-100861131D01*
X163471768Y-100861132D01*
X163466355Y-100864024D01*
X163461614Y-100867916D01*
X163405447Y-100905446D01*
X163405446Y-100905447D01*
X163378272Y-100946114D01*
X163378270Y-100946119D01*
X163361132Y-100971769D01*
X163361131Y-100971770D01*
X163349500Y-101030247D01*
X150211672Y-101030247D01*
X150307314Y-100975028D01*
X150400500Y-100881842D01*
X150466392Y-100767714D01*
X150500500Y-100640420D01*
X150500500Y-100508636D01*
X150466392Y-100381342D01*
X150466387Y-100381334D01*
X150430901Y-100319870D01*
X150400500Y-100267214D01*
X150307314Y-100174028D01*
X150250250Y-100141082D01*
X150193187Y-100108136D01*
X150129539Y-100091082D01*
X150065892Y-100074028D01*
X150065891Y-100074028D01*
X149934108Y-100074028D01*
X149806808Y-100108137D01*
X149806806Y-100108138D01*
X149692696Y-100174021D01*
X149692682Y-100174030D01*
X149692677Y-100174034D01*
X149599506Y-100267205D01*
X149599502Y-100267210D01*
X149599493Y-100267224D01*
X149533610Y-100381334D01*
X149533609Y-100381336D01*
X149513459Y-100456540D01*
X149499500Y-100508636D01*
X125211594Y-100508636D01*
X125133626Y-100456540D01*
X125133625Y-100456540D01*
X125047604Y-100399062D01*
X125047595Y-100399057D01*
X124924010Y-100347867D01*
X124856420Y-100319870D01*
X124856412Y-100319868D01*
X124856404Y-100319866D01*
X124856394Y-100319864D01*
X124653471Y-100279500D01*
X124653469Y-100279500D01*
X124653465Y-100279500D01*
X124446535Y-100279500D01*
X124446530Y-100279500D01*
X124446528Y-100279500D01*
X124243604Y-100319864D01*
X124243579Y-100319870D01*
X124052404Y-100399057D01*
X123880337Y-100514027D01*
X123734027Y-100660337D01*
X123619057Y-100832404D01*
X123539870Y-101023579D01*
X123539864Y-101023604D01*
X123499500Y-101226527D01*
X123499500Y-101226530D01*
X123499500Y-101433469D01*
X123499500Y-101433471D01*
X123499499Y-101433471D01*
X113500500Y-101433471D01*
X113500500Y-98893471D01*
X123499499Y-98893471D01*
X123532091Y-99057316D01*
X123539868Y-99096412D01*
X123539870Y-99096420D01*
X123619058Y-99287596D01*
X123734023Y-99459655D01*
X123734027Y-99459661D01*
X123880336Y-99605970D01*
X123880340Y-99605973D01*
X123880342Y-99605975D01*
X123880345Y-99605977D01*
X123880349Y-99605980D01*
X123880348Y-99605980D01*
X123880411Y-99606032D01*
X123880448Y-99606046D01*
X124052402Y-99720941D01*
X124243580Y-99800130D01*
X124434540Y-99838114D01*
X124443559Y-99839908D01*
X124445794Y-99840409D01*
X124446532Y-99840500D01*
X124653466Y-99840500D01*
X124657586Y-99840500D01*
X124665435Y-99838118D01*
X124856420Y-99800130D01*
X125047598Y-99720941D01*
X125219655Y-99605977D01*
X125365977Y-99459655D01*
X125480941Y-99287598D01*
X125560130Y-99096420D01*
X125600500Y-98893465D01*
X125600500Y-98686535D01*
X125600500Y-98686532D01*
X125600018Y-98684108D01*
X132199500Y-98684108D01*
X132199500Y-98815891D01*
X132216554Y-98879539D01*
X132233608Y-98943188D01*
X132266554Y-99000250D01*
X132299500Y-99057314D01*
X132392686Y-99150500D01*
X132506814Y-99216392D01*
X132634108Y-99250500D01*
X132634110Y-99250500D01*
X132765890Y-99250500D01*
X132765892Y-99250500D01*
X132893186Y-99216392D01*
X133007314Y-99150500D01*
X133100500Y-99057314D01*
X133166392Y-98943186D01*
X133200500Y-98815892D01*
X133200500Y-98684108D01*
X133166392Y-98556814D01*
X133166387Y-98556806D01*
X133157563Y-98541521D01*
X133100500Y-98442686D01*
X133007314Y-98349500D01*
X132950250Y-98316554D01*
X132893187Y-98283608D01*
X132829539Y-98266554D01*
X132765892Y-98249500D01*
X132765891Y-98249500D01*
X132634108Y-98249500D01*
X132506808Y-98283609D01*
X132506806Y-98283610D01*
X132392696Y-98349493D01*
X132392682Y-98349502D01*
X132392677Y-98349506D01*
X132299506Y-98442677D01*
X132299502Y-98442682D01*
X132299493Y-98442696D01*
X132233610Y-98556806D01*
X132233609Y-98556808D01*
X132233608Y-98556812D01*
X132199500Y-98684108D01*
X125600018Y-98684108D01*
X125560707Y-98486483D01*
X125560711Y-98486439D01*
X125560376Y-98484480D01*
X125560131Y-98483584D01*
X125560130Y-98483582D01*
X125560130Y-98483580D01*
X125480941Y-98292402D01*
X125366046Y-98120449D01*
X125366036Y-98120417D01*
X125365980Y-98120348D01*
X125365980Y-98120349D01*
X125365977Y-98120345D01*
X125365975Y-98120342D01*
X125365973Y-98120340D01*
X125365970Y-98120336D01*
X125219662Y-97974028D01*
X125219655Y-97974022D01*
X125133626Y-97916540D01*
X125133625Y-97916540D01*
X125047604Y-97859062D01*
X125047595Y-97859057D01*
X124924010Y-97807867D01*
X124856420Y-97779870D01*
X124856412Y-97779868D01*
X124856404Y-97779866D01*
X124856394Y-97779864D01*
X124653471Y-97739500D01*
X124653469Y-97739500D01*
X124653465Y-97739500D01*
X124446535Y-97739500D01*
X124446530Y-97739500D01*
X124446528Y-97739500D01*
X124243604Y-97779864D01*
X124243579Y-97779870D01*
X124052404Y-97859057D01*
X123880337Y-97974027D01*
X123734027Y-98120337D01*
X123619057Y-98292404D01*
X123539870Y-98483579D01*
X123539864Y-98483604D01*
X123499500Y-98686527D01*
X123499500Y-98686530D01*
X123499500Y-98893469D01*
X123499500Y-98893471D01*
X123499499Y-98893471D01*
X113500500Y-98893471D01*
X113500500Y-97109108D01*
X136924500Y-97109108D01*
X136924500Y-97240891D01*
X136941554Y-97304539D01*
X136958608Y-97368188D01*
X136991554Y-97425250D01*
X137024500Y-97482314D01*
X137117686Y-97575500D01*
X137231814Y-97641392D01*
X137359108Y-97675500D01*
X137359110Y-97675500D01*
X137490890Y-97675500D01*
X137490892Y-97675500D01*
X137618186Y-97641392D01*
X137732314Y-97575500D01*
X137825500Y-97482314D01*
X137891392Y-97368186D01*
X137925500Y-97240892D01*
X137925500Y-97109108D01*
X137891392Y-96981814D01*
X137891387Y-96981806D01*
X137882563Y-96966521D01*
X137825500Y-96867686D01*
X137732314Y-96774500D01*
X137675250Y-96741554D01*
X137618187Y-96708608D01*
X137554539Y-96691554D01*
X137490892Y-96674500D01*
X137490891Y-96674500D01*
X137359108Y-96674500D01*
X137231808Y-96708609D01*
X137231806Y-96708610D01*
X137117696Y-96774493D01*
X137117682Y-96774502D01*
X137117677Y-96774506D01*
X137024506Y-96867677D01*
X137024502Y-96867682D01*
X137024493Y-96867696D01*
X136958610Y-96981806D01*
X136958609Y-96981808D01*
X136958608Y-96981812D01*
X136924500Y-97109108D01*
X113500500Y-97109108D01*
X113500500Y-94658753D01*
X123150000Y-94658753D01*
X123150000Y-94871246D01*
X123175860Y-95034519D01*
X123181715Y-95071485D01*
X123181716Y-95071493D01*
X123183242Y-95081133D01*
X123217886Y-95187754D01*
X123248904Y-95283217D01*
X123345374Y-95472548D01*
X123345375Y-95472550D01*
X123380674Y-95521137D01*
X123384728Y-95526716D01*
X123890297Y-95021147D01*
X123951619Y-94987663D01*
X124021311Y-94992647D01*
X124077244Y-95034519D01*
X124085363Y-95046828D01*
X124099896Y-95072000D01*
X124099899Y-95072004D01*
X124099901Y-95072007D01*
X124192993Y-95165099D01*
X124218169Y-95179634D01*
X124266384Y-95230202D01*
X124279606Y-95298809D01*
X124253638Y-95363673D01*
X124243849Y-95374702D01*
X123738282Y-95880268D01*
X123738282Y-95880269D01*
X123738282Y-95880270D01*
X123792449Y-95919624D01*
X123981782Y-96016095D01*
X123981784Y-96016096D01*
X124183866Y-96081756D01*
X124183867Y-96081756D01*
X124183870Y-96081757D01*
X124393754Y-96115000D01*
X124606245Y-96115000D01*
X124606246Y-96115000D01*
X124719050Y-96097132D01*
X124806487Y-96083284D01*
X124806493Y-96083283D01*
X124816127Y-96081757D01*
X124816130Y-96081757D01*
X125018217Y-96016095D01*
X125207554Y-95919622D01*
X125209976Y-95917862D01*
X125229121Y-95903953D01*
X125255858Y-95894412D01*
X125261717Y-95880269D01*
X124756149Y-95374702D01*
X124722664Y-95313379D01*
X124727648Y-95243688D01*
X124769519Y-95187754D01*
X124781822Y-95179639D01*
X124807007Y-95165099D01*
X124900099Y-95072007D01*
X124914634Y-95046830D01*
X124965199Y-94998616D01*
X125033805Y-94985391D01*
X125098671Y-95011358D01*
X125109702Y-95021149D01*
X125615269Y-95526717D01*
X125615269Y-95526716D01*
X125615270Y-95526717D01*
X125615270Y-95526716D01*
X125628738Y-95521137D01*
X125634955Y-95499967D01*
X125638954Y-95494118D01*
X125654621Y-95472555D01*
X125654625Y-95472548D01*
X125751095Y-95283217D01*
X125816757Y-95081130D01*
X125816757Y-95081127D01*
X125850000Y-94871246D01*
X125850000Y-94658753D01*
X125836260Y-94572007D01*
X125819558Y-94466554D01*
X125819557Y-94466551D01*
X125816757Y-94448872D01*
X125816757Y-94448869D01*
X125789279Y-94364299D01*
X125779469Y-94334108D01*
X142899500Y-94334108D01*
X142899500Y-94465891D01*
X142899678Y-94466554D01*
X142933608Y-94593188D01*
X142958090Y-94635590D01*
X142966554Y-94650250D01*
X142999500Y-94707314D01*
X142999502Y-94707316D01*
X143002929Y-94710743D01*
X143009436Y-94721571D01*
X143009668Y-94722459D01*
X143011983Y-94726015D01*
X143020540Y-94741686D01*
X143035393Y-94809948D01*
X143035264Y-94811754D01*
X143015890Y-94869965D01*
X143011653Y-94876557D01*
X143003246Y-94888115D01*
X142999502Y-94892682D01*
X142999493Y-94892696D01*
X142933610Y-95006806D01*
X142933609Y-95006808D01*
X142926184Y-95034519D01*
X142899500Y-95134108D01*
X142899500Y-95265891D01*
X142908320Y-95298809D01*
X142933608Y-95393188D01*
X142966554Y-95450250D01*
X142999500Y-95507314D01*
X143092686Y-95600500D01*
X143206814Y-95666392D01*
X143334108Y-95700500D01*
X143334110Y-95700500D01*
X143465890Y-95700500D01*
X143465892Y-95700500D01*
X143593186Y-95666392D01*
X143707314Y-95600500D01*
X143800500Y-95507314D01*
X143866392Y-95393186D01*
X143900500Y-95265892D01*
X143900500Y-95134108D01*
X143866392Y-95006814D01*
X143866387Y-95006806D01*
X143801494Y-94894408D01*
X143800500Y-94892686D01*
X143800498Y-94892684D01*
X143800497Y-94892682D01*
X143798472Y-94890043D01*
X143788016Y-94873984D01*
X143779459Y-94858313D01*
X143777501Y-94849313D01*
X143764606Y-94790051D01*
X143764735Y-94788242D01*
X143784101Y-94730047D01*
X143788294Y-94723523D01*
X143795931Y-94714050D01*
X143795553Y-94713760D01*
X143800492Y-94707321D01*
X143800500Y-94707314D01*
X143866392Y-94593186D01*
X143900500Y-94465892D01*
X143900500Y-94334108D01*
X143866392Y-94206814D01*
X143866387Y-94206806D01*
X143836648Y-94155296D01*
X143800500Y-94092686D01*
X143707314Y-93999500D01*
X143650250Y-93966554D01*
X143593187Y-93933608D01*
X143529539Y-93916554D01*
X143465892Y-93899500D01*
X143465891Y-93899500D01*
X143334108Y-93899500D01*
X143206808Y-93933609D01*
X143206806Y-93933610D01*
X143092696Y-93999493D01*
X143092682Y-93999502D01*
X143092677Y-93999506D01*
X142999506Y-94092677D01*
X142999502Y-94092682D01*
X142999493Y-94092696D01*
X142933610Y-94206806D01*
X142933609Y-94206808D01*
X142933608Y-94206812D01*
X142899500Y-94334108D01*
X125779469Y-94334108D01*
X125751095Y-94246782D01*
X125654624Y-94057449D01*
X125615270Y-94003282D01*
X125615269Y-94003282D01*
X125615268Y-94003282D01*
X125109702Y-94508849D01*
X125048379Y-94542334D01*
X124978687Y-94537350D01*
X124922754Y-94495478D01*
X124914634Y-94483169D01*
X124900099Y-94457993D01*
X124807007Y-94364901D01*
X124807004Y-94364899D01*
X124807000Y-94364896D01*
X124781828Y-94350363D01*
X124733613Y-94299796D01*
X124720391Y-94231189D01*
X124746359Y-94166324D01*
X124756135Y-94155310D01*
X125261716Y-93649728D01*
X125207550Y-93610375D01*
X125030189Y-93520004D01*
X125021549Y-93511926D01*
X125008680Y-93506072D01*
X124997704Y-93497227D01*
X124982673Y-93475577D01*
X124980030Y-93473106D01*
X124974319Y-93463544D01*
X124957858Y-93439836D01*
X124955365Y-93370011D01*
X124976919Y-93333683D01*
X124978437Y-93329079D01*
X124980777Y-93327181D01*
X124991018Y-93309922D01*
X125023442Y-93292592D01*
X125032711Y-93285079D01*
X125038750Y-93284411D01*
X125047004Y-93280000D01*
X125051995Y-93278820D01*
X125080500Y-93275500D01*
X125373876Y-93275500D01*
X125381742Y-93273114D01*
X125384568Y-93272552D01*
X125416258Y-93266249D01*
X125416462Y-93266208D01*
X125428229Y-93263868D01*
X125428229Y-93263867D01*
X125428230Y-93263867D01*
X125428231Y-93263867D01*
X125428231Y-93263866D01*
X125433376Y-93262843D01*
X125443515Y-93253654D01*
X125494552Y-93219552D01*
X125538867Y-93153231D01*
X125538867Y-93153229D01*
X125538868Y-93153229D01*
X125541030Y-93142355D01*
X125541166Y-93142090D01*
X125541249Y-93141256D01*
X125550068Y-93096917D01*
X125550500Y-93094931D01*
X125550500Y-91357295D01*
X125550500Y-91355249D01*
X125550499Y-91355247D01*
X125538868Y-91296770D01*
X125538867Y-91296769D01*
X125494552Y-91230447D01*
X125458146Y-91206121D01*
X125438385Y-91192917D01*
X125433641Y-91189024D01*
X125428230Y-91186132D01*
X125428229Y-91186131D01*
X125369752Y-91174500D01*
X125369750Y-91174500D01*
X123630249Y-91174500D01*
X123630247Y-91174500D01*
X123571770Y-91186131D01*
X123571769Y-91186131D01*
X123571768Y-91186132D01*
X123571765Y-91186133D01*
X123571759Y-91186138D01*
X123505447Y-91230447D01*
X123461138Y-91296759D01*
X123461133Y-91296765D01*
X123461132Y-91296768D01*
X123461132Y-91296769D01*
X123461131Y-91296770D01*
X123449500Y-91355247D01*
X123449500Y-93094752D01*
X123461131Y-93153229D01*
X123461132Y-93153230D01*
X123461132Y-93153231D01*
X123461134Y-93153233D01*
X123505447Y-93219552D01*
X123571765Y-93263864D01*
X123571767Y-93263866D01*
X123571770Y-93263868D01*
X123622612Y-93273981D01*
X123625337Y-93274703D01*
X123630249Y-93275500D01*
X123630250Y-93275500D01*
X123916122Y-93275500D01*
X123922548Y-93277387D01*
X123929139Y-93276185D01*
X123951049Y-93280521D01*
X123959681Y-93283055D01*
X123974685Y-93292696D01*
X123983161Y-93295185D01*
X123988942Y-93301857D01*
X124018462Y-93320825D01*
X124047491Y-93384379D01*
X124037552Y-93453538D01*
X124023235Y-93470984D01*
X124023207Y-93471095D01*
X124022936Y-93471347D01*
X123997280Y-93502612D01*
X123988969Y-93508605D01*
X123972738Y-93518512D01*
X123792438Y-93610380D01*
X123738282Y-93649727D01*
X123738282Y-93649728D01*
X124243850Y-94155296D01*
X124277335Y-94216619D01*
X124272351Y-94286311D01*
X124230479Y-94342244D01*
X124218173Y-94350362D01*
X124192996Y-94364898D01*
X124192990Y-94364903D01*
X124099903Y-94457990D01*
X124099898Y-94457996D01*
X124085362Y-94483173D01*
X124034793Y-94531387D01*
X123966185Y-94544607D01*
X123901322Y-94518637D01*
X123890296Y-94508850D01*
X123384728Y-94003282D01*
X123384727Y-94003282D01*
X123345380Y-94057438D01*
X123248903Y-94246784D01*
X123183242Y-94448865D01*
X123181798Y-94457990D01*
X123150000Y-94658753D01*
X113500500Y-94658753D01*
X113500500Y-90134108D01*
X136899500Y-90134108D01*
X136899500Y-90265892D01*
X136916554Y-90329539D01*
X136933608Y-90393187D01*
X136966554Y-90450250D01*
X136999500Y-90507314D01*
X137092686Y-90600500D01*
X137206814Y-90666392D01*
X137334108Y-90700500D01*
X137334110Y-90700500D01*
X137465890Y-90700500D01*
X137465892Y-90700500D01*
X137593186Y-90666392D01*
X137707314Y-90600500D01*
X137800500Y-90507314D01*
X137866392Y-90393186D01*
X137900500Y-90265892D01*
X137900500Y-90134108D01*
X137866392Y-90006814D01*
X137800500Y-89892686D01*
X137707314Y-89799500D01*
X137650250Y-89766554D01*
X137593187Y-89733608D01*
X137529539Y-89716554D01*
X137465892Y-89699500D01*
X137465891Y-89699500D01*
X137334108Y-89699500D01*
X137206808Y-89733609D01*
X137206806Y-89733610D01*
X137092696Y-89799493D01*
X137092682Y-89799502D01*
X137092677Y-89799506D01*
X136999506Y-89892677D01*
X136999502Y-89892682D01*
X136999493Y-89892696D01*
X136933607Y-90006810D01*
X136933607Y-90006811D01*
X136911263Y-90090205D01*
X136911256Y-90090231D01*
X136910758Y-90092093D01*
X136899500Y-90134108D01*
X113500500Y-90134108D01*
X113500500Y-88102146D01*
X159350000Y-88102146D01*
X159350000Y-88102155D01*
X159350000Y-88750000D01*
X160087750Y-88750000D01*
X160154789Y-88769685D01*
X160200544Y-88822489D01*
X160210488Y-88891647D01*
X160207524Y-88906095D01*
X160200000Y-88934171D01*
X160200000Y-89065828D01*
X160207524Y-89093905D01*
X160205863Y-89163755D01*
X160166701Y-89221618D01*
X160102473Y-89249123D01*
X160087750Y-89250000D01*
X159350000Y-89250000D01*
X159350000Y-89897852D01*
X159356400Y-89957370D01*
X159356402Y-89957377D01*
X159374839Y-90006810D01*
X159405943Y-90090205D01*
X159406646Y-90092088D01*
X159406648Y-90092091D01*
X159492807Y-90207185D01*
X159492809Y-90207187D01*
X159492812Y-90207190D01*
X159607906Y-90293350D01*
X159607913Y-90293354D01*
X159742620Y-90343596D01*
X159742627Y-90343598D01*
X159749468Y-90344333D01*
X159802138Y-90349998D01*
X159802155Y-90349999D01*
X159802172Y-90350000D01*
X160450000Y-90350000D01*
X160450000Y-89612250D01*
X160469685Y-89545211D01*
X160522489Y-89499456D01*
X160591647Y-89489512D01*
X160606093Y-89492475D01*
X160634174Y-89500000D01*
X160765825Y-89500000D01*
X160765826Y-89500000D01*
X160793905Y-89492476D01*
X160863755Y-89494137D01*
X160921618Y-89533299D01*
X160949123Y-89597527D01*
X160950000Y-89612250D01*
X160950000Y-90350000D01*
X161597828Y-90350000D01*
X161597836Y-90350000D01*
X161597847Y-90349999D01*
X161633560Y-90346158D01*
X161657372Y-90343598D01*
X161657379Y-90343596D01*
X161792086Y-90293354D01*
X161792093Y-90293350D01*
X161907187Y-90207190D01*
X161907190Y-90207187D01*
X161993350Y-90092093D01*
X161993354Y-90092086D01*
X162043596Y-89957379D01*
X162043598Y-89957372D01*
X162045069Y-89943689D01*
X162049998Y-89897860D01*
X162050000Y-89897827D01*
X162050000Y-89250000D01*
X161312250Y-89250000D01*
X161245211Y-89230315D01*
X161199456Y-89177511D01*
X161191103Y-89133471D01*
X164049499Y-89133471D01*
X164089864Y-89336394D01*
X164089868Y-89336412D01*
X164089870Y-89336420D01*
X164169058Y-89527596D01*
X164283919Y-89699500D01*
X164284027Y-89699661D01*
X164430336Y-89845970D01*
X164430340Y-89845973D01*
X164430342Y-89845975D01*
X164430345Y-89845977D01*
X164430349Y-89845980D01*
X164430348Y-89845980D01*
X164430411Y-89846032D01*
X164430448Y-89846046D01*
X164602402Y-89960941D01*
X164793580Y-90040130D01*
X164984540Y-90078114D01*
X164993559Y-90079908D01*
X164995794Y-90080409D01*
X164996532Y-90080500D01*
X165203466Y-90080500D01*
X165207586Y-90080500D01*
X165215435Y-90078118D01*
X165406420Y-90040130D01*
X165597598Y-89960941D01*
X165769655Y-89845977D01*
X165915977Y-89699655D01*
X166030941Y-89527598D01*
X166110130Y-89336420D01*
X166150500Y-89133465D01*
X166150500Y-88926535D01*
X166110130Y-88723580D01*
X166030941Y-88532402D01*
X165916046Y-88360449D01*
X165916036Y-88360417D01*
X165915980Y-88360348D01*
X165915980Y-88360349D01*
X165915977Y-88360345D01*
X165915975Y-88360342D01*
X165915973Y-88360340D01*
X165915970Y-88360336D01*
X165769662Y-88214028D01*
X165769655Y-88214022D01*
X165683626Y-88156540D01*
X165683625Y-88156540D01*
X165597604Y-88099062D01*
X165597595Y-88099057D01*
X165461343Y-88042620D01*
X165406420Y-88019870D01*
X165406412Y-88019868D01*
X165406404Y-88019866D01*
X165406394Y-88019864D01*
X165203471Y-87979500D01*
X165203469Y-87979500D01*
X165203465Y-87979500D01*
X164996535Y-87979500D01*
X164996530Y-87979500D01*
X164996528Y-87979500D01*
X164793604Y-88019864D01*
X164793579Y-88019870D01*
X164602404Y-88099057D01*
X164430337Y-88214027D01*
X164284027Y-88360337D01*
X164169057Y-88532404D01*
X164089870Y-88723579D01*
X164089864Y-88723604D01*
X164049500Y-88926527D01*
X164049500Y-88926530D01*
X164049500Y-89133469D01*
X164049500Y-89133471D01*
X164049499Y-89133471D01*
X161191103Y-89133471D01*
X161188428Y-89119367D01*
X161189121Y-89106425D01*
X161200000Y-89065826D01*
X161200000Y-88934174D01*
X161192476Y-88906094D01*
X161194137Y-88836245D01*
X161233299Y-88778382D01*
X161297527Y-88750877D01*
X161312250Y-88750000D01*
X162050000Y-88750000D01*
X162050000Y-88102172D01*
X162049998Y-88102138D01*
X162043598Y-88042628D01*
X162043596Y-88042621D01*
X162043596Y-88042620D01*
X161993354Y-87907913D01*
X161993350Y-87907906D01*
X161907190Y-87792812D01*
X161907187Y-87792809D01*
X161907185Y-87792807D01*
X161849317Y-87749487D01*
X161792093Y-87706649D01*
X161792086Y-87706645D01*
X161724732Y-87681524D01*
X161657377Y-87656402D01*
X161657370Y-87656400D01*
X161597852Y-87650000D01*
X161597844Y-87650000D01*
X160950000Y-87650000D01*
X160950000Y-88387749D01*
X160930315Y-88454788D01*
X160877511Y-88500543D01*
X160808353Y-88510487D01*
X160793908Y-88507524D01*
X160765828Y-88500000D01*
X160765826Y-88500000D01*
X160634174Y-88500000D01*
X160634171Y-88500000D01*
X160606092Y-88507524D01*
X160536242Y-88505861D01*
X160478380Y-88466698D01*
X160450877Y-88402469D01*
X160450000Y-88387749D01*
X160450000Y-87650000D01*
X159802155Y-87650000D01*
X159802146Y-87650000D01*
X159742628Y-87656400D01*
X159742621Y-87656402D01*
X159607910Y-87706646D01*
X159607907Y-87706648D01*
X159492813Y-87792807D01*
X159492807Y-87792813D01*
X159406648Y-87907907D01*
X159406646Y-87907910D01*
X159356402Y-88042621D01*
X159356400Y-88042628D01*
X159350000Y-88102146D01*
X113500500Y-88102146D01*
X113500500Y-87434108D01*
X119849500Y-87434108D01*
X119849500Y-87565891D01*
X119866554Y-87629539D01*
X119883608Y-87693188D01*
X119891380Y-87706649D01*
X119916554Y-87750250D01*
X119949500Y-87807314D01*
X120042686Y-87900500D01*
X120156814Y-87966392D01*
X120284108Y-88000500D01*
X120284110Y-88000500D01*
X120415890Y-88000500D01*
X120415892Y-88000500D01*
X120543186Y-87966392D01*
X120657314Y-87900500D01*
X120750500Y-87807314D01*
X120816392Y-87693186D01*
X120850500Y-87565892D01*
X120850500Y-87434108D01*
X120816392Y-87306814D01*
X120816387Y-87306806D01*
X120807563Y-87291521D01*
X120750500Y-87192686D01*
X120657314Y-87099500D01*
X120600250Y-87066554D01*
X120543187Y-87033608D01*
X120479539Y-87016554D01*
X120415892Y-86999500D01*
X120415891Y-86999500D01*
X120284108Y-86999500D01*
X120156808Y-87033609D01*
X120156806Y-87033610D01*
X120042696Y-87099493D01*
X120042682Y-87099502D01*
X120042677Y-87099506D01*
X119949506Y-87192677D01*
X119949502Y-87192682D01*
X119949493Y-87192696D01*
X119883610Y-87306806D01*
X119883609Y-87306808D01*
X119883608Y-87306812D01*
X119849500Y-87434108D01*
X113500500Y-87434108D01*
X113500500Y-86593471D01*
X164049499Y-86593471D01*
X164089864Y-86796394D01*
X164089868Y-86796412D01*
X164089870Y-86796420D01*
X164169058Y-86987596D01*
X164243833Y-87099506D01*
X164284027Y-87159661D01*
X164430336Y-87305970D01*
X164430340Y-87305973D01*
X164430342Y-87305975D01*
X164430345Y-87305977D01*
X164430349Y-87305980D01*
X164430348Y-87305980D01*
X164430411Y-87306032D01*
X164430448Y-87306046D01*
X164602402Y-87420941D01*
X164793580Y-87500130D01*
X164984540Y-87538114D01*
X164993559Y-87539908D01*
X164995794Y-87540409D01*
X164996532Y-87540500D01*
X165203466Y-87540500D01*
X165207586Y-87540500D01*
X165215435Y-87538118D01*
X165406420Y-87500130D01*
X165597598Y-87420941D01*
X165769655Y-87305977D01*
X165915977Y-87159655D01*
X166030941Y-86987598D01*
X166110130Y-86796420D01*
X166150500Y-86593465D01*
X166150500Y-86386535D01*
X166110130Y-86183580D01*
X166030941Y-85992402D01*
X165916046Y-85820449D01*
X165916036Y-85820417D01*
X165915980Y-85820348D01*
X165915980Y-85820349D01*
X165915977Y-85820345D01*
X165915975Y-85820342D01*
X165915973Y-85820340D01*
X165915970Y-85820336D01*
X165769662Y-85674028D01*
X165769655Y-85674022D01*
X165638634Y-85586477D01*
X165638627Y-85586474D01*
X165630694Y-85581173D01*
X165597598Y-85559059D01*
X165436148Y-85492184D01*
X165433717Y-85491177D01*
X165433702Y-85491170D01*
X165406433Y-85479875D01*
X165406428Y-85479873D01*
X165406420Y-85479870D01*
X165406412Y-85479868D01*
X165406404Y-85479866D01*
X165406394Y-85479864D01*
X165203471Y-85439500D01*
X165203469Y-85439500D01*
X165203465Y-85439500D01*
X164996535Y-85439500D01*
X164996530Y-85439500D01*
X164996528Y-85439500D01*
X164793604Y-85479864D01*
X164793579Y-85479870D01*
X164602404Y-85559057D01*
X164430337Y-85674027D01*
X164284027Y-85820337D01*
X164169057Y-85992404D01*
X164089870Y-86183579D01*
X164089864Y-86183604D01*
X164049500Y-86386527D01*
X164049500Y-86386530D01*
X164049500Y-86593469D01*
X164049500Y-86593471D01*
X164049499Y-86593471D01*
X113500500Y-86593471D01*
X113500500Y-85207967D01*
X147100991Y-85207967D01*
X147100991Y-85339750D01*
X147135099Y-85467046D01*
X147149613Y-85492184D01*
X147200991Y-85581173D01*
X147294177Y-85674359D01*
X147408305Y-85740251D01*
X147535599Y-85774359D01*
X147535601Y-85774359D01*
X147667381Y-85774359D01*
X147667383Y-85774359D01*
X147794677Y-85740251D01*
X147908805Y-85674359D01*
X148001991Y-85581173D01*
X148067883Y-85467045D01*
X148101991Y-85339751D01*
X148101991Y-85207967D01*
X148067883Y-85080673D01*
X148067878Y-85080665D01*
X148059054Y-85065380D01*
X148001991Y-84966545D01*
X147908805Y-84873359D01*
X147851741Y-84840413D01*
X147794678Y-84807467D01*
X147731030Y-84790413D01*
X147667383Y-84773359D01*
X147667382Y-84773359D01*
X147535599Y-84773359D01*
X147408299Y-84807468D01*
X147408297Y-84807469D01*
X147294187Y-84873352D01*
X147294173Y-84873361D01*
X147294168Y-84873365D01*
X147200997Y-84966536D01*
X147200993Y-84966541D01*
X147200984Y-84966555D01*
X147135101Y-85080665D01*
X147135100Y-85080667D01*
X147135099Y-85080671D01*
X147100991Y-85207967D01*
X113500500Y-85207967D01*
X113500500Y-84760440D01*
X113500499Y-84760436D01*
X113480020Y-84684009D01*
X113479993Y-84683946D01*
X113479512Y-84683129D01*
X113455415Y-84641392D01*
X113440464Y-84615495D01*
X113440458Y-84615487D01*
X113440454Y-84615483D01*
X113440453Y-84615481D01*
X113013634Y-84188662D01*
X112934080Y-84109108D01*
X134699500Y-84109108D01*
X134699500Y-84240891D01*
X134716554Y-84304539D01*
X134733608Y-84368188D01*
X134766554Y-84425250D01*
X134799500Y-84482314D01*
X134892686Y-84575500D01*
X135006814Y-84641392D01*
X135134108Y-84675500D01*
X135134110Y-84675500D01*
X135265890Y-84675500D01*
X135265892Y-84675500D01*
X135393186Y-84641392D01*
X135507314Y-84575500D01*
X135600500Y-84482314D01*
X135666392Y-84368186D01*
X135700500Y-84240892D01*
X135700500Y-84109108D01*
X135685592Y-84053471D01*
X164049499Y-84053471D01*
X164089864Y-84256394D01*
X164089870Y-84256419D01*
X164169057Y-84447595D01*
X164192256Y-84482314D01*
X164192257Y-84482317D01*
X164284022Y-84619655D01*
X164284028Y-84619662D01*
X164430336Y-84765970D01*
X164430340Y-84765973D01*
X164430342Y-84765975D01*
X164430345Y-84765977D01*
X164430349Y-84765980D01*
X164430348Y-84765980D01*
X164430411Y-84766032D01*
X164430448Y-84766046D01*
X164602402Y-84880941D01*
X164793580Y-84960130D01*
X164984540Y-84998114D01*
X164993559Y-84999908D01*
X164995794Y-85000409D01*
X164996532Y-85000500D01*
X165203466Y-85000500D01*
X165207586Y-85000500D01*
X165215435Y-84998118D01*
X165406420Y-84960130D01*
X165597598Y-84880941D01*
X165769655Y-84765977D01*
X165915977Y-84619655D01*
X166030941Y-84447598D01*
X166110130Y-84256420D01*
X166150500Y-84053465D01*
X166150500Y-83846535D01*
X166150500Y-83846530D01*
X166121551Y-83701001D01*
X166110130Y-83643580D01*
X166030941Y-83452402D01*
X165916046Y-83280449D01*
X165916036Y-83280417D01*
X165915980Y-83280348D01*
X165915980Y-83280349D01*
X165915977Y-83280345D01*
X165915975Y-83280342D01*
X165915973Y-83280340D01*
X165915970Y-83280336D01*
X165769659Y-83134025D01*
X165666217Y-83064908D01*
X165666214Y-83064906D01*
X165660863Y-83061331D01*
X165597598Y-83019059D01*
X165517526Y-82985892D01*
X165406420Y-82939870D01*
X165406412Y-82939868D01*
X165406404Y-82939866D01*
X165406394Y-82939864D01*
X165203471Y-82899500D01*
X165203469Y-82899500D01*
X165203465Y-82899500D01*
X164996535Y-82899500D01*
X164996530Y-82899500D01*
X164996528Y-82899500D01*
X164793604Y-82939864D01*
X164793579Y-82939870D01*
X164602404Y-83019057D01*
X164430337Y-83134027D01*
X164284027Y-83280337D01*
X164169057Y-83452404D01*
X164089870Y-83643579D01*
X164089864Y-83643604D01*
X164049500Y-83846527D01*
X164049500Y-83846530D01*
X164049500Y-84053469D01*
X164049500Y-84053471D01*
X164049499Y-84053471D01*
X135685592Y-84053471D01*
X135666392Y-83981814D01*
X135666387Y-83981806D01*
X135623379Y-83907314D01*
X135600500Y-83867686D01*
X135507314Y-83774500D01*
X135450250Y-83741554D01*
X135393187Y-83708608D01*
X135329539Y-83691554D01*
X135265892Y-83674500D01*
X135265891Y-83674500D01*
X135134108Y-83674500D01*
X135006807Y-83708609D01*
X134892696Y-83774493D01*
X134892682Y-83774502D01*
X134892677Y-83774506D01*
X134799506Y-83867677D01*
X134799502Y-83867682D01*
X134799493Y-83867696D01*
X134733610Y-83981806D01*
X134733609Y-83981808D01*
X134710946Y-84066391D01*
X134699500Y-84109108D01*
X112934080Y-84109108D01*
X112549426Y-83724455D01*
X112549421Y-83724450D01*
X112528274Y-83696199D01*
X112515667Y-83673110D01*
X112500500Y-83613685D01*
X112500500Y-83534110D01*
X112500500Y-83534108D01*
X112466392Y-83406814D01*
X112466387Y-83406806D01*
X112444354Y-83368644D01*
X112400500Y-83292686D01*
X112307314Y-83199500D01*
X112250250Y-83166554D01*
X112193187Y-83133608D01*
X112116969Y-83113186D01*
X112065892Y-83099500D01*
X112065891Y-83099500D01*
X111934108Y-83099500D01*
X111806808Y-83133609D01*
X111806806Y-83133610D01*
X111692696Y-83199493D01*
X111692682Y-83199502D01*
X111692677Y-83199506D01*
X111599506Y-83292677D01*
X111599502Y-83292682D01*
X111599493Y-83292696D01*
X111533610Y-83406806D01*
X111533609Y-83406808D01*
X111499500Y-83534108D01*
X105183939Y-83534108D01*
X104583537Y-82933659D01*
X104503992Y-82854108D01*
X133899500Y-82854108D01*
X133899500Y-82985891D01*
X133919714Y-83061330D01*
X133933608Y-83113186D01*
X133933607Y-83113186D01*
X133933608Y-83113187D01*
X133966554Y-83170250D01*
X133999500Y-83227314D01*
X134092686Y-83320500D01*
X134206814Y-83386392D01*
X134334108Y-83420500D01*
X134334110Y-83420500D01*
X134465890Y-83420500D01*
X134465892Y-83420500D01*
X134593186Y-83386392D01*
X134707314Y-83320500D01*
X134800500Y-83227314D01*
X134866392Y-83113186D01*
X134900500Y-82985892D01*
X134900500Y-82854108D01*
X134886606Y-82802253D01*
X146600991Y-82802253D01*
X146600991Y-82934037D01*
X146602554Y-82939870D01*
X146635099Y-83061332D01*
X146657136Y-83099500D01*
X146700991Y-83175459D01*
X146794177Y-83268645D01*
X146908305Y-83334537D01*
X147035599Y-83368645D01*
X147035601Y-83368645D01*
X147167381Y-83368645D01*
X147167383Y-83368645D01*
X147294677Y-83334537D01*
X147408805Y-83268645D01*
X147501991Y-83175459D01*
X147567883Y-83061331D01*
X147601991Y-82934037D01*
X147601991Y-82802253D01*
X147567883Y-82674959D01*
X147567878Y-82674951D01*
X147531935Y-82612696D01*
X147501991Y-82560831D01*
X147408805Y-82467645D01*
X147326507Y-82420130D01*
X147326507Y-82420129D01*
X147326505Y-82420129D01*
X147294678Y-82401753D01*
X147231030Y-82384699D01*
X147167383Y-82367645D01*
X147167382Y-82367645D01*
X147035599Y-82367645D01*
X146908299Y-82401754D01*
X146908297Y-82401755D01*
X146794187Y-82467638D01*
X146794173Y-82467647D01*
X146794168Y-82467651D01*
X146700997Y-82560822D01*
X146700993Y-82560827D01*
X146700984Y-82560841D01*
X146635101Y-82674951D01*
X146635100Y-82674953D01*
X146635099Y-82674957D01*
X146600991Y-82802253D01*
X134886606Y-82802253D01*
X134866392Y-82726814D01*
X134866387Y-82726806D01*
X134836450Y-82674953D01*
X134800500Y-82612686D01*
X134707314Y-82519500D01*
X134650250Y-82486554D01*
X134593187Y-82453608D01*
X134529539Y-82436554D01*
X134465892Y-82419500D01*
X134465891Y-82419500D01*
X134334108Y-82419500D01*
X134206808Y-82453609D01*
X134206806Y-82453610D01*
X134092696Y-82519493D01*
X134092682Y-82519502D01*
X134092677Y-82519506D01*
X133999506Y-82612677D01*
X133999502Y-82612682D01*
X133999493Y-82612696D01*
X133933610Y-82726806D01*
X133933609Y-82726808D01*
X133933608Y-82726812D01*
X133899500Y-82854108D01*
X104503992Y-82854108D01*
X104198916Y-82549008D01*
X104177771Y-82520757D01*
X104165163Y-82497665D01*
X104150000Y-82438247D01*
X104150000Y-79634108D01*
X107299500Y-79634108D01*
X107299500Y-79765891D01*
X107310465Y-79806814D01*
X107333608Y-79893188D01*
X107347675Y-79917552D01*
X107366121Y-79949500D01*
X107399500Y-80007314D01*
X107492686Y-80100500D01*
X107606814Y-80166392D01*
X107734108Y-80200500D01*
X107734110Y-80200500D01*
X107865890Y-80200500D01*
X107865892Y-80200500D01*
X107993186Y-80166392D01*
X108107314Y-80100500D01*
X108200500Y-80007314D01*
X108242766Y-79934108D01*
X127999500Y-79934108D01*
X127999500Y-80065891D01*
X128008773Y-80100499D01*
X128033608Y-80193188D01*
X128037830Y-80200500D01*
X128066554Y-80250250D01*
X128099500Y-80307314D01*
X128192686Y-80400500D01*
X128306814Y-80466392D01*
X128434108Y-80500500D01*
X128434110Y-80500500D01*
X128565890Y-80500500D01*
X128565892Y-80500500D01*
X128693186Y-80466392D01*
X128807314Y-80400500D01*
X128823706Y-80384108D01*
X135899500Y-80384108D01*
X135899500Y-80515891D01*
X135916554Y-80579539D01*
X135933608Y-80643188D01*
X135933609Y-80643189D01*
X135966554Y-80700250D01*
X135999500Y-80757314D01*
X136092686Y-80850500D01*
X136191521Y-80907563D01*
X136199906Y-80912404D01*
X136206814Y-80916392D01*
X136334108Y-80950500D01*
X136334110Y-80950500D01*
X136465890Y-80950500D01*
X136465892Y-80950500D01*
X136593186Y-80916392D01*
X136707314Y-80850500D01*
X136723706Y-80834108D01*
X142887000Y-80834108D01*
X142887000Y-80965891D01*
X142921108Y-81093187D01*
X142927108Y-81103579D01*
X142987000Y-81207314D01*
X142987002Y-81207316D01*
X143039993Y-81260307D01*
X143045933Y-81268607D01*
X143047277Y-81272461D01*
X143053927Y-81281345D01*
X143061419Y-81295066D01*
X143076271Y-81363326D01*
X143076142Y-81365132D01*
X143056776Y-81423331D01*
X143052594Y-81429839D01*
X143035957Y-81450485D01*
X142992926Y-81493516D01*
X142992926Y-81493517D01*
X142927036Y-81607638D01*
X142927035Y-81607640D01*
X142927034Y-81607644D01*
X142892926Y-81734940D01*
X142892926Y-81866723D01*
X142903877Y-81907594D01*
X142927034Y-81994020D01*
X142959980Y-82051082D01*
X142992926Y-82108146D01*
X143086112Y-82201332D01*
X143200240Y-82267224D01*
X143327534Y-82301332D01*
X143327536Y-82301332D01*
X143459316Y-82301332D01*
X143459318Y-82301332D01*
X143586612Y-82267224D01*
X143700740Y-82201332D01*
X143793926Y-82108146D01*
X143859818Y-81994018D01*
X143893926Y-81866724D01*
X143893926Y-81734940D01*
X143859818Y-81607646D01*
X143859813Y-81607638D01*
X143850989Y-81592353D01*
X143805446Y-81513471D01*
X164049499Y-81513471D01*
X164089864Y-81716394D01*
X164089868Y-81716412D01*
X164089870Y-81716420D01*
X164169058Y-81907596D01*
X164226804Y-81994020D01*
X164284027Y-82079661D01*
X164430336Y-82225970D01*
X164430340Y-82225973D01*
X164430342Y-82225975D01*
X164430345Y-82225977D01*
X164430349Y-82225980D01*
X164430348Y-82225980D01*
X164430411Y-82226032D01*
X164430448Y-82226046D01*
X164602402Y-82340941D01*
X164793580Y-82420130D01*
X164984540Y-82458114D01*
X164993559Y-82459908D01*
X164995794Y-82460409D01*
X164996532Y-82460500D01*
X165203466Y-82460500D01*
X165207586Y-82460500D01*
X165215435Y-82458118D01*
X165406420Y-82420130D01*
X165597598Y-82340941D01*
X165769655Y-82225977D01*
X165915977Y-82079655D01*
X166030941Y-81907598D01*
X166110130Y-81716420D01*
X166150500Y-81513465D01*
X166150500Y-81306535D01*
X166110130Y-81103580D01*
X166030941Y-80912402D01*
X165916046Y-80740449D01*
X165916036Y-80740417D01*
X165915980Y-80740348D01*
X165915980Y-80740349D01*
X165915977Y-80740345D01*
X165915975Y-80740342D01*
X165915973Y-80740340D01*
X165915970Y-80740336D01*
X165769662Y-80594028D01*
X165769655Y-80594022D01*
X165633058Y-80502752D01*
X165633052Y-80502749D01*
X165628190Y-80499500D01*
X165597598Y-80479059D01*
X165567017Y-80466392D01*
X165406420Y-80399870D01*
X165406412Y-80399868D01*
X165406404Y-80399866D01*
X165406394Y-80399864D01*
X165203471Y-80359500D01*
X165203469Y-80359500D01*
X165203465Y-80359500D01*
X164996535Y-80359500D01*
X164996530Y-80359500D01*
X164996528Y-80359500D01*
X164793604Y-80399864D01*
X164793579Y-80399870D01*
X164602404Y-80479057D01*
X164430337Y-80594027D01*
X164284027Y-80740337D01*
X164169057Y-80912404D01*
X164089870Y-81103579D01*
X164049500Y-81306527D01*
X164049500Y-81306530D01*
X164049500Y-81513469D01*
X164049500Y-81513471D01*
X164049499Y-81513471D01*
X143805446Y-81513471D01*
X143793926Y-81493518D01*
X143748148Y-81447740D01*
X143734295Y-81431241D01*
X143728861Y-81423490D01*
X143727851Y-81420502D01*
X143726995Y-81419482D01*
X143724811Y-81415482D01*
X143725697Y-81414998D01*
X143717237Y-81400739D01*
X143716567Y-81401046D01*
X143715302Y-81398277D01*
X143715150Y-81397222D01*
X143714215Y-81395646D01*
X143713175Y-81392858D01*
X143714453Y-81392381D01*
X143712329Y-81377617D01*
X143707450Y-81368678D01*
X143707956Y-81361621D01*
X143706495Y-81357297D01*
X143708342Y-81349917D01*
X143706207Y-81335075D01*
X143704833Y-81334978D01*
X143704932Y-81333581D01*
X143705696Y-81331527D01*
X143705350Y-81329120D01*
X143705355Y-81329083D01*
X143705788Y-81326075D01*
X143707627Y-81326339D01*
X143711170Y-81316821D01*
X143712450Y-81298987D01*
X143729267Y-81268203D01*
X143729304Y-81268104D01*
X143730249Y-81266841D01*
X143741809Y-81253504D01*
X143782552Y-81212762D01*
X143788000Y-81207314D01*
X143853892Y-81093186D01*
X143888000Y-80965892D01*
X143888000Y-80834108D01*
X143853892Y-80706814D01*
X143853887Y-80706806D01*
X143817157Y-80643188D01*
X143788000Y-80592686D01*
X143694814Y-80499500D01*
X143637468Y-80466391D01*
X143633275Y-80463970D01*
X143580688Y-80433608D01*
X143517039Y-80416554D01*
X143453392Y-80399500D01*
X143453391Y-80399500D01*
X143321608Y-80399500D01*
X143194308Y-80433609D01*
X143194306Y-80433610D01*
X143080196Y-80499493D01*
X143080182Y-80499502D01*
X143080177Y-80499506D01*
X142987006Y-80592677D01*
X142987002Y-80592682D01*
X142986993Y-80592696D01*
X142921110Y-80706806D01*
X142921109Y-80706808D01*
X142921108Y-80706812D01*
X142887000Y-80834108D01*
X136723706Y-80834108D01*
X136800500Y-80757314D01*
X136866392Y-80643186D01*
X136900500Y-80515892D01*
X136900500Y-80384108D01*
X136866392Y-80256814D01*
X136866387Y-80256806D01*
X136829657Y-80193188D01*
X136800500Y-80142686D01*
X136707314Y-80049500D01*
X136650250Y-80016554D01*
X136593187Y-79983608D01*
X136529539Y-79966554D01*
X136465892Y-79949500D01*
X136465891Y-79949500D01*
X136334108Y-79949500D01*
X136206808Y-79983609D01*
X136206806Y-79983610D01*
X136092696Y-80049493D01*
X136092682Y-80049502D01*
X136092677Y-80049506D01*
X135999506Y-80142677D01*
X135999502Y-80142682D01*
X135999493Y-80142696D01*
X135933610Y-80256806D01*
X135933609Y-80256808D01*
X135933608Y-80256812D01*
X135899500Y-80384108D01*
X128823706Y-80384108D01*
X128900500Y-80307314D01*
X128966392Y-80193186D01*
X129000500Y-80065892D01*
X129000500Y-79934108D01*
X128966392Y-79806814D01*
X128961435Y-79798229D01*
X128957563Y-79791521D01*
X128900500Y-79692686D01*
X128807314Y-79599500D01*
X128750250Y-79566554D01*
X128693187Y-79533608D01*
X128593188Y-79506814D01*
X128586813Y-79505106D01*
X128586806Y-79505103D01*
X128565893Y-79499500D01*
X128565892Y-79499500D01*
X128434108Y-79499500D01*
X128306808Y-79533609D01*
X128306806Y-79533610D01*
X128192696Y-79599493D01*
X128192682Y-79599502D01*
X128192677Y-79599506D01*
X128099506Y-79692677D01*
X128099502Y-79692682D01*
X128099493Y-79692696D01*
X128033610Y-79806806D01*
X128033609Y-79806808D01*
X128033608Y-79806812D01*
X127999500Y-79934108D01*
X108242766Y-79934108D01*
X108266392Y-79893186D01*
X108300500Y-79765892D01*
X108300500Y-79634108D01*
X108266392Y-79506814D01*
X108266387Y-79506806D01*
X108257563Y-79491521D01*
X108200500Y-79392686D01*
X108107314Y-79299500D01*
X108050250Y-79266554D01*
X107993187Y-79233608D01*
X107929539Y-79216554D01*
X107865892Y-79199500D01*
X107865891Y-79199500D01*
X107734108Y-79199500D01*
X107606808Y-79233609D01*
X107606806Y-79233610D01*
X107492696Y-79299493D01*
X107492682Y-79299502D01*
X107492677Y-79299506D01*
X107399506Y-79392677D01*
X107399502Y-79392682D01*
X107399493Y-79392696D01*
X107333610Y-79506806D01*
X107333609Y-79506808D01*
X107333608Y-79506812D01*
X107299500Y-79634108D01*
X104150000Y-79634108D01*
X104150000Y-78432967D01*
X148113491Y-78432967D01*
X148113491Y-78564750D01*
X148130545Y-78628398D01*
X148147599Y-78692047D01*
X148180545Y-78749109D01*
X148213491Y-78806173D01*
X148306677Y-78899359D01*
X148420805Y-78965251D01*
X148548099Y-78999359D01*
X148548101Y-78999359D01*
X148679881Y-78999359D01*
X148679883Y-78999359D01*
X148807177Y-78965251D01*
X148921305Y-78899359D01*
X149014491Y-78806173D01*
X149080383Y-78692045D01*
X149114491Y-78564751D01*
X149114491Y-78432967D01*
X149080383Y-78305673D01*
X149080378Y-78305665D01*
X149057703Y-78266391D01*
X149014491Y-78191545D01*
X148921305Y-78098359D01*
X148837978Y-78050250D01*
X148807179Y-78032468D01*
X148807178Y-78032467D01*
X148807177Y-78032467D01*
X148686929Y-78000247D01*
X164049500Y-78000247D01*
X164049500Y-79739752D01*
X164061131Y-79798229D01*
X164061132Y-79798230D01*
X164061132Y-79798231D01*
X164061134Y-79798233D01*
X164105447Y-79864552D01*
X164171765Y-79908864D01*
X164171767Y-79908866D01*
X164171770Y-79908868D01*
X164222612Y-79918981D01*
X164225337Y-79919703D01*
X164230249Y-79920500D01*
X165969750Y-79920500D01*
X165973873Y-79920500D01*
X165981732Y-79918116D01*
X166001381Y-79914208D01*
X166016258Y-79911249D01*
X166022354Y-79910648D01*
X166022386Y-79910639D01*
X166033311Y-79907902D01*
X166043515Y-79898654D01*
X166094552Y-79864552D01*
X166138867Y-79798231D01*
X166138867Y-79798229D01*
X166138868Y-79798229D01*
X166141030Y-79787355D01*
X166141166Y-79787090D01*
X166141249Y-79786256D01*
X166145300Y-79765892D01*
X166150072Y-79741896D01*
X166150500Y-79739931D01*
X166150500Y-78002295D01*
X166150500Y-78000249D01*
X166150499Y-78000247D01*
X166138868Y-77941770D01*
X166138867Y-77941769D01*
X166094552Y-77875447D01*
X166058146Y-77851121D01*
X166038385Y-77837917D01*
X166033641Y-77834024D01*
X166028230Y-77831132D01*
X166028229Y-77831131D01*
X165969752Y-77819500D01*
X165969750Y-77819500D01*
X164230249Y-77819500D01*
X164230247Y-77819500D01*
X164171770Y-77831131D01*
X164171769Y-77831131D01*
X164171768Y-77831132D01*
X164166355Y-77834024D01*
X164161614Y-77837916D01*
X164105447Y-77875446D01*
X164105446Y-77875447D01*
X164078272Y-77916114D01*
X164078270Y-77916119D01*
X164061132Y-77941769D01*
X164061131Y-77941770D01*
X164049500Y-78000247D01*
X148686929Y-78000247D01*
X148679883Y-77998359D01*
X148679882Y-77998359D01*
X148548099Y-77998359D01*
X148420799Y-78032468D01*
X148420797Y-78032469D01*
X148306687Y-78098352D01*
X148306673Y-78098361D01*
X148306668Y-78098365D01*
X148213497Y-78191536D01*
X148213493Y-78191541D01*
X148213484Y-78191555D01*
X148147601Y-78305665D01*
X148147600Y-78305667D01*
X148147599Y-78305671D01*
X148113491Y-78432967D01*
X104150000Y-78432967D01*
X104150000Y-77734108D01*
X118999500Y-77734108D01*
X118999500Y-77865892D01*
X119016554Y-77929539D01*
X119033608Y-77993187D01*
X119066554Y-78050250D01*
X119099500Y-78107314D01*
X119192686Y-78200500D01*
X119306814Y-78266392D01*
X119434108Y-78300500D01*
X119434110Y-78300500D01*
X119565890Y-78300500D01*
X119565892Y-78300500D01*
X119693186Y-78266392D01*
X119807314Y-78200500D01*
X119900500Y-78107314D01*
X119966392Y-77993186D01*
X120000500Y-77865892D01*
X120000500Y-77734108D01*
X119966392Y-77606814D01*
X119966387Y-77606806D01*
X119957563Y-77591521D01*
X119900500Y-77492686D01*
X119807314Y-77399500D01*
X119750250Y-77366554D01*
X119693187Y-77333608D01*
X119629539Y-77316554D01*
X119565892Y-77299500D01*
X119565891Y-77299500D01*
X119434108Y-77299500D01*
X119306808Y-77333609D01*
X119306806Y-77333610D01*
X119192696Y-77399493D01*
X119192682Y-77399502D01*
X119192677Y-77399506D01*
X119099506Y-77492677D01*
X119099502Y-77492682D01*
X119099493Y-77492696D01*
X119033610Y-77606806D01*
X119033609Y-77606808D01*
X119033608Y-77606812D01*
X118999500Y-77734108D01*
X104150000Y-77734108D01*
X104150000Y-76932967D01*
X146613491Y-76932967D01*
X146613491Y-77064750D01*
X146630545Y-77128398D01*
X146647599Y-77192047D01*
X146680545Y-77249109D01*
X146713491Y-77306173D01*
X146806677Y-77399359D01*
X146920805Y-77465251D01*
X147048099Y-77499359D01*
X147048101Y-77499359D01*
X147179881Y-77499359D01*
X147179883Y-77499359D01*
X147307177Y-77465251D01*
X147421305Y-77399359D01*
X147514491Y-77306173D01*
X147580383Y-77192045D01*
X147614491Y-77064751D01*
X147614491Y-76932967D01*
X147580383Y-76805673D01*
X147580378Y-76805665D01*
X147523596Y-76707316D01*
X147514491Y-76691545D01*
X147421305Y-76598359D01*
X147364241Y-76565413D01*
X147307178Y-76532467D01*
X147243530Y-76515413D01*
X147179883Y-76498359D01*
X147179882Y-76498359D01*
X147048099Y-76498359D01*
X146920799Y-76532468D01*
X146920797Y-76532469D01*
X146806687Y-76598352D01*
X146806673Y-76598361D01*
X146806668Y-76598365D01*
X146713497Y-76691536D01*
X146713493Y-76691541D01*
X146713484Y-76691555D01*
X146647601Y-76805665D01*
X146647600Y-76805667D01*
X146631329Y-76866392D01*
X146613491Y-76932967D01*
X104150000Y-76932967D01*
X104150000Y-76334106D01*
X160899500Y-76334106D01*
X160899500Y-76334108D01*
X160899500Y-76465892D01*
X160916554Y-76529539D01*
X160933608Y-76593187D01*
X160966554Y-76650250D01*
X160999500Y-76707314D01*
X161092686Y-76800500D01*
X161206814Y-76866392D01*
X161334108Y-76900500D01*
X161334110Y-76900500D01*
X161465890Y-76900500D01*
X161465892Y-76900500D01*
X161593186Y-76866392D01*
X161707314Y-76800500D01*
X161800500Y-76707314D01*
X161866392Y-76593186D01*
X161900500Y-76465892D01*
X161900500Y-76334108D01*
X161866392Y-76206814D01*
X161866387Y-76206806D01*
X161834223Y-76151096D01*
X161800500Y-76092686D01*
X161707314Y-75999500D01*
X161602297Y-75938868D01*
X161600624Y-75937902D01*
X161593189Y-75933608D01*
X161529539Y-75916554D01*
X161465892Y-75899500D01*
X161465891Y-75899500D01*
X161334108Y-75899500D01*
X161206808Y-75933609D01*
X161206806Y-75933610D01*
X161092696Y-75999493D01*
X161092682Y-75999502D01*
X161092677Y-75999506D01*
X160999506Y-76092677D01*
X160999502Y-76092682D01*
X160999493Y-76092696D01*
X160933610Y-76206806D01*
X160933609Y-76206807D01*
X160930943Y-76216757D01*
X160922036Y-76250000D01*
X160922036Y-76250001D01*
X160922035Y-76250000D01*
X160899500Y-76334106D01*
X104150000Y-76334106D01*
X104150000Y-75134108D01*
X134949500Y-75134108D01*
X134949500Y-75265891D01*
X134958665Y-75300096D01*
X134983608Y-75393188D01*
X135010820Y-75440318D01*
X135016554Y-75450250D01*
X135049500Y-75507314D01*
X135142686Y-75600500D01*
X135256814Y-75666392D01*
X135384108Y-75700500D01*
X135384110Y-75700500D01*
X135515890Y-75700500D01*
X135515892Y-75700500D01*
X135643186Y-75666392D01*
X135757314Y-75600500D01*
X135850500Y-75507314D01*
X135916392Y-75393186D01*
X135950500Y-75265892D01*
X135950500Y-75134108D01*
X144449500Y-75134108D01*
X144449500Y-75265891D01*
X144458665Y-75300096D01*
X144483608Y-75393188D01*
X144510820Y-75440318D01*
X144516554Y-75450250D01*
X144549500Y-75507314D01*
X144642686Y-75600500D01*
X144756814Y-75666392D01*
X144884108Y-75700500D01*
X144884110Y-75700500D01*
X145015890Y-75700500D01*
X145015892Y-75700500D01*
X145143186Y-75666392D01*
X145257314Y-75600500D01*
X145347159Y-75510654D01*
X145352563Y-75506947D01*
X145354687Y-75503723D01*
X145361694Y-75498208D01*
X145375656Y-75488013D01*
X145386668Y-75484054D01*
X145400255Y-75478033D01*
X145405261Y-75477370D01*
X145441403Y-75464377D01*
X145464056Y-75469587D01*
X145469521Y-75468864D01*
X145477761Y-75472739D01*
X145509495Y-75480038D01*
X145523268Y-75494141D01*
X145532747Y-75498599D01*
X145541935Y-75513254D01*
X145558304Y-75530015D01*
X145560024Y-75533255D01*
X145563679Y-75547937D01*
X145569861Y-75557797D01*
X145569700Y-75572120D01*
X145574500Y-75591397D01*
X145574500Y-75769752D01*
X145586131Y-75828229D01*
X145586132Y-75828230D01*
X145586132Y-75828231D01*
X145586134Y-75828233D01*
X145630447Y-75894552D01*
X145696765Y-75938864D01*
X145696767Y-75938866D01*
X145696770Y-75938868D01*
X145747612Y-75948981D01*
X145750337Y-75949703D01*
X145755249Y-75950500D01*
X147494750Y-75950500D01*
X147498873Y-75950500D01*
X147506732Y-75948116D01*
X147526381Y-75944208D01*
X147541258Y-75941249D01*
X147547354Y-75940648D01*
X147547386Y-75940639D01*
X147558311Y-75937902D01*
X147568515Y-75928654D01*
X147619552Y-75894552D01*
X147663867Y-75828231D01*
X147663867Y-75828229D01*
X147663868Y-75828229D01*
X147666030Y-75817355D01*
X147666166Y-75817090D01*
X147666249Y-75816256D01*
X147675068Y-75771917D01*
X147675500Y-75769931D01*
X147675500Y-75483877D01*
X147677387Y-75477450D01*
X147676185Y-75470860D01*
X147680521Y-75448950D01*
X147683055Y-75440318D01*
X147692696Y-75425313D01*
X147695185Y-75416838D01*
X147701857Y-75411056D01*
X147720825Y-75381537D01*
X147784379Y-75352508D01*
X147853538Y-75362447D01*
X147870984Y-75376763D01*
X147871095Y-75376792D01*
X147871347Y-75377062D01*
X147902612Y-75402719D01*
X147908605Y-75411030D01*
X147918511Y-75427261D01*
X148010368Y-75607538D01*
X148010375Y-75607550D01*
X148045674Y-75656137D01*
X148049728Y-75661716D01*
X148555297Y-75156147D01*
X148616619Y-75122663D01*
X148686311Y-75127647D01*
X148742244Y-75169519D01*
X148750363Y-75181828D01*
X148764896Y-75207000D01*
X148764899Y-75207004D01*
X148764901Y-75207007D01*
X148857993Y-75300099D01*
X148883169Y-75314634D01*
X148931384Y-75365202D01*
X148944606Y-75433809D01*
X148918638Y-75498673D01*
X148908849Y-75509702D01*
X148403282Y-76015268D01*
X148403282Y-76015269D01*
X148403282Y-76015270D01*
X148457449Y-76054624D01*
X148646782Y-76151095D01*
X148646784Y-76151096D01*
X148848866Y-76216756D01*
X148848867Y-76216756D01*
X148848870Y-76216757D01*
X149058754Y-76250000D01*
X149271245Y-76250000D01*
X149271246Y-76250000D01*
X149481127Y-76216757D01*
X149481130Y-76216757D01*
X149507929Y-76208050D01*
X149683217Y-76151095D01*
X149872554Y-76054622D01*
X149874976Y-76052862D01*
X149894121Y-76038953D01*
X149920858Y-76029412D01*
X149926717Y-76015269D01*
X149421149Y-75509702D01*
X149387664Y-75448379D01*
X149392648Y-75378688D01*
X149434519Y-75322754D01*
X149446822Y-75314639D01*
X149472007Y-75300099D01*
X149565099Y-75207007D01*
X149579634Y-75181830D01*
X149630199Y-75133616D01*
X149698805Y-75120391D01*
X149763671Y-75146358D01*
X149774702Y-75156149D01*
X150280269Y-75661717D01*
X150280269Y-75661716D01*
X150280270Y-75661717D01*
X150280270Y-75661716D01*
X150293738Y-75656137D01*
X150299955Y-75634967D01*
X150303954Y-75629118D01*
X150319621Y-75607555D01*
X150323216Y-75600500D01*
X150416095Y-75418217D01*
X150481757Y-75216130D01*
X150481757Y-75216127D01*
X150515000Y-75006246D01*
X150515000Y-74793753D01*
X150505474Y-74733608D01*
X150483284Y-74593511D01*
X150483283Y-74593505D01*
X150483283Y-74593506D01*
X150481756Y-74583865D01*
X150454473Y-74499898D01*
X150416095Y-74381782D01*
X150319624Y-74192449D01*
X150280270Y-74138282D01*
X150280269Y-74138282D01*
X150280268Y-74138282D01*
X149774702Y-74643849D01*
X149713379Y-74677334D01*
X149643687Y-74672350D01*
X149587754Y-74630478D01*
X149579634Y-74618169D01*
X149565099Y-74592993D01*
X149472007Y-74499901D01*
X149472004Y-74499899D01*
X149472000Y-74499896D01*
X149446828Y-74485363D01*
X149398613Y-74434796D01*
X149385391Y-74366189D01*
X149411359Y-74301324D01*
X149421135Y-74290310D01*
X149926716Y-73784728D01*
X149872550Y-73745375D01*
X149865189Y-73741624D01*
X149683214Y-73648902D01*
X149481130Y-73583242D01*
X149271251Y-73550000D01*
X149271246Y-73550000D01*
X149058754Y-73550000D01*
X149058749Y-73550000D01*
X148858513Y-73581715D01*
X148858505Y-73581715D01*
X148858506Y-73581716D01*
X148848865Y-73583242D01*
X148646784Y-73648903D01*
X148457438Y-73745380D01*
X148403282Y-73784727D01*
X148403282Y-73784728D01*
X148908850Y-74290296D01*
X148942335Y-74351619D01*
X148937351Y-74421311D01*
X148895479Y-74477244D01*
X148883173Y-74485362D01*
X148857996Y-74499898D01*
X148857990Y-74499903D01*
X148764903Y-74592990D01*
X148764898Y-74592996D01*
X148750362Y-74618173D01*
X148699793Y-74666387D01*
X148631185Y-74679607D01*
X148566322Y-74653637D01*
X148555296Y-74643850D01*
X148049728Y-74138282D01*
X148049727Y-74138282D01*
X148010380Y-74192438D01*
X147920008Y-74369803D01*
X147911910Y-74378469D01*
X147906066Y-74391325D01*
X147897219Y-74402301D01*
X147875655Y-74417269D01*
X147873174Y-74419925D01*
X147863455Y-74425737D01*
X147839822Y-74442143D01*
X147769997Y-74444629D01*
X147733778Y-74423134D01*
X147729141Y-74421609D01*
X147727219Y-74419241D01*
X147709912Y-74408970D01*
X147692633Y-74376632D01*
X147685108Y-74367361D01*
X147684432Y-74361284D01*
X147679996Y-74352981D01*
X147678817Y-74347992D01*
X147675500Y-74319503D01*
X147675500Y-74030063D01*
X147675069Y-74028081D01*
X147663868Y-73971770D01*
X147660975Y-73966358D01*
X147657081Y-73961613D01*
X147655956Y-73959930D01*
X147619552Y-73905447D01*
X147583146Y-73881121D01*
X147563385Y-73867917D01*
X147558641Y-73864024D01*
X147553230Y-73861132D01*
X147553229Y-73861131D01*
X147494752Y-73849500D01*
X147494750Y-73849500D01*
X145755249Y-73849500D01*
X145755247Y-73849500D01*
X145696770Y-73861131D01*
X145696769Y-73861131D01*
X145696768Y-73861132D01*
X145696765Y-73861133D01*
X145696759Y-73861138D01*
X145630447Y-73905447D01*
X145586138Y-73971759D01*
X145586133Y-73971765D01*
X145586132Y-73971768D01*
X145586132Y-73971769D01*
X145586131Y-73971770D01*
X145581871Y-73993188D01*
X145574500Y-74030247D01*
X145574500Y-74801486D01*
X145574499Y-74801488D01*
X145574500Y-74801489D01*
X145573372Y-74809332D01*
X145569476Y-74836424D01*
X145566289Y-74847277D01*
X145528514Y-74906054D01*
X145464957Y-74935077D01*
X145395802Y-74925133D01*
X145395800Y-74925132D01*
X145395799Y-74925132D01*
X145395798Y-74925131D01*
X145391889Y-74923346D01*
X145353864Y-74895061D01*
X145353370Y-74895556D01*
X145344169Y-74886355D01*
X145257316Y-74799502D01*
X145257314Y-74799500D01*
X145200250Y-74766554D01*
X145143187Y-74733608D01*
X145079539Y-74716554D01*
X145015892Y-74699500D01*
X145015891Y-74699500D01*
X144884108Y-74699500D01*
X144756808Y-74733609D01*
X144756806Y-74733610D01*
X144642696Y-74799493D01*
X144642682Y-74799502D01*
X144642677Y-74799506D01*
X144549506Y-74892677D01*
X144549502Y-74892682D01*
X144549493Y-74892696D01*
X144483610Y-75006806D01*
X144483609Y-75006808D01*
X144483608Y-75006812D01*
X144449500Y-75134108D01*
X135950500Y-75134108D01*
X135916392Y-75006814D01*
X135916387Y-75006806D01*
X135907563Y-74991521D01*
X135850500Y-74892686D01*
X135757314Y-74799500D01*
X135700250Y-74766554D01*
X135643187Y-74733608D01*
X135579539Y-74716554D01*
X135515892Y-74699500D01*
X135515891Y-74699500D01*
X135384108Y-74699500D01*
X135256808Y-74733609D01*
X135256806Y-74733610D01*
X135142696Y-74799493D01*
X135142682Y-74799502D01*
X135142677Y-74799506D01*
X135049506Y-74892677D01*
X135049502Y-74892682D01*
X135049493Y-74892696D01*
X134983610Y-75006806D01*
X134983609Y-75006808D01*
X134983608Y-75006812D01*
X134949500Y-75134108D01*
X104150000Y-75134108D01*
X104150000Y-73434108D01*
X133249497Y-73434108D01*
X133249497Y-73565891D01*
X133271740Y-73648904D01*
X133283606Y-73693190D01*
X133313735Y-73745375D01*
X133349492Y-73807307D01*
X133349495Y-73807311D01*
X133349497Y-73807314D01*
X133442683Y-73900500D01*
X133541518Y-73957563D01*
X133548533Y-73961613D01*
X133556811Y-73966392D01*
X133684105Y-74000500D01*
X133684107Y-74000500D01*
X133815887Y-74000500D01*
X133815889Y-74000500D01*
X133943183Y-73966392D01*
X134057311Y-73900500D01*
X134150497Y-73807314D01*
X134216389Y-73693186D01*
X134250497Y-73565892D01*
X134250497Y-73434108D01*
X134216389Y-73306814D01*
X134216384Y-73306806D01*
X134183167Y-73249272D01*
X134150497Y-73192686D01*
X134057311Y-73099500D01*
X133999092Y-73065887D01*
X133943185Y-73033608D01*
X133879536Y-73016554D01*
X133815889Y-72999500D01*
X133815888Y-72999500D01*
X133684105Y-72999500D01*
X133556805Y-73033609D01*
X133556803Y-73033610D01*
X133442693Y-73099493D01*
X133442679Y-73099502D01*
X133442674Y-73099506D01*
X133349503Y-73192677D01*
X133349499Y-73192682D01*
X133349490Y-73192696D01*
X133283607Y-73306806D01*
X133283606Y-73306808D01*
X133265699Y-73373640D01*
X133249497Y-73434108D01*
X104150000Y-73434108D01*
X104150000Y-72296608D01*
X113412000Y-72296608D01*
X113412000Y-72428391D01*
X113446108Y-72555687D01*
X113458043Y-72576358D01*
X113512000Y-72669814D01*
X113605186Y-72763000D01*
X113719314Y-72828892D01*
X113846608Y-72863000D01*
X113846610Y-72863000D01*
X113978390Y-72863000D01*
X113978392Y-72863000D01*
X114105686Y-72828892D01*
X114219814Y-72763000D01*
X114313000Y-72669814D01*
X114378892Y-72555686D01*
X114413000Y-72428392D01*
X114413000Y-72296608D01*
X114378892Y-72169314D01*
X114378889Y-72169308D01*
X114376917Y-72165893D01*
X114376908Y-72165878D01*
X114370065Y-72154025D01*
X114370063Y-72154021D01*
X114313000Y-72055186D01*
X114219814Y-71962000D01*
X114162750Y-71929054D01*
X114105687Y-71896108D01*
X114042039Y-71879054D01*
X113978392Y-71862000D01*
X113978391Y-71862000D01*
X113846608Y-71862000D01*
X113719308Y-71896109D01*
X113719306Y-71896110D01*
X113605196Y-71961993D01*
X113605182Y-71962002D01*
X113605177Y-71962006D01*
X113512006Y-72055177D01*
X113512002Y-72055182D01*
X113511993Y-72055196D01*
X113446110Y-72169306D01*
X113446109Y-72169308D01*
X113446108Y-72169312D01*
X113412000Y-72296608D01*
X104150000Y-72296608D01*
X104150000Y-71234108D01*
X160899500Y-71234108D01*
X160899500Y-71365891D01*
X160916554Y-71429539D01*
X160933608Y-71493188D01*
X160933609Y-71493189D01*
X160966554Y-71550250D01*
X160999500Y-71607314D01*
X160999501Y-71607315D01*
X160999502Y-71607316D01*
X161002932Y-71610746D01*
X161009438Y-71621572D01*
X161009670Y-71622462D01*
X161011987Y-71626020D01*
X161020543Y-71641690D01*
X161035394Y-71709949D01*
X161035265Y-71711755D01*
X161015899Y-71769954D01*
X161011719Y-71776459D01*
X161005237Y-71784504D01*
X161005344Y-71784581D01*
X160998997Y-71793385D01*
X160997637Y-71795914D01*
X160963612Y-71854847D01*
X160933609Y-71906813D01*
X160933609Y-71906814D01*
X160933608Y-71906816D01*
X160899500Y-72034111D01*
X160899500Y-72165894D01*
X160900417Y-72169317D01*
X160933495Y-72292772D01*
X160933496Y-72292774D01*
X160933608Y-72293190D01*
X160935583Y-72296610D01*
X160999500Y-72407317D01*
X160999502Y-72407319D01*
X161049426Y-72457243D01*
X161055565Y-72465952D01*
X161056829Y-72469662D01*
X161063046Y-72477967D01*
X161070538Y-72491688D01*
X161085390Y-72559948D01*
X161085261Y-72561754D01*
X161065893Y-72619956D01*
X161064560Y-72622032D01*
X161061712Y-72626463D01*
X161045076Y-72647106D01*
X160999502Y-72692679D01*
X160999501Y-72692680D01*
X160999493Y-72692693D01*
X160933610Y-72806803D01*
X160933609Y-72806804D01*
X160933608Y-72806809D01*
X160918552Y-72863000D01*
X160918552Y-72863001D01*
X160918551Y-72863000D01*
X160899500Y-72934103D01*
X160899500Y-72934105D01*
X160899500Y-73065889D01*
X160916554Y-73129536D01*
X160933608Y-73193184D01*
X160966554Y-73250247D01*
X160999500Y-73307311D01*
X160999501Y-73307312D01*
X160999502Y-73307313D01*
X161002932Y-73310743D01*
X161009438Y-73321569D01*
X161009670Y-73322459D01*
X161011987Y-73326017D01*
X161020543Y-73341687D01*
X161035394Y-73409946D01*
X161035265Y-73411752D01*
X161015899Y-73469951D01*
X161011719Y-73476456D01*
X161005237Y-73484501D01*
X161005344Y-73484578D01*
X160998997Y-73493382D01*
X160997641Y-73495904D01*
X160978450Y-73529145D01*
X160966410Y-73550000D01*
X160933608Y-73606811D01*
X160933608Y-73606812D01*
X160910464Y-73693190D01*
X160899500Y-73734108D01*
X160899500Y-73865891D01*
X160908773Y-73900499D01*
X160933608Y-73993188D01*
X160937830Y-74000500D01*
X160955005Y-74030247D01*
X160999500Y-74107314D01*
X161092686Y-74200500D01*
X161206814Y-74266392D01*
X161334108Y-74300500D01*
X161334110Y-74300500D01*
X161465890Y-74300500D01*
X161465892Y-74300500D01*
X161593186Y-74266392D01*
X161707314Y-74200500D01*
X161800500Y-74107314D01*
X161866392Y-73993186D01*
X161900500Y-73865892D01*
X161900500Y-73734108D01*
X161866392Y-73606814D01*
X161800500Y-73492686D01*
X161800493Y-73492679D01*
X161798473Y-73490046D01*
X161788015Y-73473984D01*
X161779453Y-73458305D01*
X161775898Y-73441958D01*
X161764605Y-73390035D01*
X161764734Y-73388232D01*
X161784100Y-73330046D01*
X161788288Y-73323528D01*
X161795932Y-73314050D01*
X161795552Y-73313758D01*
X161800494Y-73307316D01*
X161800500Y-73307311D01*
X161866392Y-73193183D01*
X161900500Y-73065889D01*
X161900500Y-72934105D01*
X161866392Y-72806811D01*
X161866387Y-72806803D01*
X161857563Y-72791518D01*
X161800500Y-72692683D01*
X161758105Y-72650288D01*
X161736953Y-72622032D01*
X161729461Y-72608311D01*
X161727633Y-72599908D01*
X161714609Y-72540051D01*
X161714738Y-72538242D01*
X161734104Y-72480047D01*
X161738297Y-72473523D01*
X161754919Y-72452897D01*
X161800500Y-72407317D01*
X161866392Y-72293189D01*
X161900500Y-72165895D01*
X161900500Y-72034111D01*
X161866392Y-71906817D01*
X161800500Y-71792689D01*
X161800493Y-71792682D01*
X161798473Y-71790049D01*
X161788015Y-71773987D01*
X161779453Y-71758308D01*
X161775037Y-71738000D01*
X161764605Y-71690038D01*
X161764734Y-71688235D01*
X161784100Y-71630049D01*
X161788288Y-71623531D01*
X161795932Y-71614053D01*
X161795552Y-71613761D01*
X161800494Y-71607319D01*
X161800500Y-71607314D01*
X161866392Y-71493186D01*
X161900500Y-71365892D01*
X161900500Y-71234108D01*
X161866392Y-71106814D01*
X161866387Y-71106806D01*
X161857563Y-71091521D01*
X161800500Y-70992686D01*
X161707314Y-70899500D01*
X161650250Y-70866554D01*
X161593187Y-70833608D01*
X161529539Y-70816554D01*
X161465892Y-70799500D01*
X161465891Y-70799500D01*
X161334108Y-70799500D01*
X161206808Y-70833609D01*
X161206806Y-70833610D01*
X161092696Y-70899493D01*
X161092682Y-70899502D01*
X161092677Y-70899506D01*
X160999506Y-70992677D01*
X160999502Y-70992682D01*
X160999493Y-70992696D01*
X160933610Y-71106806D01*
X160933609Y-71106808D01*
X160933608Y-71106812D01*
X160899500Y-71234108D01*
X104150000Y-71234108D01*
X104150000Y-69634108D01*
X132299500Y-69634108D01*
X132299500Y-69765891D01*
X132316554Y-69829539D01*
X132333608Y-69893188D01*
X132366554Y-69950250D01*
X132399500Y-70007314D01*
X132492686Y-70100500D01*
X132606814Y-70166392D01*
X132734108Y-70200500D01*
X132734110Y-70200500D01*
X132865890Y-70200500D01*
X132865892Y-70200500D01*
X132993186Y-70166392D01*
X133107314Y-70100500D01*
X133200500Y-70007314D01*
X133266392Y-69893186D01*
X133300500Y-69765892D01*
X133300500Y-69634108D01*
X133266392Y-69506814D01*
X133266387Y-69506806D01*
X133257563Y-69491521D01*
X133200500Y-69392686D01*
X133107314Y-69299500D01*
X133050250Y-69266554D01*
X132993187Y-69233608D01*
X132929539Y-69216554D01*
X132865892Y-69199500D01*
X132865891Y-69199500D01*
X132734108Y-69199500D01*
X132606808Y-69233609D01*
X132606806Y-69233610D01*
X132492696Y-69299493D01*
X132492682Y-69299502D01*
X132492677Y-69299506D01*
X132399506Y-69392677D01*
X132399502Y-69392682D01*
X132399493Y-69392696D01*
X132333610Y-69506806D01*
X132333609Y-69506808D01*
X132333608Y-69506812D01*
X132299500Y-69634108D01*
X104150000Y-69634108D01*
X104150000Y-68634108D01*
X160899500Y-68634108D01*
X160899500Y-68765891D01*
X160916554Y-68829539D01*
X160933608Y-68893188D01*
X160966554Y-68950250D01*
X160999500Y-69007314D01*
X161092686Y-69100500D01*
X161206814Y-69166392D01*
X161334108Y-69200500D01*
X161334110Y-69200500D01*
X161465890Y-69200500D01*
X161465892Y-69200500D01*
X161593186Y-69166392D01*
X161707314Y-69100500D01*
X161800500Y-69007314D01*
X161866392Y-68893186D01*
X161900500Y-68765892D01*
X161900500Y-68634108D01*
X161866392Y-68506814D01*
X161866387Y-68506806D01*
X161857563Y-68491521D01*
X161800500Y-68392686D01*
X161707314Y-68299500D01*
X161650250Y-68266554D01*
X161593187Y-68233608D01*
X161529539Y-68216554D01*
X161465892Y-68199500D01*
X161465891Y-68199500D01*
X161334108Y-68199500D01*
X161206808Y-68233609D01*
X161206806Y-68233610D01*
X161092696Y-68299493D01*
X161092682Y-68299502D01*
X161092677Y-68299506D01*
X160999506Y-68392677D01*
X160999502Y-68392682D01*
X160999493Y-68392696D01*
X160933610Y-68506806D01*
X160933609Y-68506808D01*
X160933608Y-68506812D01*
X160899500Y-68634108D01*
X104150000Y-68634108D01*
X104150000Y-68119191D01*
X104155022Y-68084258D01*
X104162434Y-68059013D01*
X104193728Y-68006271D01*
X105151076Y-67048923D01*
X105179326Y-67027775D01*
X105202418Y-67015167D01*
X105261843Y-67000000D01*
X110002699Y-67000000D01*
X110002700Y-67000000D01*
X111463943Y-65565890D01*
X111598219Y-65434108D01*
X144699500Y-65434108D01*
X144699500Y-65565891D01*
X144716554Y-65629539D01*
X144733608Y-65693188D01*
X144737253Y-65699500D01*
X144742053Y-65707813D01*
X144742055Y-65707820D01*
X144742057Y-65707820D01*
X144799500Y-65807314D01*
X144892686Y-65900500D01*
X145006814Y-65966392D01*
X145134108Y-66000500D01*
X145134110Y-66000500D01*
X145265890Y-66000500D01*
X145265892Y-66000500D01*
X145393186Y-65966392D01*
X145507314Y-65900500D01*
X145600500Y-65807314D01*
X145666392Y-65693186D01*
X145700500Y-65565892D01*
X145700500Y-65434108D01*
X146099500Y-65434108D01*
X146099500Y-65565891D01*
X146116554Y-65629539D01*
X146133608Y-65693188D01*
X146137253Y-65699500D01*
X146142053Y-65707813D01*
X146142055Y-65707820D01*
X146142057Y-65707820D01*
X146199500Y-65807314D01*
X146292686Y-65900500D01*
X146406814Y-65966392D01*
X146534108Y-66000500D01*
X146534110Y-66000500D01*
X146665890Y-66000500D01*
X146665892Y-66000500D01*
X146793186Y-65966392D01*
X146907314Y-65900500D01*
X147000500Y-65807314D01*
X147066392Y-65693186D01*
X147100500Y-65565892D01*
X147100500Y-65434108D01*
X147066392Y-65306814D01*
X147066387Y-65306806D01*
X147057563Y-65291521D01*
X147000500Y-65192686D01*
X146907314Y-65099500D01*
X146850250Y-65066554D01*
X146793187Y-65033608D01*
X146758625Y-65024347D01*
X146684755Y-65004554D01*
X146665893Y-64999500D01*
X146665892Y-64999500D01*
X146534108Y-64999500D01*
X146406808Y-65033609D01*
X146406806Y-65033610D01*
X146292696Y-65099493D01*
X146292682Y-65099502D01*
X146292677Y-65099506D01*
X146199506Y-65192677D01*
X146199502Y-65192682D01*
X146199493Y-65192696D01*
X146133610Y-65306806D01*
X146133609Y-65306808D01*
X146133608Y-65306812D01*
X146099500Y-65434108D01*
X145700500Y-65434108D01*
X145666392Y-65306814D01*
X145666387Y-65306806D01*
X145657563Y-65291521D01*
X145600500Y-65192686D01*
X145507314Y-65099500D01*
X145450250Y-65066554D01*
X145393187Y-65033608D01*
X145329539Y-65016554D01*
X145265892Y-64999500D01*
X145265891Y-64999500D01*
X145134108Y-64999500D01*
X145006808Y-65033609D01*
X145006806Y-65033610D01*
X144892696Y-65099493D01*
X144892682Y-65099502D01*
X144892677Y-65099506D01*
X144799506Y-65192677D01*
X144799502Y-65192682D01*
X144799493Y-65192696D01*
X144733610Y-65306806D01*
X144733609Y-65306808D01*
X144733608Y-65306812D01*
X144699500Y-65434108D01*
X111598219Y-65434108D01*
X111696673Y-65337482D01*
X112148844Y-64893707D01*
X154248698Y-64893707D01*
X154248698Y-65106291D01*
X154280457Y-65306808D01*
X154281952Y-65316243D01*
X154320248Y-65434109D01*
X154320249Y-65434109D01*
X154347643Y-65518417D01*
X154371833Y-65565892D01*
X154444149Y-65707820D01*
X154569088Y-65879786D01*
X154569090Y-65879788D01*
X154719414Y-66030112D01*
X154891367Y-66155042D01*
X154891398Y-66155060D01*
X154891640Y-66155182D01*
X155080786Y-66251557D01*
X155282955Y-66317246D01*
X155492911Y-66350500D01*
X155492912Y-66350500D01*
X155705484Y-66350500D01*
X155705485Y-66350500D01*
X155915441Y-66317246D01*
X156117610Y-66251557D01*
X156307014Y-66155051D01*
X156335840Y-66134108D01*
X160899500Y-66134108D01*
X160899500Y-66265891D01*
X160913260Y-66317246D01*
X160933608Y-66393188D01*
X160966554Y-66450250D01*
X160999500Y-66507314D01*
X161092686Y-66600500D01*
X161206814Y-66666392D01*
X161334108Y-66700500D01*
X161334110Y-66700500D01*
X161465890Y-66700500D01*
X161465892Y-66700500D01*
X161593186Y-66666392D01*
X161707314Y-66600500D01*
X161800500Y-66507314D01*
X161866392Y-66393186D01*
X161900500Y-66265892D01*
X161900500Y-66134108D01*
X161866392Y-66006814D01*
X161866387Y-66006806D01*
X161843054Y-65966392D01*
X161800500Y-65892686D01*
X161707314Y-65799500D01*
X161650250Y-65766554D01*
X161593187Y-65733608D01*
X161529539Y-65716554D01*
X161465892Y-65699500D01*
X161465891Y-65699500D01*
X161334108Y-65699500D01*
X161206808Y-65733609D01*
X161206806Y-65733610D01*
X161092696Y-65799493D01*
X161092682Y-65799502D01*
X161092677Y-65799506D01*
X160999506Y-65892677D01*
X160999502Y-65892682D01*
X160999493Y-65892696D01*
X160933610Y-66006806D01*
X160933609Y-66006808D01*
X160933608Y-66006812D01*
X160899500Y-66134108D01*
X156335840Y-66134108D01*
X156478990Y-66030104D01*
X156628660Y-65880433D01*
X156628666Y-65880430D01*
X156629264Y-65879843D01*
X156629305Y-65879786D01*
X156629307Y-65879786D01*
X156754246Y-65707820D01*
X156754245Y-65707820D01*
X156754249Y-65707816D01*
X156754251Y-65707810D01*
X156774643Y-65679744D01*
X156782928Y-65651529D01*
X156850755Y-65518412D01*
X156916444Y-65316243D01*
X156949698Y-65106287D01*
X156949698Y-64893713D01*
X156916444Y-64683757D01*
X156850755Y-64481588D01*
X156754249Y-64292184D01*
X156754247Y-64292181D01*
X156754246Y-64292179D01*
X156753900Y-64291703D01*
X156753898Y-64291699D01*
X156629310Y-64120216D01*
X156478986Y-63969892D01*
X156478984Y-63969890D01*
X156307018Y-63844951D01*
X156230078Y-63805748D01*
X156139443Y-63759567D01*
X156139438Y-63759565D01*
X156117612Y-63748444D01*
X156117611Y-63748443D01*
X156117610Y-63748443D01*
X155983039Y-63704718D01*
X155924272Y-63685623D01*
X155919750Y-63683770D01*
X155910560Y-63681600D01*
X155905797Y-63681226D01*
X155743639Y-63655543D01*
X155743639Y-63655542D01*
X155705485Y-63649500D01*
X155492911Y-63649500D01*
X155454756Y-63655542D01*
X155454757Y-63655543D01*
X155282955Y-63682753D01*
X155282931Y-63682759D01*
X155282480Y-63682908D01*
X155231410Y-63699502D01*
X155122689Y-63734828D01*
X155122687Y-63734828D01*
X155080788Y-63748441D01*
X155080782Y-63748443D01*
X154891380Y-63844949D01*
X154891377Y-63844950D01*
X154891377Y-63844951D01*
X154885653Y-63849110D01*
X154719408Y-63969892D01*
X154569090Y-64120210D01*
X154444147Y-64292182D01*
X154347643Y-64481580D01*
X154281950Y-64683759D01*
X154248698Y-64893707D01*
X112148844Y-64893707D01*
X113024709Y-64034106D01*
X144699500Y-64034106D01*
X144699500Y-64034108D01*
X144699500Y-64165892D01*
X144707737Y-64196632D01*
X144733608Y-64293187D01*
X144746487Y-64315494D01*
X144746488Y-64315497D01*
X144746489Y-64315497D01*
X144799500Y-64407314D01*
X144892686Y-64500500D01*
X145006814Y-64566392D01*
X145134108Y-64600500D01*
X145134110Y-64600500D01*
X145265890Y-64600500D01*
X145265892Y-64600500D01*
X145393186Y-64566392D01*
X145507314Y-64500500D01*
X145600500Y-64407314D01*
X145666392Y-64293186D01*
X145700500Y-64165892D01*
X145700500Y-64034108D01*
X145700499Y-64034106D01*
X146099500Y-64034106D01*
X146099500Y-64034108D01*
X146099500Y-64165892D01*
X146107737Y-64196632D01*
X146133608Y-64293187D01*
X146146487Y-64315494D01*
X146146488Y-64315497D01*
X146146489Y-64315497D01*
X146199500Y-64407314D01*
X146292686Y-64500500D01*
X146406814Y-64566392D01*
X146534108Y-64600500D01*
X146534110Y-64600500D01*
X146665890Y-64600500D01*
X146665892Y-64600500D01*
X146793186Y-64566392D01*
X146907314Y-64500500D01*
X147000500Y-64407314D01*
X147066392Y-64293186D01*
X147100500Y-64165892D01*
X147100500Y-64034108D01*
X147066392Y-63906814D01*
X147066387Y-63906806D01*
X147030674Y-63844949D01*
X147000500Y-63792686D01*
X146907314Y-63699500D01*
X146839324Y-63660246D01*
X146839323Y-63660245D01*
X146839322Y-63660245D01*
X146831176Y-63655542D01*
X146793187Y-63633608D01*
X146729539Y-63616554D01*
X146665892Y-63599500D01*
X146665891Y-63599500D01*
X146534108Y-63599500D01*
X146406808Y-63633609D01*
X146406806Y-63633610D01*
X146292696Y-63699493D01*
X146292682Y-63699502D01*
X146292677Y-63699506D01*
X146199506Y-63792677D01*
X146199502Y-63792682D01*
X146199493Y-63792696D01*
X146133610Y-63906806D01*
X146133609Y-63906809D01*
X146133608Y-63906811D01*
X146133608Y-63906812D01*
X146133607Y-63906816D01*
X146113759Y-63980891D01*
X146099500Y-64034106D01*
X145700499Y-64034106D01*
X145666392Y-63906814D01*
X145666387Y-63906806D01*
X145630674Y-63844949D01*
X145600500Y-63792686D01*
X145507314Y-63699500D01*
X145439324Y-63660246D01*
X145439323Y-63660245D01*
X145439322Y-63660245D01*
X145431176Y-63655542D01*
X145393187Y-63633608D01*
X145329539Y-63616554D01*
X145265892Y-63599500D01*
X145265891Y-63599500D01*
X145134108Y-63599500D01*
X145006808Y-63633609D01*
X145006806Y-63633610D01*
X144892696Y-63699493D01*
X144892682Y-63699502D01*
X144892677Y-63699506D01*
X144799506Y-63792677D01*
X144799502Y-63792682D01*
X144799493Y-63792696D01*
X144733610Y-63906806D01*
X144733609Y-63906809D01*
X144733608Y-63906811D01*
X144733608Y-63906812D01*
X144733607Y-63906816D01*
X144713759Y-63980891D01*
X144699500Y-64034106D01*
X113024709Y-64034106D01*
X113123161Y-63937482D01*
X113881718Y-63193010D01*
X115093444Y-62003784D01*
X115093692Y-61599108D01*
X160484500Y-61599108D01*
X160484500Y-61730892D01*
X160496117Y-61774248D01*
X160518608Y-61858187D01*
X160536687Y-61889500D01*
X160584500Y-61972314D01*
X160677686Y-62065500D01*
X160791814Y-62131392D01*
X160919108Y-62165500D01*
X160919110Y-62165500D01*
X161050890Y-62165500D01*
X161050892Y-62165500D01*
X161077032Y-62158495D01*
X161112068Y-62154305D01*
X161125947Y-62154635D01*
X161192498Y-62175909D01*
X161236978Y-62229772D01*
X161237618Y-62231266D01*
X161247319Y-62288955D01*
X161246961Y-62293952D01*
X161243054Y-62317181D01*
X161234500Y-62349108D01*
X161234500Y-62480891D01*
X161237074Y-62490500D01*
X161241503Y-62507030D01*
X161243364Y-62522592D01*
X161245693Y-62542071D01*
X161245363Y-62555945D01*
X161224090Y-62622497D01*
X161170226Y-62666978D01*
X161168732Y-62667618D01*
X161111041Y-62677318D01*
X161109579Y-62677214D01*
X161106045Y-62676961D01*
X161082818Y-62673054D01*
X161060140Y-62666978D01*
X161050892Y-62664500D01*
X161050891Y-62664500D01*
X160919108Y-62664500D01*
X160791808Y-62698609D01*
X160791806Y-62698610D01*
X160677696Y-62764493D01*
X160677682Y-62764502D01*
X160677677Y-62764506D01*
X160584506Y-62857677D01*
X160584502Y-62857682D01*
X160584493Y-62857696D01*
X160518607Y-62971810D01*
X160518607Y-62971811D01*
X160496118Y-63055747D01*
X160484500Y-63099106D01*
X160484500Y-63099108D01*
X160484500Y-63230892D01*
X160485228Y-63233608D01*
X160518608Y-63358187D01*
X160542680Y-63399880D01*
X160548323Y-63409655D01*
X160548324Y-63409656D01*
X160556868Y-63424455D01*
X160584500Y-63472314D01*
X160677686Y-63565500D01*
X160736576Y-63599500D01*
X160791810Y-63631390D01*
X160791814Y-63631392D01*
X160803675Y-63634570D01*
X160815869Y-63640964D01*
X160817651Y-63642687D01*
X160822822Y-63644901D01*
X160836166Y-63653035D01*
X160883155Y-63704718D01*
X160887029Y-63712693D01*
X160897446Y-63757963D01*
X160898439Y-63757833D01*
X160899500Y-63765892D01*
X160910174Y-63805729D01*
X160910180Y-63805750D01*
X160933608Y-63893188D01*
X160941472Y-63906806D01*
X160941475Y-63906812D01*
X160999500Y-64007314D01*
X161092686Y-64100500D01*
X161092687Y-64100501D01*
X161092689Y-64100502D01*
X161191519Y-64157562D01*
X161191521Y-64157563D01*
X161205944Y-64165890D01*
X161206814Y-64166392D01*
X161206818Y-64166393D01*
X161206820Y-64166394D01*
X161206818Y-64166394D01*
X161255652Y-64179478D01*
X161255653Y-64179478D01*
X161255655Y-64179478D01*
X161288093Y-64193369D01*
X161320153Y-64212909D01*
X161343295Y-64231109D01*
X161427686Y-64315500D01*
X161541814Y-64381392D01*
X161669108Y-64415500D01*
X161669110Y-64415500D01*
X161800890Y-64415500D01*
X161800892Y-64415500D01*
X161928186Y-64381392D01*
X162042314Y-64315500D01*
X162135500Y-64222314D01*
X162201392Y-64108186D01*
X162235500Y-63980892D01*
X162235500Y-63849108D01*
X162228496Y-63822967D01*
X162224306Y-63787926D01*
X162224636Y-63774053D01*
X162245909Y-63707501D01*
X162299717Y-63663044D01*
X162301215Y-63662403D01*
X162358948Y-63652679D01*
X162363953Y-63653037D01*
X162387182Y-63656945D01*
X162419108Y-63665500D01*
X162419110Y-63665500D01*
X162550890Y-63665500D01*
X162550892Y-63665500D01*
X162577032Y-63658495D01*
X162612068Y-63654305D01*
X162625947Y-63654635D01*
X162692498Y-63675909D01*
X162736978Y-63729772D01*
X162737618Y-63731266D01*
X162747319Y-63788955D01*
X162746961Y-63793952D01*
X162743054Y-63817181D01*
X162734500Y-63849108D01*
X162734500Y-63980891D01*
X162739877Y-64000963D01*
X162739880Y-64000973D01*
X162741580Y-64007314D01*
X162768608Y-64108187D01*
X162801554Y-64165250D01*
X162806395Y-64173635D01*
X162806396Y-64173637D01*
X162812432Y-64184092D01*
X162834500Y-64222314D01*
X162927686Y-64315500D01*
X163041814Y-64381392D01*
X163169108Y-64415500D01*
X163169110Y-64415500D01*
X163300890Y-64415500D01*
X163300892Y-64415500D01*
X163428186Y-64381392D01*
X163542314Y-64315500D01*
X163635500Y-64222314D01*
X163701392Y-64108186D01*
X163735500Y-63980892D01*
X163735500Y-63849108D01*
X163728496Y-63822967D01*
X163724306Y-63787926D01*
X163724636Y-63774053D01*
X163745909Y-63707501D01*
X163799717Y-63663044D01*
X163801215Y-63662403D01*
X163858948Y-63652679D01*
X163863953Y-63653037D01*
X163887182Y-63656945D01*
X163919108Y-63665500D01*
X163919110Y-63665500D01*
X164050890Y-63665500D01*
X164050892Y-63665500D01*
X164178186Y-63631392D01*
X164292314Y-63565500D01*
X164385500Y-63472314D01*
X164451392Y-63358186D01*
X164485500Y-63230892D01*
X164485500Y-63099108D01*
X164451392Y-62971814D01*
X164385500Y-62857686D01*
X164292314Y-62764500D01*
X164219246Y-62722314D01*
X164219246Y-62722313D01*
X164219242Y-62722312D01*
X164207044Y-62715269D01*
X164178190Y-62698609D01*
X164178187Y-62698608D01*
X164088045Y-62674455D01*
X164088045Y-62674454D01*
X164050893Y-62664500D01*
X164050892Y-62664500D01*
X163919108Y-62664500D01*
X163919106Y-62664500D01*
X163892965Y-62671504D01*
X163857927Y-62675693D01*
X163844054Y-62675363D01*
X163777502Y-62654090D01*
X163733021Y-62600226D01*
X163732381Y-62598732D01*
X163722680Y-62541044D01*
X163723038Y-62536043D01*
X163726946Y-62512814D01*
X163732925Y-62490500D01*
X163735500Y-62480892D01*
X163735500Y-62349108D01*
X163728496Y-62322967D01*
X163724306Y-62287926D01*
X163724636Y-62274053D01*
X163745909Y-62207501D01*
X163799717Y-62163044D01*
X163801215Y-62162403D01*
X163858948Y-62152679D01*
X163863953Y-62153037D01*
X163887182Y-62156945D01*
X163919108Y-62165500D01*
X163919110Y-62165500D01*
X164050890Y-62165500D01*
X164050892Y-62165500D01*
X164178186Y-62131392D01*
X164292314Y-62065500D01*
X164385500Y-61972314D01*
X164451392Y-61858186D01*
X164485500Y-61730892D01*
X164485500Y-61599108D01*
X164451392Y-61471814D01*
X164385500Y-61357686D01*
X164292314Y-61264500D01*
X164219246Y-61222314D01*
X164219246Y-61222313D01*
X164219242Y-61222312D01*
X164207044Y-61215269D01*
X164178190Y-61198609D01*
X164178187Y-61198608D01*
X164088045Y-61174455D01*
X164088045Y-61174454D01*
X164050893Y-61164500D01*
X164050892Y-61164500D01*
X163919108Y-61164500D01*
X163919106Y-61164500D01*
X163892965Y-61171504D01*
X163857927Y-61175693D01*
X163844054Y-61175363D01*
X163777502Y-61154090D01*
X163733021Y-61100226D01*
X163732381Y-61098732D01*
X163722680Y-61041044D01*
X163723038Y-61036043D01*
X163726946Y-61012814D01*
X163728497Y-61007027D01*
X163735500Y-60980892D01*
X163735500Y-60849108D01*
X163701392Y-60721814D01*
X163635500Y-60607686D01*
X163542314Y-60514500D01*
X163485250Y-60481554D01*
X163428187Y-60448608D01*
X163364539Y-60431554D01*
X163300892Y-60414500D01*
X163300891Y-60414500D01*
X163169108Y-60414500D01*
X163041808Y-60448609D01*
X163041806Y-60448610D01*
X162927696Y-60514493D01*
X162927682Y-60514502D01*
X162927677Y-60514506D01*
X162834506Y-60607677D01*
X162834502Y-60607682D01*
X162834493Y-60607696D01*
X162768607Y-60721810D01*
X162768607Y-60721812D01*
X162755746Y-60769814D01*
X162755746Y-60769816D01*
X162734500Y-60849108D01*
X162734500Y-60980892D01*
X162734500Y-60980893D01*
X162741503Y-61007027D01*
X162744350Y-61030837D01*
X162745693Y-61042069D01*
X162745363Y-61055944D01*
X162724090Y-61122497D01*
X162670226Y-61166978D01*
X162668732Y-61167618D01*
X162611041Y-61177318D01*
X162609579Y-61177214D01*
X162606045Y-61176961D01*
X162582818Y-61173054D01*
X162560140Y-61166978D01*
X162550892Y-61164500D01*
X162550891Y-61164500D01*
X162419106Y-61164500D01*
X162392965Y-61171504D01*
X162357927Y-61175693D01*
X162344054Y-61175363D01*
X162277502Y-61154090D01*
X162233021Y-61100226D01*
X162232381Y-61098732D01*
X162222680Y-61041044D01*
X162223038Y-61036043D01*
X162226946Y-61012814D01*
X162228497Y-61007027D01*
X162235500Y-60980892D01*
X162235500Y-60849108D01*
X162201392Y-60721814D01*
X162135500Y-60607686D01*
X162042314Y-60514500D01*
X161985250Y-60481554D01*
X161928187Y-60448608D01*
X161864539Y-60431554D01*
X161800892Y-60414500D01*
X161800891Y-60414500D01*
X161669108Y-60414500D01*
X161541808Y-60448609D01*
X161541806Y-60448610D01*
X161427696Y-60514493D01*
X161427682Y-60514502D01*
X161427677Y-60514506D01*
X161334506Y-60607677D01*
X161334502Y-60607682D01*
X161334493Y-60607696D01*
X161268607Y-60721810D01*
X161268607Y-60721812D01*
X161255746Y-60769814D01*
X161255746Y-60769816D01*
X161234500Y-60849108D01*
X161234500Y-60980892D01*
X161234500Y-60980893D01*
X161241503Y-61007027D01*
X161244350Y-61030837D01*
X161245693Y-61042069D01*
X161245363Y-61055944D01*
X161224090Y-61122497D01*
X161170226Y-61166978D01*
X161168732Y-61167618D01*
X161111041Y-61177318D01*
X161109579Y-61177214D01*
X161106045Y-61176961D01*
X161082818Y-61173054D01*
X161060140Y-61166978D01*
X161050892Y-61164500D01*
X161050891Y-61164500D01*
X160919108Y-61164500D01*
X160791808Y-61198609D01*
X160791806Y-61198610D01*
X160677696Y-61264493D01*
X160677682Y-61264502D01*
X160677677Y-61264506D01*
X160584506Y-61357677D01*
X160584502Y-61357682D01*
X160584493Y-61357696D01*
X160518611Y-61471804D01*
X160518608Y-61471812D01*
X160514832Y-61485900D01*
X160514833Y-61485901D01*
X160484500Y-61599108D01*
X115093692Y-61599108D01*
X115093719Y-61555751D01*
X115094229Y-60721812D01*
X115094428Y-60396608D01*
X134599500Y-60396608D01*
X134599500Y-60528391D01*
X134616554Y-60592039D01*
X134633608Y-60655688D01*
X134666554Y-60712750D01*
X134699500Y-60769814D01*
X134792686Y-60863000D01*
X134906814Y-60928892D01*
X135034108Y-60963000D01*
X135034110Y-60963000D01*
X135165890Y-60963000D01*
X135165892Y-60963000D01*
X135293186Y-60928892D01*
X135407314Y-60863000D01*
X135500500Y-60769814D01*
X135566392Y-60655686D01*
X135600500Y-60528392D01*
X135600500Y-60396608D01*
X135566392Y-60269314D01*
X135566387Y-60269306D01*
X135557563Y-60254021D01*
X135500500Y-60155186D01*
X135407314Y-60062000D01*
X135350250Y-60029054D01*
X135293187Y-59996108D01*
X135229539Y-59979054D01*
X135165892Y-59962000D01*
X135165891Y-59962000D01*
X135034108Y-59962000D01*
X134906808Y-59996109D01*
X134906806Y-59996110D01*
X134792696Y-60061993D01*
X134792682Y-60062002D01*
X134792677Y-60062006D01*
X134699506Y-60155177D01*
X134699502Y-60155182D01*
X134699493Y-60155196D01*
X134633610Y-60269306D01*
X134633609Y-60269308D01*
X134633608Y-60269312D01*
X134599500Y-60396608D01*
X115094428Y-60396608D01*
X115095318Y-58943471D01*
X158599499Y-58943471D01*
X158639864Y-59146394D01*
X158639868Y-59146412D01*
X158639870Y-59146420D01*
X158719058Y-59337596D01*
X158834023Y-59509655D01*
X158834027Y-59509661D01*
X158980336Y-59655970D01*
X158980340Y-59655973D01*
X158980342Y-59655975D01*
X158980345Y-59655977D01*
X158980349Y-59655980D01*
X158980348Y-59655980D01*
X158980411Y-59656032D01*
X158980448Y-59656046D01*
X159152402Y-59770941D01*
X159343580Y-59850130D01*
X159534540Y-59888114D01*
X159543559Y-59889908D01*
X159545794Y-59890409D01*
X159546532Y-59890500D01*
X159753466Y-59890500D01*
X159757586Y-59890500D01*
X159765435Y-59888118D01*
X159956420Y-59850130D01*
X160147598Y-59770941D01*
X160319655Y-59655977D01*
X160465977Y-59509655D01*
X160580941Y-59337598D01*
X160660130Y-59146420D01*
X160700500Y-58943465D01*
X160700500Y-58736535D01*
X160660130Y-58533580D01*
X160580941Y-58342402D01*
X160466046Y-58170449D01*
X160466036Y-58170417D01*
X160465980Y-58170348D01*
X160465980Y-58170349D01*
X160465977Y-58170345D01*
X160465975Y-58170342D01*
X160465973Y-58170340D01*
X160465970Y-58170336D01*
X160319662Y-58024028D01*
X160319655Y-58024022D01*
X160236892Y-57968722D01*
X160236877Y-57968713D01*
X160233626Y-57966541D01*
X160147598Y-57909059D01*
X160108070Y-57892686D01*
X160100432Y-57889522D01*
X160100430Y-57889521D01*
X160031288Y-57860881D01*
X159956420Y-57829870D01*
X159956412Y-57829868D01*
X159956404Y-57829866D01*
X159956394Y-57829864D01*
X159753471Y-57789500D01*
X159753469Y-57789500D01*
X159753465Y-57789500D01*
X159546535Y-57789500D01*
X159546530Y-57789500D01*
X159546528Y-57789500D01*
X159343604Y-57829864D01*
X159343579Y-57829870D01*
X159152404Y-57909057D01*
X158980337Y-58024027D01*
X158834027Y-58170337D01*
X158719057Y-58342404D01*
X158639870Y-58533579D01*
X158639864Y-58533604D01*
X158599500Y-58736527D01*
X158599500Y-58736530D01*
X158599500Y-58943469D01*
X158599500Y-58943471D01*
X158599499Y-58943471D01*
X115095318Y-58943471D01*
X115095814Y-58134108D01*
X122199500Y-58134108D01*
X122199500Y-58265891D01*
X122208773Y-58300499D01*
X122233608Y-58393188D01*
X122266554Y-58450250D01*
X122299500Y-58507314D01*
X122392686Y-58600500D01*
X122491521Y-58657563D01*
X122506810Y-58666390D01*
X122506814Y-58666392D01*
X122634108Y-58700500D01*
X122634110Y-58700500D01*
X122765890Y-58700500D01*
X122765892Y-58700500D01*
X122893186Y-58666392D01*
X123007314Y-58600500D01*
X123100500Y-58507314D01*
X123166392Y-58393186D01*
X123200500Y-58265892D01*
X123200500Y-58134108D01*
X123166392Y-58006814D01*
X123166387Y-58006806D01*
X123157563Y-57991521D01*
X123100500Y-57892686D01*
X123007314Y-57799500D01*
X122950250Y-57766554D01*
X122894050Y-57734106D01*
X149099500Y-57734106D01*
X149099500Y-57734108D01*
X149099500Y-57865892D01*
X149116554Y-57929539D01*
X149133608Y-57993188D01*
X149141475Y-58006812D01*
X149141477Y-58006816D01*
X149170487Y-58057063D01*
X149199500Y-58107314D01*
X149292686Y-58200500D01*
X149391521Y-58257563D01*
X149405944Y-58265890D01*
X149406814Y-58266392D01*
X149534108Y-58300500D01*
X149534110Y-58300500D01*
X149665890Y-58300500D01*
X149665892Y-58300500D01*
X149793186Y-58266392D01*
X149907314Y-58200500D01*
X150000500Y-58107314D01*
X150066392Y-57993186D01*
X150100500Y-57865892D01*
X150100500Y-57734108D01*
X150066392Y-57606814D01*
X150066387Y-57606806D01*
X150057563Y-57591521D01*
X150000500Y-57492686D01*
X149907314Y-57399500D01*
X149821576Y-57349999D01*
X149793187Y-57333608D01*
X149729539Y-57316554D01*
X149665892Y-57299500D01*
X149665891Y-57299500D01*
X149534108Y-57299500D01*
X149406808Y-57333609D01*
X149406806Y-57333610D01*
X149292696Y-57399493D01*
X149292682Y-57399502D01*
X149292677Y-57399506D01*
X149199506Y-57492677D01*
X149199502Y-57492682D01*
X149199493Y-57492696D01*
X149133610Y-57606806D01*
X149133609Y-57606809D01*
X149133608Y-57606811D01*
X149133608Y-57606812D01*
X149108773Y-57699500D01*
X149099500Y-57734106D01*
X122894050Y-57734106D01*
X122893187Y-57733608D01*
X122829539Y-57716554D01*
X122765892Y-57699500D01*
X122765891Y-57699500D01*
X122634108Y-57699500D01*
X122506808Y-57733609D01*
X122506806Y-57733610D01*
X122392696Y-57799493D01*
X122392682Y-57799502D01*
X122392677Y-57799506D01*
X122299506Y-57892677D01*
X122299502Y-57892682D01*
X122299500Y-57892686D01*
X122233610Y-58006806D01*
X122233609Y-58006808D01*
X122233608Y-58006812D01*
X122199500Y-58134108D01*
X115095814Y-58134108D01*
X115096334Y-57285686D01*
X115097734Y-54998562D01*
X115098527Y-53704731D01*
X127300000Y-53704731D01*
X127300000Y-54550000D01*
X128377583Y-54550000D01*
X128444622Y-54569685D01*
X128490377Y-54622489D01*
X128499921Y-54688865D01*
X128500382Y-54688902D01*
X128500220Y-54690949D01*
X128500321Y-54691647D01*
X128500058Y-54693389D01*
X128500000Y-54693755D01*
X128500000Y-54906244D01*
X128500058Y-54906611D01*
X128500039Y-54906752D01*
X128500382Y-54911098D01*
X128499468Y-54911169D01*
X128491098Y-54975904D01*
X128446098Y-55029352D01*
X128379345Y-55049987D01*
X128377583Y-55050000D01*
X127300000Y-55050000D01*
X127300000Y-55895270D01*
X127310214Y-56039953D01*
X127310215Y-56039962D01*
X127310217Y-56039969D01*
X127364314Y-56280172D01*
X127441239Y-56471304D01*
X127451036Y-56495646D01*
X127456245Y-56508587D01*
X127583622Y-56719293D01*
X127743152Y-56906846D01*
X127930705Y-57066376D01*
X127930710Y-57066379D01*
X128141414Y-57193755D01*
X128280138Y-57249587D01*
X128369826Y-57285684D01*
X128369830Y-57285685D01*
X128369834Y-57285686D01*
X128610031Y-57339782D01*
X128610041Y-57339784D01*
X128749137Y-57349604D01*
X128752543Y-57350000D01*
X128754734Y-57350000D01*
X129600000Y-57350000D01*
X129600000Y-56272416D01*
X129619685Y-56205377D01*
X129672489Y-56159622D01*
X129738865Y-56150077D01*
X129738902Y-56149618D01*
X129740945Y-56149778D01*
X129741647Y-56149678D01*
X129743272Y-56149923D01*
X129743753Y-56150000D01*
X129956241Y-56150000D01*
X129956247Y-56150000D01*
X129956591Y-56149945D01*
X129956723Y-56149962D01*
X129961098Y-56149618D01*
X129961170Y-56150536D01*
X130025882Y-56158892D01*
X130079339Y-56203882D01*
X130099987Y-56270631D01*
X130100000Y-56272416D01*
X130100000Y-57350000D01*
X130945266Y-57350000D01*
X130950627Y-57350000D01*
X130955263Y-57349293D01*
X131089958Y-57339784D01*
X131089968Y-57339782D01*
X131330165Y-57285686D01*
X131330172Y-57285684D01*
X131558585Y-57193755D01*
X131769289Y-57066379D01*
X131769299Y-57066372D01*
X131956846Y-56906846D01*
X132116372Y-56719299D01*
X132116379Y-56719289D01*
X132243755Y-56508585D01*
X132335684Y-56280172D01*
X132335686Y-56280165D01*
X132389782Y-56039968D01*
X132389784Y-56039958D01*
X132399293Y-55905263D01*
X132400000Y-55900626D01*
X132400000Y-55050000D01*
X131322417Y-55050000D01*
X131255378Y-55030315D01*
X131209623Y-54977511D01*
X131200078Y-54911134D01*
X131199618Y-54911098D01*
X131199779Y-54909050D01*
X131199679Y-54908353D01*
X131199942Y-54906611D01*
X131200000Y-54906244D01*
X131200000Y-54693755D01*
X131199942Y-54693389D01*
X131199960Y-54693247D01*
X131199618Y-54688902D01*
X131200531Y-54688830D01*
X131205232Y-54652478D01*
X134799500Y-54652478D01*
X134799500Y-54947513D01*
X134820866Y-55109794D01*
X134820866Y-55109795D01*
X134838005Y-55239982D01*
X134838006Y-55239987D01*
X134838007Y-55239993D01*
X134855545Y-55305446D01*
X134914359Y-55524947D01*
X134914367Y-55524970D01*
X135026972Y-55796819D01*
X135027232Y-55797457D01*
X135027256Y-55797507D01*
X135083700Y-55895270D01*
X135174761Y-56052993D01*
X135354352Y-56287040D01*
X135354358Y-56287047D01*
X135562952Y-56495641D01*
X135562959Y-56495647D01*
X135797006Y-56675238D01*
X135873305Y-56719289D01*
X136049029Y-56820744D01*
X136054244Y-56823754D01*
X136054263Y-56823765D01*
X136054849Y-56824103D01*
X136059988Y-56825847D01*
X136325048Y-56935639D01*
X136610007Y-57011993D01*
X136902494Y-57050500D01*
X136902501Y-57050500D01*
X137197499Y-57050500D01*
X137197506Y-57050500D01*
X137489993Y-57011993D01*
X137774952Y-56935639D01*
X138047507Y-56822743D01*
X138302994Y-56675238D01*
X138537042Y-56495646D01*
X138745646Y-56287042D01*
X138925238Y-56052994D01*
X139072743Y-55797507D01*
X139185639Y-55524952D01*
X139261993Y-55239993D01*
X139275933Y-55134108D01*
X149099500Y-55134108D01*
X149099500Y-55265891D01*
X149110099Y-55305447D01*
X149133608Y-55393188D01*
X149155005Y-55430247D01*
X149199500Y-55507314D01*
X149292686Y-55600500D01*
X149406814Y-55666392D01*
X149534108Y-55700500D01*
X149534110Y-55700500D01*
X149665890Y-55700500D01*
X149665892Y-55700500D01*
X149793186Y-55666392D01*
X149907314Y-55600500D01*
X150000500Y-55507314D01*
X150044995Y-55430247D01*
X158599500Y-55430247D01*
X158599500Y-57169752D01*
X158611131Y-57228229D01*
X158611132Y-57228230D01*
X158611132Y-57228231D01*
X158611134Y-57228233D01*
X158655447Y-57294552D01*
X158721765Y-57338864D01*
X158721767Y-57338866D01*
X158721770Y-57338868D01*
X158772612Y-57348981D01*
X158775337Y-57349703D01*
X158780249Y-57350500D01*
X160519750Y-57350500D01*
X160523873Y-57350500D01*
X160531732Y-57348116D01*
X160551381Y-57344208D01*
X160566258Y-57341249D01*
X160572354Y-57340648D01*
X160572386Y-57340639D01*
X160583311Y-57337902D01*
X160593515Y-57328654D01*
X160644552Y-57294552D01*
X160688867Y-57228231D01*
X160688867Y-57228229D01*
X160688868Y-57228229D01*
X160691030Y-57217355D01*
X160691166Y-57217090D01*
X160691249Y-57216256D01*
X160695725Y-57193755D01*
X160700072Y-57171896D01*
X160700500Y-57169931D01*
X160700500Y-55432295D01*
X160700500Y-55430249D01*
X160700499Y-55430247D01*
X160688868Y-55371770D01*
X160688867Y-55371769D01*
X160644552Y-55305447D01*
X160608146Y-55281121D01*
X160588385Y-55267917D01*
X160583641Y-55264024D01*
X160578230Y-55261132D01*
X160578229Y-55261131D01*
X160519752Y-55249500D01*
X160519750Y-55249500D01*
X158780249Y-55249500D01*
X158780247Y-55249500D01*
X158721770Y-55261131D01*
X158721769Y-55261131D01*
X158721768Y-55261132D01*
X158716355Y-55264024D01*
X158711614Y-55267916D01*
X158655447Y-55305446D01*
X158655446Y-55305447D01*
X158628272Y-55346114D01*
X158628270Y-55346119D01*
X158611132Y-55371769D01*
X158611131Y-55371770D01*
X158599500Y-55430247D01*
X150044995Y-55430247D01*
X150066392Y-55393186D01*
X150072131Y-55371770D01*
X150089901Y-55305447D01*
X150100500Y-55265892D01*
X150100500Y-55134108D01*
X150066392Y-55006814D01*
X150066387Y-55006806D01*
X150048546Y-54975904D01*
X150000500Y-54892686D01*
X149907314Y-54799500D01*
X149850250Y-54766554D01*
X149793187Y-54733608D01*
X149729539Y-54716554D01*
X149665892Y-54699500D01*
X149665891Y-54699500D01*
X149534108Y-54699500D01*
X149406808Y-54733609D01*
X149406806Y-54733610D01*
X149292696Y-54799493D01*
X149292682Y-54799502D01*
X149292677Y-54799506D01*
X149199506Y-54892677D01*
X149199502Y-54892682D01*
X149199493Y-54892696D01*
X149133610Y-55006806D01*
X149133609Y-55006808D01*
X149122040Y-55049987D01*
X149099500Y-55134108D01*
X139275933Y-55134108D01*
X139300500Y-54947506D01*
X139300500Y-54652494D01*
X139261993Y-54360007D01*
X139185639Y-54075048D01*
X139072743Y-53802493D01*
X139056066Y-53773608D01*
X139056066Y-53773607D01*
X139056065Y-53773606D01*
X138925243Y-53547013D01*
X138925237Y-53547005D01*
X138745647Y-53312959D01*
X138745641Y-53312952D01*
X138537047Y-53104358D01*
X138537040Y-53104352D01*
X138302993Y-52924761D01*
X138260970Y-52900499D01*
X138047507Y-52777256D01*
X138047457Y-52777232D01*
X138046819Y-52776972D01*
X137779003Y-52666037D01*
X137779002Y-52666037D01*
X137774962Y-52664363D01*
X137537002Y-52600603D01*
X137489993Y-52588007D01*
X137489987Y-52588006D01*
X137489986Y-52588006D01*
X137460343Y-52584103D01*
X137441113Y-52581571D01*
X137441112Y-52581570D01*
X137197520Y-52549500D01*
X137197513Y-52549500D01*
X137197506Y-52549500D01*
X136902494Y-52549500D01*
X136902486Y-52549500D01*
X136902478Y-52549500D01*
X136624085Y-52586152D01*
X136624085Y-52586153D01*
X136622447Y-52586368D01*
X136610007Y-52588006D01*
X136415965Y-52640000D01*
X136325051Y-52664359D01*
X136325028Y-52664368D01*
X136053179Y-52776972D01*
X136052549Y-52777228D01*
X136052491Y-52777256D01*
X135797005Y-52924761D01*
X135562958Y-53104353D01*
X135562951Y-53104359D01*
X135562943Y-53104366D01*
X135354366Y-53312943D01*
X135354359Y-53312951D01*
X135354358Y-53312952D01*
X135354352Y-53312959D01*
X135341779Y-53329344D01*
X135174761Y-53547005D01*
X135027256Y-53802491D01*
X135027228Y-53802549D01*
X135026972Y-53803179D01*
X134914368Y-54075028D01*
X134914359Y-54075051D01*
X134838008Y-54360004D01*
X134838008Y-54360005D01*
X134838006Y-54360012D01*
X134838003Y-54360035D01*
X134799500Y-54652478D01*
X131205232Y-54652478D01*
X131208902Y-54624096D01*
X131253902Y-54570648D01*
X131320655Y-54550013D01*
X131322417Y-54550000D01*
X132400000Y-54550000D01*
X132400000Y-53702543D01*
X132399603Y-53699128D01*
X132389784Y-53560045D01*
X132389783Y-53560036D01*
X132389782Y-53560031D01*
X132335686Y-53319834D01*
X132335684Y-53319827D01*
X132332919Y-53312958D01*
X132304723Y-53242901D01*
X132243755Y-53091414D01*
X132116379Y-52880710D01*
X132116376Y-52880705D01*
X131956846Y-52693152D01*
X131769293Y-52533622D01*
X131558586Y-52406244D01*
X131558585Y-52406244D01*
X131330172Y-52314314D01*
X131089969Y-52260217D01*
X131089962Y-52260215D01*
X131089953Y-52260214D01*
X130945270Y-52250000D01*
X130945268Y-52250000D01*
X130100000Y-52250000D01*
X130100000Y-53327582D01*
X130080315Y-53394621D01*
X130027511Y-53440376D01*
X129961147Y-53449918D01*
X129961111Y-53450382D01*
X129959049Y-53450219D01*
X129958353Y-53450320D01*
X129956611Y-53450057D01*
X129956251Y-53450000D01*
X129956247Y-53450000D01*
X129743753Y-53450000D01*
X129743749Y-53450000D01*
X129743389Y-53450057D01*
X129743249Y-53450039D01*
X129738889Y-53450382D01*
X129738816Y-53449465D01*
X129674096Y-53441097D01*
X129620648Y-53396097D01*
X129600013Y-53329344D01*
X129600000Y-53327582D01*
X129600000Y-52250000D01*
X128754731Y-52250000D01*
X128754728Y-52250000D01*
X128610045Y-52260214D01*
X128610036Y-52260215D01*
X128610029Y-52260217D01*
X128369826Y-52314314D01*
X128141414Y-52406244D01*
X128141412Y-52406244D01*
X127930705Y-52533622D01*
X127743152Y-52693152D01*
X127583622Y-52880705D01*
X127456245Y-53091411D01*
X127364314Y-53319826D01*
X127310217Y-53560029D01*
X127310215Y-53560036D01*
X127310214Y-53560045D01*
X127300159Y-53702473D01*
X127300000Y-53704731D01*
X115098527Y-53704731D01*
X115098528Y-53702473D01*
X115099234Y-52549500D01*
X115099488Y-52134108D01*
X141899500Y-52134108D01*
X141899500Y-52265891D01*
X141910465Y-52306814D01*
X141933608Y-52393188D01*
X141956162Y-52432251D01*
X141966554Y-52450250D01*
X141999500Y-52507314D01*
X142092686Y-52600500D01*
X142161102Y-52640000D01*
X142203299Y-52664363D01*
X142206814Y-52666392D01*
X142334108Y-52700500D01*
X142334110Y-52700500D01*
X142465890Y-52700500D01*
X142465892Y-52700500D01*
X142593186Y-52666392D01*
X142707314Y-52600500D01*
X142707319Y-52600494D01*
X142709950Y-52598476D01*
X142726011Y-52588018D01*
X142741687Y-52579458D01*
X142809946Y-52564606D01*
X142811756Y-52564735D01*
X142869953Y-52584101D01*
X142876471Y-52588290D01*
X142885950Y-52595930D01*
X142886240Y-52595553D01*
X142892681Y-52600495D01*
X142892686Y-52600500D01*
X142961102Y-52640000D01*
X143003299Y-52664363D01*
X143006814Y-52666392D01*
X143134108Y-52700500D01*
X143134110Y-52700500D01*
X143265890Y-52700500D01*
X143265892Y-52700500D01*
X143393186Y-52666392D01*
X143507314Y-52600500D01*
X143600500Y-52507314D01*
X143642766Y-52434108D01*
X150199500Y-52434108D01*
X150199500Y-52565892D01*
X150205426Y-52588007D01*
X150208801Y-52600603D01*
X150233608Y-52693188D01*
X150237830Y-52700500D01*
X150266554Y-52750250D01*
X150299500Y-52807314D01*
X150392686Y-52900500D01*
X150506814Y-52966392D01*
X150634108Y-53000500D01*
X150634110Y-53000500D01*
X150765890Y-53000500D01*
X150765892Y-53000500D01*
X150893186Y-52966392D01*
X151007314Y-52900500D01*
X151100500Y-52807314D01*
X151166392Y-52693186D01*
X151200500Y-52565892D01*
X151200500Y-52434108D01*
X151166392Y-52306814D01*
X151166387Y-52306806D01*
X151157563Y-52291521D01*
X151100500Y-52192686D01*
X151007314Y-52099500D01*
X150950250Y-52066554D01*
X150893187Y-52033608D01*
X150793188Y-52006814D01*
X150786813Y-52005106D01*
X150786806Y-52005103D01*
X150765893Y-51999500D01*
X150765892Y-51999500D01*
X150634108Y-51999500D01*
X150506808Y-52033609D01*
X150506806Y-52033610D01*
X150392696Y-52099493D01*
X150392682Y-52099502D01*
X150392677Y-52099506D01*
X150299506Y-52192677D01*
X150299502Y-52192682D01*
X150299493Y-52192696D01*
X150233610Y-52306806D01*
X150233609Y-52306809D01*
X150233608Y-52306811D01*
X150233608Y-52306812D01*
X150231598Y-52314313D01*
X150206966Y-52406244D01*
X150199997Y-52432251D01*
X150199997Y-52432252D01*
X150199500Y-52434108D01*
X143642766Y-52434108D01*
X143666392Y-52393186D01*
X143700500Y-52265892D01*
X143700500Y-52134108D01*
X143666392Y-52006814D01*
X143660618Y-51996814D01*
X143660617Y-51996812D01*
X143660611Y-51996801D01*
X143657567Y-51991528D01*
X143600502Y-51892689D01*
X143600497Y-51892683D01*
X143507316Y-51799502D01*
X143507314Y-51799500D01*
X143432649Y-51756392D01*
X143432649Y-51756391D01*
X143432647Y-51756391D01*
X143393187Y-51733608D01*
X143329539Y-51716554D01*
X143265892Y-51699500D01*
X143265891Y-51699500D01*
X143134108Y-51699500D01*
X143006808Y-51733609D01*
X143006806Y-51733610D01*
X142892696Y-51799493D01*
X142892665Y-51799513D01*
X142887595Y-51802894D01*
X142887566Y-51802851D01*
X142874183Y-51811875D01*
X142858312Y-51820541D01*
X142790051Y-51835393D01*
X142788245Y-51835264D01*
X142730044Y-51815896D01*
X142723529Y-51811709D01*
X142714049Y-51804069D01*
X142713760Y-51804447D01*
X142707318Y-51799504D01*
X142707316Y-51799502D01*
X142707314Y-51799500D01*
X142632649Y-51756392D01*
X142632649Y-51756391D01*
X142632647Y-51756391D01*
X142593187Y-51733608D01*
X142529539Y-51716554D01*
X142465892Y-51699500D01*
X142465891Y-51699500D01*
X142334108Y-51699500D01*
X142206808Y-51733609D01*
X142206806Y-51733610D01*
X142092696Y-51799493D01*
X142092682Y-51799502D01*
X142092677Y-51799506D01*
X141999506Y-51892677D01*
X141999502Y-51892682D01*
X141999493Y-51892696D01*
X141933610Y-52006806D01*
X141933609Y-52006808D01*
X141933608Y-52006812D01*
X141899500Y-52134108D01*
X115099488Y-52134108D01*
X115102154Y-47780247D01*
X126049500Y-47780247D01*
X126049500Y-49819752D01*
X126061131Y-49878229D01*
X126061132Y-49878230D01*
X126061132Y-49878231D01*
X126061134Y-49878233D01*
X126105447Y-49944552D01*
X126171765Y-49988864D01*
X126171767Y-49988866D01*
X126171770Y-49988868D01*
X126222612Y-49998981D01*
X126225337Y-49999703D01*
X126230249Y-50000500D01*
X127169750Y-50000500D01*
X127173873Y-50000500D01*
X127181732Y-49998116D01*
X127201381Y-49994208D01*
X127216258Y-49991249D01*
X127222354Y-49990648D01*
X127222386Y-49990639D01*
X127233311Y-49987902D01*
X127243515Y-49978654D01*
X127294552Y-49944552D01*
X127338867Y-49878231D01*
X127338867Y-49878229D01*
X127338868Y-49878229D01*
X127341030Y-49867355D01*
X127341166Y-49867090D01*
X127341249Y-49866256D01*
X127350068Y-49821917D01*
X127350500Y-49819931D01*
X127350500Y-47782726D01*
X127350500Y-47780249D01*
X127350499Y-47780247D01*
X139549500Y-47780247D01*
X139549500Y-49819752D01*
X139561131Y-49878229D01*
X139561132Y-49878230D01*
X139561132Y-49878231D01*
X139561134Y-49878233D01*
X139605447Y-49944552D01*
X139671765Y-49988864D01*
X139671767Y-49988866D01*
X139671770Y-49988868D01*
X139722612Y-49998981D01*
X139725337Y-49999703D01*
X139730249Y-50000500D01*
X140669750Y-50000500D01*
X140673873Y-50000500D01*
X140681732Y-49998116D01*
X140701381Y-49994208D01*
X140716258Y-49991249D01*
X140722354Y-49990648D01*
X140722386Y-49990639D01*
X140733311Y-49987902D01*
X140743515Y-49978654D01*
X140794552Y-49944552D01*
X140838867Y-49878231D01*
X140838867Y-49878229D01*
X140838868Y-49878229D01*
X140841030Y-49867355D01*
X140841166Y-49867090D01*
X140841249Y-49866256D01*
X140850068Y-49821917D01*
X140850500Y-49819931D01*
X140850500Y-47782295D01*
X140850500Y-47780249D01*
X140850499Y-47780247D01*
X140838868Y-47721770D01*
X140838867Y-47721769D01*
X140794552Y-47655447D01*
X140758146Y-47631121D01*
X140738385Y-47617917D01*
X140733641Y-47614024D01*
X140728230Y-47611132D01*
X140728229Y-47611131D01*
X140669752Y-47599500D01*
X140669750Y-47599500D01*
X139730249Y-47599500D01*
X139730247Y-47599500D01*
X139671770Y-47611131D01*
X139671769Y-47611131D01*
X139671768Y-47611132D01*
X139671765Y-47611133D01*
X139671759Y-47611138D01*
X139605447Y-47655447D01*
X139561138Y-47721759D01*
X139561133Y-47721765D01*
X139561132Y-47721768D01*
X139561132Y-47721769D01*
X139561131Y-47721770D01*
X139549500Y-47780247D01*
X127350499Y-47780247D01*
X127349361Y-47774528D01*
X127349360Y-47774517D01*
X127338868Y-47721770D01*
X127335975Y-47716358D01*
X127332081Y-47711613D01*
X127330956Y-47709930D01*
X127294552Y-47655447D01*
X127258146Y-47631121D01*
X127238385Y-47617917D01*
X127233641Y-47614024D01*
X127228230Y-47611132D01*
X127228229Y-47611131D01*
X127169752Y-47599500D01*
X127169750Y-47599500D01*
X126230249Y-47599500D01*
X126230247Y-47599500D01*
X126171770Y-47611131D01*
X126171769Y-47611131D01*
X126171768Y-47611132D01*
X126166355Y-47614024D01*
X126161614Y-47617916D01*
X126105447Y-47655446D01*
X126105446Y-47655447D01*
X126078272Y-47696114D01*
X126078270Y-47696119D01*
X126061132Y-47721769D01*
X126061131Y-47721770D01*
X126049500Y-47780247D01*
X115102154Y-47780247D01*
X115103505Y-45574108D01*
X122619500Y-45574108D01*
X122619500Y-45705891D01*
X122653608Y-45833187D01*
X122667006Y-45856392D01*
X122719500Y-45947314D01*
X122812686Y-46040500D01*
X122926814Y-46106392D01*
X123054108Y-46140500D01*
X123054110Y-46140500D01*
X123185890Y-46140500D01*
X123185892Y-46140500D01*
X123313186Y-46106392D01*
X123427314Y-46040500D01*
X123520500Y-45947314D01*
X123586392Y-45833186D01*
X123620500Y-45705892D01*
X123620500Y-45574108D01*
X123586392Y-45446814D01*
X123586387Y-45446806D01*
X123577563Y-45431521D01*
X123520500Y-45332686D01*
X123427314Y-45239500D01*
X123405213Y-45226740D01*
X123362644Y-45202162D01*
X123362641Y-45202160D01*
X123353380Y-45196814D01*
X123313187Y-45173608D01*
X123213188Y-45146814D01*
X123207812Y-45145373D01*
X123207800Y-45145369D01*
X123185893Y-45139500D01*
X123185892Y-45139500D01*
X123054108Y-45139500D01*
X122926808Y-45173609D01*
X122926806Y-45173610D01*
X122812696Y-45239493D01*
X122812682Y-45239502D01*
X122812677Y-45239506D01*
X122719506Y-45332677D01*
X122719502Y-45332682D01*
X122719493Y-45332696D01*
X122653610Y-45446806D01*
X122653609Y-45446808D01*
X122653608Y-45446812D01*
X122619500Y-45574108D01*
X115103505Y-45574108D01*
X115104148Y-44524108D01*
X121469500Y-44524108D01*
X121469500Y-44655891D01*
X121486554Y-44719539D01*
X121503608Y-44783188D01*
X121536554Y-44840250D01*
X121569500Y-44897314D01*
X121662686Y-44990500D01*
X121776814Y-45056392D01*
X121904108Y-45090500D01*
X121904110Y-45090500D01*
X122035890Y-45090500D01*
X122035892Y-45090500D01*
X122163186Y-45056392D01*
X122277314Y-44990500D01*
X122370500Y-44897314D01*
X122436392Y-44783186D01*
X122470500Y-44655892D01*
X122470500Y-44524108D01*
X122436392Y-44396814D01*
X122436387Y-44396806D01*
X122427563Y-44381521D01*
X122370500Y-44282686D01*
X122277314Y-44189500D01*
X122178910Y-44132686D01*
X122163187Y-44123608D01*
X122099539Y-44106554D01*
X122035892Y-44089500D01*
X122035891Y-44089500D01*
X121904108Y-44089500D01*
X121776808Y-44123609D01*
X121776806Y-44123610D01*
X121662696Y-44189493D01*
X121662682Y-44189502D01*
X121662677Y-44189506D01*
X121569506Y-44282677D01*
X121569502Y-44282682D01*
X121569493Y-44282696D01*
X121503610Y-44396806D01*
X121503609Y-44396808D01*
X121503608Y-44396812D01*
X121469500Y-44524108D01*
X115104148Y-44524108D01*
X115105606Y-42143707D01*
X121399500Y-42143707D01*
X121399500Y-42356291D01*
X121432752Y-42566239D01*
X121498445Y-42768418D01*
X121591532Y-42951111D01*
X121594951Y-42957820D01*
X121719890Y-43129786D01*
X121719892Y-43129788D01*
X121870216Y-43280112D01*
X122042169Y-43405042D01*
X122042200Y-43405060D01*
X122042442Y-43405182D01*
X122231588Y-43501557D01*
X122433757Y-43567246D01*
X122643713Y-43600500D01*
X122643714Y-43600500D01*
X122856286Y-43600500D01*
X122856287Y-43600500D01*
X123066243Y-43567246D01*
X123268412Y-43501557D01*
X123457816Y-43405051D01*
X123557419Y-43332686D01*
X123629786Y-43280109D01*
X123629787Y-43280107D01*
X123629843Y-43280067D01*
X123630605Y-43279290D01*
X123780104Y-43129792D01*
X123780106Y-43129788D01*
X123780109Y-43129786D01*
X123905048Y-42957820D01*
X123905047Y-42957820D01*
X123905051Y-42957816D01*
X123905053Y-42957810D01*
X123925445Y-42929744D01*
X123933730Y-42901529D01*
X124001557Y-42768412D01*
X124067246Y-42566243D01*
X124100500Y-42356287D01*
X124100500Y-42143713D01*
X124067246Y-41933757D01*
X124001557Y-41731588D01*
X123905051Y-41542184D01*
X123905049Y-41542181D01*
X123905048Y-41542179D01*
X123904702Y-41541703D01*
X123904700Y-41541699D01*
X123780112Y-41370216D01*
X123629788Y-41219892D01*
X123629786Y-41219890D01*
X123457820Y-41094951D01*
X123444167Y-41087994D01*
X123290245Y-41009567D01*
X123290240Y-41009565D01*
X123268414Y-40998444D01*
X123268413Y-40998443D01*
X123268412Y-40998443D01*
X123171550Y-40966970D01*
X123075074Y-40935623D01*
X123070552Y-40933770D01*
X123061362Y-40931600D01*
X123056599Y-40931226D01*
X122904957Y-40907208D01*
X122885489Y-40904124D01*
X122856290Y-40899500D01*
X122856287Y-40899500D01*
X122643713Y-40899500D01*
X122643709Y-40899500D01*
X122604776Y-40905666D01*
X122595042Y-40907208D01*
X122557654Y-40913129D01*
X122433763Y-40932752D01*
X122433760Y-40932753D01*
X122242342Y-40994949D01*
X122231582Y-40998445D01*
X122042182Y-41094949D01*
X121870210Y-41219892D01*
X121719892Y-41370210D01*
X121719890Y-41370213D01*
X121602833Y-41531331D01*
X121594949Y-41542182D01*
X121498445Y-41731580D01*
X121432752Y-41933759D01*
X121399500Y-42143707D01*
X115105606Y-42143707D01*
X115107058Y-39772519D01*
X115112102Y-39737591D01*
X115112395Y-39736595D01*
X115116514Y-39722596D01*
X115154321Y-39663844D01*
X115155731Y-39662624D01*
X115210539Y-39635229D01*
X115215497Y-39634152D01*
X115218064Y-39633595D01*
X115244380Y-39630770D01*
X166647339Y-39630770D01*
X166647349Y-39630771D01*
G37*
%TD.AperFunction*%
%TD*%
%TA.AperFunction,Conductor*%
%TO.N,GND_ISO*%
G36*
X112918039Y-39650455D02*
G01*
X112963794Y-39703259D01*
X112975000Y-39754770D01*
X112975000Y-52070187D01*
X112977855Y-52072488D01*
X112999921Y-52138782D01*
X113000000Y-52143209D01*
X113000000Y-60348638D01*
X112980315Y-60415677D01*
X112963681Y-60436319D01*
X109456319Y-63943681D01*
X109394996Y-63977166D01*
X109368638Y-63980000D01*
X99325000Y-63980000D01*
X98649509Y-63304509D01*
X98831349Y-63211859D01*
X98875921Y-63179474D01*
X98525000Y-62828553D01*
X98525000Y-62245963D01*
X98550000Y-62152661D01*
X98550000Y-62146448D01*
X99229474Y-62825922D01*
X99229474Y-62825921D01*
X99261859Y-62781349D01*
X99354755Y-62599031D01*
X99417990Y-62404417D01*
X99450000Y-62202317D01*
X99450000Y-61997682D01*
X99417990Y-61795582D01*
X99354755Y-61600968D01*
X99261859Y-61418650D01*
X99229474Y-61374077D01*
X99229474Y-61374076D01*
X98550000Y-62053550D01*
X98550000Y-62047339D01*
X98525000Y-61954036D01*
X98525000Y-61371446D01*
X98875922Y-61020524D01*
X98875921Y-61020523D01*
X98831359Y-60988147D01*
X98831350Y-60988141D01*
X98649029Y-60895244D01*
X98525000Y-60854944D01*
X98525000Y-57201141D01*
X100225188Y-57201141D01*
X100225188Y-57332924D01*
X100259296Y-57460220D01*
X100292242Y-57517283D01*
X100325188Y-57574347D01*
X100418374Y-57667533D01*
X100532502Y-57733425D01*
X100659796Y-57767533D01*
X100659798Y-57767533D01*
X100791578Y-57767533D01*
X100791580Y-57767533D01*
X100918874Y-57733425D01*
X101033002Y-57667533D01*
X101126188Y-57574347D01*
X101192080Y-57460219D01*
X101226188Y-57332925D01*
X101226188Y-57201141D01*
X101192080Y-57073847D01*
X101126188Y-56959719D01*
X101033002Y-56866533D01*
X100975938Y-56833587D01*
X100918875Y-56800641D01*
X100855227Y-56783587D01*
X100791580Y-56766533D01*
X100659796Y-56766533D01*
X100532500Y-56800641D01*
X100418374Y-56866533D01*
X100418371Y-56866535D01*
X100325190Y-56959716D01*
X100325188Y-56959719D01*
X100259296Y-57073845D01*
X100225188Y-57201141D01*
X98525000Y-57201141D01*
X98525000Y-55789391D01*
X100220846Y-55789391D01*
X100220846Y-55921174D01*
X100254954Y-56048470D01*
X100287900Y-56105533D01*
X100320846Y-56162597D01*
X100414032Y-56255783D01*
X100528160Y-56321675D01*
X100655454Y-56355783D01*
X100655456Y-56355783D01*
X100787236Y-56355783D01*
X100787238Y-56355783D01*
X100914532Y-56321675D01*
X101028660Y-56255783D01*
X101121846Y-56162597D01*
X101187738Y-56048469D01*
X101221846Y-55921175D01*
X101221846Y-55789391D01*
X101187738Y-55662097D01*
X101121846Y-55547969D01*
X101028660Y-55454783D01*
X100971596Y-55421837D01*
X100914533Y-55388891D01*
X100850885Y-55371837D01*
X100787238Y-55354783D01*
X100655454Y-55354783D01*
X100528158Y-55388891D01*
X100414032Y-55454783D01*
X100414029Y-55454785D01*
X100320848Y-55547966D01*
X100320846Y-55547969D01*
X100254954Y-55662095D01*
X100220846Y-55789391D01*
X98525000Y-55789391D01*
X98525000Y-54361302D01*
X98699031Y-54304755D01*
X98881349Y-54211859D01*
X98925921Y-54179474D01*
X98525000Y-53778553D01*
X98525000Y-53337084D01*
X98572741Y-53254394D01*
X98600000Y-53152661D01*
X98600000Y-53146447D01*
X99279474Y-53825921D01*
X99311859Y-53781349D01*
X99404755Y-53599031D01*
X99467990Y-53404417D01*
X99500000Y-53202317D01*
X99500000Y-52997682D01*
X99467990Y-52795582D01*
X99404755Y-52600968D01*
X99311859Y-52418650D01*
X99279474Y-52374077D01*
X99279474Y-52374076D01*
X98600000Y-53053551D01*
X98600000Y-53047339D01*
X98572741Y-52945606D01*
X98525000Y-52862915D01*
X98525000Y-52421446D01*
X98925922Y-52020524D01*
X98925921Y-52020523D01*
X98881359Y-51988147D01*
X98881350Y-51988141D01*
X98699031Y-51895244D01*
X98525000Y-51838697D01*
X98525000Y-39630770D01*
X112851000Y-39630770D01*
X112918039Y-39650455D01*
G37*
%TD.AperFunction*%
%TD*%
M02*
