%TF.GenerationSoftware,KiCad,Pcbnew,10.0.4*%
%TF.CreationDate,2026-07-08T21:49:28+03:00*%
%TF.ProjectId,motor_testbench_v1_0,6d6f746f-725f-4746-9573-7462656e6368,rev?*%
%TF.SameCoordinates,Original*%
%TF.FileFunction,Copper,L2,Inr*%
%TF.FilePolarity,Positive*%
%FSLAX46Y46*%
G04 Gerber Fmt 4.6, Leading zero omitted, Abs format (unit mm)*
G04 Created by KiCad (PCBNEW 10.0.4) date 2026-07-08 21:49:28*
%MOMM*%
%LPD*%
G01*
G04 APERTURE LIST*
G04 Aperture macros list*
%AMRoundRect*
0 Rectangle with rounded corners*
0 $1 Rounding radius*
0 $2 $3 $4 $5 $6 $7 $8 $9 X,Y pos of 4 corners*
0 Add a 4 corners polygon primitive as box body*
4,1,4,$2,$3,$4,$5,$6,$7,$8,$9,$2,$3,0*
0 Add four circle primitives for the rounded corners*
1,1,$1+$1,$2,$3*
1,1,$1+$1,$4,$5*
1,1,$1+$1,$6,$7*
1,1,$1+$1,$8,$9*
0 Add four rect primitives between the rounded corners*
20,1,$1+$1,$2,$3,$4,$5,0*
20,1,$1+$1,$4,$5,$6,$7,0*
20,1,$1+$1,$6,$7,$8,$9,0*
20,1,$1+$1,$8,$9,$2,$3,0*%
G04 Aperture macros list end*
%TA.AperFunction,HeatsinkPad*%
%ADD10C,0.600000*%
%TD*%
%TA.AperFunction,ComponentPad*%
%ADD11C,4.100000*%
%TD*%
%TA.AperFunction,ComponentPad*%
%ADD12RoundRect,1.025000X1.025000X-1.025000X1.025000X1.025000X-1.025000X1.025000X-1.025000X-1.025000X0*%
%TD*%
%TA.AperFunction,ComponentPad*%
%ADD13R,2.000000X0.900000*%
%TD*%
%TA.AperFunction,ComponentPad*%
%ADD14RoundRect,1.025000X-1.025000X-1.025000X1.025000X-1.025000X1.025000X1.025000X-1.025000X1.025000X0*%
%TD*%
%TA.AperFunction,ComponentPad*%
%ADD15R,0.900000X2.000000*%
%TD*%
%TA.AperFunction,ComponentPad*%
%ADD16R,1.700000X1.700000*%
%TD*%
%TA.AperFunction,ComponentPad*%
%ADD17C,1.700000*%
%TD*%
%TA.AperFunction,ComponentPad*%
%ADD18C,1.600000*%
%TD*%
%TA.AperFunction,ViaPad*%
%ADD19C,0.600000*%
%TD*%
G04 APERTURE END LIST*
D10*
%TO.N,Net-(U1-GND-Pad1)*%
%TO.C,U1*%
X163235000Y-60915000D03*
X161735000Y-60915000D03*
X163985000Y-61665000D03*
X162485000Y-61665000D03*
X160985000Y-61665000D03*
X163235000Y-62415000D03*
X161735000Y-62415000D03*
X163985000Y-63165000D03*
X162485000Y-63165000D03*
X160985000Y-63165000D03*
X163235000Y-63915000D03*
X161735000Y-63915000D03*
%TD*%
D11*
%TO.N,/Voltage and Current Measurements/V_bat_in*%
%TO.C,J7*%
X86500000Y-58900000D03*
D12*
%TO.N,GND_ISO*%
X86500000Y-66100000D03*
D13*
%TO.N,*%
X80500000Y-55750000D03*
X80500000Y-69250000D03*
%TD*%
D11*
%TO.N,/Voltage and Current Measurements/V_bat_out*%
%TO.C,J8*%
X86500000Y-87400000D03*
D12*
%TO.N,GND_ISO*%
X86500000Y-94600000D03*
D13*
%TO.N,*%
X80500000Y-84250000D03*
X80500000Y-97750000D03*
%TD*%
D11*
%TO.N,+VBat_Secondary*%
%TO.C,J9*%
X137050000Y-54800000D03*
D14*
%TO.N,GND*%
X129850000Y-54800000D03*
D15*
%TO.N,*%
X140200000Y-48800000D03*
X126700000Y-48800000D03*
%TD*%
D16*
%TO.N,Net-(D6-K)*%
%TO.C,J10*%
X159650000Y-56300000D03*
D17*
%TO.N,+12V_Fan_Supply*%
X159650000Y-58840000D03*
%TD*%
D16*
%TO.N,+3V3_DIO*%
%TO.C,J11*%
X146625000Y-74900000D03*
D17*
%TO.N,GND*%
X149165000Y-74900000D03*
%TD*%
D18*
%TO.N,/Voltage and Current Measurements/V_bat_in*%
%TO.C,C12*%
X94700000Y-53100000D03*
%TO.N,GND_ISO*%
X98200000Y-53100000D03*
%TD*%
%TO.N,/Voltage and Current Measurements/V_bat_out*%
%TO.C,C9*%
X94350000Y-96200000D03*
%TO.N,GND_ISO*%
X97850000Y-96200000D03*
%TD*%
%TO.N,/Voltage and Current Measurements/V_bat_in*%
%TO.C,C10*%
X94650000Y-62100000D03*
%TO.N,GND_ISO*%
X98150000Y-62100000D03*
%TD*%
D16*
%TO.N,GND*%
%TO.C,J13*%
X124550000Y-106410000D03*
D17*
%TO.N,Net-(J13-Pin_2)*%
X124550000Y-103870000D03*
%TO.N,Net-(J13-Pin_3)*%
X124550000Y-101330000D03*
%TO.N,+3V3_LC*%
X124550000Y-98790000D03*
%TD*%
D16*
%TO.N,/ESP_GPIO8*%
%TO.C,J2*%
X165100000Y-78870000D03*
D17*
%TO.N,/ESP_GPIO3*%
X165100000Y-81410000D03*
%TO.N,/ESP_GPIO46*%
X165100000Y-83950000D03*
%TO.N,/ESP_GPIO9*%
X165100000Y-86490000D03*
%TO.N,/ESP_GPIO10*%
X165100000Y-89030000D03*
%TD*%
D16*
%TO.N,GND*%
%TO.C,J3*%
X160700000Y-89000000D03*
%TD*%
%TO.N,+5V_Ana*%
%TO.C,J12*%
X124500000Y-92225000D03*
D17*
%TO.N,GND*%
X124500000Y-94765000D03*
%TD*%
D18*
%TO.N,/Voltage and Current Measurements/V_bat_out*%
%TO.C,C11*%
X94600000Y-87000000D03*
%TO.N,GND_ISO*%
X98100000Y-87000000D03*
%TD*%
D16*
%TO.N,/ESP_5V*%
%TO.C,J4*%
X164400000Y-101900000D03*
%TD*%
D19*
%TO.N,GND*%
X152600000Y-50807866D03*
X152100000Y-54700000D03*
X150700000Y-53400000D03*
X149951154Y-52999230D03*
%TO.N,+6V_Buck_Out*%
X150700000Y-52500000D03*
%TO.N,GND*%
X150400003Y-55200000D03*
X150400003Y-57800000D03*
%TO.N,Net-(U12-EN)*%
X149600000Y-57800000D03*
X149600000Y-55200000D03*
%TO.N,+6V_Buck_Out*%
X150700000Y-52500000D03*
%TO.N,GND*%
X153530000Y-48680000D03*
X156290000Y-48700000D03*
X155087500Y-50850000D03*
X158050000Y-48900000D03*
X156290000Y-47200000D03*
X153530000Y-47180000D03*
X151610000Y-49600000D03*
X158540000Y-57790000D03*
X159640000Y-60320000D03*
X158580000Y-59900000D03*
X161110000Y-58970000D03*
X160790000Y-57900000D03*
X154780000Y-59050000D03*
X161400000Y-77200003D03*
X121100000Y-68500000D03*
X154900000Y-45200000D03*
%TO.N,unconnected-(U1-MTMS{slash}IO42-Pad35)*%
X161400000Y-72100003D03*
%TO.N,GND*%
X161400000Y-64500000D03*
X146200000Y-68500000D03*
X115875000Y-52200000D03*
X146162000Y-98200000D03*
X166100000Y-59850000D03*
X122825000Y-60775000D03*
X144950000Y-76000003D03*
X114620000Y-44890000D03*
X132396744Y-99490297D03*
X134400000Y-81980000D03*
X112500000Y-81000000D03*
X150997673Y-102650000D03*
X143167500Y-44384370D03*
%TO.N,unconnected-(U1-MTMS{slash}IO42-Pad35)*%
X161400000Y-72999997D03*
%TO.N,GND*%
X111100000Y-69600000D03*
X142400000Y-53100000D03*
X115875000Y-53100000D03*
X114670000Y-40890000D03*
X115875000Y-51300000D03*
X135100000Y-63100000D03*
X114775000Y-49491075D03*
X161400000Y-69500003D03*
X119975000Y-62075000D03*
X108700000Y-79700000D03*
X120425000Y-52200000D03*
X167350000Y-46650000D03*
X138387500Y-87075000D03*
X165100000Y-59000000D03*
X145987500Y-82075000D03*
X113896142Y-73262352D03*
X135100000Y-59662497D03*
X136300000Y-58600000D03*
X136325000Y-101125000D03*
X114775000Y-51300000D03*
X126100000Y-53100000D03*
X140957100Y-81150000D03*
X113725000Y-54050000D03*
X118070000Y-40890000D03*
X123220000Y-48140000D03*
X149413994Y-78498859D03*
X126100000Y-51300000D03*
X152400000Y-65000000D03*
X145900000Y-64800000D03*
X118175000Y-51300000D03*
X114775000Y-53100000D03*
X126100000Y-51300000D03*
X141825000Y-71275000D03*
X137400000Y-89399997D03*
X114670000Y-41790000D03*
X140075000Y-76300000D03*
X139000000Y-100525000D03*
X123800000Y-53100000D03*
X144637500Y-46443750D03*
X121575000Y-54050000D03*
X136200000Y-104500000D03*
X150400000Y-63400000D03*
X146162000Y-96550000D03*
X135125000Y-98450000D03*
X124950000Y-52200000D03*
X144200000Y-94859620D03*
X114250000Y-85450000D03*
X119325000Y-51300000D03*
X151100000Y-74800000D03*
X115770000Y-40890000D03*
X114775000Y-54050000D03*
X142537500Y-45981250D03*
X116987500Y-56662500D03*
X140821000Y-82801000D03*
X139325000Y-73093750D03*
X116400000Y-81350000D03*
X119220000Y-42690000D03*
X127699997Y-80000000D03*
X125872500Y-80445000D03*
X141475000Y-108275000D03*
X142587500Y-81393767D03*
X161400000Y-67900000D03*
X113670000Y-40890000D03*
X121275000Y-64575000D03*
X164600000Y-42850000D03*
X151350000Y-47900000D03*
X134650389Y-75225000D03*
X147913991Y-76998859D03*
X136637557Y-97316201D03*
X135431154Y-74400222D03*
X132800000Y-70600000D03*
X114500000Y-76700000D03*
X122700000Y-57399997D03*
X113725000Y-52200000D03*
X123800000Y-54050000D03*
X113670000Y-41790000D03*
X120425000Y-53100000D03*
X121575000Y-52200000D03*
X143200000Y-53100000D03*
X121275000Y-65475000D03*
X132775000Y-68775000D03*
X121169997Y-44590000D03*
X129331250Y-95350000D03*
X123800000Y-51300000D03*
X139500000Y-105900003D03*
X112876814Y-83628285D03*
X118175000Y-54050000D03*
X140450000Y-70015380D03*
X127400000Y-103000000D03*
X114812500Y-72347408D03*
X130450000Y-59550000D03*
X134381250Y-95225000D03*
X116050000Y-89200000D03*
X132587500Y-79950000D03*
X120650000Y-93950000D03*
X137875000Y-107225000D03*
X128650000Y-112100003D03*
X150400000Y-66700000D03*
X126100000Y-52200000D03*
X119220000Y-44690000D03*
X122725000Y-51300000D03*
X113725000Y-53100000D03*
X142600000Y-94859620D03*
X119220000Y-45640000D03*
X113725000Y-48591075D03*
X117025000Y-51300000D03*
X117025000Y-52200000D03*
X165100000Y-60700000D03*
X124950000Y-54050000D03*
X142600000Y-65100000D03*
X146687500Y-59231250D03*
X120000000Y-60775000D03*
X108200000Y-69050000D03*
X122725000Y-54050000D03*
X144187500Y-81418431D03*
X161400000Y-62900000D03*
X116000000Y-62100000D03*
X119325000Y-54050000D03*
X106100000Y-79700000D03*
X159490000Y-45500000D03*
X134550000Y-73500000D03*
X151100000Y-81500000D03*
X165850000Y-49300000D03*
X143237500Y-73100000D03*
X119220000Y-40890000D03*
X134402206Y-84115590D03*
X119220000Y-41790000D03*
X116920000Y-42690000D03*
X148400840Y-85306184D03*
X118175000Y-53100000D03*
X136575000Y-70000000D03*
X144769027Y-59255973D03*
X106800000Y-68100000D03*
X120299980Y-77805971D03*
X138500000Y-94400000D03*
X118175000Y-52200000D03*
X109450000Y-69550000D03*
X123800000Y-52200000D03*
X138217505Y-97284268D03*
X117025000Y-53100000D03*
X147901464Y-82875000D03*
X116050000Y-87500000D03*
X119325000Y-52200000D03*
X144750000Y-100525000D03*
X114500000Y-77900000D03*
X132952028Y-73443002D03*
X149522920Y-43423750D03*
X161400000Y-67000000D03*
X140612500Y-60156910D03*
X112750000Y-69600000D03*
X117150000Y-62950000D03*
X105400000Y-69000000D03*
X133300000Y-86625000D03*
X150600000Y-62600000D03*
X142075000Y-100525000D03*
X127400000Y-65330000D03*
X127650000Y-62900000D03*
X119325000Y-51300000D03*
X122337500Y-56537500D03*
X141900000Y-55200000D03*
X164100000Y-59850000D03*
X109500000Y-79700000D03*
X161400000Y-74600003D03*
X136400000Y-81250000D03*
X119325000Y-53100000D03*
X161400000Y-65400000D03*
X134800000Y-70450000D03*
X117025000Y-54050000D03*
X122600000Y-68500000D03*
X134000000Y-58600000D03*
X106850000Y-79000000D03*
X139700000Y-108300000D03*
X164600000Y-44600000D03*
X145200000Y-45400000D03*
X161400000Y-75599997D03*
X126100000Y-54050000D03*
X118070000Y-41790000D03*
X111200000Y-79700000D03*
X121575000Y-51300000D03*
X146700000Y-61350000D03*
X132112500Y-77250000D03*
X120425000Y-51300000D03*
X108350000Y-77950000D03*
X125856034Y-65325000D03*
X129725000Y-96650000D03*
X126175000Y-62112500D03*
X131843750Y-93750000D03*
X135200000Y-82450000D03*
X128400000Y-97000000D03*
X143275000Y-108225000D03*
X125800000Y-72400000D03*
X132900000Y-77200000D03*
X116920000Y-41790000D03*
X114670000Y-42690000D03*
X114775000Y-50391075D03*
X139700000Y-78850000D03*
X135200000Y-81550000D03*
X142000000Y-105725000D03*
X165600000Y-55400000D03*
X113725000Y-49491075D03*
X121575000Y-53100000D03*
X115770000Y-42690000D03*
X122725000Y-53100000D03*
X151000000Y-104850000D03*
X136200000Y-105700000D03*
X151000000Y-107050000D03*
X141900000Y-57800000D03*
X123098955Y-46439725D03*
X141224000Y-76327000D03*
X135100000Y-111200000D03*
X160950000Y-46027080D03*
X116920000Y-40890000D03*
X130000000Y-64600000D03*
X123500000Y-58200000D03*
X119220000Y-43790000D03*
X120351127Y-88300002D03*
X115770000Y-41790000D03*
X125400000Y-62300000D03*
X118862500Y-50087500D03*
X122725000Y-52200000D03*
X105400000Y-77950000D03*
X124950000Y-51300000D03*
X118070000Y-42690000D03*
X141225000Y-73500000D03*
X136937500Y-86725000D03*
X149700000Y-69150000D03*
X144322920Y-43423750D03*
X113725000Y-51300000D03*
X115875000Y-54050000D03*
X168700000Y-45400000D03*
X122725000Y-51300000D03*
X145650003Y-110550000D03*
X151350000Y-46300000D03*
X161400000Y-70499997D03*
X113670000Y-42690000D03*
X124450000Y-81400000D03*
X120425000Y-54050000D03*
X114620000Y-43790000D03*
X165900000Y-45500000D03*
X151000000Y-100550000D03*
X136400000Y-79650000D03*
X132300000Y-86625000D03*
X113725000Y-50391075D03*
X138550000Y-68650000D03*
X119220000Y-40890000D03*
X144200000Y-61700000D03*
X165925000Y-50650000D03*
X116350000Y-83150000D03*
X118662500Y-56537500D03*
X124950000Y-53100000D03*
X114775000Y-52200000D03*
X136850000Y-79050000D03*
X135200000Y-83375000D03*
X143725000Y-59225000D03*
X127400000Y-106500000D03*
%TO.N,+1V8_MCP_AVIN*%
X135200000Y-84175000D03*
X135450000Y-75200000D03*
%TO.N,+5V_Ana*%
X120350000Y-87500000D03*
X137400000Y-90200000D03*
X107800000Y-79700000D03*
X128500000Y-80000000D03*
X119500000Y-77800000D03*
%TO.N,GND_ISO*%
X107370000Y-41790000D03*
X106320000Y-43640000D03*
X108470000Y-43590000D03*
X99500000Y-55130000D03*
X103920000Y-62390000D03*
X108470000Y-45340000D03*
X109420000Y-52190000D03*
X109470000Y-41790000D03*
X97100000Y-55130000D03*
X107282500Y-56977500D03*
X103170000Y-40890000D03*
X99720000Y-46090000D03*
X109470000Y-40890000D03*
X106320000Y-49490000D03*
X109420000Y-48590000D03*
X107370000Y-50390000D03*
X99500000Y-56560000D03*
X104220000Y-40890000D03*
X108420000Y-42690000D03*
X109420000Y-50390000D03*
X100300000Y-55130000D03*
X107370000Y-47690000D03*
X108420000Y-49490000D03*
X107370000Y-49490000D03*
X97900000Y-56560000D03*
X107370000Y-42690000D03*
X109470000Y-42690000D03*
X109420000Y-51290000D03*
X102770000Y-52440000D03*
X106320000Y-40890000D03*
X108420000Y-41790000D03*
X105200000Y-60840000D03*
X105200000Y-62090000D03*
X100957500Y-47852500D03*
X106320000Y-47690000D03*
X108420000Y-40890000D03*
X97100000Y-56560000D03*
X98700000Y-56560000D03*
X109420000Y-49490000D03*
X106320000Y-51290000D03*
X106320000Y-50390000D03*
X99720000Y-42490000D03*
X106320000Y-42690000D03*
X106320000Y-41790000D03*
X98700000Y-55130000D03*
X106320000Y-44490000D03*
X106320000Y-45390000D03*
X108470000Y-44440000D03*
X101100000Y-56560000D03*
X105270000Y-40890000D03*
X108420000Y-51290000D03*
X109420000Y-53090000D03*
X106320000Y-48590000D03*
X104720000Y-41727500D03*
X108220000Y-54240000D03*
X108420000Y-53090000D03*
X107370000Y-40890000D03*
X101100000Y-55130000D03*
X102120000Y-40890000D03*
X99720000Y-44290000D03*
X108420000Y-48590000D03*
X107370000Y-48590000D03*
X100300000Y-56560000D03*
X97900000Y-55130000D03*
X108420000Y-50390000D03*
%TO.N,MISO*%
X147601491Y-85273859D03*
X148613991Y-78498859D03*
%TO.N,DS_ADC_SPI_MISO*%
X161400000Y-66200000D03*
X150000000Y-102650000D03*
%TO.N,+5V5_bus*%
X145200000Y-64100000D03*
X145200000Y-65500000D03*
X146600000Y-64100000D03*
X146600000Y-65500000D03*
X132800000Y-69700000D03*
%TO.N,+6V_Buck_Out*%
X123120000Y-45640000D03*
X121970000Y-44590000D03*
X142400000Y-52200000D03*
X143200000Y-52200000D03*
%TO.N,+SAR_1_5V_Ref*%
X136400000Y-80450000D03*
X133749997Y-73500000D03*
%TO.N,SCLK*%
X147113991Y-76998859D03*
X147101491Y-82868145D03*
%TO.N,+3V3_DIO*%
X143387500Y-80900000D03*
X144950000Y-75200000D03*
X143393426Y-81800832D03*
X143400000Y-95200000D03*
X143400000Y-94400000D03*
%TO.N,+3V3_LC*%
X132700000Y-98750000D03*
X137425000Y-97175000D03*
%TO.N,/Load Cell and Temperature Measurements/NTC_3*%
X128650000Y-111300000D03*
X112000000Y-83600000D03*
%TO.N,/Load Cell and Temperature Measurements/NTC_2*%
X139500000Y-105100000D03*
X134400000Y-82920000D03*
%TO.N,/Load Cell and Temperature Measurements/NTC_1*%
X144900000Y-106900000D03*
%TO.N,+MCP_Ref*%
X135100000Y-60462500D03*
%TO.N,+5V_Ratiometric_Supply*%
X113912500Y-72362500D03*
X122700000Y-58200000D03*
%TO.N,/Voltage and Current Measurements/GND_bat_sense*%
X100725688Y-57267033D03*
%TO.N,/Voltage and Current Measurements/V_bat_sense*%
X100721346Y-55855283D03*
%TO.N,Net-(IC5-MCLK)*%
X161400000Y-68700000D03*
X150000000Y-100574528D03*
%TO.N,Net-(IC5-~{IRQ}{slash}MDAT)*%
X151000000Y-101550000D03*
X161400000Y-71300000D03*
%TO.N,Net-(IC5-SDI)*%
X161400000Y-73800000D03*
X151000000Y-103750000D03*
%TO.N,Net-(IC5-SCK)*%
X161400000Y-63700000D03*
X150000000Y-104850000D03*
%TO.N,Net-(IC5-~{CS})*%
X161400000Y-76400000D03*
X151000000Y-105950000D03*
%TD*%
%TA.AperFunction,Conductor*%
%TO.N,GND_ISO*%
G36*
X87581835Y-92555307D02*
G01*
X87656919Y-92560608D01*
X87675426Y-92563329D01*
X87819673Y-92595816D01*
X87838726Y-92601753D01*
X87972932Y-92655767D01*
X87990784Y-92664683D01*
X88114584Y-92739522D01*
X88130776Y-92751186D01*
X88240966Y-92844913D01*
X88255078Y-92859025D01*
X88348814Y-92969226D01*
X88360478Y-92985417D01*
X88435316Y-93109215D01*
X88444232Y-93127068D01*
X88498244Y-93261269D01*
X88504181Y-93280322D01*
X88536667Y-93424567D01*
X88539389Y-93443077D01*
X88544691Y-93518161D01*
X88544999Y-93526895D01*
X88544999Y-95673098D01*
X88544691Y-95681832D01*
X88539389Y-95756921D01*
X88536667Y-95775431D01*
X88504181Y-95919676D01*
X88498244Y-95938729D01*
X88444232Y-96072930D01*
X88435316Y-96090783D01*
X88360478Y-96214581D01*
X88348814Y-96230772D01*
X88255081Y-96340969D01*
X88240969Y-96355081D01*
X88130772Y-96448814D01*
X88114581Y-96460478D01*
X87990783Y-96535316D01*
X87972930Y-96544232D01*
X87838729Y-96598244D01*
X87819676Y-96604181D01*
X87675431Y-96636667D01*
X87656921Y-96639389D01*
X87586368Y-96644370D01*
X87581835Y-96644691D01*
X87573103Y-96644999D01*
X85426900Y-96644999D01*
X85418168Y-96644691D01*
X85407608Y-96643945D01*
X85343077Y-96639389D01*
X85324567Y-96636667D01*
X85180322Y-96604181D01*
X85161269Y-96598244D01*
X85027068Y-96544232D01*
X85009215Y-96535316D01*
X84885417Y-96460478D01*
X84869226Y-96448814D01*
X84759025Y-96355078D01*
X84744913Y-96340966D01*
X84651186Y-96230776D01*
X84639522Y-96214585D01*
X84564684Y-96090787D01*
X84555768Y-96072935D01*
X84555766Y-96072930D01*
X84501750Y-95938719D01*
X84495817Y-95919679D01*
X84463329Y-95775427D01*
X84460608Y-95756917D01*
X84455308Y-95681833D01*
X84455308Y-95681832D01*
X84455000Y-95673102D01*
X84455000Y-93526893D01*
X84455308Y-93518161D01*
X84460608Y-93443081D01*
X84463330Y-93424569D01*
X84495818Y-93280315D01*
X84501750Y-93261276D01*
X84555766Y-93127065D01*
X84564681Y-93109215D01*
X84639520Y-92985417D01*
X84639524Y-92985409D01*
X84651185Y-92969225D01*
X84744916Y-92859029D01*
X84759029Y-92844916D01*
X84869225Y-92751185D01*
X84885414Y-92739522D01*
X85009218Y-92664679D01*
X85027064Y-92655766D01*
X85161277Y-92601750D01*
X85180316Y-92595818D01*
X85324574Y-92563329D01*
X85343079Y-92560608D01*
X85401309Y-92556497D01*
X85418165Y-92555308D01*
X85426896Y-92555000D01*
X87573104Y-92555000D01*
X87581835Y-92555307D01*
G37*
%TD.AperFunction*%
%TA.AperFunction,Conductor*%
G36*
X87581836Y-64055308D02*
G01*
X87603585Y-64056843D01*
X87656919Y-64060608D01*
X87675428Y-64063329D01*
X87819675Y-64095816D01*
X87838728Y-64101753D01*
X87972929Y-64155765D01*
X87990782Y-64164681D01*
X88114587Y-64239524D01*
X88130777Y-64251188D01*
X88240965Y-64344912D01*
X88255078Y-64359025D01*
X88348814Y-64469227D01*
X88360478Y-64485417D01*
X88435316Y-64609215D01*
X88444232Y-64627068D01*
X88498244Y-64761269D01*
X88504181Y-64780322D01*
X88536667Y-64924567D01*
X88539389Y-64943077D01*
X88544691Y-65018161D01*
X88544999Y-65026895D01*
X88544999Y-67173098D01*
X88544691Y-67181832D01*
X88539389Y-67256921D01*
X88536667Y-67275431D01*
X88504181Y-67419676D01*
X88498244Y-67438729D01*
X88444232Y-67572930D01*
X88435316Y-67590783D01*
X88360478Y-67714581D01*
X88348814Y-67730772D01*
X88255081Y-67840969D01*
X88240969Y-67855081D01*
X88130772Y-67948814D01*
X88114581Y-67960478D01*
X87990783Y-68035316D01*
X87972930Y-68044232D01*
X87838729Y-68098244D01*
X87819676Y-68104181D01*
X87675431Y-68136667D01*
X87656921Y-68139389D01*
X87586368Y-68144370D01*
X87581835Y-68144691D01*
X87573103Y-68144999D01*
X85426900Y-68144999D01*
X85418168Y-68144691D01*
X85407608Y-68143945D01*
X85343077Y-68139389D01*
X85324567Y-68136667D01*
X85180322Y-68104181D01*
X85161269Y-68098244D01*
X85027068Y-68044232D01*
X85009215Y-68035316D01*
X84885417Y-67960478D01*
X84869227Y-67948814D01*
X84759025Y-67855078D01*
X84744912Y-67840965D01*
X84651184Y-67730772D01*
X84639520Y-67714582D01*
X84564682Y-67590784D01*
X84555766Y-67572932D01*
X84501753Y-67438729D01*
X84495816Y-67419676D01*
X84463330Y-67275433D01*
X84460608Y-67256919D01*
X84455308Y-67181834D01*
X84455308Y-67181832D01*
X84455000Y-67173103D01*
X84455000Y-65026890D01*
X84455308Y-65018159D01*
X84460608Y-64943077D01*
X84463330Y-64924564D01*
X84495817Y-64780315D01*
X84501748Y-64761280D01*
X84555767Y-64627061D01*
X84564680Y-64609216D01*
X84564681Y-64609215D01*
X84639530Y-64485400D01*
X84651182Y-64469227D01*
X84744923Y-64359018D01*
X84759018Y-64344923D01*
X84869233Y-64251176D01*
X84885399Y-64239530D01*
X85009221Y-64164677D01*
X85027067Y-64155764D01*
X85161272Y-64101751D01*
X85180311Y-64095818D01*
X85324576Y-64063328D01*
X85343080Y-64060607D01*
X85418158Y-64055308D01*
X85426889Y-64055000D01*
X87573105Y-64055000D01*
X87581836Y-64055308D01*
G37*
%TD.AperFunction*%
%TA.AperFunction,Conductor*%
G36*
X72206297Y-39471201D02*
G01*
X72217150Y-39474387D01*
X72275931Y-39512157D01*
X72304960Y-39575711D01*
X72295046Y-39644815D01*
X72294792Y-39645372D01*
X72260917Y-39689543D01*
X72259185Y-39690973D01*
X72242239Y-39702739D01*
X72152124Y-39754769D01*
X72150633Y-39755629D01*
X72150622Y-39755636D01*
X72150612Y-39755643D01*
X71945403Y-39913105D01*
X71945388Y-39913119D01*
X71945380Y-39913126D01*
X71762485Y-40096021D01*
X71762478Y-40096029D01*
X71762464Y-40096044D01*
X71605006Y-40301249D01*
X71604996Y-40301263D01*
X71604984Y-40301280D01*
X71475646Y-40525298D01*
X71445383Y-40598361D01*
X71444034Y-40600034D01*
X71443733Y-40602163D01*
X71427373Y-40628714D01*
X71421728Y-40635719D01*
X71407084Y-40645886D01*
X71401542Y-40652764D01*
X71387416Y-40659542D01*
X71364336Y-40675567D01*
X71294511Y-40678061D01*
X71234422Y-40642409D01*
X71204497Y-40586411D01*
X71203317Y-40581418D01*
X71202353Y-40573141D01*
X71201303Y-40570854D01*
X71201733Y-40567812D01*
X71200000Y-40552928D01*
X71200000Y-39608009D01*
X71205023Y-39573073D01*
X71209427Y-39558075D01*
X71247172Y-39499324D01*
X71248541Y-39498137D01*
X71303420Y-39470657D01*
X71310979Y-39469013D01*
X71337332Y-39466180D01*
X72171370Y-39466180D01*
X72206297Y-39471201D01*
G37*
%TD.AperFunction*%
%TD*%
%TA.AperFunction,NonConductor*%
G36*
X110037539Y-39650455D02*
G01*
X110083294Y-39703259D01*
X110094500Y-39754770D01*
X110094500Y-63154138D01*
X110074815Y-63221177D01*
X110058181Y-63241819D01*
X109368926Y-63931073D01*
X109340675Y-63952222D01*
X109317587Y-63964830D01*
X109258157Y-63980000D01*
X101299998Y-63980000D01*
X97017181Y-68262818D01*
X96955858Y-68296303D01*
X96886166Y-68291319D01*
X96830233Y-68249447D01*
X96805816Y-68183983D01*
X96805500Y-68175137D01*
X96805500Y-57201141D01*
X100225188Y-57201141D01*
X100225188Y-57332924D01*
X100242242Y-57396572D01*
X100259296Y-57460221D01*
X100292242Y-57517283D01*
X100325188Y-57574347D01*
X100418374Y-57667533D01*
X100532502Y-57733425D01*
X100659796Y-57767533D01*
X100659798Y-57767533D01*
X100791578Y-57767533D01*
X100791580Y-57767533D01*
X100918874Y-57733425D01*
X101033002Y-57667533D01*
X101126188Y-57574347D01*
X101192080Y-57460219D01*
X101226188Y-57332925D01*
X101226188Y-57201141D01*
X101192080Y-57073847D01*
X101192075Y-57073839D01*
X101183251Y-57058554D01*
X101126188Y-56959719D01*
X101033002Y-56866533D01*
X100975938Y-56833587D01*
X100918875Y-56800641D01*
X100855227Y-56783587D01*
X100791580Y-56766533D01*
X100791579Y-56766533D01*
X100659796Y-56766533D01*
X100532496Y-56800642D01*
X100532494Y-56800643D01*
X100418384Y-56866526D01*
X100418370Y-56866535D01*
X100418365Y-56866539D01*
X100325194Y-56959710D01*
X100325190Y-56959715D01*
X100325181Y-56959729D01*
X100259298Y-57073839D01*
X100259297Y-57073841D01*
X100259296Y-57073845D01*
X100225188Y-57201141D01*
X96805500Y-57201141D01*
X96805500Y-56650021D01*
X96805037Y-56631163D01*
X96805000Y-56628120D01*
X96805000Y-56491889D01*
X96805037Y-56488847D01*
X96805500Y-56469977D01*
X96805500Y-55789391D01*
X100220846Y-55789391D01*
X100220846Y-55921174D01*
X100237900Y-55984822D01*
X100254954Y-56048471D01*
X100287900Y-56105533D01*
X100320846Y-56162597D01*
X100414032Y-56255783D01*
X100528160Y-56321675D01*
X100655454Y-56355783D01*
X100655456Y-56355783D01*
X100787236Y-56355783D01*
X100787238Y-56355783D01*
X100914532Y-56321675D01*
X101028660Y-56255783D01*
X101121846Y-56162597D01*
X101187738Y-56048469D01*
X101221846Y-55921175D01*
X101221846Y-55789391D01*
X101187738Y-55662097D01*
X101187733Y-55662089D01*
X101178909Y-55646804D01*
X101121846Y-55547969D01*
X101028660Y-55454783D01*
X100971596Y-55421837D01*
X100914533Y-55388891D01*
X100850885Y-55371837D01*
X100787238Y-55354783D01*
X100787237Y-55354783D01*
X100655454Y-55354783D01*
X100528154Y-55388892D01*
X100528152Y-55388893D01*
X100414042Y-55454776D01*
X100414028Y-55454785D01*
X100414023Y-55454789D01*
X100320852Y-55547960D01*
X100320848Y-55547965D01*
X100320839Y-55547979D01*
X100254956Y-55662089D01*
X100254955Y-55662091D01*
X100254954Y-55662095D01*
X100220846Y-55789391D01*
X96805500Y-55789391D01*
X96805500Y-55220021D01*
X96805037Y-55201163D01*
X96805000Y-55198120D01*
X96805000Y-55061889D01*
X96805037Y-55058847D01*
X96805500Y-55039977D01*
X96805500Y-47200791D01*
X96805499Y-47200784D01*
X96802057Y-47173381D01*
X96789797Y-47075770D01*
X96774628Y-47016341D01*
X96728494Y-46899092D01*
X96715886Y-46876003D01*
X96706668Y-46861660D01*
X96676901Y-46815341D01*
X96676898Y-46815337D01*
X96672816Y-46809884D01*
X96655744Y-46787079D01*
X96608516Y-46732577D01*
X96608499Y-46732560D01*
X94612238Y-44736298D01*
X94612222Y-44736284D01*
X94512733Y-44658997D01*
X94512723Y-44658990D01*
X94459984Y-44627698D01*
X94459979Y-44627696D01*
X94344469Y-44577414D01*
X94326323Y-44572086D01*
X94319223Y-44570001D01*
X94319219Y-44570000D01*
X94319212Y-44569998D01*
X94319198Y-44569994D01*
X94248740Y-44554668D01*
X94248727Y-44554665D01*
X94248718Y-44554663D01*
X94248715Y-44554663D01*
X94213783Y-44549642D01*
X94213774Y-44549641D01*
X94213775Y-44549641D01*
X94141868Y-44544500D01*
X94141863Y-44544500D01*
X77372898Y-44544500D01*
X77372894Y-44544500D01*
X77247886Y-44560202D01*
X77247880Y-44560203D01*
X77188461Y-44575369D01*
X77071225Y-44621493D01*
X77048137Y-44634099D01*
X77048120Y-44634109D01*
X76987449Y-44673099D01*
X76987442Y-44673104D01*
X76959188Y-44694255D01*
X76904702Y-44741469D01*
X76904674Y-44741495D01*
X74836296Y-46809872D01*
X74836288Y-46809881D01*
X74758992Y-46909381D01*
X74727701Y-46962117D01*
X74727695Y-46962128D01*
X74677412Y-47077648D01*
X74677405Y-47077669D01*
X74669996Y-47102905D01*
X74654665Y-47173387D01*
X74649644Y-47208307D01*
X74649643Y-47208317D01*
X74644500Y-47280242D01*
X74644500Y-68127104D01*
X74660202Y-68252112D01*
X74660204Y-68252122D01*
X74675366Y-68311529D01*
X74675372Y-68311545D01*
X74721491Y-68428767D01*
X74721494Y-68428773D01*
X74721496Y-68428778D01*
X74721497Y-68428779D01*
X74734102Y-68451866D01*
X74773085Y-68512529D01*
X74773093Y-68512540D01*
X74794228Y-68540776D01*
X74794235Y-68540784D01*
X74794238Y-68540788D01*
X74841479Y-68595308D01*
X74841488Y-68595317D01*
X74841498Y-68595328D01*
X75941170Y-69694999D01*
X79658490Y-73412319D01*
X79691975Y-73473642D01*
X79686991Y-73543334D01*
X79658490Y-73587681D01*
X74828892Y-78417278D01*
X74828855Y-78417317D01*
X74792728Y-78457535D01*
X74792718Y-78457547D01*
X74776076Y-78478198D01*
X74744433Y-78522080D01*
X74684663Y-78652954D01*
X74664976Y-78719999D01*
X74644500Y-78862418D01*
X74644500Y-99737585D01*
X74647397Y-99791633D01*
X74647397Y-99791634D01*
X74650229Y-99817967D01*
X74650232Y-99817994D01*
X74658885Y-99871390D01*
X74658885Y-99871392D01*
X74709166Y-100006197D01*
X74709168Y-100006202D01*
X74742653Y-100067525D01*
X74828877Y-100182706D01*
X74828881Y-100182710D01*
X74828886Y-100182716D01*
X76917278Y-102271107D01*
X76917294Y-102271123D01*
X76917310Y-102271137D01*
X76917317Y-102271144D01*
X76957535Y-102307271D01*
X76957547Y-102307281D01*
X76957555Y-102307288D01*
X76978197Y-102323922D01*
X77022081Y-102355567D01*
X77152958Y-102415338D01*
X77219997Y-102435023D01*
X77220001Y-102435024D01*
X77362417Y-102455500D01*
X77362420Y-102455500D01*
X94159693Y-102455500D01*
X94159695Y-102455500D01*
X94169841Y-102454955D01*
X94213733Y-102452603D01*
X94213741Y-102452602D01*
X94213743Y-102452602D01*
X94213744Y-102452602D01*
X94220737Y-102451849D01*
X94240091Y-102449769D01*
X94240101Y-102449767D01*
X94240104Y-102449767D01*
X94249703Y-102448211D01*
X94293503Y-102441114D01*
X94428312Y-102390832D01*
X94489635Y-102357347D01*
X94604816Y-102271123D01*
X96621123Y-100254816D01*
X96657288Y-100214555D01*
X96673922Y-100193913D01*
X96705567Y-100150029D01*
X96765338Y-100019152D01*
X96785023Y-99952113D01*
X96785024Y-99952109D01*
X96805500Y-99809693D01*
X96805500Y-83144862D01*
X96825185Y-83077823D01*
X96877989Y-83032068D01*
X96947147Y-83022124D01*
X97010703Y-83051149D01*
X97017181Y-83057181D01*
X101280000Y-87320000D01*
X108120808Y-87320000D01*
X108155740Y-87325021D01*
X108180984Y-87332434D01*
X108233730Y-87363730D01*
X109251073Y-88381073D01*
X109272223Y-88409325D01*
X109284831Y-88432414D01*
X109300000Y-88491843D01*
X109300000Y-113756070D01*
X109299999Y-113756076D01*
X109300000Y-113756079D01*
X109294975Y-113791014D01*
X109290570Y-113806012D01*
X109252827Y-113864755D01*
X109252792Y-113864785D01*
X109252791Y-113864787D01*
X109252789Y-113864787D01*
X109251458Y-113865942D01*
X109196597Y-113893418D01*
X109189039Y-113895063D01*
X109162668Y-113897900D01*
X73206643Y-113897900D01*
X73202191Y-113897820D01*
X73197765Y-113897661D01*
X73193371Y-113897425D01*
X72968503Y-113881342D01*
X72959701Y-113880396D01*
X72950945Y-113879137D01*
X72942235Y-113877565D01*
X72728456Y-113831060D01*
X72719879Y-113828871D01*
X72711392Y-113826379D01*
X72702994Y-113823584D01*
X72497997Y-113747125D01*
X72489827Y-113743741D01*
X72481772Y-113740062D01*
X72473868Y-113736105D01*
X72281844Y-113631252D01*
X72274227Y-113626733D01*
X72266779Y-113621946D01*
X72259513Y-113616900D01*
X72084374Y-113485793D01*
X72077482Y-113480239D01*
X72070793Y-113474443D01*
X72064314Y-113468411D01*
X71909616Y-113313713D01*
X71903584Y-113307234D01*
X71897788Y-113300545D01*
X71892234Y-113293653D01*
X71761127Y-113118514D01*
X71756081Y-113111248D01*
X71751294Y-113103800D01*
X71746775Y-113096183D01*
X71711104Y-113030857D01*
X71641915Y-112904145D01*
X71637965Y-112896255D01*
X71634287Y-112888204D01*
X71630909Y-112880048D01*
X71554441Y-112675028D01*
X71551648Y-112666636D01*
X71549157Y-112658154D01*
X71546970Y-112649588D01*
X71500460Y-112435780D01*
X71498890Y-112427079D01*
X71497632Y-112418332D01*
X71496687Y-112409547D01*
X71489148Y-112304139D01*
X71480602Y-112184645D01*
X71480366Y-112180235D01*
X71480208Y-112175806D01*
X71480129Y-112171385D01*
X71480129Y-111193707D01*
X72549500Y-111193707D01*
X72549500Y-111406291D01*
X72582752Y-111616239D01*
X72648445Y-111818418D01*
X72741532Y-112001111D01*
X72744951Y-112007820D01*
X72869890Y-112179786D01*
X72869892Y-112179788D01*
X73020216Y-112330112D01*
X73192169Y-112455042D01*
X73192177Y-112455047D01*
X73192179Y-112455048D01*
X73192181Y-112455049D01*
X73192182Y-112455050D01*
X73192200Y-112455060D01*
X73192442Y-112455182D01*
X73381588Y-112551557D01*
X73583757Y-112617246D01*
X73793713Y-112650500D01*
X73793714Y-112650500D01*
X74006286Y-112650500D01*
X74006287Y-112650500D01*
X74216243Y-112617246D01*
X74418412Y-112551557D01*
X74607816Y-112455051D01*
X74664391Y-112413947D01*
X74779786Y-112330109D01*
X74779788Y-112330106D01*
X74779792Y-112330104D01*
X74779794Y-112330102D01*
X74779844Y-112330066D01*
X74780605Y-112329290D01*
X74930104Y-112179792D01*
X74930106Y-112179788D01*
X74930109Y-112179786D01*
X75055048Y-112007820D01*
X75055047Y-112007820D01*
X75055051Y-112007816D01*
X75055053Y-112007810D01*
X75075445Y-111979744D01*
X75083730Y-111951529D01*
X75151557Y-111818412D01*
X75217246Y-111616243D01*
X75250500Y-111406287D01*
X75250500Y-111193713D01*
X75250499Y-111193707D01*
X105149500Y-111193707D01*
X105149500Y-111406291D01*
X105182752Y-111616239D01*
X105248445Y-111818418D01*
X105341532Y-112001111D01*
X105344951Y-112007820D01*
X105469890Y-112179786D01*
X105469892Y-112179788D01*
X105620216Y-112330112D01*
X105792169Y-112455042D01*
X105792177Y-112455047D01*
X105792179Y-112455048D01*
X105792181Y-112455049D01*
X105792182Y-112455050D01*
X105792200Y-112455060D01*
X105792442Y-112455182D01*
X105981588Y-112551557D01*
X106183757Y-112617246D01*
X106393713Y-112650500D01*
X106393714Y-112650500D01*
X106606286Y-112650500D01*
X106606287Y-112650500D01*
X106816243Y-112617246D01*
X107018412Y-112551557D01*
X107207816Y-112455051D01*
X107264391Y-112413947D01*
X107379786Y-112330109D01*
X107379788Y-112330106D01*
X107379792Y-112330104D01*
X107379794Y-112330102D01*
X107379844Y-112330066D01*
X107380605Y-112329290D01*
X107530104Y-112179792D01*
X107530106Y-112179788D01*
X107530109Y-112179786D01*
X107655048Y-112007820D01*
X107655047Y-112007820D01*
X107655051Y-112007816D01*
X107655053Y-112007810D01*
X107675445Y-111979744D01*
X107683730Y-111951529D01*
X107751557Y-111818412D01*
X107817246Y-111616243D01*
X107850500Y-111406287D01*
X107850500Y-111193713D01*
X107817246Y-110983757D01*
X107751557Y-110781588D01*
X107655051Y-110592184D01*
X107655049Y-110592181D01*
X107655048Y-110592179D01*
X107654702Y-110591703D01*
X107654700Y-110591699D01*
X107530112Y-110420216D01*
X107379788Y-110269892D01*
X107379786Y-110269890D01*
X107207820Y-110144951D01*
X107194167Y-110137994D01*
X107040245Y-110059567D01*
X107040240Y-110059565D01*
X107018414Y-110048444D01*
X107018413Y-110048443D01*
X107018412Y-110048443D01*
X106921550Y-110016970D01*
X106825074Y-109985623D01*
X106820552Y-109983770D01*
X106811362Y-109981600D01*
X106806599Y-109981226D01*
X106654957Y-109957208D01*
X106635489Y-109954124D01*
X106606290Y-109949500D01*
X106606287Y-109949500D01*
X106393713Y-109949500D01*
X106393709Y-109949500D01*
X106354776Y-109955666D01*
X106345042Y-109957208D01*
X106307654Y-109963129D01*
X106183763Y-109982752D01*
X105981582Y-110048445D01*
X105792182Y-110144949D01*
X105620210Y-110269892D01*
X105469892Y-110420210D01*
X105344949Y-110592182D01*
X105248445Y-110781580D01*
X105182752Y-110983759D01*
X105149500Y-111193707D01*
X75250499Y-111193707D01*
X75217246Y-110983757D01*
X75151557Y-110781588D01*
X75055051Y-110592184D01*
X75055049Y-110592181D01*
X75055048Y-110592179D01*
X75054702Y-110591703D01*
X75054700Y-110591699D01*
X74930112Y-110420216D01*
X74779788Y-110269892D01*
X74779786Y-110269890D01*
X74607820Y-110144951D01*
X74594167Y-110137994D01*
X74440245Y-110059567D01*
X74440240Y-110059565D01*
X74418414Y-110048444D01*
X74418413Y-110048443D01*
X74418412Y-110048443D01*
X74321550Y-110016970D01*
X74225074Y-109985623D01*
X74220552Y-109983770D01*
X74211362Y-109981600D01*
X74206599Y-109981226D01*
X74054957Y-109957208D01*
X74035489Y-109954124D01*
X74006290Y-109949500D01*
X74006287Y-109949500D01*
X73793713Y-109949500D01*
X73793709Y-109949500D01*
X73754776Y-109955666D01*
X73745042Y-109957208D01*
X73707654Y-109963129D01*
X73583763Y-109982752D01*
X73381582Y-110048445D01*
X73192182Y-110144949D01*
X73020210Y-110269892D01*
X72869892Y-110420210D01*
X72744949Y-110592182D01*
X72648445Y-110781580D01*
X72582752Y-110983759D01*
X72549500Y-111193707D01*
X71480129Y-111193707D01*
X71480129Y-76093707D01*
X72549500Y-76093707D01*
X72549500Y-76306291D01*
X72582752Y-76516239D01*
X72648445Y-76718418D01*
X72741532Y-76901111D01*
X72744951Y-76907820D01*
X72869890Y-77079786D01*
X72869892Y-77079788D01*
X73020216Y-77230112D01*
X73192169Y-77355042D01*
X73192177Y-77355047D01*
X73192179Y-77355048D01*
X73192181Y-77355049D01*
X73192182Y-77355050D01*
X73192200Y-77355060D01*
X73192442Y-77355182D01*
X73381588Y-77451557D01*
X73583757Y-77517246D01*
X73793713Y-77550500D01*
X73793714Y-77550500D01*
X74006286Y-77550500D01*
X74006287Y-77550500D01*
X74216243Y-77517246D01*
X74418412Y-77451557D01*
X74607816Y-77355051D01*
X74629789Y-77339086D01*
X74779786Y-77230109D01*
X74779786Y-77230108D01*
X74779844Y-77230066D01*
X74780605Y-77229290D01*
X74930104Y-77079792D01*
X74930106Y-77079788D01*
X74930109Y-77079786D01*
X75055048Y-76907820D01*
X75055047Y-76907820D01*
X75055051Y-76907816D01*
X75055053Y-76907810D01*
X75075445Y-76879744D01*
X75083730Y-76851529D01*
X75151557Y-76718412D01*
X75217246Y-76516243D01*
X75250500Y-76306287D01*
X75250500Y-76093713D01*
X75217246Y-75883757D01*
X75151557Y-75681588D01*
X75055051Y-75492184D01*
X75055049Y-75492181D01*
X75055048Y-75492179D01*
X75054702Y-75491703D01*
X75054700Y-75491699D01*
X74930112Y-75320216D01*
X74779788Y-75169892D01*
X74779786Y-75169890D01*
X74607820Y-75044951D01*
X74594167Y-75037994D01*
X74440245Y-74959567D01*
X74440240Y-74959565D01*
X74418414Y-74948444D01*
X74418413Y-74948443D01*
X74418412Y-74948443D01*
X74321550Y-74916970D01*
X74225074Y-74885623D01*
X74220552Y-74883770D01*
X74211362Y-74881600D01*
X74206599Y-74881226D01*
X74054957Y-74857208D01*
X74035489Y-74854124D01*
X74006290Y-74849500D01*
X74006287Y-74849500D01*
X73793713Y-74849500D01*
X73793709Y-74849500D01*
X73754776Y-74855666D01*
X73745042Y-74857208D01*
X73707654Y-74863129D01*
X73583763Y-74882752D01*
X73381582Y-74948445D01*
X73192182Y-75044949D01*
X73020210Y-75169892D01*
X72869892Y-75320210D01*
X72744949Y-75492182D01*
X72648445Y-75681580D01*
X72582752Y-75883759D01*
X72549500Y-76093707D01*
X71480129Y-76093707D01*
X71480129Y-42093713D01*
X72599500Y-42093713D01*
X72599500Y-42098381D01*
X72599500Y-42306286D01*
X72632754Y-42516244D01*
X72632754Y-42516247D01*
X72694999Y-42707814D01*
X72698444Y-42718415D01*
X72698445Y-42718416D01*
X72794951Y-42907820D01*
X72919890Y-43079786D01*
X72919892Y-43079788D01*
X73070216Y-43230112D01*
X73242169Y-43355042D01*
X73242177Y-43355047D01*
X73242179Y-43355048D01*
X73242181Y-43355049D01*
X73242182Y-43355050D01*
X73242200Y-43355060D01*
X73242442Y-43355182D01*
X73431588Y-43451557D01*
X73633757Y-43517246D01*
X73843713Y-43550500D01*
X73843714Y-43550500D01*
X74056286Y-43550500D01*
X74056287Y-43550500D01*
X74266243Y-43517246D01*
X74468412Y-43451557D01*
X74657816Y-43355051D01*
X74679789Y-43339086D01*
X74829786Y-43230109D01*
X74829786Y-43230108D01*
X74829844Y-43230066D01*
X74830605Y-43229290D01*
X74980104Y-43079792D01*
X74980106Y-43079788D01*
X74980109Y-43079786D01*
X75105048Y-42907820D01*
X75105047Y-42907820D01*
X75105051Y-42907816D01*
X75105053Y-42907810D01*
X75125445Y-42879744D01*
X75133730Y-42851529D01*
X75201557Y-42718412D01*
X75267246Y-42516243D01*
X75300500Y-42306287D01*
X75300500Y-42093713D01*
X75268823Y-41893713D01*
X93749500Y-41893713D01*
X93749500Y-42106287D01*
X93782754Y-42316243D01*
X93847738Y-42516243D01*
X93848444Y-42518414D01*
X93944951Y-42707820D01*
X94069890Y-42879786D01*
X94069892Y-42879788D01*
X94220216Y-43030112D01*
X94392169Y-43155042D01*
X94392177Y-43155047D01*
X94392179Y-43155048D01*
X94392181Y-43155049D01*
X94392182Y-43155050D01*
X94392200Y-43155060D01*
X94392442Y-43155182D01*
X94581588Y-43251557D01*
X94783757Y-43317246D01*
X94993713Y-43350500D01*
X94993714Y-43350500D01*
X95206286Y-43350500D01*
X95206287Y-43350500D01*
X95416243Y-43317246D01*
X95618412Y-43251557D01*
X95807816Y-43155051D01*
X95911402Y-43079792D01*
X95979786Y-43030109D01*
X95979788Y-43030106D01*
X95979792Y-43030104D01*
X95979795Y-43030100D01*
X95979848Y-43030062D01*
X95980605Y-43029290D01*
X96130104Y-42879792D01*
X96130106Y-42879788D01*
X96130109Y-42879786D01*
X96255048Y-42707820D01*
X96255047Y-42707820D01*
X96255051Y-42707816D01*
X96255053Y-42707810D01*
X96275445Y-42679744D01*
X96283730Y-42651529D01*
X96351557Y-42518412D01*
X96417246Y-42316243D01*
X96450500Y-42106287D01*
X96450500Y-41893713D01*
X96448923Y-41883759D01*
X96417246Y-41683760D01*
X96417246Y-41683759D01*
X96417246Y-41683757D01*
X96351557Y-41481588D01*
X96255051Y-41292184D01*
X96255049Y-41292181D01*
X96255048Y-41292179D01*
X96254702Y-41291703D01*
X96254700Y-41291699D01*
X96130112Y-41120216D01*
X95979788Y-40969892D01*
X95979786Y-40969890D01*
X95807820Y-40844951D01*
X95794167Y-40837994D01*
X95640245Y-40759567D01*
X95640240Y-40759565D01*
X95618414Y-40748444D01*
X95618413Y-40748443D01*
X95618412Y-40748443D01*
X95521550Y-40716970D01*
X95425074Y-40685623D01*
X95420552Y-40683770D01*
X95411362Y-40681600D01*
X95406599Y-40681226D01*
X95361109Y-40674021D01*
X95254957Y-40657208D01*
X95226897Y-40652764D01*
X95206290Y-40649500D01*
X95206287Y-40649500D01*
X94993713Y-40649500D01*
X94993709Y-40649500D01*
X94954776Y-40655666D01*
X94945042Y-40657208D01*
X94919314Y-40661283D01*
X94783763Y-40682752D01*
X94581582Y-40748445D01*
X94392182Y-40844949D01*
X94392179Y-40844950D01*
X94392179Y-40844951D01*
X94342250Y-40881226D01*
X94220210Y-40969892D01*
X94069892Y-41120210D01*
X93944949Y-41292182D01*
X93848445Y-41481580D01*
X93782753Y-41683759D01*
X93751377Y-41881858D01*
X93751373Y-41881882D01*
X93751077Y-41883757D01*
X93749500Y-41893713D01*
X75268823Y-41893713D01*
X75267246Y-41883757D01*
X75201557Y-41681588D01*
X75105051Y-41492184D01*
X75105049Y-41492181D01*
X75105048Y-41492179D01*
X75104702Y-41491703D01*
X75104700Y-41491699D01*
X74980112Y-41320216D01*
X74829788Y-41169892D01*
X74829786Y-41169890D01*
X74657820Y-41044951D01*
X74644167Y-41037994D01*
X74490245Y-40959567D01*
X74490240Y-40959565D01*
X74468414Y-40948444D01*
X74468413Y-40948443D01*
X74468412Y-40948443D01*
X74350734Y-40910207D01*
X74275074Y-40885623D01*
X74270552Y-40883770D01*
X74261362Y-40881600D01*
X74256599Y-40881226D01*
X74104957Y-40857208D01*
X74085489Y-40854124D01*
X74056290Y-40849500D01*
X74056287Y-40849500D01*
X73843713Y-40849500D01*
X73843709Y-40849500D01*
X73804776Y-40855666D01*
X73795042Y-40857208D01*
X73757654Y-40863129D01*
X73633763Y-40882752D01*
X73431582Y-40948445D01*
X73242182Y-41044949D01*
X73070210Y-41169892D01*
X72919892Y-41320210D01*
X72794949Y-41492182D01*
X72698445Y-41681580D01*
X72697737Y-41683760D01*
X72632753Y-41883760D01*
X72631177Y-41893713D01*
X72599500Y-42093713D01*
X71480129Y-42093713D01*
X71480129Y-41406642D01*
X71480208Y-41402221D01*
X71480366Y-41397792D01*
X71480603Y-41393368D01*
X71485835Y-41320210D01*
X71497188Y-41161462D01*
X71498134Y-41152666D01*
X71499392Y-41143920D01*
X71500963Y-41135216D01*
X71504228Y-41120210D01*
X71548969Y-40914535D01*
X71551154Y-40905974D01*
X71551702Y-40904107D01*
X71553641Y-40897501D01*
X71556427Y-40889127D01*
X71635377Y-40677454D01*
X71638746Y-40669321D01*
X71642430Y-40661256D01*
X71646366Y-40653393D01*
X71754628Y-40455126D01*
X71759121Y-40447554D01*
X71763923Y-40440082D01*
X71768933Y-40432866D01*
X71904305Y-40252030D01*
X71909843Y-40245160D01*
X71915626Y-40238485D01*
X71921650Y-40232013D01*
X72081372Y-40072291D01*
X72087844Y-40066267D01*
X72094519Y-40060484D01*
X72101389Y-40054946D01*
X72282225Y-39919574D01*
X72289441Y-39914564D01*
X72296913Y-39909762D01*
X72304485Y-39905269D01*
X72502752Y-39797007D01*
X72510615Y-39793071D01*
X72518680Y-39789387D01*
X72526813Y-39786018D01*
X72738486Y-39707068D01*
X72746860Y-39704282D01*
X72755333Y-39701795D01*
X72763894Y-39699610D01*
X72984581Y-39651602D01*
X72993279Y-39650033D01*
X72995742Y-39649678D01*
X73002032Y-39648774D01*
X73010820Y-39647829D01*
X73242742Y-39631243D01*
X73247150Y-39631007D01*
X73247521Y-39630993D01*
X73251581Y-39630849D01*
X73256002Y-39630770D01*
X109970500Y-39630770D01*
X110037539Y-39650455D01*
G37*
%TD.AperFunction*%
%TA.AperFunction,Conductor*%
%TO.N,/Voltage and Current Measurements/V_bat_in*%
G36*
X94176795Y-45055021D02*
G01*
X94202039Y-45062434D01*
X94254785Y-45093730D01*
X96251074Y-47090019D01*
X96272223Y-47118270D01*
X96284831Y-47141359D01*
X96300000Y-47200788D01*
X96300000Y-55039990D01*
X96299500Y-55050168D01*
X96299500Y-55209841D01*
X96300000Y-55220009D01*
X96300000Y-56469990D01*
X96299500Y-56480168D01*
X96299500Y-56639841D01*
X96300000Y-56650009D01*
X96300000Y-73108170D01*
X96294978Y-73143101D01*
X96291358Y-73155431D01*
X96253586Y-73214210D01*
X96190031Y-73243237D01*
X96172380Y-73244500D01*
X80261516Y-73244500D01*
X80261513Y-73244499D01*
X80261513Y-73244500D01*
X80226578Y-73239476D01*
X80220067Y-73237564D01*
X80167324Y-73206269D01*
X75713180Y-68752125D01*
X78999500Y-68752125D01*
X78999500Y-69747876D01*
X78999659Y-69749806D01*
X78999885Y-69751454D01*
X79005907Y-69807482D01*
X79033690Y-69881971D01*
X79056202Y-69942328D01*
X79056203Y-69942330D01*
X79056204Y-69942332D01*
X79056205Y-69942333D01*
X79142450Y-70057542D01*
X79142452Y-70057544D01*
X79142455Y-70057547D01*
X79257664Y-70143793D01*
X79257671Y-70143797D01*
X79392517Y-70194091D01*
X79392516Y-70194091D01*
X79399444Y-70194835D01*
X79452127Y-70200500D01*
X81547872Y-70200499D01*
X81607483Y-70194091D01*
X81742331Y-70143796D01*
X81857546Y-70057546D01*
X81943796Y-69942331D01*
X81994091Y-69807483D01*
X82000500Y-69747873D01*
X82000499Y-68752128D01*
X81994091Y-68692517D01*
X81978419Y-68650499D01*
X81943797Y-68557671D01*
X81943793Y-68557664D01*
X81857547Y-68442455D01*
X81857544Y-68442452D01*
X81857542Y-68442450D01*
X81756465Y-68366784D01*
X81742335Y-68356206D01*
X81742332Y-68356204D01*
X81742330Y-68356203D01*
X81742328Y-68356202D01*
X81607482Y-68305908D01*
X81607483Y-68305908D01*
X81547883Y-68299501D01*
X81547881Y-68299500D01*
X81547873Y-68299500D01*
X81547864Y-68299500D01*
X81546841Y-68299500D01*
X79452123Y-68299500D01*
X79450192Y-68299659D01*
X79448545Y-68299885D01*
X79392516Y-68305908D01*
X79257666Y-68356204D01*
X79257665Y-68356205D01*
X79142456Y-68442450D01*
X79142450Y-68442456D01*
X79056205Y-68557665D01*
X79056203Y-68557668D01*
X79005908Y-68692516D01*
X78999500Y-68752125D01*
X75713180Y-68752125D01*
X75198926Y-68237871D01*
X75198921Y-68237866D01*
X75177774Y-68209615D01*
X75165167Y-68186526D01*
X75150000Y-68127101D01*
X75150000Y-65004699D01*
X83949500Y-65004699D01*
X83949500Y-67195354D01*
X83949557Y-67196103D01*
X83959410Y-67335663D01*
X83959521Y-67338820D01*
X83960169Y-67342812D01*
X83961086Y-67346105D01*
X84013505Y-67578854D01*
X84013768Y-67580094D01*
X84013836Y-67580321D01*
X84105795Y-67808810D01*
X84233216Y-68019590D01*
X84234756Y-68021555D01*
X84236456Y-68023398D01*
X84392797Y-68207201D01*
X84501309Y-68299500D01*
X84580411Y-68366784D01*
X84791191Y-68494205D01*
X85019683Y-68586165D01*
X85259966Y-68640281D01*
X85404705Y-68650500D01*
X87595294Y-68650499D01*
X87740034Y-68640281D01*
X87980317Y-68586165D01*
X88208809Y-68494205D01*
X88419589Y-68366784D01*
X88607201Y-68207201D01*
X88766784Y-68019589D01*
X88894205Y-67808809D01*
X88986165Y-67580317D01*
X89040281Y-67340034D01*
X89050500Y-67195295D01*
X89050499Y-65004706D01*
X89040281Y-64859966D01*
X88986165Y-64619683D01*
X88894205Y-64391191D01*
X88766784Y-64180411D01*
X88700930Y-64102990D01*
X88607201Y-63992797D01*
X88477654Y-63882606D01*
X88419589Y-63833216D01*
X88361190Y-63797912D01*
X88208810Y-63705795D01*
X87980320Y-63613835D01*
X87980315Y-63613834D01*
X87740040Y-63559720D01*
X87740036Y-63559719D01*
X87740034Y-63559718D01*
X87740031Y-63559718D01*
X87595298Y-63549500D01*
X87595296Y-63549500D01*
X85404707Y-63549500D01*
X85404642Y-63549500D01*
X85403895Y-63549557D01*
X85274719Y-63558676D01*
X85264333Y-63559410D01*
X85255603Y-63559718D01*
X85239255Y-63559718D01*
X85224926Y-63567610D01*
X85021145Y-63613505D01*
X85019904Y-63613768D01*
X85019677Y-63613836D01*
X84791192Y-63705793D01*
X84649279Y-63791583D01*
X84580417Y-63833212D01*
X84580413Y-63833214D01*
X84580411Y-63833216D01*
X84392797Y-63992797D01*
X84233216Y-64180411D01*
X84105793Y-64391192D01*
X84013772Y-64619834D01*
X84013421Y-64621514D01*
X83959718Y-64859966D01*
X83959718Y-64859968D01*
X83949500Y-65004699D01*
X75150000Y-65004699D01*
X75150000Y-55252125D01*
X78999500Y-55252125D01*
X78999500Y-56247876D01*
X78999659Y-56249806D01*
X78999885Y-56251454D01*
X79005907Y-56307482D01*
X79033690Y-56381971D01*
X79056202Y-56442328D01*
X79056203Y-56442330D01*
X79056204Y-56442332D01*
X79056205Y-56442333D01*
X79142450Y-56557542D01*
X79142452Y-56557544D01*
X79142455Y-56557547D01*
X79257664Y-56643793D01*
X79257671Y-56643797D01*
X79392517Y-56694091D01*
X79392516Y-56694091D01*
X79399444Y-56694835D01*
X79452127Y-56700500D01*
X81547872Y-56700499D01*
X81607483Y-56694091D01*
X81742331Y-56643796D01*
X81857546Y-56557546D01*
X81943796Y-56442331D01*
X81994091Y-56307483D01*
X82000500Y-56247873D01*
X82000499Y-55252128D01*
X81994091Y-55192517D01*
X81943796Y-55057669D01*
X81943795Y-55057668D01*
X81943793Y-55057664D01*
X81943782Y-55057649D01*
X81941392Y-55053929D01*
X81941391Y-55053928D01*
X81938489Y-55050579D01*
X81857547Y-54942455D01*
X81857544Y-54942452D01*
X81857542Y-54942450D01*
X81799616Y-54899086D01*
X81742335Y-54856206D01*
X81742332Y-54856204D01*
X81742330Y-54856203D01*
X81742328Y-54856202D01*
X81607482Y-54805908D01*
X81607483Y-54805908D01*
X81547883Y-54799501D01*
X81547881Y-54799500D01*
X81547873Y-54799500D01*
X81547864Y-54799500D01*
X81546841Y-54799500D01*
X79452123Y-54799500D01*
X79450192Y-54799659D01*
X79448545Y-54799885D01*
X79392516Y-54805908D01*
X79257666Y-54856204D01*
X79257665Y-54856205D01*
X79142456Y-54942450D01*
X79142450Y-54942456D01*
X79056205Y-55057665D01*
X79056203Y-55057668D01*
X79005908Y-55192516D01*
X78999500Y-55252125D01*
X75150000Y-55252125D01*
X75150000Y-47280246D01*
X75155022Y-47245313D01*
X75162434Y-47220068D01*
X75193728Y-47167326D01*
X77262131Y-45098923D01*
X77290381Y-45077775D01*
X77313473Y-45065167D01*
X77372898Y-45050000D01*
X94141863Y-45050000D01*
X94176795Y-45055021D01*
G37*
%TD.AperFunction*%
%TD*%
%TA.AperFunction,Conductor*%
%TO.N,/Voltage and Current Measurements/V_bat_out*%
G36*
X96243039Y-73769685D02*
G01*
X96288794Y-73822489D01*
X96300000Y-73874000D01*
X96300000Y-99809693D01*
X96280315Y-99876732D01*
X96263681Y-99897374D01*
X94247374Y-101913681D01*
X94186051Y-101947166D01*
X94159693Y-101950000D01*
X77362417Y-101950000D01*
X77295378Y-101930315D01*
X77274736Y-101913681D01*
X75186319Y-99825264D01*
X75152834Y-99763941D01*
X75150000Y-99737583D01*
X75150000Y-97252135D01*
X78999500Y-97252135D01*
X78999500Y-98247870D01*
X78999501Y-98247876D01*
X79005908Y-98307483D01*
X79056202Y-98442328D01*
X79056206Y-98442335D01*
X79142452Y-98557544D01*
X79142455Y-98557547D01*
X79257664Y-98643793D01*
X79257671Y-98643797D01*
X79392517Y-98694091D01*
X79392516Y-98694091D01*
X79399444Y-98694835D01*
X79452127Y-98700500D01*
X81547872Y-98700499D01*
X81607483Y-98694091D01*
X81742331Y-98643796D01*
X81857546Y-98557546D01*
X81943796Y-98442331D01*
X81994091Y-98307483D01*
X82000500Y-98247873D01*
X82000499Y-97252128D01*
X81994091Y-97192517D01*
X81993885Y-97191966D01*
X81943797Y-97057671D01*
X81943793Y-97057664D01*
X81857547Y-96942455D01*
X81857544Y-96942452D01*
X81742335Y-96856206D01*
X81742328Y-96856202D01*
X81607482Y-96805908D01*
X81607483Y-96805908D01*
X81547883Y-96799501D01*
X81547881Y-96799500D01*
X81547873Y-96799500D01*
X81547864Y-96799500D01*
X79452129Y-96799500D01*
X79452123Y-96799501D01*
X79392516Y-96805908D01*
X79257671Y-96856202D01*
X79257664Y-96856206D01*
X79142455Y-96942452D01*
X79142452Y-96942455D01*
X79056206Y-97057664D01*
X79056202Y-97057671D01*
X79005908Y-97192517D01*
X78999501Y-97252116D01*
X78999501Y-97252123D01*
X78999500Y-97252135D01*
X75150000Y-97252135D01*
X75150000Y-93504702D01*
X83949500Y-93504702D01*
X83949500Y-95695292D01*
X83949501Y-95695298D01*
X83959718Y-95840027D01*
X83959718Y-95840031D01*
X83959719Y-95840034D01*
X83959720Y-95840038D01*
X84013834Y-96080314D01*
X84013835Y-96080319D01*
X84103196Y-96302352D01*
X84105795Y-96308809D01*
X84233216Y-96519589D01*
X84233219Y-96519592D01*
X84392798Y-96707201D01*
X84501309Y-96799500D01*
X84580411Y-96866784D01*
X84791191Y-96994205D01*
X85019683Y-97086165D01*
X85259966Y-97140281D01*
X85404705Y-97150500D01*
X87595294Y-97150499D01*
X87740034Y-97140281D01*
X87980317Y-97086165D01*
X88208809Y-96994205D01*
X88419589Y-96866784D01*
X88607201Y-96707201D01*
X88766784Y-96519589D01*
X88894205Y-96308809D01*
X88986165Y-96080317D01*
X89040281Y-95840034D01*
X89050500Y-95695295D01*
X89050499Y-93504706D01*
X89040281Y-93359966D01*
X88986165Y-93119683D01*
X88894205Y-92891191D01*
X88766784Y-92680411D01*
X88700930Y-92602990D01*
X88607201Y-92492798D01*
X88477654Y-92382606D01*
X88419589Y-92333216D01*
X88208809Y-92205795D01*
X87980318Y-92113835D01*
X87740036Y-92059719D01*
X87740029Y-92059718D01*
X87595296Y-92049500D01*
X85404707Y-92049500D01*
X85404701Y-92049501D01*
X85259972Y-92059718D01*
X85259966Y-92059718D01*
X85259966Y-92059719D01*
X85259963Y-92059719D01*
X85259961Y-92059720D01*
X85019685Y-92113834D01*
X85019680Y-92113835D01*
X84791190Y-92205795D01*
X84791185Y-92205798D01*
X84580417Y-92333212D01*
X84580407Y-92333219D01*
X84392798Y-92492798D01*
X84233219Y-92680407D01*
X84233212Y-92680417D01*
X84105798Y-92891185D01*
X84105795Y-92891190D01*
X84013835Y-93119680D01*
X84013835Y-93119682D01*
X83959719Y-93359963D01*
X83959718Y-93359970D01*
X83949500Y-93504702D01*
X75150000Y-93504702D01*
X75150000Y-83752135D01*
X78999500Y-83752135D01*
X78999500Y-84747870D01*
X78999501Y-84747876D01*
X79005908Y-84807483D01*
X79056202Y-84942328D01*
X79056206Y-84942335D01*
X79142452Y-85057544D01*
X79142455Y-85057547D01*
X79257664Y-85143793D01*
X79257671Y-85143797D01*
X79392517Y-85194091D01*
X79392516Y-85194091D01*
X79399444Y-85194835D01*
X79452127Y-85200500D01*
X81547872Y-85200499D01*
X81607483Y-85194091D01*
X81742331Y-85143796D01*
X81857546Y-85057546D01*
X81943796Y-84942331D01*
X81994091Y-84807483D01*
X82000500Y-84747873D01*
X82000499Y-83752128D01*
X81994091Y-83692517D01*
X81943796Y-83557669D01*
X81943795Y-83557668D01*
X81943793Y-83557664D01*
X81857547Y-83442455D01*
X81857544Y-83442452D01*
X81742335Y-83356206D01*
X81742328Y-83356202D01*
X81607482Y-83305908D01*
X81607483Y-83305908D01*
X81547883Y-83299501D01*
X81547881Y-83299500D01*
X81547873Y-83299500D01*
X81547864Y-83299500D01*
X79452129Y-83299500D01*
X79452123Y-83299501D01*
X79392516Y-83305908D01*
X79257671Y-83356202D01*
X79257664Y-83356206D01*
X79142455Y-83442452D01*
X79142452Y-83442455D01*
X79056206Y-83557664D01*
X79056202Y-83557671D01*
X79005908Y-83692517D01*
X78999501Y-83752116D01*
X78999501Y-83752123D01*
X78999500Y-83752135D01*
X75150000Y-83752135D01*
X75150000Y-78862417D01*
X75169685Y-78795378D01*
X75186319Y-78774736D01*
X80174736Y-73786319D01*
X80236059Y-73752834D01*
X80262417Y-73750000D01*
X96176000Y-73750000D01*
X96243039Y-73769685D01*
G37*
%TD.AperFunction*%
%TD*%
%TA.AperFunction,Conductor*%
%TO.N,GND*%
G36*
X163125747Y-62903881D02*
G01*
X163169108Y-62915500D01*
X163169110Y-62915500D01*
X163300890Y-62915500D01*
X163300892Y-62915500D01*
X163344251Y-62903882D01*
X163414097Y-62905543D01*
X163471961Y-62944705D01*
X163499466Y-63008933D01*
X163496118Y-63055748D01*
X163484500Y-63099108D01*
X163484500Y-63230892D01*
X163485227Y-63233607D01*
X163496118Y-63274250D01*
X163494455Y-63344100D01*
X163455292Y-63401962D01*
X163391064Y-63429466D01*
X163344251Y-63426118D01*
X163300892Y-63414500D01*
X163169108Y-63414500D01*
X163125749Y-63426118D01*
X163055899Y-63424455D01*
X162998037Y-63385292D01*
X162970533Y-63321063D01*
X162973882Y-63274250D01*
X162985500Y-63230892D01*
X162985500Y-63099108D01*
X162973882Y-63055748D01*
X162975544Y-62985901D01*
X163014705Y-62928038D01*
X163078934Y-62900533D01*
X163125747Y-62903881D01*
G37*
%TD.AperFunction*%
%TD*%
%TA.AperFunction,NonConductor*%
G36*
X166657579Y-39630771D02*
G01*
X166672004Y-39630770D01*
X166672005Y-39630771D01*
X166695299Y-39630770D01*
X166703405Y-39631034D01*
X166932549Y-39646047D01*
X166948609Y-39648161D01*
X167169831Y-39692159D01*
X167185500Y-39696357D01*
X167399078Y-39768853D01*
X167414063Y-39775060D01*
X167616353Y-39874815D01*
X167630396Y-39882922D01*
X167817939Y-40008231D01*
X167830808Y-40018106D01*
X168000382Y-40166818D01*
X168011851Y-40178287D01*
X168160563Y-40347861D01*
X168170438Y-40360730D01*
X168295744Y-40548268D01*
X168303854Y-40562316D01*
X168403609Y-40764606D01*
X168409816Y-40779591D01*
X168482312Y-40993169D01*
X168486510Y-41008838D01*
X168530506Y-41230049D01*
X168532623Y-41246131D01*
X168547634Y-41475261D01*
X168547899Y-41483370D01*
X168547898Y-41531322D01*
X168547900Y-41531331D01*
X168547900Y-41760733D01*
X168528215Y-41827772D01*
X168475411Y-41873527D01*
X168406253Y-41883471D01*
X168342697Y-41854446D01*
X168305969Y-41799051D01*
X168251557Y-41631588D01*
X168155051Y-41442184D01*
X168155049Y-41442181D01*
X168155048Y-41442179D01*
X168030109Y-41270213D01*
X167879786Y-41119890D01*
X167707820Y-40994951D01*
X167518414Y-40898444D01*
X167518413Y-40898443D01*
X167518412Y-40898443D01*
X167316243Y-40832754D01*
X167316241Y-40832753D01*
X167316240Y-40832753D01*
X167154957Y-40807208D01*
X167106287Y-40799500D01*
X166893713Y-40799500D01*
X166845042Y-40807208D01*
X166683760Y-40832753D01*
X166481585Y-40898444D01*
X166292179Y-40994951D01*
X166120213Y-41119890D01*
X165969890Y-41270213D01*
X165844951Y-41442179D01*
X165748444Y-41631585D01*
X165682753Y-41833760D01*
X165650909Y-42034814D01*
X165649500Y-42043713D01*
X165649500Y-42256287D01*
X165659534Y-42319644D01*
X165679115Y-42443272D01*
X165682754Y-42466243D01*
X165694030Y-42500948D01*
X165748444Y-42668414D01*
X165844951Y-42857820D01*
X165969890Y-43029786D01*
X166120213Y-43180109D01*
X166292179Y-43305048D01*
X166292181Y-43305049D01*
X166292184Y-43305051D01*
X166481588Y-43401557D01*
X166683757Y-43467246D01*
X166893713Y-43500500D01*
X166893714Y-43500500D01*
X167106286Y-43500500D01*
X167106287Y-43500500D01*
X167316243Y-43467246D01*
X167518412Y-43401557D01*
X167707816Y-43305051D01*
X167798040Y-43239500D01*
X167879786Y-43180109D01*
X167879788Y-43180106D01*
X167879792Y-43180104D01*
X168030104Y-43029792D01*
X168030106Y-43029788D01*
X168030109Y-43029786D01*
X168155048Y-42857820D01*
X168155047Y-42857820D01*
X168155051Y-42857816D01*
X168251557Y-42668412D01*
X168305970Y-42500946D01*
X168345406Y-42443272D01*
X168409765Y-42416074D01*
X168478611Y-42427989D01*
X168530087Y-42475233D01*
X168547900Y-42539266D01*
X168547900Y-111946994D01*
X168547739Y-111953315D01*
X168546883Y-111970075D01*
X168545402Y-111972642D01*
X168545402Y-111999099D01*
X168545241Y-112002254D01*
X168545189Y-112002400D01*
X168545136Y-112004043D01*
X168529695Y-112239622D01*
X168527578Y-112255703D01*
X168482318Y-112483239D01*
X168478120Y-112498906D01*
X168403545Y-112718598D01*
X168397338Y-112733584D01*
X168294724Y-112941664D01*
X168286614Y-112955710D01*
X168157725Y-113148607D01*
X168147851Y-113161476D01*
X167994878Y-113335907D01*
X167983409Y-113347376D01*
X167808978Y-113500349D01*
X167796109Y-113510223D01*
X167603212Y-113639112D01*
X167589166Y-113647222D01*
X167381086Y-113749836D01*
X167366100Y-113756043D01*
X167146408Y-113830618D01*
X167130741Y-113834816D01*
X166903205Y-113880076D01*
X166887124Y-113882193D01*
X166651545Y-113897634D01*
X166643435Y-113897900D01*
X111924000Y-113897900D01*
X111856961Y-113878215D01*
X111811206Y-113825411D01*
X111800000Y-113773900D01*
X111800000Y-111234108D01*
X128149500Y-111234108D01*
X128149500Y-111365891D01*
X128183608Y-111493187D01*
X128216554Y-111550250D01*
X128249500Y-111607314D01*
X128342686Y-111700500D01*
X128456814Y-111766392D01*
X128584108Y-111800500D01*
X128584110Y-111800500D01*
X128715890Y-111800500D01*
X128715892Y-111800500D01*
X128843186Y-111766392D01*
X128957314Y-111700500D01*
X129050500Y-111607314D01*
X129116392Y-111493186D01*
X129150500Y-111365892D01*
X129150500Y-111234108D01*
X129126279Y-111143713D01*
X156824500Y-111143713D01*
X156824500Y-111356287D01*
X156857754Y-111566243D01*
X156922786Y-111766391D01*
X156923444Y-111768414D01*
X157019951Y-111957820D01*
X157144890Y-112129786D01*
X157295213Y-112280109D01*
X157467179Y-112405048D01*
X157467181Y-112405049D01*
X157467184Y-112405051D01*
X157656588Y-112501557D01*
X157858757Y-112567246D01*
X158068713Y-112600500D01*
X158068714Y-112600500D01*
X158281286Y-112600500D01*
X158281287Y-112600500D01*
X158491243Y-112567246D01*
X158693412Y-112501557D01*
X158882816Y-112405051D01*
X158904789Y-112389086D01*
X159054786Y-112280109D01*
X159054788Y-112280106D01*
X159054792Y-112280104D01*
X159205104Y-112129792D01*
X159205106Y-112129788D01*
X159205109Y-112129786D01*
X159330048Y-111957820D01*
X159330047Y-111957820D01*
X159330051Y-111957816D01*
X159426557Y-111768412D01*
X159492246Y-111566243D01*
X159525500Y-111356287D01*
X159525500Y-111143713D01*
X159492246Y-110933757D01*
X159426557Y-110731588D01*
X159330051Y-110542184D01*
X159330049Y-110542181D01*
X159330048Y-110542179D01*
X159205109Y-110370213D01*
X159054786Y-110219890D01*
X158882820Y-110094951D01*
X158693414Y-109998444D01*
X158693413Y-109998443D01*
X158693412Y-109998443D01*
X158491243Y-109932754D01*
X158491241Y-109932753D01*
X158491240Y-109932753D01*
X158329957Y-109907208D01*
X158281287Y-109899500D01*
X158068713Y-109899500D01*
X158020042Y-109907208D01*
X157858760Y-109932753D01*
X157656585Y-109998444D01*
X157467179Y-110094951D01*
X157295213Y-110219890D01*
X157144890Y-110370213D01*
X157019951Y-110542179D01*
X156923444Y-110731585D01*
X156857753Y-110933760D01*
X156830344Y-111106814D01*
X156824500Y-111143713D01*
X129126279Y-111143713D01*
X129116392Y-111106814D01*
X129050500Y-110992686D01*
X128957314Y-110899500D01*
X128900250Y-110866554D01*
X128843187Y-110833608D01*
X128779539Y-110816554D01*
X128715892Y-110799500D01*
X128584108Y-110799500D01*
X128456812Y-110833608D01*
X128342686Y-110899500D01*
X128342683Y-110899502D01*
X128249502Y-110992683D01*
X128249500Y-110992686D01*
X128183608Y-111106812D01*
X128149500Y-111234108D01*
X111800000Y-111234108D01*
X111800000Y-105512155D01*
X123200000Y-105512155D01*
X123200000Y-106160000D01*
X124116988Y-106160000D01*
X124084075Y-106217007D01*
X124050000Y-106344174D01*
X124050000Y-106475826D01*
X124084075Y-106602993D01*
X124116988Y-106660000D01*
X123200000Y-106660000D01*
X123200000Y-107307844D01*
X123206401Y-107367372D01*
X123206403Y-107367379D01*
X123256645Y-107502086D01*
X123256649Y-107502093D01*
X123342809Y-107617187D01*
X123342812Y-107617190D01*
X123457906Y-107703350D01*
X123457913Y-107703354D01*
X123592620Y-107753596D01*
X123592627Y-107753598D01*
X123652155Y-107759999D01*
X123652172Y-107760000D01*
X124300000Y-107760000D01*
X124300000Y-106843012D01*
X124357007Y-106875925D01*
X124484174Y-106910000D01*
X124615826Y-106910000D01*
X124742993Y-106875925D01*
X124800000Y-106843012D01*
X124800000Y-107760000D01*
X125447828Y-107760000D01*
X125447844Y-107759999D01*
X125507372Y-107753598D01*
X125507379Y-107753596D01*
X125642086Y-107703354D01*
X125642093Y-107703350D01*
X125757187Y-107617190D01*
X125757190Y-107617187D01*
X125843350Y-107502093D01*
X125843354Y-107502086D01*
X125893596Y-107367379D01*
X125893598Y-107367372D01*
X125899999Y-107307844D01*
X125900000Y-107307827D01*
X125900000Y-106834108D01*
X144399500Y-106834108D01*
X144399500Y-106965891D01*
X144433608Y-107093187D01*
X144466554Y-107150250D01*
X144499500Y-107207314D01*
X144592686Y-107300500D01*
X144706814Y-107366392D01*
X144834108Y-107400500D01*
X144834110Y-107400500D01*
X144965890Y-107400500D01*
X144965892Y-107400500D01*
X145093186Y-107366392D01*
X145207314Y-107300500D01*
X145300500Y-107207314D01*
X145366392Y-107093186D01*
X145400500Y-106965892D01*
X145400500Y-106834108D01*
X145366392Y-106706814D01*
X145300500Y-106592686D01*
X145207314Y-106499500D01*
X145122442Y-106450499D01*
X145093187Y-106433608D01*
X145028931Y-106416391D01*
X144965892Y-106399500D01*
X144834108Y-106399500D01*
X144706812Y-106433608D01*
X144592686Y-106499500D01*
X144592683Y-106499502D01*
X144499502Y-106592683D01*
X144499500Y-106592686D01*
X144433608Y-106706812D01*
X144399500Y-106834108D01*
X125900000Y-106834108D01*
X125900000Y-106660000D01*
X124983012Y-106660000D01*
X125015925Y-106602993D01*
X125050000Y-106475826D01*
X125050000Y-106344174D01*
X125015925Y-106217007D01*
X124983012Y-106160000D01*
X125900000Y-106160000D01*
X125900000Y-105884108D01*
X150499500Y-105884108D01*
X150499500Y-106015891D01*
X150533608Y-106143187D01*
X150566554Y-106200250D01*
X150599500Y-106257314D01*
X150692686Y-106350500D01*
X150806814Y-106416392D01*
X150934108Y-106450500D01*
X150934110Y-106450500D01*
X151065890Y-106450500D01*
X151065892Y-106450500D01*
X151193186Y-106416392D01*
X151307314Y-106350500D01*
X151400500Y-106257314D01*
X151466392Y-106143186D01*
X151500500Y-106015892D01*
X151500500Y-105884108D01*
X151466392Y-105756814D01*
X151400500Y-105642686D01*
X151307314Y-105549500D01*
X151222439Y-105500497D01*
X151193187Y-105483608D01*
X151129539Y-105466554D01*
X151065892Y-105449500D01*
X150934108Y-105449500D01*
X150806812Y-105483608D01*
X150692686Y-105549500D01*
X150692683Y-105549502D01*
X150599502Y-105642683D01*
X150599500Y-105642686D01*
X150533608Y-105756812D01*
X150499500Y-105884108D01*
X125900000Y-105884108D01*
X125900000Y-105512172D01*
X125899999Y-105512155D01*
X125893598Y-105452627D01*
X125893596Y-105452620D01*
X125843354Y-105317913D01*
X125843350Y-105317906D01*
X125757190Y-105202812D01*
X125757187Y-105202809D01*
X125653590Y-105125256D01*
X125653577Y-105125247D01*
X125642089Y-105116647D01*
X125642086Y-105116645D01*
X125507379Y-105066403D01*
X125507372Y-105066401D01*
X125447844Y-105060000D01*
X125045565Y-105060000D01*
X124978526Y-105040315D01*
X124973148Y-105034108D01*
X138999500Y-105034108D01*
X138999500Y-105165891D01*
X139033608Y-105293187D01*
X139047005Y-105316391D01*
X139099500Y-105407314D01*
X139192686Y-105500500D01*
X139306814Y-105566392D01*
X139434108Y-105600500D01*
X139434110Y-105600500D01*
X139565890Y-105600500D01*
X139565892Y-105600500D01*
X139693186Y-105566392D01*
X139807314Y-105500500D01*
X139900500Y-105407314D01*
X139966392Y-105293186D01*
X140000500Y-105165892D01*
X140000500Y-105034108D01*
X139966392Y-104906814D01*
X139900500Y-104792686D01*
X139891922Y-104784108D01*
X149499500Y-104784108D01*
X149499500Y-104915892D01*
X149500735Y-104920500D01*
X149533608Y-105043187D01*
X149547011Y-105066401D01*
X149599500Y-105157314D01*
X149692686Y-105250500D01*
X149806814Y-105316392D01*
X149934108Y-105350500D01*
X149934110Y-105350500D01*
X150065890Y-105350500D01*
X150065892Y-105350500D01*
X150193186Y-105316392D01*
X150307314Y-105250500D01*
X150400500Y-105157314D01*
X150466392Y-105043186D01*
X150500500Y-104915892D01*
X150500500Y-104784108D01*
X150466392Y-104656814D01*
X150400500Y-104542686D01*
X150307314Y-104449500D01*
X150250250Y-104416554D01*
X150193187Y-104383608D01*
X150129539Y-104366554D01*
X150065892Y-104349500D01*
X149934108Y-104349500D01*
X149806812Y-104383608D01*
X149692686Y-104449500D01*
X149692683Y-104449502D01*
X149599502Y-104542683D01*
X149599500Y-104542686D01*
X149533608Y-104656812D01*
X149522170Y-104699500D01*
X149499500Y-104784108D01*
X139891922Y-104784108D01*
X139807314Y-104699500D01*
X139733380Y-104656814D01*
X139693187Y-104633608D01*
X139629539Y-104616554D01*
X139565892Y-104599500D01*
X139434108Y-104599500D01*
X139306812Y-104633608D01*
X139192686Y-104699500D01*
X139192683Y-104699502D01*
X139099502Y-104792683D01*
X139099500Y-104792686D01*
X139033608Y-104906812D01*
X138999500Y-105034108D01*
X124973148Y-105034108D01*
X124932771Y-104987511D01*
X124922827Y-104918353D01*
X124951852Y-104854797D01*
X124998112Y-104821439D01*
X125003608Y-104819162D01*
X125047598Y-104800941D01*
X125219655Y-104685977D01*
X125365977Y-104539655D01*
X125480941Y-104367598D01*
X125560130Y-104176420D01*
X125600500Y-103973465D01*
X125600500Y-103766535D01*
X125584104Y-103684108D01*
X150499500Y-103684108D01*
X150499500Y-103815891D01*
X150533608Y-103943187D01*
X150551090Y-103973466D01*
X150599500Y-104057314D01*
X150692686Y-104150500D01*
X150806814Y-104216392D01*
X150934108Y-104250500D01*
X150934110Y-104250500D01*
X151065890Y-104250500D01*
X151065892Y-104250500D01*
X151193186Y-104216392D01*
X151307314Y-104150500D01*
X151400500Y-104057314D01*
X151466392Y-103943186D01*
X151500500Y-103815892D01*
X151500500Y-103684108D01*
X151466392Y-103556814D01*
X151400500Y-103442686D01*
X151307314Y-103349500D01*
X151250250Y-103316554D01*
X151193187Y-103283608D01*
X151129539Y-103266554D01*
X151065892Y-103249500D01*
X150934108Y-103249500D01*
X150806812Y-103283608D01*
X150692686Y-103349500D01*
X150692683Y-103349502D01*
X150599502Y-103442683D01*
X150599500Y-103442686D01*
X150533608Y-103556812D01*
X150499500Y-103684108D01*
X125584104Y-103684108D01*
X125560131Y-103563587D01*
X125560130Y-103563580D01*
X125480941Y-103372402D01*
X125365977Y-103200345D01*
X125365975Y-103200342D01*
X125219657Y-103054024D01*
X125133626Y-102996541D01*
X125047598Y-102939059D01*
X125047134Y-102938867D01*
X124856420Y-102859870D01*
X124856412Y-102859868D01*
X124653469Y-102819500D01*
X124653465Y-102819500D01*
X124446535Y-102819500D01*
X124446530Y-102819500D01*
X124243587Y-102859868D01*
X124243579Y-102859870D01*
X124052403Y-102939058D01*
X123880342Y-103054024D01*
X123734024Y-103200342D01*
X123619058Y-103372403D01*
X123539870Y-103563579D01*
X123539868Y-103563587D01*
X123499500Y-103766530D01*
X123499500Y-103973469D01*
X123539868Y-104176412D01*
X123539870Y-104176420D01*
X123611562Y-104349500D01*
X123619059Y-104367598D01*
X123673784Y-104449500D01*
X123734024Y-104539657D01*
X123880342Y-104685975D01*
X123880345Y-104685977D01*
X124052402Y-104800941D01*
X124091993Y-104817340D01*
X124101888Y-104821439D01*
X124156291Y-104865280D01*
X124178356Y-104931574D01*
X124161077Y-104999274D01*
X124109939Y-105046884D01*
X124054435Y-105060000D01*
X123652155Y-105060000D01*
X123592627Y-105066401D01*
X123592620Y-105066403D01*
X123457913Y-105116645D01*
X123457906Y-105116649D01*
X123342812Y-105202809D01*
X123342809Y-105202812D01*
X123256649Y-105317906D01*
X123256645Y-105317913D01*
X123206403Y-105452620D01*
X123206401Y-105452627D01*
X123200000Y-105512155D01*
X111800000Y-105512155D01*
X111800000Y-102584108D01*
X149499500Y-102584108D01*
X149499500Y-102715891D01*
X149533608Y-102843187D01*
X149563264Y-102894552D01*
X149599500Y-102957314D01*
X149692686Y-103050500D01*
X149806814Y-103116392D01*
X149934108Y-103150500D01*
X149934110Y-103150500D01*
X150065890Y-103150500D01*
X150065892Y-103150500D01*
X150193186Y-103116392D01*
X150307314Y-103050500D01*
X150400500Y-102957314D01*
X150466392Y-102843186D01*
X150500500Y-102715892D01*
X150500500Y-102584108D01*
X150466392Y-102456814D01*
X150400500Y-102342686D01*
X150307314Y-102249500D01*
X150250250Y-102216554D01*
X150193187Y-102183608D01*
X150129539Y-102166554D01*
X150065892Y-102149500D01*
X149934108Y-102149500D01*
X149806812Y-102183608D01*
X149692686Y-102249500D01*
X149692683Y-102249502D01*
X149599502Y-102342683D01*
X149599500Y-102342686D01*
X149533608Y-102456812D01*
X149499500Y-102584108D01*
X111800000Y-102584108D01*
X111800000Y-101226530D01*
X123499500Y-101226530D01*
X123499500Y-101433469D01*
X123539868Y-101636412D01*
X123539870Y-101636420D01*
X123619059Y-101827598D01*
X123638916Y-101857316D01*
X123734024Y-101999657D01*
X123880342Y-102145975D01*
X123880345Y-102145977D01*
X124052402Y-102260941D01*
X124243580Y-102340130D01*
X124446530Y-102380499D01*
X124446534Y-102380500D01*
X124446535Y-102380500D01*
X124653466Y-102380500D01*
X124653467Y-102380499D01*
X124856420Y-102340130D01*
X125047598Y-102260941D01*
X125219655Y-102145977D01*
X125365977Y-101999655D01*
X125480941Y-101827598D01*
X125560130Y-101636420D01*
X125590427Y-101484108D01*
X150499500Y-101484108D01*
X150499500Y-101615892D01*
X150516554Y-101679539D01*
X150533608Y-101743187D01*
X150566554Y-101800250D01*
X150599500Y-101857314D01*
X150692686Y-101950500D01*
X150806814Y-102016392D01*
X150934108Y-102050500D01*
X150934110Y-102050500D01*
X151065890Y-102050500D01*
X151065892Y-102050500D01*
X151193186Y-102016392D01*
X151307314Y-101950500D01*
X151400500Y-101857314D01*
X151466392Y-101743186D01*
X151500500Y-101615892D01*
X151500500Y-101484108D01*
X151466392Y-101356814D01*
X151400500Y-101242686D01*
X151307314Y-101149500D01*
X151276217Y-101131546D01*
X151276216Y-101131545D01*
X151193188Y-101083609D01*
X151193187Y-101083608D01*
X151193186Y-101083608D01*
X151065892Y-101049500D01*
X150934108Y-101049500D01*
X150806812Y-101083608D01*
X150692686Y-101149500D01*
X150692683Y-101149502D01*
X150599502Y-101242683D01*
X150599500Y-101242686D01*
X150533608Y-101356812D01*
X150508160Y-101451788D01*
X150499500Y-101484108D01*
X125590427Y-101484108D01*
X125600500Y-101433465D01*
X125600500Y-101226535D01*
X125560130Y-101023580D01*
X125480941Y-100832402D01*
X125365977Y-100660345D01*
X125365975Y-100660342D01*
X125219657Y-100514024D01*
X125211593Y-100508636D01*
X149499500Y-100508636D01*
X149499500Y-100640419D01*
X149533608Y-100767715D01*
X149566554Y-100824778D01*
X149599500Y-100881842D01*
X149692686Y-100975028D01*
X149806814Y-101040920D01*
X149934108Y-101075028D01*
X149934110Y-101075028D01*
X150065890Y-101075028D01*
X150065892Y-101075028D01*
X150193186Y-101040920D01*
X150211672Y-101030247D01*
X163349500Y-101030247D01*
X163349500Y-102769752D01*
X163361131Y-102828229D01*
X163361132Y-102828230D01*
X163405447Y-102894552D01*
X163471769Y-102938867D01*
X163471770Y-102938868D01*
X163530247Y-102950499D01*
X163530250Y-102950500D01*
X163530252Y-102950500D01*
X165269750Y-102950500D01*
X165269751Y-102950499D01*
X165284568Y-102947552D01*
X165328229Y-102938868D01*
X165328229Y-102938867D01*
X165328231Y-102938867D01*
X165394552Y-102894552D01*
X165438867Y-102828231D01*
X165438867Y-102828229D01*
X165438868Y-102828229D01*
X165450499Y-102769752D01*
X165450500Y-102769750D01*
X165450500Y-101030249D01*
X165450499Y-101030247D01*
X165438868Y-100971770D01*
X165438867Y-100971769D01*
X165394552Y-100905447D01*
X165328230Y-100861132D01*
X165328229Y-100861131D01*
X165269752Y-100849500D01*
X165269748Y-100849500D01*
X163530252Y-100849500D01*
X163530247Y-100849500D01*
X163471770Y-100861131D01*
X163471769Y-100861132D01*
X163405447Y-100905447D01*
X163361132Y-100971769D01*
X163361131Y-100971770D01*
X163349500Y-101030247D01*
X150211672Y-101030247D01*
X150307314Y-100975028D01*
X150400500Y-100881842D01*
X150466392Y-100767714D01*
X150500500Y-100640420D01*
X150500500Y-100508636D01*
X150466392Y-100381342D01*
X150400500Y-100267214D01*
X150307314Y-100174028D01*
X150250250Y-100141082D01*
X150193187Y-100108136D01*
X150129539Y-100091082D01*
X150065892Y-100074028D01*
X149934108Y-100074028D01*
X149806812Y-100108136D01*
X149692686Y-100174028D01*
X149692683Y-100174030D01*
X149599502Y-100267211D01*
X149599500Y-100267214D01*
X149533608Y-100381340D01*
X149499500Y-100508636D01*
X125211593Y-100508636D01*
X125133626Y-100456541D01*
X125047598Y-100399059D01*
X124856420Y-100319870D01*
X124856412Y-100319868D01*
X124653469Y-100279500D01*
X124653465Y-100279500D01*
X124446535Y-100279500D01*
X124446530Y-100279500D01*
X124243587Y-100319868D01*
X124243579Y-100319870D01*
X124052403Y-100399058D01*
X123880342Y-100514024D01*
X123734024Y-100660342D01*
X123619058Y-100832403D01*
X123539870Y-101023579D01*
X123539868Y-101023587D01*
X123499500Y-101226530D01*
X111800000Y-101226530D01*
X111800000Y-98686530D01*
X123499500Y-98686530D01*
X123499500Y-98893469D01*
X123539868Y-99096412D01*
X123539870Y-99096420D01*
X123619058Y-99287596D01*
X123734024Y-99459657D01*
X123880342Y-99605975D01*
X123880345Y-99605977D01*
X124052402Y-99720941D01*
X124243580Y-99800130D01*
X124446530Y-99840499D01*
X124446534Y-99840500D01*
X124446535Y-99840500D01*
X124653466Y-99840500D01*
X124653467Y-99840499D01*
X124856420Y-99800130D01*
X125047598Y-99720941D01*
X125219655Y-99605977D01*
X125365977Y-99459655D01*
X125480941Y-99287598D01*
X125560130Y-99096420D01*
X125600500Y-98893465D01*
X125600500Y-98686535D01*
X125600500Y-98686532D01*
X125600018Y-98684108D01*
X132199500Y-98684108D01*
X132199500Y-98815891D01*
X132233608Y-98943187D01*
X132266554Y-99000250D01*
X132299500Y-99057314D01*
X132392686Y-99150500D01*
X132506814Y-99216392D01*
X132634108Y-99250500D01*
X132634110Y-99250500D01*
X132765890Y-99250500D01*
X132765892Y-99250500D01*
X132893186Y-99216392D01*
X133007314Y-99150500D01*
X133100500Y-99057314D01*
X133166392Y-98943186D01*
X133200500Y-98815892D01*
X133200500Y-98684108D01*
X133166392Y-98556814D01*
X133100500Y-98442686D01*
X133007314Y-98349500D01*
X132950250Y-98316554D01*
X132893187Y-98283608D01*
X132829539Y-98266554D01*
X132765892Y-98249500D01*
X132634108Y-98249500D01*
X132506812Y-98283608D01*
X132392686Y-98349500D01*
X132392683Y-98349502D01*
X132299502Y-98442683D01*
X132299500Y-98442686D01*
X132233608Y-98556812D01*
X132199500Y-98684108D01*
X125600018Y-98684108D01*
X125560131Y-98483587D01*
X125560130Y-98483580D01*
X125480941Y-98292402D01*
X125365977Y-98120345D01*
X125365975Y-98120342D01*
X125219657Y-97974024D01*
X125133626Y-97916541D01*
X125047598Y-97859059D01*
X124856420Y-97779870D01*
X124856412Y-97779868D01*
X124653469Y-97739500D01*
X124653465Y-97739500D01*
X124446535Y-97739500D01*
X124446530Y-97739500D01*
X124243587Y-97779868D01*
X124243579Y-97779870D01*
X124052403Y-97859058D01*
X123880342Y-97974024D01*
X123734024Y-98120342D01*
X123619058Y-98292403D01*
X123539870Y-98483579D01*
X123539868Y-98483587D01*
X123499500Y-98686530D01*
X111800000Y-98686530D01*
X111800000Y-97109108D01*
X136924500Y-97109108D01*
X136924500Y-97240891D01*
X136958608Y-97368187D01*
X136991554Y-97425250D01*
X137024500Y-97482314D01*
X137117686Y-97575500D01*
X137231814Y-97641392D01*
X137359108Y-97675500D01*
X137359110Y-97675500D01*
X137490890Y-97675500D01*
X137490892Y-97675500D01*
X137618186Y-97641392D01*
X137732314Y-97575500D01*
X137825500Y-97482314D01*
X137891392Y-97368186D01*
X137925500Y-97240892D01*
X137925500Y-97109108D01*
X137891392Y-96981814D01*
X137825500Y-96867686D01*
X137732314Y-96774500D01*
X137675250Y-96741554D01*
X137618187Y-96708608D01*
X137554539Y-96691554D01*
X137490892Y-96674500D01*
X137359108Y-96674500D01*
X137231812Y-96708608D01*
X137117686Y-96774500D01*
X137117683Y-96774502D01*
X137024502Y-96867683D01*
X137024500Y-96867686D01*
X136958608Y-96981812D01*
X136924500Y-97109108D01*
X111800000Y-97109108D01*
X111800000Y-94658753D01*
X123150000Y-94658753D01*
X123150000Y-94871246D01*
X123183242Y-95081127D01*
X123183242Y-95081130D01*
X123248904Y-95283217D01*
X123345375Y-95472550D01*
X123384728Y-95526716D01*
X124017037Y-94894408D01*
X124034075Y-94957993D01*
X124099901Y-95072007D01*
X124192993Y-95165099D01*
X124307007Y-95230925D01*
X124370590Y-95247962D01*
X123738282Y-95880269D01*
X123738282Y-95880270D01*
X123792449Y-95919624D01*
X123981782Y-96016095D01*
X124183870Y-96081757D01*
X124393754Y-96115000D01*
X124606246Y-96115000D01*
X124816127Y-96081757D01*
X124816130Y-96081757D01*
X125018217Y-96016095D01*
X125207554Y-95919622D01*
X125261716Y-95880270D01*
X125261717Y-95880270D01*
X124629408Y-95247962D01*
X124692993Y-95230925D01*
X124807007Y-95165099D01*
X124900099Y-95072007D01*
X124965925Y-94957993D01*
X124982962Y-94894408D01*
X125615270Y-95526717D01*
X125615270Y-95526716D01*
X125654622Y-95472554D01*
X125751095Y-95283217D01*
X125816757Y-95081130D01*
X125816757Y-95081127D01*
X125850000Y-94871246D01*
X125850000Y-94658753D01*
X125816757Y-94448872D01*
X125816757Y-94448869D01*
X125789279Y-94364299D01*
X125779469Y-94334108D01*
X142899500Y-94334108D01*
X142899500Y-94465891D01*
X142933608Y-94593187D01*
X142966554Y-94650250D01*
X142999500Y-94707314D01*
X142999502Y-94707316D01*
X143004505Y-94712319D01*
X143037990Y-94773642D01*
X143033006Y-94843334D01*
X143004505Y-94887681D01*
X142999502Y-94892683D01*
X142999500Y-94892686D01*
X142933608Y-95006812D01*
X142899500Y-95134108D01*
X142899500Y-95265891D01*
X142933608Y-95393187D01*
X142966554Y-95450250D01*
X142999500Y-95507314D01*
X143092686Y-95600500D01*
X143206814Y-95666392D01*
X143334108Y-95700500D01*
X143334110Y-95700500D01*
X143465890Y-95700500D01*
X143465892Y-95700500D01*
X143593186Y-95666392D01*
X143707314Y-95600500D01*
X143800500Y-95507314D01*
X143866392Y-95393186D01*
X143900500Y-95265892D01*
X143900500Y-95134108D01*
X143866392Y-95006814D01*
X143800500Y-94892686D01*
X143795495Y-94887681D01*
X143762010Y-94826358D01*
X143766994Y-94756666D01*
X143795495Y-94712319D01*
X143800500Y-94707314D01*
X143866392Y-94593186D01*
X143900500Y-94465892D01*
X143900500Y-94334108D01*
X143866392Y-94206814D01*
X143800500Y-94092686D01*
X143707314Y-93999500D01*
X143650250Y-93966554D01*
X143593187Y-93933608D01*
X143529539Y-93916554D01*
X143465892Y-93899500D01*
X143334108Y-93899500D01*
X143206812Y-93933608D01*
X143092686Y-93999500D01*
X143092683Y-93999502D01*
X142999502Y-94092683D01*
X142999500Y-94092686D01*
X142933608Y-94206812D01*
X142899500Y-94334108D01*
X125779469Y-94334108D01*
X125751095Y-94246782D01*
X125654624Y-94057449D01*
X125615270Y-94003282D01*
X125615269Y-94003282D01*
X124982962Y-94635590D01*
X124965925Y-94572007D01*
X124900099Y-94457993D01*
X124807007Y-94364901D01*
X124692993Y-94299075D01*
X124629409Y-94282037D01*
X125261716Y-93649728D01*
X125207550Y-93610375D01*
X125013879Y-93511694D01*
X125014396Y-93510678D01*
X124964192Y-93470221D01*
X124942127Y-93403927D01*
X124959406Y-93336228D01*
X125010542Y-93288617D01*
X125066048Y-93275500D01*
X125369750Y-93275500D01*
X125369751Y-93275499D01*
X125384568Y-93272552D01*
X125428229Y-93263868D01*
X125428229Y-93263867D01*
X125428231Y-93263867D01*
X125494552Y-93219552D01*
X125538867Y-93153231D01*
X125538867Y-93153229D01*
X125538868Y-93153229D01*
X125550499Y-93094752D01*
X125550500Y-93094750D01*
X125550500Y-91355249D01*
X125550499Y-91355247D01*
X125538868Y-91296770D01*
X125538867Y-91296769D01*
X125494552Y-91230447D01*
X125428230Y-91186132D01*
X125428229Y-91186131D01*
X125369752Y-91174500D01*
X125369748Y-91174500D01*
X123630252Y-91174500D01*
X123630247Y-91174500D01*
X123571770Y-91186131D01*
X123571769Y-91186132D01*
X123505447Y-91230447D01*
X123461132Y-91296769D01*
X123461131Y-91296770D01*
X123449500Y-91355247D01*
X123449500Y-93094752D01*
X123461131Y-93153229D01*
X123461132Y-93153230D01*
X123505447Y-93219552D01*
X123571769Y-93263867D01*
X123571770Y-93263868D01*
X123630247Y-93275499D01*
X123630250Y-93275500D01*
X123933952Y-93275500D01*
X124000991Y-93295185D01*
X124046746Y-93347989D01*
X124056690Y-93417147D01*
X124027665Y-93480703D01*
X123985735Y-93510938D01*
X123986121Y-93511694D01*
X123792439Y-93610380D01*
X123738282Y-93649727D01*
X123738282Y-93649728D01*
X124370591Y-94282037D01*
X124307007Y-94299075D01*
X124192993Y-94364901D01*
X124099901Y-94457993D01*
X124034075Y-94572007D01*
X124017037Y-94635591D01*
X123384728Y-94003282D01*
X123384727Y-94003282D01*
X123345380Y-94057439D01*
X123248904Y-94246782D01*
X123183242Y-94448869D01*
X123183242Y-94448872D01*
X123150000Y-94658753D01*
X111800000Y-94658753D01*
X111800000Y-90134108D01*
X136899500Y-90134108D01*
X136899500Y-90265892D01*
X136916554Y-90329539D01*
X136933608Y-90393187D01*
X136966554Y-90450250D01*
X136999500Y-90507314D01*
X137092686Y-90600500D01*
X137206814Y-90666392D01*
X137334108Y-90700500D01*
X137334110Y-90700500D01*
X137465890Y-90700500D01*
X137465892Y-90700500D01*
X137593186Y-90666392D01*
X137707314Y-90600500D01*
X137800500Y-90507314D01*
X137866392Y-90393186D01*
X137900500Y-90265892D01*
X137900500Y-90134108D01*
X137866392Y-90006814D01*
X137800500Y-89892686D01*
X137707314Y-89799500D01*
X137650250Y-89766554D01*
X137593187Y-89733608D01*
X137529539Y-89716554D01*
X137465892Y-89699500D01*
X137334108Y-89699500D01*
X137206812Y-89733608D01*
X137092686Y-89799500D01*
X137092683Y-89799502D01*
X136999502Y-89892683D01*
X136999500Y-89892686D01*
X136933608Y-90006812D01*
X136910758Y-90092093D01*
X136899500Y-90134108D01*
X111800000Y-90134108D01*
X111800000Y-88102155D01*
X159350000Y-88102155D01*
X159350000Y-88750000D01*
X160266988Y-88750000D01*
X160234075Y-88807007D01*
X160200000Y-88934174D01*
X160200000Y-89065826D01*
X160234075Y-89192993D01*
X160266988Y-89250000D01*
X159350000Y-89250000D01*
X159350000Y-89897844D01*
X159356401Y-89957372D01*
X159356403Y-89957379D01*
X159406645Y-90092086D01*
X159406649Y-90092093D01*
X159492809Y-90207187D01*
X159492812Y-90207190D01*
X159607906Y-90293350D01*
X159607913Y-90293354D01*
X159742620Y-90343596D01*
X159742627Y-90343598D01*
X159802155Y-90349999D01*
X159802172Y-90350000D01*
X160450000Y-90350000D01*
X160450000Y-89433012D01*
X160507007Y-89465925D01*
X160634174Y-89500000D01*
X160765826Y-89500000D01*
X160892993Y-89465925D01*
X160950000Y-89433012D01*
X160950000Y-90350000D01*
X161597828Y-90350000D01*
X161597844Y-90349999D01*
X161657372Y-90343598D01*
X161657379Y-90343596D01*
X161792086Y-90293354D01*
X161792093Y-90293350D01*
X161907187Y-90207190D01*
X161907190Y-90207187D01*
X161993350Y-90092093D01*
X161993354Y-90092086D01*
X162043596Y-89957379D01*
X162043598Y-89957372D01*
X162049999Y-89897844D01*
X162050000Y-89897827D01*
X162050000Y-89250000D01*
X161133012Y-89250000D01*
X161165925Y-89192993D01*
X161200000Y-89065826D01*
X161200000Y-88934174D01*
X161197952Y-88926530D01*
X164049500Y-88926530D01*
X164049500Y-89133469D01*
X164089868Y-89336412D01*
X164089870Y-89336420D01*
X164169058Y-89527596D01*
X164284024Y-89699657D01*
X164430342Y-89845975D01*
X164430345Y-89845977D01*
X164602402Y-89960941D01*
X164793580Y-90040130D01*
X164996530Y-90080499D01*
X164996534Y-90080500D01*
X164996535Y-90080500D01*
X165203466Y-90080500D01*
X165203467Y-90080499D01*
X165406420Y-90040130D01*
X165597598Y-89960941D01*
X165769655Y-89845977D01*
X165915977Y-89699655D01*
X166030941Y-89527598D01*
X166110130Y-89336420D01*
X166150500Y-89133465D01*
X166150500Y-88926535D01*
X166110130Y-88723580D01*
X166030941Y-88532402D01*
X165915977Y-88360345D01*
X165915975Y-88360342D01*
X165769657Y-88214024D01*
X165683626Y-88156541D01*
X165597598Y-88099059D01*
X165406420Y-88019870D01*
X165406412Y-88019868D01*
X165203469Y-87979500D01*
X165203465Y-87979500D01*
X164996535Y-87979500D01*
X164996530Y-87979500D01*
X164793587Y-88019868D01*
X164793579Y-88019870D01*
X164602403Y-88099058D01*
X164430342Y-88214024D01*
X164284024Y-88360342D01*
X164169058Y-88532403D01*
X164089870Y-88723579D01*
X164089868Y-88723587D01*
X164049500Y-88926530D01*
X161197952Y-88926530D01*
X161165925Y-88807007D01*
X161133012Y-88750000D01*
X162050000Y-88750000D01*
X162050000Y-88102172D01*
X162049999Y-88102155D01*
X162043598Y-88042627D01*
X162043596Y-88042620D01*
X161993354Y-87907913D01*
X161993350Y-87907906D01*
X161907190Y-87792812D01*
X161907187Y-87792809D01*
X161792093Y-87706649D01*
X161792086Y-87706645D01*
X161657379Y-87656403D01*
X161657372Y-87656401D01*
X161597844Y-87650000D01*
X160950000Y-87650000D01*
X160950000Y-88566988D01*
X160892993Y-88534075D01*
X160765826Y-88500000D01*
X160634174Y-88500000D01*
X160507007Y-88534075D01*
X160450000Y-88566988D01*
X160450000Y-87650000D01*
X159802155Y-87650000D01*
X159742627Y-87656401D01*
X159742620Y-87656403D01*
X159607913Y-87706645D01*
X159607906Y-87706649D01*
X159492812Y-87792809D01*
X159492809Y-87792812D01*
X159406649Y-87907906D01*
X159406645Y-87907913D01*
X159356403Y-88042620D01*
X159356401Y-88042627D01*
X159350000Y-88102155D01*
X111800000Y-88102155D01*
X111800000Y-87434108D01*
X119849500Y-87434108D01*
X119849500Y-87565891D01*
X119883608Y-87693187D01*
X119916554Y-87750250D01*
X119949500Y-87807314D01*
X120042686Y-87900500D01*
X120156814Y-87966392D01*
X120284108Y-88000500D01*
X120284110Y-88000500D01*
X120415890Y-88000500D01*
X120415892Y-88000500D01*
X120543186Y-87966392D01*
X120657314Y-87900500D01*
X120750500Y-87807314D01*
X120816392Y-87693186D01*
X120850500Y-87565892D01*
X120850500Y-87434108D01*
X120816392Y-87306814D01*
X120750500Y-87192686D01*
X120657314Y-87099500D01*
X120600250Y-87066554D01*
X120543187Y-87033608D01*
X120479539Y-87016554D01*
X120415892Y-86999500D01*
X120284108Y-86999500D01*
X120156812Y-87033608D01*
X120042686Y-87099500D01*
X120042683Y-87099502D01*
X119949502Y-87192683D01*
X119949500Y-87192686D01*
X119883608Y-87306812D01*
X119849500Y-87434108D01*
X111800000Y-87434108D01*
X111800000Y-86386530D01*
X164049500Y-86386530D01*
X164049500Y-86593469D01*
X164089868Y-86796412D01*
X164089870Y-86796420D01*
X164169058Y-86987596D01*
X164284024Y-87159657D01*
X164430342Y-87305975D01*
X164430345Y-87305977D01*
X164602402Y-87420941D01*
X164793580Y-87500130D01*
X164996530Y-87540499D01*
X164996534Y-87540500D01*
X164996535Y-87540500D01*
X165203466Y-87540500D01*
X165203467Y-87540499D01*
X165406420Y-87500130D01*
X165597598Y-87420941D01*
X165769655Y-87305977D01*
X165915977Y-87159655D01*
X166030941Y-86987598D01*
X166110130Y-86796420D01*
X166150500Y-86593465D01*
X166150500Y-86386535D01*
X166110130Y-86183580D01*
X166030941Y-85992402D01*
X165915977Y-85820345D01*
X165915975Y-85820342D01*
X165769657Y-85674024D01*
X165630694Y-85581173D01*
X165597598Y-85559059D01*
X165436148Y-85492184D01*
X165406420Y-85479870D01*
X165406412Y-85479868D01*
X165203469Y-85439500D01*
X165203465Y-85439500D01*
X164996535Y-85439500D01*
X164996530Y-85439500D01*
X164793587Y-85479868D01*
X164793579Y-85479870D01*
X164602403Y-85559058D01*
X164430342Y-85674024D01*
X164284024Y-85820342D01*
X164169058Y-85992403D01*
X164089870Y-86183579D01*
X164089868Y-86183587D01*
X164049500Y-86386530D01*
X111800000Y-86386530D01*
X111800000Y-85300000D01*
X111707967Y-85207967D01*
X147100991Y-85207967D01*
X147100991Y-85339750D01*
X147135099Y-85467046D01*
X147149613Y-85492184D01*
X147200991Y-85581173D01*
X147294177Y-85674359D01*
X147408305Y-85740251D01*
X147535599Y-85774359D01*
X147535601Y-85774359D01*
X147667381Y-85774359D01*
X147667383Y-85774359D01*
X147794677Y-85740251D01*
X147908805Y-85674359D01*
X148001991Y-85581173D01*
X148067883Y-85467045D01*
X148101991Y-85339751D01*
X148101991Y-85207967D01*
X148067883Y-85080673D01*
X148001991Y-84966545D01*
X147908805Y-84873359D01*
X147851741Y-84840413D01*
X147794678Y-84807467D01*
X147731030Y-84790413D01*
X147667383Y-84773359D01*
X147535599Y-84773359D01*
X147408303Y-84807467D01*
X147294177Y-84873359D01*
X147294174Y-84873361D01*
X147200993Y-84966542D01*
X147200991Y-84966545D01*
X147135099Y-85080671D01*
X147100991Y-85207967D01*
X111707967Y-85207967D01*
X110750000Y-84250000D01*
X105951362Y-84250000D01*
X105884323Y-84230315D01*
X105863681Y-84213681D01*
X105759108Y-84109108D01*
X134699500Y-84109108D01*
X134699500Y-84240892D01*
X134703659Y-84256412D01*
X134733608Y-84368187D01*
X134766554Y-84425250D01*
X134799500Y-84482314D01*
X134892686Y-84575500D01*
X135006814Y-84641392D01*
X135134108Y-84675500D01*
X135134110Y-84675500D01*
X135265890Y-84675500D01*
X135265892Y-84675500D01*
X135393186Y-84641392D01*
X135507314Y-84575500D01*
X135600500Y-84482314D01*
X135666392Y-84368186D01*
X135700500Y-84240892D01*
X135700500Y-84109108D01*
X135666392Y-83981814D01*
X135600500Y-83867686D01*
X135579344Y-83846530D01*
X164049500Y-83846530D01*
X164049500Y-84053469D01*
X164086781Y-84240891D01*
X164089870Y-84256420D01*
X164169059Y-84447598D01*
X164192257Y-84482316D01*
X164284024Y-84619657D01*
X164430342Y-84765975D01*
X164430345Y-84765977D01*
X164602402Y-84880941D01*
X164793580Y-84960130D01*
X164996530Y-85000499D01*
X164996534Y-85000500D01*
X164996535Y-85000500D01*
X165203466Y-85000500D01*
X165203467Y-85000499D01*
X165406420Y-84960130D01*
X165597598Y-84880941D01*
X165769655Y-84765977D01*
X165915977Y-84619655D01*
X166030941Y-84447598D01*
X166110130Y-84256420D01*
X166150500Y-84053465D01*
X166150500Y-83846535D01*
X166110130Y-83643580D01*
X166030941Y-83452402D01*
X165915977Y-83280345D01*
X165915975Y-83280342D01*
X165769657Y-83134024D01*
X165660863Y-83061331D01*
X165597598Y-83019059D01*
X165517526Y-82985892D01*
X165406420Y-82939870D01*
X165406412Y-82939868D01*
X165203469Y-82899500D01*
X165203465Y-82899500D01*
X164996535Y-82899500D01*
X164996530Y-82899500D01*
X164793587Y-82939868D01*
X164793579Y-82939870D01*
X164602403Y-83019058D01*
X164430342Y-83134024D01*
X164284024Y-83280342D01*
X164169058Y-83452403D01*
X164089870Y-83643579D01*
X164089868Y-83643587D01*
X164049500Y-83846530D01*
X135579344Y-83846530D01*
X135507314Y-83774500D01*
X135450250Y-83741554D01*
X135393187Y-83708608D01*
X135329539Y-83691554D01*
X135265892Y-83674500D01*
X135134108Y-83674500D01*
X135006812Y-83708608D01*
X134892686Y-83774500D01*
X134892683Y-83774502D01*
X134799502Y-83867683D01*
X134799500Y-83867686D01*
X134733608Y-83981812D01*
X134701807Y-84100499D01*
X134699500Y-84109108D01*
X105759108Y-84109108D01*
X105184108Y-83534108D01*
X111499500Y-83534108D01*
X111499500Y-83665892D01*
X111510946Y-83708608D01*
X111533608Y-83793187D01*
X111564406Y-83846530D01*
X111599500Y-83907314D01*
X111692686Y-84000500D01*
X111806814Y-84066392D01*
X111934108Y-84100500D01*
X111934110Y-84100500D01*
X112065890Y-84100500D01*
X112065892Y-84100500D01*
X112193186Y-84066392D01*
X112307314Y-84000500D01*
X112400500Y-83907314D01*
X112466392Y-83793186D01*
X112500500Y-83665892D01*
X112500500Y-83534108D01*
X112466392Y-83406814D01*
X112400500Y-83292686D01*
X112307314Y-83199500D01*
X112250250Y-83166554D01*
X112193187Y-83133608D01*
X112116969Y-83113186D01*
X112065892Y-83099500D01*
X111934108Y-83099500D01*
X111806812Y-83133608D01*
X111692686Y-83199500D01*
X111692683Y-83199502D01*
X111599502Y-83292683D01*
X111599500Y-83292686D01*
X111533608Y-83406812D01*
X111499500Y-83534108D01*
X105184108Y-83534108D01*
X104504108Y-82854108D01*
X133899500Y-82854108D01*
X133899500Y-82985891D01*
X133933608Y-83113187D01*
X133966554Y-83170250D01*
X133999500Y-83227314D01*
X134092686Y-83320500D01*
X134206814Y-83386392D01*
X134334108Y-83420500D01*
X134334110Y-83420500D01*
X134465890Y-83420500D01*
X134465892Y-83420500D01*
X134593186Y-83386392D01*
X134707314Y-83320500D01*
X134800500Y-83227314D01*
X134866392Y-83113186D01*
X134900500Y-82985892D01*
X134900500Y-82854108D01*
X134886606Y-82802253D01*
X146600991Y-82802253D01*
X146600991Y-82934037D01*
X146602554Y-82939870D01*
X146635099Y-83061332D01*
X146657136Y-83099500D01*
X146700991Y-83175459D01*
X146794177Y-83268645D01*
X146908305Y-83334537D01*
X147035599Y-83368645D01*
X147035601Y-83368645D01*
X147167381Y-83368645D01*
X147167383Y-83368645D01*
X147294677Y-83334537D01*
X147408805Y-83268645D01*
X147501991Y-83175459D01*
X147567883Y-83061331D01*
X147601991Y-82934037D01*
X147601991Y-82802253D01*
X147567883Y-82674959D01*
X147501991Y-82560831D01*
X147408805Y-82467645D01*
X147326507Y-82420130D01*
X147294678Y-82401753D01*
X147231030Y-82384699D01*
X147167383Y-82367645D01*
X147035599Y-82367645D01*
X146908303Y-82401753D01*
X146794177Y-82467645D01*
X146794174Y-82467647D01*
X146700993Y-82560828D01*
X146700991Y-82560831D01*
X146635099Y-82674957D01*
X146600991Y-82802253D01*
X134886606Y-82802253D01*
X134866392Y-82726814D01*
X134800500Y-82612686D01*
X134707314Y-82519500D01*
X134630231Y-82474996D01*
X134593187Y-82453608D01*
X134529539Y-82436554D01*
X134465892Y-82419500D01*
X134334108Y-82419500D01*
X134206812Y-82453608D01*
X134092686Y-82519500D01*
X134092683Y-82519502D01*
X133999502Y-82612683D01*
X133999500Y-82612686D01*
X133933608Y-82726812D01*
X133899500Y-82854108D01*
X104504108Y-82854108D01*
X104186319Y-82536319D01*
X104152834Y-82474996D01*
X104150000Y-82448638D01*
X104150000Y-79634108D01*
X107299500Y-79634108D01*
X107299500Y-79765891D01*
X107333608Y-79893187D01*
X107366121Y-79949500D01*
X107399500Y-80007314D01*
X107492686Y-80100500D01*
X107606814Y-80166392D01*
X107734108Y-80200500D01*
X107734110Y-80200500D01*
X107865890Y-80200500D01*
X107865892Y-80200500D01*
X107993186Y-80166392D01*
X108107314Y-80100500D01*
X108200500Y-80007314D01*
X108242766Y-79934108D01*
X127999500Y-79934108D01*
X127999500Y-80065891D01*
X128033608Y-80193187D01*
X128066554Y-80250250D01*
X128099500Y-80307314D01*
X128192686Y-80400500D01*
X128306814Y-80466392D01*
X128434108Y-80500500D01*
X128434110Y-80500500D01*
X128565890Y-80500500D01*
X128565892Y-80500500D01*
X128693186Y-80466392D01*
X128807314Y-80400500D01*
X128823706Y-80384108D01*
X135899500Y-80384108D01*
X135899500Y-80515891D01*
X135933608Y-80643187D01*
X135966554Y-80700250D01*
X135999500Y-80757314D01*
X136092686Y-80850500D01*
X136206814Y-80916392D01*
X136334108Y-80950500D01*
X136334110Y-80950500D01*
X136465890Y-80950500D01*
X136465892Y-80950500D01*
X136593186Y-80916392D01*
X136707314Y-80850500D01*
X136723706Y-80834108D01*
X142887000Y-80834108D01*
X142887000Y-80965891D01*
X142921108Y-81093187D01*
X142927108Y-81103579D01*
X142987000Y-81207314D01*
X142987002Y-81207316D01*
X143045383Y-81265697D01*
X143078868Y-81327020D01*
X143073884Y-81396712D01*
X143045385Y-81441058D01*
X142992926Y-81493518D01*
X142927034Y-81607644D01*
X142892926Y-81734940D01*
X142892926Y-81866723D01*
X142927034Y-81994019D01*
X142959980Y-82051082D01*
X142992926Y-82108146D01*
X143086112Y-82201332D01*
X143200240Y-82267224D01*
X143327534Y-82301332D01*
X143327536Y-82301332D01*
X143459316Y-82301332D01*
X143459318Y-82301332D01*
X143586612Y-82267224D01*
X143700740Y-82201332D01*
X143793926Y-82108146D01*
X143859818Y-81994018D01*
X143893926Y-81866724D01*
X143893926Y-81734940D01*
X143859818Y-81607646D01*
X143793926Y-81493518D01*
X143735542Y-81435134D01*
X143731203Y-81427188D01*
X143723956Y-81421763D01*
X143714721Y-81397003D01*
X143702057Y-81373811D01*
X143702702Y-81364781D01*
X143699539Y-81356299D01*
X143705155Y-81330478D01*
X143706868Y-81306530D01*
X164049500Y-81306530D01*
X164049500Y-81513469D01*
X164089868Y-81716412D01*
X164089870Y-81716420D01*
X164169058Y-81907596D01*
X164284024Y-82079657D01*
X164430342Y-82225975D01*
X164430345Y-82225977D01*
X164602402Y-82340941D01*
X164793580Y-82420130D01*
X164996530Y-82460499D01*
X164996534Y-82460500D01*
X164996535Y-82460500D01*
X165203466Y-82460500D01*
X165203467Y-82460499D01*
X165406420Y-82420130D01*
X165597598Y-82340941D01*
X165769655Y-82225977D01*
X165915977Y-82079655D01*
X166030941Y-81907598D01*
X166110130Y-81716420D01*
X166150500Y-81513465D01*
X166150500Y-81306535D01*
X166110130Y-81103580D01*
X166030941Y-80912402D01*
X165915977Y-80740345D01*
X165915975Y-80740342D01*
X165769657Y-80594024D01*
X165628190Y-80499500D01*
X165597598Y-80479059D01*
X165567017Y-80466392D01*
X165406420Y-80399870D01*
X165406412Y-80399868D01*
X165203469Y-80359500D01*
X165203465Y-80359500D01*
X164996535Y-80359500D01*
X164996530Y-80359500D01*
X164793587Y-80399868D01*
X164793579Y-80399870D01*
X164602403Y-80479058D01*
X164430342Y-80594024D01*
X164284024Y-80740342D01*
X164169058Y-80912403D01*
X164089870Y-81103579D01*
X164089868Y-81103587D01*
X164049500Y-81306530D01*
X143706868Y-81306530D01*
X143707041Y-81304119D01*
X143712859Y-81295065D01*
X143714391Y-81288026D01*
X143735542Y-81259772D01*
X143782552Y-81212762D01*
X143788000Y-81207314D01*
X143853892Y-81093186D01*
X143888000Y-80965892D01*
X143888000Y-80834108D01*
X143853892Y-80706814D01*
X143788000Y-80592686D01*
X143694814Y-80499500D01*
X143637468Y-80466391D01*
X143580687Y-80433608D01*
X143517039Y-80416554D01*
X143453392Y-80399500D01*
X143321608Y-80399500D01*
X143194312Y-80433608D01*
X143080186Y-80499500D01*
X143080183Y-80499502D01*
X142987002Y-80592683D01*
X142987000Y-80592686D01*
X142921108Y-80706812D01*
X142887000Y-80834108D01*
X136723706Y-80834108D01*
X136800500Y-80757314D01*
X136866392Y-80643186D01*
X136900500Y-80515892D01*
X136900500Y-80384108D01*
X136866392Y-80256814D01*
X136800500Y-80142686D01*
X136707314Y-80049500D01*
X136650250Y-80016554D01*
X136593187Y-79983608D01*
X136529539Y-79966554D01*
X136465892Y-79949500D01*
X136334108Y-79949500D01*
X136206812Y-79983608D01*
X136092686Y-80049500D01*
X136092683Y-80049502D01*
X135999502Y-80142683D01*
X135999500Y-80142686D01*
X135933608Y-80256812D01*
X135899500Y-80384108D01*
X128823706Y-80384108D01*
X128900500Y-80307314D01*
X128966392Y-80193186D01*
X129000500Y-80065892D01*
X129000500Y-79934108D01*
X128966392Y-79806814D01*
X128961435Y-79798229D01*
X128957563Y-79791521D01*
X128900500Y-79692686D01*
X128807314Y-79599500D01*
X128750250Y-79566554D01*
X128693187Y-79533608D01*
X128593188Y-79506814D01*
X128565892Y-79499500D01*
X128434108Y-79499500D01*
X128306812Y-79533608D01*
X128192686Y-79599500D01*
X128192683Y-79599502D01*
X128099502Y-79692683D01*
X128099500Y-79692686D01*
X128033608Y-79806812D01*
X127999500Y-79934108D01*
X108242766Y-79934108D01*
X108266392Y-79893186D01*
X108300500Y-79765892D01*
X108300500Y-79634108D01*
X108266392Y-79506814D01*
X108200500Y-79392686D01*
X108107314Y-79299500D01*
X108050250Y-79266554D01*
X107993187Y-79233608D01*
X107929539Y-79216554D01*
X107865892Y-79199500D01*
X107734108Y-79199500D01*
X107606812Y-79233608D01*
X107492686Y-79299500D01*
X107492683Y-79299502D01*
X107399502Y-79392683D01*
X107399500Y-79392686D01*
X107333608Y-79506812D01*
X107299500Y-79634108D01*
X104150000Y-79634108D01*
X104150000Y-78432967D01*
X148113491Y-78432967D01*
X148113491Y-78564750D01*
X148147599Y-78692046D01*
X148180545Y-78749109D01*
X148213491Y-78806173D01*
X148306677Y-78899359D01*
X148420805Y-78965251D01*
X148548099Y-78999359D01*
X148548101Y-78999359D01*
X148679881Y-78999359D01*
X148679883Y-78999359D01*
X148807177Y-78965251D01*
X148921305Y-78899359D01*
X149014491Y-78806173D01*
X149080383Y-78692045D01*
X149114491Y-78564751D01*
X149114491Y-78432967D01*
X149080383Y-78305673D01*
X149014491Y-78191545D01*
X148921305Y-78098359D01*
X148807177Y-78032467D01*
X148686929Y-78000247D01*
X164049500Y-78000247D01*
X164049500Y-79739752D01*
X164061131Y-79798229D01*
X164061132Y-79798230D01*
X164105447Y-79864552D01*
X164171769Y-79908867D01*
X164171770Y-79908868D01*
X164230247Y-79920499D01*
X164230250Y-79920500D01*
X164230252Y-79920500D01*
X165969750Y-79920500D01*
X165969751Y-79920499D01*
X165984568Y-79917552D01*
X166028229Y-79908868D01*
X166028229Y-79908867D01*
X166028231Y-79908867D01*
X166094552Y-79864552D01*
X166138867Y-79798231D01*
X166138867Y-79798229D01*
X166138868Y-79798229D01*
X166150499Y-79739752D01*
X166150500Y-79739750D01*
X166150500Y-78000249D01*
X166150499Y-78000247D01*
X166138868Y-77941770D01*
X166138867Y-77941769D01*
X166094552Y-77875447D01*
X166028230Y-77831132D01*
X166028229Y-77831131D01*
X165969752Y-77819500D01*
X165969748Y-77819500D01*
X164230252Y-77819500D01*
X164230247Y-77819500D01*
X164171770Y-77831131D01*
X164171769Y-77831132D01*
X164105447Y-77875447D01*
X164061132Y-77941769D01*
X164061131Y-77941770D01*
X164049500Y-78000247D01*
X148686929Y-78000247D01*
X148679883Y-77998359D01*
X148548099Y-77998359D01*
X148420803Y-78032467D01*
X148306677Y-78098359D01*
X148306674Y-78098361D01*
X148213493Y-78191542D01*
X148213491Y-78191545D01*
X148147599Y-78305671D01*
X148113491Y-78432967D01*
X104150000Y-78432967D01*
X104150000Y-77734108D01*
X118999500Y-77734108D01*
X118999500Y-77865892D01*
X119016554Y-77929539D01*
X119033608Y-77993187D01*
X119066554Y-78050250D01*
X119099500Y-78107314D01*
X119192686Y-78200500D01*
X119306814Y-78266392D01*
X119434108Y-78300500D01*
X119434110Y-78300500D01*
X119565890Y-78300500D01*
X119565892Y-78300500D01*
X119693186Y-78266392D01*
X119807314Y-78200500D01*
X119900500Y-78107314D01*
X119966392Y-77993186D01*
X120000500Y-77865892D01*
X120000500Y-77734108D01*
X119966392Y-77606814D01*
X119900500Y-77492686D01*
X119807314Y-77399500D01*
X119750250Y-77366554D01*
X119693187Y-77333608D01*
X119629539Y-77316554D01*
X119565892Y-77299500D01*
X119434108Y-77299500D01*
X119306812Y-77333608D01*
X119192686Y-77399500D01*
X119192683Y-77399502D01*
X119099502Y-77492683D01*
X119099500Y-77492686D01*
X119033608Y-77606812D01*
X118999500Y-77734108D01*
X104150000Y-77734108D01*
X104150000Y-76932967D01*
X146613491Y-76932967D01*
X146613491Y-77064750D01*
X146647599Y-77192046D01*
X146680545Y-77249109D01*
X146713491Y-77306173D01*
X146806677Y-77399359D01*
X146920805Y-77465251D01*
X147048099Y-77499359D01*
X147048101Y-77499359D01*
X147179881Y-77499359D01*
X147179883Y-77499359D01*
X147307177Y-77465251D01*
X147421305Y-77399359D01*
X147514491Y-77306173D01*
X147580383Y-77192045D01*
X147614491Y-77064751D01*
X147614491Y-76932967D01*
X147580383Y-76805673D01*
X147514491Y-76691545D01*
X147421305Y-76598359D01*
X147364241Y-76565413D01*
X147307178Y-76532467D01*
X147243530Y-76515413D01*
X147179883Y-76498359D01*
X147048099Y-76498359D01*
X146920803Y-76532467D01*
X146806677Y-76598359D01*
X146806674Y-76598361D01*
X146713493Y-76691542D01*
X146713491Y-76691545D01*
X146647599Y-76805671D01*
X146613491Y-76932967D01*
X104150000Y-76932967D01*
X104150000Y-76334108D01*
X160899500Y-76334108D01*
X160899500Y-76465892D01*
X160916554Y-76529539D01*
X160933608Y-76593187D01*
X160966554Y-76650250D01*
X160999500Y-76707314D01*
X161092686Y-76800500D01*
X161206814Y-76866392D01*
X161334108Y-76900500D01*
X161334110Y-76900500D01*
X161465890Y-76900500D01*
X161465892Y-76900500D01*
X161593186Y-76866392D01*
X161707314Y-76800500D01*
X161800500Y-76707314D01*
X161866392Y-76593186D01*
X161900500Y-76465892D01*
X161900500Y-76334108D01*
X161866392Y-76206814D01*
X161800500Y-76092686D01*
X161707314Y-75999500D01*
X161602297Y-75938868D01*
X161593187Y-75933608D01*
X161529539Y-75916554D01*
X161465892Y-75899500D01*
X161334108Y-75899500D01*
X161206812Y-75933608D01*
X161092686Y-75999500D01*
X161092683Y-75999502D01*
X160999502Y-76092683D01*
X160999500Y-76092686D01*
X160933608Y-76206812D01*
X160922036Y-76250000D01*
X160899500Y-76334108D01*
X104150000Y-76334108D01*
X104150000Y-75134108D01*
X134949500Y-75134108D01*
X134949500Y-75265891D01*
X134983608Y-75393187D01*
X135016554Y-75450250D01*
X135049500Y-75507314D01*
X135142686Y-75600500D01*
X135256814Y-75666392D01*
X135384108Y-75700500D01*
X135384110Y-75700500D01*
X135515890Y-75700500D01*
X135515892Y-75700500D01*
X135643186Y-75666392D01*
X135757314Y-75600500D01*
X135850500Y-75507314D01*
X135916392Y-75393186D01*
X135950500Y-75265892D01*
X135950500Y-75134108D01*
X144449500Y-75134108D01*
X144449500Y-75265891D01*
X144483608Y-75393187D01*
X144516554Y-75450250D01*
X144549500Y-75507314D01*
X144642686Y-75600500D01*
X144756814Y-75666392D01*
X144884108Y-75700500D01*
X144884110Y-75700500D01*
X145015890Y-75700500D01*
X145015892Y-75700500D01*
X145143186Y-75666392D01*
X145257314Y-75600500D01*
X145350500Y-75507314D01*
X145350504Y-75507306D01*
X145352123Y-75505198D01*
X145353950Y-75503863D01*
X145356247Y-75501567D01*
X145356605Y-75501925D01*
X145408551Y-75463994D01*
X145478297Y-75459839D01*
X145539217Y-75494050D01*
X145571971Y-75555767D01*
X145574500Y-75580683D01*
X145574500Y-75769752D01*
X145586131Y-75828229D01*
X145586132Y-75828230D01*
X145630447Y-75894552D01*
X145696769Y-75938867D01*
X145696770Y-75938868D01*
X145755247Y-75950499D01*
X145755250Y-75950500D01*
X145755252Y-75950500D01*
X147494750Y-75950500D01*
X147494751Y-75950499D01*
X147509568Y-75947552D01*
X147553229Y-75938868D01*
X147553229Y-75938867D01*
X147553231Y-75938867D01*
X147619552Y-75894552D01*
X147663867Y-75828231D01*
X147663867Y-75828229D01*
X147663868Y-75828229D01*
X147675499Y-75769752D01*
X147675500Y-75769750D01*
X147675500Y-75466048D01*
X147695185Y-75399009D01*
X147747989Y-75353254D01*
X147817147Y-75343310D01*
X147880703Y-75372335D01*
X147910938Y-75414264D01*
X147911694Y-75413879D01*
X148010375Y-75607550D01*
X148049728Y-75661716D01*
X148682037Y-75029408D01*
X148699075Y-75092993D01*
X148764901Y-75207007D01*
X148857993Y-75300099D01*
X148972007Y-75365925D01*
X149035590Y-75382962D01*
X148403282Y-76015269D01*
X148403282Y-76015270D01*
X148457449Y-76054624D01*
X148646782Y-76151095D01*
X148848870Y-76216757D01*
X149058754Y-76250000D01*
X149271246Y-76250000D01*
X149481127Y-76216757D01*
X149481130Y-76216757D01*
X149507929Y-76208050D01*
X149683217Y-76151095D01*
X149872554Y-76054622D01*
X149926716Y-76015270D01*
X149926717Y-76015270D01*
X149294408Y-75382962D01*
X149357993Y-75365925D01*
X149472007Y-75300099D01*
X149565099Y-75207007D01*
X149630925Y-75092993D01*
X149647962Y-75029409D01*
X150280270Y-75661717D01*
X150280270Y-75661716D01*
X150319622Y-75607554D01*
X150416095Y-75418217D01*
X150481757Y-75216130D01*
X150481757Y-75216127D01*
X150515000Y-75006246D01*
X150515000Y-74793753D01*
X150481757Y-74583872D01*
X150481757Y-74583869D01*
X150416095Y-74381782D01*
X150319624Y-74192449D01*
X150280270Y-74138282D01*
X150280269Y-74138282D01*
X149647962Y-74770590D01*
X149630925Y-74707007D01*
X149565099Y-74592993D01*
X149472007Y-74499901D01*
X149357993Y-74434075D01*
X149294409Y-74417037D01*
X149926716Y-73784728D01*
X149872550Y-73745375D01*
X149683217Y-73648904D01*
X149481129Y-73583242D01*
X149271246Y-73550000D01*
X149058754Y-73550000D01*
X148848872Y-73583242D01*
X148848869Y-73583242D01*
X148646782Y-73648904D01*
X148457439Y-73745380D01*
X148403282Y-73784727D01*
X148403282Y-73784728D01*
X149035591Y-74417037D01*
X148972007Y-74434075D01*
X148857993Y-74499901D01*
X148764901Y-74592993D01*
X148699075Y-74707007D01*
X148682037Y-74770591D01*
X148049728Y-74138282D01*
X148049727Y-74138282D01*
X148010380Y-74192439D01*
X147911694Y-74386121D01*
X147910678Y-74385603D01*
X147870212Y-74435813D01*
X147803916Y-74457872D01*
X147736218Y-74440588D01*
X147688612Y-74389447D01*
X147675500Y-74333951D01*
X147675500Y-74030249D01*
X147675499Y-74030247D01*
X147663868Y-73971770D01*
X147663867Y-73971769D01*
X147619552Y-73905447D01*
X147553230Y-73861132D01*
X147553229Y-73861131D01*
X147494752Y-73849500D01*
X147494748Y-73849500D01*
X145755252Y-73849500D01*
X145755247Y-73849500D01*
X145696770Y-73861131D01*
X145696769Y-73861132D01*
X145630447Y-73905447D01*
X145586132Y-73971769D01*
X145586131Y-73971770D01*
X145574500Y-74030247D01*
X145574500Y-74819316D01*
X145554815Y-74886355D01*
X145502011Y-74932110D01*
X145432853Y-74942054D01*
X145369297Y-74913029D01*
X145352128Y-74894807D01*
X145350501Y-74892687D01*
X145257316Y-74799502D01*
X145257314Y-74799500D01*
X145200250Y-74766554D01*
X145143187Y-74733608D01*
X145079539Y-74716554D01*
X145015892Y-74699500D01*
X144884108Y-74699500D01*
X144756812Y-74733608D01*
X144642686Y-74799500D01*
X144642683Y-74799502D01*
X144549502Y-74892683D01*
X144549500Y-74892686D01*
X144483608Y-75006812D01*
X144449500Y-75134108D01*
X135950500Y-75134108D01*
X135916392Y-75006814D01*
X135850500Y-74892686D01*
X135757314Y-74799500D01*
X135700250Y-74766554D01*
X135643187Y-74733608D01*
X135579539Y-74716554D01*
X135515892Y-74699500D01*
X135384108Y-74699500D01*
X135256812Y-74733608D01*
X135142686Y-74799500D01*
X135142683Y-74799502D01*
X135049502Y-74892683D01*
X135049500Y-74892686D01*
X134983608Y-75006812D01*
X134949500Y-75134108D01*
X104150000Y-75134108D01*
X104150000Y-73434108D01*
X133249497Y-73434108D01*
X133249497Y-73565891D01*
X133283605Y-73693187D01*
X133313736Y-73745375D01*
X133349497Y-73807314D01*
X133442683Y-73900500D01*
X133556811Y-73966392D01*
X133684105Y-74000500D01*
X133684107Y-74000500D01*
X133815887Y-74000500D01*
X133815889Y-74000500D01*
X133943183Y-73966392D01*
X134057311Y-73900500D01*
X134150497Y-73807314D01*
X134216389Y-73693186D01*
X134250497Y-73565892D01*
X134250497Y-73434108D01*
X134216389Y-73306814D01*
X134150497Y-73192686D01*
X134057311Y-73099500D01*
X133999092Y-73065887D01*
X133943184Y-73033608D01*
X133879536Y-73016554D01*
X133815889Y-72999500D01*
X133684105Y-72999500D01*
X133556809Y-73033608D01*
X133442683Y-73099500D01*
X133442680Y-73099502D01*
X133349499Y-73192683D01*
X133349497Y-73192686D01*
X133283605Y-73306812D01*
X133249497Y-73434108D01*
X104150000Y-73434108D01*
X104150000Y-72296608D01*
X113412000Y-72296608D01*
X113412000Y-72428391D01*
X113446108Y-72555687D01*
X113458043Y-72576358D01*
X113512000Y-72669814D01*
X113605186Y-72763000D01*
X113719314Y-72828892D01*
X113846608Y-72863000D01*
X113846610Y-72863000D01*
X113978390Y-72863000D01*
X113978392Y-72863000D01*
X114105686Y-72828892D01*
X114219814Y-72763000D01*
X114313000Y-72669814D01*
X114378892Y-72555686D01*
X114413000Y-72428392D01*
X114413000Y-72296608D01*
X114378892Y-72169314D01*
X114376917Y-72165894D01*
X114370063Y-72154021D01*
X114313000Y-72055186D01*
X114219814Y-71962000D01*
X114162750Y-71929054D01*
X114105687Y-71896108D01*
X114042039Y-71879054D01*
X113978392Y-71862000D01*
X113846608Y-71862000D01*
X113719312Y-71896108D01*
X113605186Y-71962000D01*
X113605183Y-71962002D01*
X113512002Y-72055183D01*
X113512000Y-72055186D01*
X113446108Y-72169312D01*
X113412000Y-72296608D01*
X104150000Y-72296608D01*
X104150000Y-71234108D01*
X160899500Y-71234108D01*
X160899500Y-71365891D01*
X160933608Y-71493187D01*
X160966554Y-71550250D01*
X160999500Y-71607314D01*
X160999501Y-71607315D01*
X160999502Y-71607316D01*
X161004506Y-71612320D01*
X161037991Y-71673643D01*
X161033007Y-71743335D01*
X161004510Y-71787678D01*
X160999503Y-71792685D01*
X160999501Y-71792687D01*
X160999500Y-71792689D01*
X160963612Y-71854847D01*
X160933608Y-71906816D01*
X160899500Y-72034111D01*
X160899500Y-72165894D01*
X160933608Y-72293190D01*
X160935583Y-72296610D01*
X160999500Y-72407317D01*
X160999502Y-72407319D01*
X161054502Y-72462319D01*
X161087987Y-72523642D01*
X161083003Y-72593334D01*
X161054502Y-72637681D01*
X160999502Y-72692680D01*
X160999500Y-72692683D01*
X160933608Y-72806809D01*
X160918552Y-72863000D01*
X160899500Y-72934105D01*
X160899500Y-73065889D01*
X160916554Y-73129536D01*
X160933608Y-73193184D01*
X160966554Y-73250247D01*
X160999500Y-73307311D01*
X160999501Y-73307312D01*
X160999502Y-73307313D01*
X161004506Y-73312317D01*
X161037991Y-73373640D01*
X161033007Y-73443332D01*
X161004510Y-73487675D01*
X160999503Y-73492682D01*
X160999501Y-73492684D01*
X160999500Y-73492686D01*
X160966410Y-73550000D01*
X160933608Y-73606813D01*
X160899500Y-73734108D01*
X160899500Y-73865891D01*
X160933608Y-73993187D01*
X160955005Y-74030247D01*
X160999500Y-74107314D01*
X161092686Y-74200500D01*
X161206814Y-74266392D01*
X161334108Y-74300500D01*
X161334110Y-74300500D01*
X161465890Y-74300500D01*
X161465892Y-74300500D01*
X161593186Y-74266392D01*
X161707314Y-74200500D01*
X161800500Y-74107314D01*
X161866392Y-73993186D01*
X161900500Y-73865892D01*
X161900500Y-73734108D01*
X161866392Y-73606814D01*
X161800500Y-73492686D01*
X161795493Y-73487679D01*
X161762008Y-73426356D01*
X161766992Y-73356664D01*
X161795499Y-73312311D01*
X161800500Y-73307311D01*
X161866392Y-73193183D01*
X161900500Y-73065889D01*
X161900500Y-72934105D01*
X161866392Y-72806811D01*
X161800500Y-72692683D01*
X161745498Y-72637681D01*
X161712013Y-72576358D01*
X161716997Y-72506666D01*
X161745498Y-72462319D01*
X161800500Y-72407317D01*
X161866392Y-72293189D01*
X161900500Y-72165895D01*
X161900500Y-72034111D01*
X161866392Y-71906817D01*
X161800500Y-71792689D01*
X161795493Y-71787682D01*
X161762008Y-71726359D01*
X161766992Y-71656667D01*
X161795499Y-71612314D01*
X161800500Y-71607314D01*
X161866392Y-71493186D01*
X161900500Y-71365892D01*
X161900500Y-71234108D01*
X161866392Y-71106814D01*
X161800500Y-70992686D01*
X161707314Y-70899500D01*
X161650250Y-70866554D01*
X161593187Y-70833608D01*
X161529539Y-70816554D01*
X161465892Y-70799500D01*
X161334108Y-70799500D01*
X161206812Y-70833608D01*
X161092686Y-70899500D01*
X161092683Y-70899502D01*
X160999502Y-70992683D01*
X160999500Y-70992686D01*
X160933608Y-71106812D01*
X160899500Y-71234108D01*
X104150000Y-71234108D01*
X104150000Y-69634108D01*
X132299500Y-69634108D01*
X132299500Y-69765891D01*
X132333608Y-69893187D01*
X132366554Y-69950250D01*
X132399500Y-70007314D01*
X132492686Y-70100500D01*
X132606814Y-70166392D01*
X132734108Y-70200500D01*
X132734110Y-70200500D01*
X132865890Y-70200500D01*
X132865892Y-70200500D01*
X132993186Y-70166392D01*
X133107314Y-70100500D01*
X133200500Y-70007314D01*
X133266392Y-69893186D01*
X133300500Y-69765892D01*
X133300500Y-69634108D01*
X133266392Y-69506814D01*
X133200500Y-69392686D01*
X133107314Y-69299500D01*
X133050250Y-69266554D01*
X132993187Y-69233608D01*
X132929539Y-69216554D01*
X132865892Y-69199500D01*
X132734108Y-69199500D01*
X132606812Y-69233608D01*
X132492686Y-69299500D01*
X132492683Y-69299502D01*
X132399502Y-69392683D01*
X132399500Y-69392686D01*
X132333608Y-69506812D01*
X132299500Y-69634108D01*
X104150000Y-69634108D01*
X104150000Y-68634108D01*
X160899500Y-68634108D01*
X160899500Y-68765891D01*
X160933608Y-68893187D01*
X160966554Y-68950250D01*
X160999500Y-69007314D01*
X161092686Y-69100500D01*
X161206814Y-69166392D01*
X161334108Y-69200500D01*
X161334110Y-69200500D01*
X161465890Y-69200500D01*
X161465892Y-69200500D01*
X161593186Y-69166392D01*
X161707314Y-69100500D01*
X161800500Y-69007314D01*
X161866392Y-68893186D01*
X161900500Y-68765892D01*
X161900500Y-68634108D01*
X161866392Y-68506814D01*
X161800500Y-68392686D01*
X161707314Y-68299500D01*
X161650250Y-68266554D01*
X161593187Y-68233608D01*
X161529539Y-68216554D01*
X161465892Y-68199500D01*
X161334108Y-68199500D01*
X161206812Y-68233608D01*
X161092686Y-68299500D01*
X161092683Y-68299502D01*
X160999502Y-68392683D01*
X160999500Y-68392686D01*
X160933608Y-68506812D01*
X160899500Y-68634108D01*
X104150000Y-68634108D01*
X104150000Y-68101362D01*
X104169685Y-68034323D01*
X104186319Y-68013681D01*
X105263681Y-66936319D01*
X105325004Y-66902834D01*
X105351362Y-66900000D01*
X108900000Y-66900000D01*
X110300000Y-65500000D01*
X110300000Y-65434108D01*
X144699500Y-65434108D01*
X144699500Y-65565891D01*
X144733608Y-65693187D01*
X144742057Y-65707820D01*
X144799500Y-65807314D01*
X144892686Y-65900500D01*
X145006814Y-65966392D01*
X145134108Y-66000500D01*
X145134110Y-66000500D01*
X145265890Y-66000500D01*
X145265892Y-66000500D01*
X145393186Y-65966392D01*
X145507314Y-65900500D01*
X145600500Y-65807314D01*
X145666392Y-65693186D01*
X145700500Y-65565892D01*
X145700500Y-65434108D01*
X146099500Y-65434108D01*
X146099500Y-65565891D01*
X146133608Y-65693187D01*
X146142057Y-65707820D01*
X146199500Y-65807314D01*
X146292686Y-65900500D01*
X146406814Y-65966392D01*
X146534108Y-66000500D01*
X146534110Y-66000500D01*
X146665890Y-66000500D01*
X146665892Y-66000500D01*
X146793186Y-65966392D01*
X146907314Y-65900500D01*
X147000500Y-65807314D01*
X147066392Y-65693186D01*
X147100500Y-65565892D01*
X147100500Y-65434108D01*
X147066392Y-65306814D01*
X147000500Y-65192686D01*
X146907314Y-65099500D01*
X146850250Y-65066554D01*
X146793187Y-65033608D01*
X146758625Y-65024347D01*
X146665892Y-64999500D01*
X146534108Y-64999500D01*
X146406812Y-65033608D01*
X146292686Y-65099500D01*
X146292683Y-65099502D01*
X146199502Y-65192683D01*
X146199500Y-65192686D01*
X146133608Y-65306812D01*
X146099500Y-65434108D01*
X145700500Y-65434108D01*
X145666392Y-65306814D01*
X145600500Y-65192686D01*
X145507314Y-65099500D01*
X145450250Y-65066554D01*
X145393187Y-65033608D01*
X145329539Y-65016554D01*
X145265892Y-64999500D01*
X145134108Y-64999500D01*
X145006812Y-65033608D01*
X144892686Y-65099500D01*
X144892683Y-65099502D01*
X144799502Y-65192683D01*
X144799500Y-65192686D01*
X144733608Y-65306812D01*
X144699500Y-65434108D01*
X110300000Y-65434108D01*
X110300000Y-64893713D01*
X154248698Y-64893713D01*
X154248698Y-65106286D01*
X154280458Y-65306814D01*
X154281952Y-65316243D01*
X154320249Y-65434110D01*
X154347642Y-65518414D01*
X154444149Y-65707820D01*
X154569088Y-65879786D01*
X154719411Y-66030109D01*
X154891377Y-66155048D01*
X154891379Y-66155049D01*
X154891382Y-66155051D01*
X155080786Y-66251557D01*
X155282955Y-66317246D01*
X155492911Y-66350500D01*
X155492912Y-66350500D01*
X155705484Y-66350500D01*
X155705485Y-66350500D01*
X155915441Y-66317246D01*
X156117610Y-66251557D01*
X156307014Y-66155051D01*
X156335840Y-66134108D01*
X160899500Y-66134108D01*
X160899500Y-66265891D01*
X160933608Y-66393187D01*
X160966554Y-66450250D01*
X160999500Y-66507314D01*
X161092686Y-66600500D01*
X161206814Y-66666392D01*
X161334108Y-66700500D01*
X161334110Y-66700500D01*
X161465890Y-66700500D01*
X161465892Y-66700500D01*
X161593186Y-66666392D01*
X161707314Y-66600500D01*
X161800500Y-66507314D01*
X161866392Y-66393186D01*
X161900500Y-66265892D01*
X161900500Y-66134108D01*
X161866392Y-66006814D01*
X161800500Y-65892686D01*
X161707314Y-65799500D01*
X161650250Y-65766554D01*
X161593187Y-65733608D01*
X161529539Y-65716554D01*
X161465892Y-65699500D01*
X161334108Y-65699500D01*
X161206812Y-65733608D01*
X161092686Y-65799500D01*
X161092683Y-65799502D01*
X160999502Y-65892683D01*
X160999500Y-65892686D01*
X160933608Y-66006812D01*
X160899500Y-66134108D01*
X156335840Y-66134108D01*
X156478990Y-66030104D01*
X156629302Y-65879792D01*
X156629304Y-65879788D01*
X156629307Y-65879786D01*
X156754246Y-65707820D01*
X156754245Y-65707820D01*
X156754249Y-65707816D01*
X156850755Y-65518412D01*
X156916444Y-65316243D01*
X156949698Y-65106287D01*
X156949698Y-64893713D01*
X156916444Y-64683757D01*
X156850755Y-64481588D01*
X156754249Y-64292184D01*
X156754247Y-64292181D01*
X156754246Y-64292179D01*
X156629307Y-64120213D01*
X156478984Y-63969890D01*
X156307018Y-63844951D01*
X156117612Y-63748444D01*
X156117611Y-63748443D01*
X156117610Y-63748443D01*
X155915441Y-63682754D01*
X155915439Y-63682753D01*
X155915438Y-63682753D01*
X155743639Y-63655543D01*
X155705485Y-63649500D01*
X155492911Y-63649500D01*
X155454757Y-63655543D01*
X155282958Y-63682753D01*
X155282955Y-63682754D01*
X155122689Y-63734828D01*
X155080783Y-63748444D01*
X154891377Y-63844951D01*
X154719411Y-63969890D01*
X154569088Y-64120213D01*
X154444149Y-64292179D01*
X154347642Y-64481585D01*
X154281951Y-64683760D01*
X154248698Y-64893713D01*
X110300000Y-64893713D01*
X110300000Y-64034108D01*
X144699500Y-64034108D01*
X144699500Y-64165892D01*
X144707737Y-64196632D01*
X144733608Y-64293187D01*
X144746489Y-64315497D01*
X144799500Y-64407314D01*
X144892686Y-64500500D01*
X145006814Y-64566392D01*
X145134108Y-64600500D01*
X145134110Y-64600500D01*
X145265890Y-64600500D01*
X145265892Y-64600500D01*
X145393186Y-64566392D01*
X145507314Y-64500500D01*
X145600500Y-64407314D01*
X145666392Y-64293186D01*
X145700500Y-64165892D01*
X145700500Y-64034108D01*
X146099500Y-64034108D01*
X146099500Y-64165892D01*
X146107737Y-64196632D01*
X146133608Y-64293187D01*
X146146489Y-64315497D01*
X146199500Y-64407314D01*
X146292686Y-64500500D01*
X146406814Y-64566392D01*
X146534108Y-64600500D01*
X146534110Y-64600500D01*
X146665890Y-64600500D01*
X146665892Y-64600500D01*
X146793186Y-64566392D01*
X146907314Y-64500500D01*
X147000500Y-64407314D01*
X147066392Y-64293186D01*
X147100500Y-64165892D01*
X147100500Y-64034108D01*
X147066392Y-63906814D01*
X147000500Y-63792686D01*
X146907314Y-63699500D01*
X146839324Y-63660246D01*
X146793187Y-63633608D01*
X146729539Y-63616554D01*
X146665892Y-63599500D01*
X146534108Y-63599500D01*
X146406812Y-63633608D01*
X146292686Y-63699500D01*
X146292683Y-63699502D01*
X146199502Y-63792683D01*
X146199500Y-63792686D01*
X146133608Y-63906812D01*
X146113759Y-63980891D01*
X146099500Y-64034108D01*
X145700500Y-64034108D01*
X145666392Y-63906814D01*
X145600500Y-63792686D01*
X145507314Y-63699500D01*
X145439324Y-63660246D01*
X145393187Y-63633608D01*
X145329539Y-63616554D01*
X145265892Y-63599500D01*
X145134108Y-63599500D01*
X145006812Y-63633608D01*
X144892686Y-63699500D01*
X144892683Y-63699502D01*
X144799502Y-63792683D01*
X144799500Y-63792686D01*
X144733608Y-63906812D01*
X144713759Y-63980891D01*
X144699500Y-64034108D01*
X110300000Y-64034108D01*
X110300000Y-61599108D01*
X160484500Y-61599108D01*
X160484500Y-61730892D01*
X160496117Y-61774248D01*
X160518608Y-61858187D01*
X160536687Y-61889500D01*
X160584500Y-61972314D01*
X160677686Y-62065500D01*
X160791814Y-62131392D01*
X160919108Y-62165500D01*
X160919110Y-62165500D01*
X161050890Y-62165500D01*
X161050892Y-62165500D01*
X161094251Y-62153882D01*
X161164097Y-62155543D01*
X161221961Y-62194705D01*
X161249466Y-62258933D01*
X161246118Y-62305748D01*
X161234500Y-62349108D01*
X161234500Y-62480892D01*
X161237074Y-62490500D01*
X161246118Y-62524250D01*
X161244455Y-62594100D01*
X161205292Y-62651962D01*
X161141064Y-62679466D01*
X161094251Y-62676118D01*
X161050892Y-62664500D01*
X160919108Y-62664500D01*
X160791812Y-62698608D01*
X160677686Y-62764500D01*
X160677683Y-62764502D01*
X160584502Y-62857683D01*
X160584500Y-62857686D01*
X160518608Y-62971812D01*
X160496118Y-63055749D01*
X160484500Y-63099108D01*
X160484500Y-63230892D01*
X160485228Y-63233608D01*
X160518608Y-63358187D01*
X160542680Y-63399880D01*
X160584500Y-63472314D01*
X160677686Y-63565500D01*
X160736576Y-63599500D01*
X160791810Y-63631390D01*
X160791814Y-63631392D01*
X160807595Y-63635620D01*
X160867252Y-63671982D01*
X160897783Y-63734828D01*
X160899500Y-63755394D01*
X160899500Y-63765892D01*
X160910180Y-63805749D01*
X160933608Y-63893187D01*
X160941475Y-63906812D01*
X160999500Y-64007314D01*
X161092686Y-64100500D01*
X161191521Y-64157563D01*
X161205944Y-64165890D01*
X161206814Y-64166392D01*
X161272873Y-64184092D01*
X161327768Y-64217551D01*
X161328753Y-64216567D01*
X161334499Y-64222313D01*
X161334500Y-64222314D01*
X161427686Y-64315500D01*
X161541814Y-64381392D01*
X161669108Y-64415500D01*
X161669110Y-64415500D01*
X161800890Y-64415500D01*
X161800892Y-64415500D01*
X161928186Y-64381392D01*
X162042314Y-64315500D01*
X162135500Y-64222314D01*
X162201392Y-64108186D01*
X162235500Y-63980892D01*
X162235500Y-63849108D01*
X162223882Y-63805748D01*
X162225544Y-63735901D01*
X162264705Y-63678038D01*
X162328934Y-63650533D01*
X162375747Y-63653881D01*
X162419108Y-63665500D01*
X162419110Y-63665500D01*
X162550890Y-63665500D01*
X162550892Y-63665500D01*
X162594251Y-63653882D01*
X162664097Y-63655543D01*
X162721961Y-63694705D01*
X162749466Y-63758933D01*
X162746118Y-63805748D01*
X162734500Y-63849108D01*
X162734500Y-63980892D01*
X162741580Y-64007314D01*
X162768608Y-64108187D01*
X162801554Y-64165250D01*
X162834500Y-64222314D01*
X162927686Y-64315500D01*
X163041814Y-64381392D01*
X163169108Y-64415500D01*
X163169110Y-64415500D01*
X163300890Y-64415500D01*
X163300892Y-64415500D01*
X163428186Y-64381392D01*
X163542314Y-64315500D01*
X163635500Y-64222314D01*
X163701392Y-64108186D01*
X163735500Y-63980892D01*
X163735500Y-63849108D01*
X163723882Y-63805748D01*
X163725544Y-63735901D01*
X163764705Y-63678038D01*
X163828934Y-63650533D01*
X163875747Y-63653881D01*
X163919108Y-63665500D01*
X163919110Y-63665500D01*
X164050890Y-63665500D01*
X164050892Y-63665500D01*
X164178186Y-63631392D01*
X164292314Y-63565500D01*
X164385500Y-63472314D01*
X164451392Y-63358186D01*
X164485500Y-63230892D01*
X164485500Y-63099108D01*
X164451392Y-62971814D01*
X164385500Y-62857686D01*
X164292314Y-62764500D01*
X164219246Y-62722314D01*
X164178187Y-62698608D01*
X164088045Y-62674455D01*
X164050892Y-62664500D01*
X163919108Y-62664500D01*
X163875749Y-62676118D01*
X163805899Y-62674455D01*
X163748037Y-62635292D01*
X163720533Y-62571063D01*
X163723882Y-62524250D01*
X163735500Y-62480892D01*
X163735500Y-62349108D01*
X163723882Y-62305748D01*
X163725544Y-62235901D01*
X163764705Y-62178038D01*
X163828934Y-62150533D01*
X163875747Y-62153881D01*
X163919108Y-62165500D01*
X163919110Y-62165500D01*
X164050890Y-62165500D01*
X164050892Y-62165500D01*
X164178186Y-62131392D01*
X164292314Y-62065500D01*
X164385500Y-61972314D01*
X164451392Y-61858186D01*
X164485500Y-61730892D01*
X164485500Y-61599108D01*
X164451392Y-61471814D01*
X164385500Y-61357686D01*
X164292314Y-61264500D01*
X164219246Y-61222314D01*
X164178187Y-61198608D01*
X164088045Y-61174455D01*
X164050892Y-61164500D01*
X163919108Y-61164500D01*
X163875749Y-61176118D01*
X163805899Y-61174455D01*
X163748037Y-61135292D01*
X163720533Y-61071063D01*
X163723882Y-61024250D01*
X163735500Y-60980892D01*
X163735500Y-60849108D01*
X163701392Y-60721814D01*
X163635500Y-60607686D01*
X163542314Y-60514500D01*
X163485250Y-60481554D01*
X163428187Y-60448608D01*
X163364539Y-60431554D01*
X163300892Y-60414500D01*
X163169108Y-60414500D01*
X163041812Y-60448608D01*
X162927686Y-60514500D01*
X162927683Y-60514502D01*
X162834502Y-60607683D01*
X162834500Y-60607686D01*
X162768608Y-60721812D01*
X162755746Y-60769816D01*
X162734500Y-60849108D01*
X162734500Y-60980892D01*
X162734500Y-60980893D01*
X162746118Y-61024250D01*
X162744455Y-61094100D01*
X162705292Y-61151962D01*
X162641064Y-61179466D01*
X162594251Y-61176118D01*
X162550892Y-61164500D01*
X162419108Y-61164500D01*
X162375749Y-61176118D01*
X162305899Y-61174455D01*
X162248037Y-61135292D01*
X162220533Y-61071063D01*
X162223882Y-61024250D01*
X162235500Y-60980892D01*
X162235500Y-60849108D01*
X162201392Y-60721814D01*
X162135500Y-60607686D01*
X162042314Y-60514500D01*
X161985250Y-60481554D01*
X161928187Y-60448608D01*
X161864539Y-60431554D01*
X161800892Y-60414500D01*
X161669108Y-60414500D01*
X161541812Y-60448608D01*
X161427686Y-60514500D01*
X161427683Y-60514502D01*
X161334502Y-60607683D01*
X161334500Y-60607686D01*
X161268608Y-60721812D01*
X161255746Y-60769816D01*
X161234500Y-60849108D01*
X161234500Y-60980892D01*
X161234500Y-60980893D01*
X161246118Y-61024250D01*
X161244455Y-61094100D01*
X161205292Y-61151962D01*
X161141064Y-61179466D01*
X161094251Y-61176118D01*
X161050892Y-61164500D01*
X160919108Y-61164500D01*
X160791812Y-61198608D01*
X160677686Y-61264500D01*
X160677683Y-61264502D01*
X160584502Y-61357683D01*
X160584500Y-61357686D01*
X160518608Y-61471812D01*
X160514833Y-61485901D01*
X160484500Y-61599108D01*
X110300000Y-61599108D01*
X110300000Y-60396608D01*
X134599500Y-60396608D01*
X134599500Y-60528391D01*
X134633608Y-60655687D01*
X134666554Y-60712750D01*
X134699500Y-60769814D01*
X134792686Y-60863000D01*
X134906814Y-60928892D01*
X135034108Y-60963000D01*
X135034110Y-60963000D01*
X135165890Y-60963000D01*
X135165892Y-60963000D01*
X135293186Y-60928892D01*
X135407314Y-60863000D01*
X135500500Y-60769814D01*
X135566392Y-60655686D01*
X135600500Y-60528392D01*
X135600500Y-60396608D01*
X135566392Y-60269314D01*
X135500500Y-60155186D01*
X135407314Y-60062000D01*
X135350250Y-60029054D01*
X135293187Y-59996108D01*
X135229539Y-59979054D01*
X135165892Y-59962000D01*
X135034108Y-59962000D01*
X134906812Y-59996108D01*
X134792686Y-60062000D01*
X134792683Y-60062002D01*
X134699502Y-60155183D01*
X134699500Y-60155186D01*
X134633608Y-60269312D01*
X134599500Y-60396608D01*
X110300000Y-60396608D01*
X110300000Y-58736530D01*
X158599500Y-58736530D01*
X158599500Y-58943469D01*
X158639868Y-59146412D01*
X158639870Y-59146420D01*
X158719058Y-59337596D01*
X158834024Y-59509657D01*
X158980342Y-59655975D01*
X158980345Y-59655977D01*
X159152402Y-59770941D01*
X159343580Y-59850130D01*
X159546530Y-59890499D01*
X159546534Y-59890500D01*
X159546535Y-59890500D01*
X159753466Y-59890500D01*
X159753467Y-59890499D01*
X159956420Y-59850130D01*
X160147598Y-59770941D01*
X160319655Y-59655977D01*
X160465977Y-59509655D01*
X160580941Y-59337598D01*
X160660130Y-59146420D01*
X160700500Y-58943465D01*
X160700500Y-58736535D01*
X160660130Y-58533580D01*
X160580941Y-58342402D01*
X160465977Y-58170345D01*
X160465975Y-58170342D01*
X160319657Y-58024024D01*
X160233626Y-57966541D01*
X160147598Y-57909059D01*
X160108070Y-57892686D01*
X159956420Y-57829870D01*
X159956412Y-57829868D01*
X159753469Y-57789500D01*
X159753465Y-57789500D01*
X159546535Y-57789500D01*
X159546530Y-57789500D01*
X159343587Y-57829868D01*
X159343579Y-57829870D01*
X159152403Y-57909058D01*
X158980342Y-58024024D01*
X158834024Y-58170342D01*
X158719058Y-58342403D01*
X158639870Y-58533579D01*
X158639868Y-58533587D01*
X158599500Y-58736530D01*
X110300000Y-58736530D01*
X110300000Y-58134108D01*
X122199500Y-58134108D01*
X122199500Y-58265891D01*
X122233608Y-58393187D01*
X122266554Y-58450250D01*
X122299500Y-58507314D01*
X122392686Y-58600500D01*
X122506814Y-58666392D01*
X122634108Y-58700500D01*
X122634110Y-58700500D01*
X122765890Y-58700500D01*
X122765892Y-58700500D01*
X122893186Y-58666392D01*
X123007314Y-58600500D01*
X123100500Y-58507314D01*
X123166392Y-58393186D01*
X123200500Y-58265892D01*
X123200500Y-58134108D01*
X123166392Y-58006814D01*
X123100500Y-57892686D01*
X123007314Y-57799500D01*
X122950250Y-57766554D01*
X122894053Y-57734108D01*
X149099500Y-57734108D01*
X149099500Y-57865892D01*
X149116554Y-57929539D01*
X149133608Y-57993187D01*
X149141475Y-58006812D01*
X149199500Y-58107314D01*
X149292686Y-58200500D01*
X149391521Y-58257563D01*
X149405944Y-58265890D01*
X149406814Y-58266392D01*
X149534108Y-58300500D01*
X149534110Y-58300500D01*
X149665890Y-58300500D01*
X149665892Y-58300500D01*
X149793186Y-58266392D01*
X149907314Y-58200500D01*
X150000500Y-58107314D01*
X150066392Y-57993186D01*
X150100500Y-57865892D01*
X150100500Y-57734108D01*
X150066392Y-57606814D01*
X150000500Y-57492686D01*
X149907314Y-57399500D01*
X149821576Y-57349999D01*
X149793187Y-57333608D01*
X149729539Y-57316554D01*
X149665892Y-57299500D01*
X149534108Y-57299500D01*
X149406812Y-57333608D01*
X149292686Y-57399500D01*
X149292683Y-57399502D01*
X149199502Y-57492683D01*
X149199500Y-57492686D01*
X149133608Y-57606812D01*
X149122036Y-57650000D01*
X149099500Y-57734108D01*
X122894053Y-57734108D01*
X122893187Y-57733608D01*
X122829539Y-57716554D01*
X122765892Y-57699500D01*
X122634108Y-57699500D01*
X122506812Y-57733608D01*
X122392686Y-57799500D01*
X122392683Y-57799502D01*
X122299502Y-57892683D01*
X122299500Y-57892686D01*
X122233608Y-58006812D01*
X122199500Y-58134108D01*
X110300000Y-58134108D01*
X110300000Y-57650000D01*
X110300000Y-53704731D01*
X127300000Y-53704731D01*
X127300000Y-54550000D01*
X128522769Y-54550000D01*
X128500000Y-54693753D01*
X128500000Y-54906247D01*
X128522769Y-55050000D01*
X127300000Y-55050000D01*
X127300000Y-55895268D01*
X127310215Y-56039958D01*
X127310217Y-56039968D01*
X127364313Y-56280165D01*
X127364315Y-56280172D01*
X127456244Y-56508585D01*
X127583620Y-56719289D01*
X127583627Y-56719299D01*
X127743153Y-56906846D01*
X127930700Y-57066372D01*
X127930710Y-57066379D01*
X128141414Y-57193755D01*
X128369827Y-57285684D01*
X128369834Y-57285686D01*
X128610031Y-57339782D01*
X128610041Y-57339784D01*
X128754731Y-57349999D01*
X128754734Y-57350000D01*
X129600000Y-57350000D01*
X129600000Y-56127231D01*
X129743753Y-56150000D01*
X129956247Y-56150000D01*
X130100000Y-56127231D01*
X130100000Y-57350000D01*
X130945266Y-57350000D01*
X130945268Y-57349999D01*
X131089958Y-57339784D01*
X131089968Y-57339782D01*
X131330165Y-57285686D01*
X131330172Y-57285684D01*
X131558585Y-57193755D01*
X131769289Y-57066379D01*
X131769299Y-57066372D01*
X131956846Y-56906846D01*
X132116372Y-56719299D01*
X132116379Y-56719289D01*
X132243755Y-56508585D01*
X132335684Y-56280172D01*
X132335686Y-56280165D01*
X132389782Y-56039968D01*
X132389784Y-56039958D01*
X132399999Y-55895268D01*
X132400000Y-55895266D01*
X132400000Y-55050000D01*
X131177231Y-55050000D01*
X131200000Y-54906247D01*
X131200000Y-54693753D01*
X131193464Y-54652486D01*
X134799500Y-54652486D01*
X134799500Y-54947513D01*
X134820866Y-55109794D01*
X134838007Y-55239993D01*
X134914361Y-55524951D01*
X134914364Y-55524961D01*
X135027254Y-55797500D01*
X135027258Y-55797510D01*
X135174761Y-56052993D01*
X135354352Y-56287040D01*
X135354358Y-56287047D01*
X135562952Y-56495641D01*
X135562959Y-56495647D01*
X135797006Y-56675238D01*
X136052489Y-56822741D01*
X136052490Y-56822741D01*
X136052493Y-56822743D01*
X136325048Y-56935639D01*
X136610007Y-57011993D01*
X136902494Y-57050500D01*
X136902501Y-57050500D01*
X137197499Y-57050500D01*
X137197506Y-57050500D01*
X137489993Y-57011993D01*
X137774952Y-56935639D01*
X138047507Y-56822743D01*
X138302994Y-56675238D01*
X138537042Y-56495646D01*
X138745646Y-56287042D01*
X138925238Y-56052994D01*
X139072743Y-55797507D01*
X139185639Y-55524952D01*
X139261993Y-55239993D01*
X139275933Y-55134108D01*
X149099500Y-55134108D01*
X149099500Y-55265891D01*
X149133608Y-55393187D01*
X149155005Y-55430247D01*
X149199500Y-55507314D01*
X149292686Y-55600500D01*
X149406814Y-55666392D01*
X149534108Y-55700500D01*
X149534110Y-55700500D01*
X149665890Y-55700500D01*
X149665892Y-55700500D01*
X149793186Y-55666392D01*
X149907314Y-55600500D01*
X150000500Y-55507314D01*
X150044995Y-55430247D01*
X158599500Y-55430247D01*
X158599500Y-57169752D01*
X158611131Y-57228229D01*
X158611132Y-57228230D01*
X158655447Y-57294552D01*
X158721769Y-57338867D01*
X158721770Y-57338868D01*
X158780247Y-57350499D01*
X158780250Y-57350500D01*
X158780252Y-57350500D01*
X160519750Y-57350500D01*
X160519751Y-57350499D01*
X160534568Y-57347552D01*
X160578229Y-57338868D01*
X160578229Y-57338867D01*
X160578231Y-57338867D01*
X160644552Y-57294552D01*
X160688867Y-57228231D01*
X160688867Y-57228229D01*
X160688868Y-57228229D01*
X160700499Y-57169752D01*
X160700500Y-57169750D01*
X160700500Y-55430249D01*
X160700499Y-55430247D01*
X160688868Y-55371770D01*
X160688867Y-55371769D01*
X160644552Y-55305447D01*
X160578230Y-55261132D01*
X160578229Y-55261131D01*
X160519752Y-55249500D01*
X160519748Y-55249500D01*
X158780252Y-55249500D01*
X158780247Y-55249500D01*
X158721770Y-55261131D01*
X158721769Y-55261132D01*
X158655447Y-55305447D01*
X158611132Y-55371769D01*
X158611131Y-55371770D01*
X158599500Y-55430247D01*
X150044995Y-55430247D01*
X150066392Y-55393186D01*
X150100500Y-55265892D01*
X150100500Y-55134108D01*
X150066392Y-55006814D01*
X150000500Y-54892686D01*
X149907314Y-54799500D01*
X149850250Y-54766554D01*
X149793187Y-54733608D01*
X149729539Y-54716554D01*
X149665892Y-54699500D01*
X149534108Y-54699500D01*
X149406812Y-54733608D01*
X149292686Y-54799500D01*
X149292683Y-54799502D01*
X149199502Y-54892683D01*
X149199500Y-54892686D01*
X149133608Y-55006812D01*
X149099500Y-55134108D01*
X139275933Y-55134108D01*
X139300500Y-54947506D01*
X139300500Y-54652494D01*
X139261993Y-54360007D01*
X139185639Y-54075048D01*
X139072743Y-53802493D01*
X139056066Y-53773608D01*
X138925238Y-53547006D01*
X138745647Y-53312959D01*
X138745641Y-53312952D01*
X138537047Y-53104358D01*
X138537040Y-53104352D01*
X138302993Y-52924761D01*
X138047510Y-52777258D01*
X138047500Y-52777254D01*
X137774961Y-52664364D01*
X137774954Y-52664362D01*
X137774952Y-52664361D01*
X137489993Y-52588007D01*
X137441113Y-52581571D01*
X137197513Y-52549500D01*
X137197506Y-52549500D01*
X136902494Y-52549500D01*
X136902486Y-52549500D01*
X136624085Y-52586153D01*
X136610007Y-52588007D01*
X136415965Y-52640000D01*
X136325048Y-52664361D01*
X136325038Y-52664364D01*
X136052499Y-52777254D01*
X136052489Y-52777258D01*
X135797006Y-52924761D01*
X135562959Y-53104352D01*
X135562952Y-53104358D01*
X135354358Y-53312952D01*
X135354352Y-53312959D01*
X135174761Y-53547006D01*
X135027258Y-53802489D01*
X135027254Y-53802499D01*
X134914364Y-54075038D01*
X134914361Y-54075048D01*
X134838008Y-54360004D01*
X134838006Y-54360015D01*
X134799500Y-54652486D01*
X131193464Y-54652486D01*
X131177231Y-54550000D01*
X132400000Y-54550000D01*
X132400000Y-53704734D01*
X132399999Y-53704731D01*
X132389784Y-53560041D01*
X132389782Y-53560031D01*
X132335686Y-53319834D01*
X132335684Y-53319827D01*
X132243755Y-53091414D01*
X132116379Y-52880710D01*
X132116372Y-52880700D01*
X131956846Y-52693153D01*
X131769299Y-52533627D01*
X131769289Y-52533620D01*
X131558585Y-52406244D01*
X131330172Y-52314315D01*
X131330165Y-52314313D01*
X131089968Y-52260217D01*
X131089958Y-52260215D01*
X130945268Y-52250000D01*
X130100000Y-52250000D01*
X130100000Y-53472768D01*
X129956247Y-53450000D01*
X129743753Y-53450000D01*
X129600000Y-53472768D01*
X129600000Y-52250000D01*
X128754731Y-52250000D01*
X128610041Y-52260215D01*
X128610031Y-52260217D01*
X128369834Y-52314313D01*
X128369827Y-52314315D01*
X128141414Y-52406244D01*
X127930710Y-52533620D01*
X127930700Y-52533627D01*
X127743153Y-52693153D01*
X127583627Y-52880700D01*
X127583620Y-52880710D01*
X127456244Y-53091414D01*
X127364315Y-53319827D01*
X127364313Y-53319834D01*
X127310217Y-53560031D01*
X127310215Y-53560041D01*
X127300000Y-53704731D01*
X110300000Y-53704731D01*
X110300000Y-52134108D01*
X141899500Y-52134108D01*
X141899500Y-52265891D01*
X141933608Y-52393187D01*
X141966554Y-52450250D01*
X141999500Y-52507314D01*
X142092686Y-52600500D01*
X142206814Y-52666392D01*
X142334108Y-52700500D01*
X142334110Y-52700500D01*
X142465890Y-52700500D01*
X142465892Y-52700500D01*
X142593186Y-52666392D01*
X142707314Y-52600500D01*
X142712319Y-52595495D01*
X142773642Y-52562010D01*
X142843334Y-52566994D01*
X142887681Y-52595495D01*
X142892686Y-52600500D01*
X143006814Y-52666392D01*
X143134108Y-52700500D01*
X143134110Y-52700500D01*
X143265890Y-52700500D01*
X143265892Y-52700500D01*
X143393186Y-52666392D01*
X143507314Y-52600500D01*
X143600500Y-52507314D01*
X143642766Y-52434108D01*
X150199500Y-52434108D01*
X150199500Y-52565892D01*
X150205426Y-52588007D01*
X150233608Y-52693187D01*
X150266554Y-52750250D01*
X150299500Y-52807314D01*
X150392686Y-52900500D01*
X150506814Y-52966392D01*
X150634108Y-53000500D01*
X150634110Y-53000500D01*
X150765890Y-53000500D01*
X150765892Y-53000500D01*
X150893186Y-52966392D01*
X151007314Y-52900500D01*
X151100500Y-52807314D01*
X151166392Y-52693186D01*
X151200500Y-52565892D01*
X151200500Y-52434108D01*
X151166392Y-52306814D01*
X151100500Y-52192686D01*
X151007314Y-52099500D01*
X150950250Y-52066554D01*
X150893187Y-52033608D01*
X150793188Y-52006814D01*
X150765892Y-51999500D01*
X150634108Y-51999500D01*
X150506812Y-52033608D01*
X150392686Y-52099500D01*
X150392683Y-52099502D01*
X150299502Y-52192683D01*
X150299500Y-52192686D01*
X150233608Y-52306812D01*
X150206966Y-52406244D01*
X150199500Y-52434108D01*
X143642766Y-52434108D01*
X143666392Y-52393186D01*
X143700500Y-52265892D01*
X143700500Y-52134108D01*
X143666392Y-52006814D01*
X143660618Y-51996814D01*
X143657563Y-51991521D01*
X143600500Y-51892686D01*
X143507314Y-51799500D01*
X143432649Y-51756392D01*
X143393187Y-51733608D01*
X143329539Y-51716554D01*
X143265892Y-51699500D01*
X143134108Y-51699500D01*
X143006812Y-51733608D01*
X142892686Y-51799500D01*
X142892683Y-51799502D01*
X142887681Y-51804505D01*
X142826358Y-51837990D01*
X142756666Y-51833006D01*
X142712319Y-51804505D01*
X142707316Y-51799502D01*
X142707314Y-51799500D01*
X142632649Y-51756392D01*
X142593187Y-51733608D01*
X142529539Y-51716554D01*
X142465892Y-51699500D01*
X142334108Y-51699500D01*
X142206812Y-51733608D01*
X142092686Y-51799500D01*
X142092683Y-51799502D01*
X141999502Y-51892683D01*
X141999500Y-51892686D01*
X141933608Y-52006812D01*
X141899500Y-52134108D01*
X110300000Y-52134108D01*
X110300000Y-47780247D01*
X126049500Y-47780247D01*
X126049500Y-49819752D01*
X126061131Y-49878229D01*
X126061132Y-49878230D01*
X126105447Y-49944552D01*
X126171769Y-49988867D01*
X126171770Y-49988868D01*
X126230247Y-50000499D01*
X126230250Y-50000500D01*
X126230252Y-50000500D01*
X127169750Y-50000500D01*
X127169751Y-50000499D01*
X127184568Y-49997552D01*
X127228229Y-49988868D01*
X127228229Y-49988867D01*
X127228231Y-49988867D01*
X127294552Y-49944552D01*
X127338867Y-49878231D01*
X127338867Y-49878229D01*
X127338868Y-49878229D01*
X127350499Y-49819752D01*
X127350500Y-49819750D01*
X127350500Y-47780249D01*
X127350499Y-47780247D01*
X139549500Y-47780247D01*
X139549500Y-49819752D01*
X139561131Y-49878229D01*
X139561132Y-49878230D01*
X139605447Y-49944552D01*
X139671769Y-49988867D01*
X139671770Y-49988868D01*
X139730247Y-50000499D01*
X139730250Y-50000500D01*
X139730252Y-50000500D01*
X140669750Y-50000500D01*
X140669751Y-50000499D01*
X140684568Y-49997552D01*
X140728229Y-49988868D01*
X140728229Y-49988867D01*
X140728231Y-49988867D01*
X140794552Y-49944552D01*
X140838867Y-49878231D01*
X140838867Y-49878229D01*
X140838868Y-49878229D01*
X140850499Y-49819752D01*
X140850500Y-49819750D01*
X140850500Y-47780249D01*
X140850499Y-47780247D01*
X140838868Y-47721770D01*
X140838867Y-47721769D01*
X140794552Y-47655447D01*
X140728230Y-47611132D01*
X140728229Y-47611131D01*
X140669752Y-47599500D01*
X140669748Y-47599500D01*
X139730252Y-47599500D01*
X139730247Y-47599500D01*
X139671770Y-47611131D01*
X139671769Y-47611132D01*
X139605447Y-47655447D01*
X139561132Y-47721769D01*
X139561131Y-47721770D01*
X139549500Y-47780247D01*
X127350499Y-47780247D01*
X127338868Y-47721770D01*
X127338867Y-47721769D01*
X127294552Y-47655447D01*
X127228230Y-47611132D01*
X127228229Y-47611131D01*
X127169752Y-47599500D01*
X127169748Y-47599500D01*
X126230252Y-47599500D01*
X126230247Y-47599500D01*
X126171770Y-47611131D01*
X126171769Y-47611132D01*
X126105447Y-47655447D01*
X126061132Y-47721769D01*
X126061131Y-47721770D01*
X126049500Y-47780247D01*
X110300000Y-47780247D01*
X110300000Y-45574108D01*
X122619500Y-45574108D01*
X122619500Y-45705891D01*
X122653608Y-45833187D01*
X122667006Y-45856392D01*
X122719500Y-45947314D01*
X122812686Y-46040500D01*
X122926814Y-46106392D01*
X123054108Y-46140500D01*
X123054110Y-46140500D01*
X123185890Y-46140500D01*
X123185892Y-46140500D01*
X123313186Y-46106392D01*
X123427314Y-46040500D01*
X123520500Y-45947314D01*
X123586392Y-45833186D01*
X123620500Y-45705892D01*
X123620500Y-45574108D01*
X123586392Y-45446814D01*
X123520500Y-45332686D01*
X123427314Y-45239500D01*
X123353380Y-45196814D01*
X123313187Y-45173608D01*
X123213188Y-45146814D01*
X123185892Y-45139500D01*
X123054108Y-45139500D01*
X122926812Y-45173608D01*
X122812686Y-45239500D01*
X122812683Y-45239502D01*
X122719502Y-45332683D01*
X122719500Y-45332686D01*
X122653608Y-45446812D01*
X122619500Y-45574108D01*
X110300000Y-45574108D01*
X110300000Y-44524108D01*
X121469500Y-44524108D01*
X121469500Y-44655891D01*
X121503608Y-44783187D01*
X121536554Y-44840250D01*
X121569500Y-44897314D01*
X121662686Y-44990500D01*
X121776814Y-45056392D01*
X121904108Y-45090500D01*
X121904110Y-45090500D01*
X122035890Y-45090500D01*
X122035892Y-45090500D01*
X122163186Y-45056392D01*
X122277314Y-44990500D01*
X122370500Y-44897314D01*
X122436392Y-44783186D01*
X122470500Y-44655892D01*
X122470500Y-44524108D01*
X122436392Y-44396814D01*
X122370500Y-44282686D01*
X122277314Y-44189500D01*
X122178910Y-44132686D01*
X122163187Y-44123608D01*
X122099539Y-44106554D01*
X122035892Y-44089500D01*
X121904108Y-44089500D01*
X121776812Y-44123608D01*
X121662686Y-44189500D01*
X121662683Y-44189502D01*
X121569502Y-44282683D01*
X121569500Y-44282686D01*
X121503608Y-44396812D01*
X121469500Y-44524108D01*
X110300000Y-44524108D01*
X110300000Y-42143713D01*
X121399500Y-42143713D01*
X121399500Y-42356286D01*
X121432753Y-42566239D01*
X121498444Y-42768414D01*
X121594951Y-42957820D01*
X121719890Y-43129786D01*
X121870213Y-43280109D01*
X122042179Y-43405048D01*
X122042181Y-43405049D01*
X122042184Y-43405051D01*
X122231588Y-43501557D01*
X122433757Y-43567246D01*
X122643713Y-43600500D01*
X122643714Y-43600500D01*
X122856286Y-43600500D01*
X122856287Y-43600500D01*
X123066243Y-43567246D01*
X123268412Y-43501557D01*
X123457816Y-43405051D01*
X123557419Y-43332686D01*
X123629786Y-43280109D01*
X123629788Y-43280106D01*
X123629792Y-43280104D01*
X123780104Y-43129792D01*
X123780106Y-43129788D01*
X123780109Y-43129786D01*
X123905048Y-42957820D01*
X123905047Y-42957820D01*
X123905051Y-42957816D01*
X124001557Y-42768412D01*
X124067246Y-42566243D01*
X124100500Y-42356287D01*
X124100500Y-42143713D01*
X124067246Y-41933757D01*
X124001557Y-41731588D01*
X123905051Y-41542184D01*
X123905049Y-41542181D01*
X123905048Y-41542179D01*
X123780109Y-41370213D01*
X123629786Y-41219890D01*
X123457820Y-41094951D01*
X123268414Y-40998444D01*
X123268413Y-40998443D01*
X123268412Y-40998443D01*
X123066243Y-40932754D01*
X123066241Y-40932753D01*
X123066240Y-40932753D01*
X122904957Y-40907208D01*
X122856287Y-40899500D01*
X122643713Y-40899500D01*
X122595042Y-40907208D01*
X122433760Y-40932753D01*
X122231585Y-40998444D01*
X122042179Y-41094951D01*
X121870213Y-41219890D01*
X121719890Y-41370213D01*
X121594951Y-41542179D01*
X121498444Y-41731585D01*
X121432753Y-41933760D01*
X121399500Y-42143713D01*
X110300000Y-42143713D01*
X110300000Y-39754770D01*
X110319685Y-39687731D01*
X110372489Y-39641976D01*
X110424000Y-39630770D01*
X166657563Y-39630770D01*
X166657579Y-39630771D01*
G37*
%TD.AperFunction*%
%TA.AperFunction,NonConductor*%
G36*
X163125747Y-61403881D02*
G01*
X163169108Y-61415500D01*
X163169110Y-61415500D01*
X163300890Y-61415500D01*
X163300892Y-61415500D01*
X163344251Y-61403882D01*
X163414097Y-61405543D01*
X163471961Y-61444705D01*
X163499466Y-61508933D01*
X163496118Y-61555748D01*
X163484500Y-61599108D01*
X163484500Y-61730892D01*
X163484500Y-61730893D01*
X163496118Y-61774250D01*
X163494455Y-61844100D01*
X163455292Y-61901962D01*
X163391064Y-61929466D01*
X163344251Y-61926118D01*
X163300892Y-61914500D01*
X163169108Y-61914500D01*
X163125749Y-61926118D01*
X163055899Y-61924455D01*
X162998037Y-61885292D01*
X162970533Y-61821063D01*
X162973882Y-61774250D01*
X162985500Y-61730892D01*
X162985500Y-61599108D01*
X162973882Y-61555748D01*
X162975544Y-61485901D01*
X163014705Y-61428038D01*
X163078934Y-61400533D01*
X163125747Y-61403881D01*
G37*
%TD.AperFunction*%
%TA.AperFunction,NonConductor*%
G36*
X161625747Y-61403881D02*
G01*
X161669108Y-61415500D01*
X161669110Y-61415500D01*
X161800890Y-61415500D01*
X161800892Y-61415500D01*
X161844251Y-61403882D01*
X161914097Y-61405543D01*
X161971961Y-61444705D01*
X161999466Y-61508933D01*
X161996118Y-61555748D01*
X161984500Y-61599108D01*
X161984500Y-61730892D01*
X161984500Y-61730893D01*
X161996118Y-61774250D01*
X161994455Y-61844100D01*
X161955292Y-61901962D01*
X161891064Y-61929466D01*
X161844251Y-61926118D01*
X161800892Y-61914500D01*
X161669108Y-61914500D01*
X161625749Y-61926118D01*
X161555899Y-61924455D01*
X161498037Y-61885292D01*
X161470533Y-61821063D01*
X161473882Y-61774250D01*
X161485500Y-61730892D01*
X161485500Y-61599108D01*
X161473882Y-61555748D01*
X161475544Y-61485901D01*
X161514705Y-61428038D01*
X161578934Y-61400533D01*
X161625747Y-61403881D01*
G37*
%TD.AperFunction*%
%TA.AperFunction,NonConductor*%
G36*
X162375747Y-62153881D02*
G01*
X162419108Y-62165500D01*
X162419110Y-62165500D01*
X162550890Y-62165500D01*
X162550892Y-62165500D01*
X162594251Y-62153882D01*
X162600317Y-62154026D01*
X162605779Y-62151373D01*
X162634839Y-62154847D01*
X162664097Y-62155543D01*
X162669125Y-62158946D01*
X162675155Y-62159667D01*
X162697725Y-62178302D01*
X162721961Y-62194705D01*
X162724351Y-62200286D01*
X162729033Y-62204152D01*
X162737944Y-62232028D01*
X162749466Y-62258933D01*
X162748932Y-62266399D01*
X162750308Y-62270704D01*
X162746118Y-62305748D01*
X162734500Y-62349108D01*
X162734500Y-62480892D01*
X162737074Y-62490500D01*
X162746118Y-62524250D01*
X162744455Y-62594100D01*
X162705292Y-62651962D01*
X162641064Y-62679466D01*
X162594251Y-62676118D01*
X162550892Y-62664500D01*
X162419108Y-62664500D01*
X162375749Y-62676118D01*
X162305899Y-62674455D01*
X162248037Y-62635292D01*
X162220533Y-62571063D01*
X162223882Y-62524250D01*
X162235500Y-62480892D01*
X162235500Y-62349108D01*
X162223882Y-62305748D01*
X162225544Y-62235901D01*
X162264705Y-62178038D01*
X162328934Y-62150533D01*
X162375747Y-62153881D01*
G37*
%TD.AperFunction*%
%TA.AperFunction,NonConductor*%
G36*
X161597013Y-62901826D02*
G01*
X161625747Y-62903881D01*
X161669108Y-62915500D01*
X161669110Y-62915500D01*
X161800890Y-62915500D01*
X161800892Y-62915500D01*
X161844251Y-62903882D01*
X161914097Y-62905543D01*
X161971961Y-62944705D01*
X161999466Y-63008933D01*
X161996118Y-63055749D01*
X161984500Y-63099108D01*
X161984500Y-63230893D01*
X161991295Y-63256252D01*
X161989632Y-63326101D01*
X161950469Y-63383964D01*
X161886240Y-63411467D01*
X161817338Y-63399880D01*
X161783839Y-63376025D01*
X161707316Y-63299502D01*
X161707314Y-63299500D01*
X161641421Y-63261456D01*
X161593185Y-63233607D01*
X161593181Y-63233606D01*
X161577401Y-63229377D01*
X161517742Y-63193010D01*
X161487555Y-63132084D01*
X161485500Y-63120936D01*
X161485500Y-63099108D01*
X161472603Y-63050976D01*
X161471711Y-63046136D01*
X161474825Y-63016093D01*
X161475544Y-62985901D01*
X161478392Y-62981692D01*
X161478916Y-62976639D01*
X161497774Y-62953054D01*
X161514705Y-62928038D01*
X161519376Y-62926037D01*
X161522550Y-62922069D01*
X161551167Y-62912423D01*
X161578934Y-62900533D01*
X161585130Y-62900976D01*
X161588760Y-62899753D01*
X161597013Y-62901826D01*
G37*
%TD.AperFunction*%
M02*
