%TF.GenerationSoftware,KiCad,Pcbnew,10.0.4*%
%TF.CreationDate,2026-07-08T21:49:28+03:00*%
%TF.ProjectId,motor_testbench_v1_0,6d6f746f-725f-4746-9573-7462656e6368,rev?*%
%TF.SameCoordinates,Original*%
%TF.FileFunction,Paste,Bot*%
%TF.FilePolarity,Positive*%
%FSLAX46Y46*%
G04 Gerber Fmt 4.6, Leading zero omitted, Abs format (unit mm)*
G04 Created by KiCad (PCBNEW 10.0.4) date 2026-07-08 21:49:28*
%MOMM*%
%LPD*%
G01*
G04 APERTURE LIST*
G04 Aperture macros list*
%AMRoundRect*
0 Rectangle with rounded corners*
0 $1 Rounding radius*
0 $2 $3 $4 $5 $6 $7 $8 $9 X,Y pos of 4 corners*
0 Add a 4 corners polygon primitive as box body*
4,1,4,$2,$3,$4,$5,$6,$7,$8,$9,$2,$3,0*
0 Add four circle primitives for the rounded corners*
1,1,$1+$1,$2,$3*
1,1,$1+$1,$4,$5*
1,1,$1+$1,$6,$7*
1,1,$1+$1,$8,$9*
0 Add four rect primitives between the rounded corners*
20,1,$1+$1,$2,$3,$4,$5,0*
20,1,$1+$1,$4,$5,$6,$7,0*
20,1,$1+$1,$6,$7,$8,$9,0*
20,1,$1+$1,$8,$9,$2,$3,0*%
G04 Aperture macros list end*
%ADD10RoundRect,0.237500X0.237500X-0.300000X0.237500X0.300000X-0.237500X0.300000X-0.237500X-0.300000X0*%
%ADD11RoundRect,0.237500X-0.237500X0.300000X-0.237500X-0.300000X0.237500X-0.300000X0.237500X0.300000X0*%
%ADD12RoundRect,0.150000X-0.512500X-0.150000X0.512500X-0.150000X0.512500X0.150000X-0.512500X0.150000X0*%
%ADD13R,1.528000X0.650000*%
%ADD14RoundRect,0.250000X-0.650000X1.000000X-0.650000X-1.000000X0.650000X-1.000000X0.650000X1.000000X0*%
%ADD15RoundRect,0.237500X0.237500X-0.250000X0.237500X0.250000X-0.237500X0.250000X-0.237500X-0.250000X0*%
%ADD16RoundRect,0.218750X-0.256250X0.218750X-0.256250X-0.218750X0.256250X-0.218750X0.256250X0.218750X0*%
%ADD17RoundRect,0.250000X-1.400000X-1.000000X1.400000X-1.000000X1.400000X1.000000X-1.400000X1.000000X0*%
%ADD18RoundRect,0.250000X0.650000X-0.412500X0.650000X0.412500X-0.650000X0.412500X-0.650000X-0.412500X0*%
%ADD19RoundRect,0.237500X-0.300000X-0.237500X0.300000X-0.237500X0.300000X0.237500X-0.300000X0.237500X0*%
%ADD20RoundRect,0.237500X0.250000X0.237500X-0.250000X0.237500X-0.250000X-0.237500X0.250000X-0.237500X0*%
%ADD21RoundRect,0.237500X-0.250000X-0.237500X0.250000X-0.237500X0.250000X0.237500X-0.250000X0.237500X0*%
%ADD22RoundRect,0.237500X0.300000X0.237500X-0.300000X0.237500X-0.300000X-0.237500X0.300000X-0.237500X0*%
%ADD23RoundRect,0.150000X-0.150000X0.512500X-0.150000X-0.512500X0.150000X-0.512500X0.150000X0.512500X0*%
%ADD24RoundRect,0.237500X-0.237500X0.250000X-0.237500X-0.250000X0.237500X-0.250000X0.237500X0.250000X0*%
%ADD25RoundRect,0.250000X-0.412500X-0.650000X0.412500X-0.650000X0.412500X0.650000X-0.412500X0.650000X0*%
%ADD26RoundRect,0.250000X-1.000000X1.400000X-1.000000X-1.400000X1.000000X-1.400000X1.000000X1.400000X0*%
%ADD27RoundRect,0.250000X0.412500X0.650000X-0.412500X0.650000X-0.412500X-0.650000X0.412500X-0.650000X0*%
G04 APERTURE END LIST*
D10*
%TO.C,C72*%
X152100000Y-53662500D03*
X152100000Y-51937500D03*
%TD*%
D11*
%TO.C,C78*%
X158018750Y-51712500D03*
X158018750Y-49987500D03*
%TD*%
D12*
%TO.C,U12*%
X156125000Y-51800000D03*
X156125000Y-49900000D03*
X153850000Y-49900000D03*
X153850000Y-50850000D03*
X153850000Y-51800000D03*
%TD*%
D13*
%TO.C,IC3*%
X124086000Y-63305000D03*
X124086000Y-62035000D03*
X124086000Y-60765000D03*
X124086000Y-59495000D03*
X118664000Y-59495000D03*
X118664000Y-60765000D03*
X118664000Y-62035000D03*
X118664000Y-63305000D03*
%TD*%
D14*
%TO.C,D6*%
X156700000Y-55150000D03*
X156700000Y-59150000D03*
%TD*%
D11*
%TO.C,C73*%
X154900000Y-46537500D03*
X154900000Y-48262500D03*
%TD*%
D15*
%TO.C,R48*%
X137900000Y-111212500D03*
X137900000Y-109387500D03*
%TD*%
D16*
%TO.C,D7*%
X124200000Y-66512500D03*
X124200000Y-68087500D03*
%TD*%
D17*
%TO.C,D3*%
X80500000Y-65750000D03*
X80500000Y-58950000D03*
%TD*%
%TO.C,D4*%
X80325000Y-94250000D03*
X80325000Y-87450000D03*
%TD*%
D18*
%TO.C,C79*%
X143200000Y-70012500D03*
X143200000Y-66887500D03*
%TD*%
D19*
%TO.C,C66*%
X122462500Y-65000000D03*
X124187500Y-65000000D03*
%TD*%
D20*
%TO.C,R40*%
X134600000Y-71900000D03*
X132775000Y-71900000D03*
%TD*%
D21*
%TO.C,R35*%
X146837500Y-71750000D03*
X148662500Y-71750000D03*
%TD*%
D11*
%TO.C,C116*%
X136100000Y-109437500D03*
X136100000Y-111162500D03*
%TD*%
%TO.C,C3*%
X145475000Y-56412500D03*
X145475000Y-58137500D03*
%TD*%
D21*
%TO.C,R3*%
X140137500Y-56375000D03*
X141962500Y-56375000D03*
%TD*%
D19*
%TO.C,C92*%
X143275000Y-71750000D03*
X145000000Y-71750000D03*
%TD*%
%TO.C,C114*%
X129825000Y-79900000D03*
X131550000Y-79900000D03*
%TD*%
D10*
%TO.C,C108*%
X134381250Y-94112500D03*
X134381250Y-92387500D03*
%TD*%
D11*
%TO.C,C57*%
X136300000Y-59537500D03*
X136300000Y-61262500D03*
%TD*%
%TO.C,C48*%
X143200000Y-61775000D03*
X143200000Y-63500000D03*
%TD*%
%TO.C,C88*%
X128750000Y-62218750D03*
X128750000Y-63943750D03*
%TD*%
%TO.C,C98*%
X125800000Y-66437500D03*
X125800000Y-68162500D03*
%TD*%
D16*
%TO.C,D8*%
X141100000Y-67512500D03*
X141100000Y-69087500D03*
%TD*%
D10*
%TO.C,C86*%
X136050000Y-69100000D03*
X136050000Y-67375000D03*
%TD*%
%TO.C,C119*%
X143300000Y-111162500D03*
X143300000Y-109437500D03*
%TD*%
%TO.C,C87*%
X148681250Y-69162500D03*
X148681250Y-67437500D03*
%TD*%
D22*
%TO.C,C94*%
X139312500Y-72118750D03*
X137587500Y-72118750D03*
%TD*%
D11*
%TO.C,C96*%
X127400000Y-66437500D03*
X127400000Y-68162500D03*
%TD*%
D23*
%TO.C,U14*%
X145250000Y-67262500D03*
X146200000Y-67262500D03*
X147150000Y-67262500D03*
X147150000Y-69537500D03*
X145250000Y-69537500D03*
%TD*%
D19*
%TO.C,C84*%
X116987500Y-57925000D03*
X118712500Y-57925000D03*
%TD*%
D23*
%TO.C,U16*%
X129025000Y-65762500D03*
X129975000Y-65762500D03*
X130925000Y-65762500D03*
X130925000Y-68037500D03*
X129025000Y-68037500D03*
%TD*%
%TO.C,U15*%
X137600000Y-67312500D03*
X138550000Y-67312500D03*
X139500000Y-67312500D03*
X139500000Y-69587500D03*
X137600000Y-69587500D03*
%TD*%
D10*
%TO.C,C103*%
X129343750Y-94075000D03*
X129343750Y-92350000D03*
%TD*%
D24*
%TO.C,R49*%
X141500000Y-109387500D03*
X141500000Y-111212500D03*
%TD*%
D19*
%TO.C,C110*%
X130981250Y-96675000D03*
X132706250Y-96675000D03*
%TD*%
D11*
%TO.C,C111*%
X137400000Y-94337500D03*
X137400000Y-96062500D03*
%TD*%
D25*
%TO.C,C100*%
X115825000Y-85450000D03*
X118950000Y-85450000D03*
%TD*%
D10*
%TO.C,C90*%
X132500000Y-67537500D03*
X132500000Y-65812500D03*
%TD*%
D24*
%TO.C,R4*%
X143725000Y-56362500D03*
X143725000Y-58187500D03*
%TD*%
D10*
%TO.C,C63*%
X126175000Y-61200000D03*
X126175000Y-59475000D03*
%TD*%
D20*
%TO.C,R26*%
X139812500Y-59800000D03*
X137987500Y-59800000D03*
%TD*%
D11*
%TO.C,C97*%
X136350000Y-82337500D03*
X136350000Y-84062500D03*
%TD*%
D23*
%TO.C,U18*%
X130893750Y-92475000D03*
X131843750Y-92475000D03*
X132793750Y-92475000D03*
X132793750Y-94750000D03*
X130893750Y-94750000D03*
%TD*%
D11*
%TO.C,C56*%
X134000000Y-59537500D03*
X134000000Y-61262500D03*
%TD*%
D26*
%TO.C,D5*%
X130000000Y-48600000D03*
X136800000Y-48600000D03*
%TD*%
D15*
%TO.C,TH1*%
X139700000Y-111212500D03*
X139700000Y-109387500D03*
%TD*%
D19*
%TO.C,C115*%
X109537500Y-81000000D03*
X111262500Y-81000000D03*
%TD*%
D27*
%TO.C,C80*%
X151200000Y-65000000D03*
X148075000Y-65000000D03*
%TD*%
D23*
%TO.C,U7*%
X139800000Y-61662500D03*
X140750000Y-61662500D03*
X141700000Y-61662500D03*
X141700000Y-63937500D03*
X140750000Y-63937500D03*
X139800000Y-63937500D03*
%TD*%
D22*
%TO.C,C82*%
X120187500Y-65000000D03*
X118462500Y-65000000D03*
%TD*%
D19*
%TO.C,C51*%
X136325000Y-63500000D03*
X138050000Y-63500000D03*
%TD*%
D25*
%TO.C,C101*%
X115825000Y-79800000D03*
X118950000Y-79800000D03*
%TD*%
M02*
