%TF.GenerationSoftware,KiCad,Pcbnew,10.0.4*%
%TF.CreationDate,2026-07-08T21:49:28+03:00*%
%TF.ProjectId,motor_testbench_v1_0,6d6f746f-725f-4746-9573-7462656e6368,rev?*%
%TF.SameCoordinates,Original*%
%TF.FileFunction,Paste,Top*%
%TF.FilePolarity,Positive*%
%FSLAX46Y46*%
G04 Gerber Fmt 4.6, Leading zero omitted, Abs format (unit mm)*
G04 Created by KiCad (PCBNEW 10.0.4) date 2026-07-08 21:49:28*
%MOMM*%
%LPD*%
G01*
G04 APERTURE LIST*
G04 Aperture macros list*
%AMRoundRect*
0 Rectangle with rounded corners*
0 $1 Rounding radius*
0 $2 $3 $4 $5 $6 $7 $8 $9 X,Y pos of 4 corners*
0 Add a 4 corners polygon primitive as box body*
4,1,4,$2,$3,$4,$5,$6,$7,$8,$9,$2,$3,0*
0 Add four circle primitives for the rounded corners*
1,1,$1+$1,$2,$3*
1,1,$1+$1,$4,$5*
1,1,$1+$1,$6,$7*
1,1,$1+$1,$8,$9*
0 Add four rect primitives between the rounded corners*
20,1,$1+$1,$2,$3,$4,$5,0*
20,1,$1+$1,$4,$5,$6,$7,0*
20,1,$1+$1,$6,$7,$8,$9,0*
20,1,$1+$1,$8,$9,$2,$3,0*%
G04 Aperture macros list end*
%ADD10R,0.900000X1.500000*%
%ADD11R,1.500000X0.900000*%
%ADD12R,1.000000X1.000000*%
%ADD13RoundRect,0.250000X-0.550000X1.500000X-0.550000X-1.500000X0.550000X-1.500000X0.550000X1.500000X0*%
%ADD14R,0.850000X0.600000*%
%ADD15R,1.850000X0.650000*%
%ADD16R,0.550000X0.438000*%
%ADD17R,0.725000X0.300000*%
%ADD18R,0.725000X0.575000*%
%ADD19R,1.475000X0.450000*%
%ADD20R,1.590000X0.640000*%
%ADD21R,1.590000X4.440000*%
%ADD22RoundRect,0.237500X-0.300000X-0.237500X0.300000X-0.237500X0.300000X0.237500X-0.300000X0.237500X0*%
%ADD23RoundRect,0.237500X-0.237500X0.300000X-0.237500X-0.300000X0.237500X-0.300000X0.237500X0.300000X0*%
%ADD24RoundRect,0.237500X0.237500X-0.300000X0.237500X0.300000X-0.237500X0.300000X-0.237500X-0.300000X0*%
%ADD25RoundRect,0.150000X-0.150000X0.512500X-0.150000X-0.512500X0.150000X-0.512500X0.150000X0.512500X0*%
%ADD26RoundRect,0.237500X0.237500X-0.250000X0.237500X0.250000X-0.237500X0.250000X-0.237500X-0.250000X0*%
%ADD27RoundRect,0.237500X0.250000X0.237500X-0.250000X0.237500X-0.250000X-0.237500X0.250000X-0.237500X0*%
%ADD28RoundRect,0.237500X-0.250000X-0.237500X0.250000X-0.237500X0.250000X0.237500X-0.250000X0.237500X0*%
%ADD29RoundRect,0.237500X0.300000X0.237500X-0.300000X0.237500X-0.300000X-0.237500X0.300000X-0.237500X0*%
%ADD30RoundRect,0.250000X-0.275000X-0.750000X0.275000X-0.750000X0.275000X0.750000X-0.275000X0.750000X0*%
%ADD31RoundRect,0.050000X-0.100000X0.285000X-0.100000X-0.285000X0.100000X-0.285000X0.100000X0.285000X0*%
%ADD32RoundRect,0.250000X-0.412500X-0.650000X0.412500X-0.650000X0.412500X0.650000X-0.412500X0.650000X0*%
%ADD33RoundRect,0.237500X-0.237500X0.250000X-0.237500X-0.250000X0.237500X-0.250000X0.237500X0.250000X0*%
%ADD34RoundRect,0.150000X0.825000X0.150000X-0.825000X0.150000X-0.825000X-0.150000X0.825000X-0.150000X0*%
%ADD35RoundRect,0.087500X-0.725000X-0.087500X0.725000X-0.087500X0.725000X0.087500X-0.725000X0.087500X0*%
%ADD36RoundRect,0.250000X-0.650000X0.412500X-0.650000X-0.412500X0.650000X-0.412500X0.650000X0.412500X0*%
%ADD37RoundRect,0.250001X-0.624999X0.462499X-0.624999X-0.462499X0.624999X-0.462499X0.624999X0.462499X0*%
%ADD38RoundRect,0.150000X0.512500X0.150000X-0.512500X0.150000X-0.512500X-0.150000X0.512500X-0.150000X0*%
%ADD39RoundRect,0.250000X0.650000X-0.412500X0.650000X0.412500X-0.650000X0.412500X-0.650000X-0.412500X0*%
G04 APERTURE END LIST*
D10*
%TO.C,U1*%
X167835000Y-55025000D03*
X166565000Y-55025000D03*
X165295000Y-55025000D03*
X164025000Y-55025000D03*
X162755000Y-55025000D03*
X161485000Y-55025000D03*
X160215000Y-55025000D03*
X158945000Y-55025000D03*
X157675000Y-55025000D03*
X156405000Y-55025000D03*
X155135000Y-55025000D03*
X153865000Y-55025000D03*
X152595000Y-55025000D03*
X151325000Y-55025000D03*
D11*
X150075000Y-56790000D03*
X150075000Y-58060000D03*
X150075000Y-59330000D03*
X150075000Y-60600000D03*
X150075000Y-61870000D03*
X150075000Y-63140000D03*
X150075000Y-64410000D03*
X150075000Y-65680000D03*
X150075000Y-66950000D03*
X150075000Y-68220000D03*
X150075000Y-69490000D03*
X150075000Y-70760000D03*
D10*
X151325000Y-72525000D03*
X152595000Y-72525000D03*
X153865000Y-72525000D03*
X155135000Y-72525000D03*
X156405000Y-72525000D03*
X157675000Y-72525000D03*
X158945000Y-72525000D03*
X160215000Y-72525000D03*
X161485000Y-72525000D03*
X162755000Y-72525000D03*
X164025000Y-72525000D03*
X165295000Y-72525000D03*
X166565000Y-72525000D03*
X167835000Y-72525000D03*
D12*
X163985000Y-60915000D03*
X162485000Y-60915000D03*
X160985000Y-60915000D03*
X163985000Y-62415000D03*
X162485000Y-62415000D03*
X160985000Y-62415000D03*
X163985000Y-63915000D03*
X162485000Y-63915000D03*
X160985000Y-63915000D03*
%TD*%
D13*
%TO.C,C53*%
X154940000Y-42340000D03*
X154940000Y-47940000D03*
%TD*%
D14*
%TO.C,IC1*%
X165100000Y-59850000D03*
X162600000Y-60800000D03*
X162600000Y-58900000D03*
%TD*%
D15*
%TO.C,IC2*%
X117575000Y-58295000D03*
X117575000Y-59565000D03*
X117575000Y-60835000D03*
X117575000Y-62105000D03*
X106925000Y-62105000D03*
X106925000Y-60835000D03*
X106925000Y-59565000D03*
X106925000Y-58295000D03*
%TD*%
D16*
%TO.C,IC4*%
X109557000Y-44852000D03*
X109557000Y-46190000D03*
X113607000Y-46190000D03*
X113607000Y-44853000D03*
D17*
X113694000Y-44483000D03*
X113694000Y-45222000D03*
X113694000Y-45821000D03*
X113694000Y-46559000D03*
D18*
X113694000Y-47296000D03*
X109470000Y-47296000D03*
D17*
X109470000Y-46559000D03*
X109470000Y-45821000D03*
X109470000Y-45221000D03*
X109470000Y-44483000D03*
D18*
X109470000Y-43746000D03*
X113694000Y-43746000D03*
%TD*%
D19*
%TO.C,IC5*%
X143438000Y-99875000D03*
X143438000Y-100525000D03*
X143438000Y-101175000D03*
X143438000Y-101825000D03*
X143438000Y-102475000D03*
X143438000Y-103125000D03*
X143438000Y-103775000D03*
X143438000Y-104425000D03*
X143438000Y-105075000D03*
X143438000Y-105725000D03*
X137562000Y-105725000D03*
X137562000Y-105075000D03*
X137562000Y-104425000D03*
X137562000Y-103775000D03*
X137562000Y-103125000D03*
X137562000Y-102475000D03*
X137562000Y-101825000D03*
X137562000Y-101175000D03*
X137562000Y-100525000D03*
X137562000Y-99875000D03*
%TD*%
D20*
%TO.C,U4*%
X106845000Y-69055000D03*
X106845000Y-70325000D03*
X106845000Y-71595000D03*
X106845000Y-72865000D03*
X106845000Y-74135000D03*
X106845000Y-75405000D03*
X106845000Y-76675000D03*
X106845000Y-77945000D03*
D21*
X95055000Y-76050000D03*
X95055000Y-70950000D03*
%TD*%
D22*
%TO.C,C35*%
X138112500Y-73500000D03*
X139837500Y-73500000D03*
%TD*%
D23*
%TO.C,C39*%
X136400000Y-82387500D03*
X136400000Y-84112500D03*
%TD*%
D24*
%TO.C,C105*%
X121650000Y-94100000D03*
X121650000Y-92375000D03*
%TD*%
D25*
%TO.C,U19*%
X104970000Y-48315000D03*
X104020000Y-48315000D03*
X103070000Y-48315000D03*
X103070000Y-50590000D03*
X104970000Y-50590000D03*
%TD*%
D26*
%TO.C,R37*%
X141500000Y-67875000D03*
X141500000Y-66050000D03*
%TD*%
D27*
%TO.C,R42*%
X102520000Y-46090000D03*
X100695000Y-46090000D03*
%TD*%
D28*
%TO.C,R55*%
X163487500Y-68800000D03*
X165312500Y-68800000D03*
%TD*%
D22*
%TO.C,C77*%
X147837500Y-65850000D03*
X149562500Y-65850000D03*
%TD*%
%TO.C,C85*%
X120257500Y-45640000D03*
X121982500Y-45640000D03*
%TD*%
D23*
%TO.C,C81*%
X135600000Y-69700000D03*
X135600000Y-71425000D03*
%TD*%
D28*
%TO.C,R47*%
X128487500Y-104725000D03*
X130312500Y-104725000D03*
%TD*%
D29*
%TO.C,C29*%
X134500000Y-85525000D03*
X132775000Y-85525000D03*
%TD*%
D30*
%TO.C,SWd1*%
X154175000Y-74800000D03*
X158625000Y-74800000D03*
%TD*%
D28*
%TO.C,R22*%
X145275000Y-86475000D03*
X147100000Y-86475000D03*
%TD*%
D25*
%TO.C,U11*%
X147650000Y-60243750D03*
X146700000Y-60243750D03*
X145750000Y-60243750D03*
X145750000Y-62518750D03*
X147650000Y-62518750D03*
%TD*%
D31*
%TO.C,U8*%
X146682500Y-46443750D03*
X146182500Y-46443750D03*
X145682500Y-46443750D03*
X145182500Y-46443750D03*
X145182500Y-47923750D03*
X145682500Y-47923750D03*
X146182500Y-47923750D03*
X146682500Y-47923750D03*
%TD*%
D32*
%TO.C,C59*%
X143325000Y-55231250D03*
X146450000Y-55231250D03*
%TD*%
D33*
%TO.C,R9*%
X102120000Y-59477500D03*
X102120000Y-61302500D03*
%TD*%
D28*
%TO.C,R14*%
X119060000Y-80445000D03*
X120885000Y-80445000D03*
%TD*%
%TO.C,R56*%
X163487500Y-71300000D03*
X165312500Y-71300000D03*
%TD*%
D23*
%TO.C,C25*%
X126650000Y-82387500D03*
X126650000Y-84112500D03*
%TD*%
D34*
%TO.C,U6*%
X124475000Y-76855000D03*
X124475000Y-75585000D03*
X124475000Y-74315000D03*
X124475000Y-73045000D03*
X119525000Y-73045000D03*
X119525000Y-74315000D03*
X119525000Y-75585000D03*
X119525000Y-76855000D03*
%TD*%
D22*
%TO.C,C15*%
X105557500Y-54240000D03*
X107282500Y-54240000D03*
%TD*%
D24*
%TO.C,C52*%
X159490000Y-48223750D03*
X159490000Y-46498750D03*
%TD*%
D28*
%TO.C,R12*%
X122862500Y-67375000D03*
X124687500Y-67375000D03*
%TD*%
D22*
%TO.C,C47*%
X161775000Y-42850000D03*
X163500000Y-42850000D03*
%TD*%
D29*
%TO.C,C32*%
X134525000Y-78250000D03*
X132800000Y-78250000D03*
%TD*%
D28*
%TO.C,R34*%
X139687500Y-62262500D03*
X141512500Y-62262500D03*
%TD*%
D23*
%TO.C,C83*%
X139800000Y-69737500D03*
X139800000Y-71462500D03*
%TD*%
D29*
%TO.C,C70*%
X141462500Y-64162500D03*
X139737500Y-64162500D03*
%TD*%
D22*
%TO.C,C26*%
X115517500Y-85790000D03*
X117242500Y-85790000D03*
%TD*%
D28*
%TO.C,R15*%
X115460000Y-84045000D03*
X117285000Y-84045000D03*
%TD*%
D22*
%TO.C,C64*%
X132337500Y-62262500D03*
X134062500Y-62262500D03*
%TD*%
D28*
%TO.C,R45*%
X62987500Y-63240000D03*
X64812500Y-63240000D03*
%TD*%
D22*
%TO.C,C117*%
X128537500Y-102975000D03*
X130262500Y-102975000D03*
%TD*%
D35*
%TO.C,MCP1*%
X138387500Y-84475000D03*
X138387500Y-84975000D03*
X138387500Y-85475000D03*
X138387500Y-85975000D03*
X138387500Y-86475000D03*
X142612500Y-86475000D03*
X142612500Y-85975000D03*
X142612500Y-85475000D03*
X142612500Y-84975000D03*
X142612500Y-84475000D03*
%TD*%
D26*
%TO.C,R38*%
X133850000Y-71475000D03*
X133850000Y-69650000D03*
%TD*%
D23*
%TO.C,C13*%
X103920000Y-59527500D03*
X103920000Y-61252500D03*
%TD*%
D24*
%TO.C,C61*%
X129950000Y-71425000D03*
X129950000Y-69700000D03*
%TD*%
D22*
%TO.C,C14*%
X105557500Y-55990000D03*
X107282500Y-55990000D03*
%TD*%
D28*
%TO.C,R25*%
X164087500Y-46600000D03*
X165912500Y-46600000D03*
%TD*%
D26*
%TO.C,R29*%
X164300000Y-51856250D03*
X164300000Y-50031250D03*
%TD*%
D23*
%TO.C,C93*%
X117825000Y-44325000D03*
X117825000Y-46050000D03*
%TD*%
D27*
%TO.C,R5*%
X165312500Y-91800000D03*
X163487500Y-91800000D03*
%TD*%
D24*
%TO.C,C2*%
X165950000Y-53550000D03*
X165950000Y-51825000D03*
%TD*%
D27*
%TO.C,R6*%
X165300000Y-94200000D03*
X163475000Y-94200000D03*
%TD*%
D29*
%TO.C,C46*%
X146050000Y-44369790D03*
X144325000Y-44369790D03*
%TD*%
D31*
%TO.C,U9*%
X162420000Y-46970000D03*
X161920000Y-46970000D03*
X161420000Y-46970000D03*
X160920000Y-46970000D03*
X160920000Y-48450000D03*
X161420000Y-48450000D03*
X161920000Y-48450000D03*
X162420000Y-48450000D03*
%TD*%
D22*
%TO.C,C49*%
X147875000Y-44381250D03*
X149600000Y-44381250D03*
%TD*%
D26*
%TO.C,TH3*%
X106100000Y-82712500D03*
X106100000Y-80887500D03*
%TD*%
D24*
%TO.C,C120*%
X130150000Y-82862500D03*
X130150000Y-81137500D03*
%TD*%
D34*
%TO.C,U5*%
X124447500Y-85950000D03*
X124447500Y-84680000D03*
X124447500Y-83410000D03*
X124447500Y-82140000D03*
X119497500Y-82140000D03*
X119497500Y-83410000D03*
X119497500Y-84680000D03*
X119497500Y-85950000D03*
%TD*%
D29*
%TO.C,C121*%
X139162500Y-98325000D03*
X137437500Y-98325000D03*
%TD*%
%TO.C,C42*%
X143362500Y-75200000D03*
X141637500Y-75200000D03*
%TD*%
D26*
%TO.C,R52*%
X107800000Y-82712500D03*
X107800000Y-80887500D03*
%TD*%
D29*
%TO.C,C126*%
X145100000Y-96500000D03*
X143375000Y-96500000D03*
%TD*%
D23*
%TO.C,C74*%
X130300000Y-66075000D03*
X130300000Y-67800000D03*
%TD*%
D29*
%TO.C,C44*%
X117262500Y-78300000D03*
X115537500Y-78300000D03*
%TD*%
%TO.C,C65*%
X137862500Y-62262500D03*
X136137500Y-62262500D03*
%TD*%
D23*
%TO.C,C75*%
X139700000Y-66100000D03*
X139700000Y-67825000D03*
%TD*%
D33*
%TO.C,R41*%
X116025000Y-47875000D03*
X116025000Y-49700000D03*
%TD*%
D32*
%TO.C,C62*%
X143325000Y-57831250D03*
X146450000Y-57831250D03*
%TD*%
D24*
%TO.C,C89*%
X117825000Y-49650000D03*
X117825000Y-47925000D03*
%TD*%
D22*
%TO.C,C112*%
X103795000Y-52452500D03*
X105520000Y-52452500D03*
%TD*%
%TO.C,C45*%
X161775000Y-44600000D03*
X163500000Y-44600000D03*
%TD*%
D36*
%TO.C,C107*%
X104720000Y-42965000D03*
X104720000Y-46090000D03*
%TD*%
D24*
%TO.C,C20*%
X121400000Y-58262500D03*
X121400000Y-56537500D03*
%TD*%
D33*
%TO.C,R8*%
X102120000Y-55890000D03*
X102120000Y-57715000D03*
%TD*%
D22*
%TO.C,C41*%
X143375000Y-82875000D03*
X145100000Y-82875000D03*
%TD*%
D26*
%TO.C,R50*%
X128500000Y-82912500D03*
X128500000Y-81087500D03*
%TD*%
D22*
%TO.C,C33*%
X138125000Y-75185300D03*
X139850000Y-75185300D03*
%TD*%
%TO.C,C76*%
X147837500Y-64250000D03*
X149562500Y-64250000D03*
%TD*%
D23*
%TO.C,C69*%
X150650000Y-49612500D03*
X150650000Y-51337500D03*
%TD*%
%TO.C,C123*%
X135125000Y-99475000D03*
X135125000Y-101200000D03*
%TD*%
D37*
%TO.C,Lw1*%
X144837500Y-49793750D03*
X144837500Y-52768750D03*
%TD*%
D28*
%TO.C,R18*%
X129100000Y-87625000D03*
X130925000Y-87625000D03*
%TD*%
D29*
%TO.C,C95*%
X148650000Y-72300000D03*
X146925000Y-72300000D03*
%TD*%
%TO.C,C38*%
X119012500Y-87490000D03*
X117287500Y-87490000D03*
%TD*%
D22*
%TO.C,C99*%
X110707500Y-41590000D03*
X112432500Y-41590000D03*
%TD*%
D28*
%TO.C,R60*%
X163487500Y-76200000D03*
X165312500Y-76200000D03*
%TD*%
D29*
%TO.C,C68*%
X130462500Y-60450000D03*
X128737500Y-60450000D03*
%TD*%
%TO.C,C43*%
X117300000Y-76600000D03*
X115575000Y-76600000D03*
%TD*%
D24*
%TO.C,C60*%
X131650000Y-71425000D03*
X131650000Y-69700000D03*
%TD*%
D22*
%TO.C,C34*%
X138125000Y-81150000D03*
X139850000Y-81150000D03*
%TD*%
D28*
%TO.C,R57*%
X146987500Y-102550000D03*
X148812500Y-102550000D03*
%TD*%
D26*
%TO.C,R39*%
X137800000Y-71475000D03*
X137800000Y-69650000D03*
%TD*%
D23*
%TO.C,C71*%
X149500000Y-60875000D03*
X149500000Y-62600000D03*
%TD*%
D24*
%TO.C,C50*%
X143537500Y-47743750D03*
X143537500Y-46018750D03*
%TD*%
D23*
%TO.C,C91*%
X116025000Y-44325000D03*
X116025000Y-46050000D03*
%TD*%
D33*
%TO.C,R51*%
X133400000Y-81087500D03*
X133400000Y-82912500D03*
%TD*%
D23*
%TO.C,C40*%
X136400000Y-74437500D03*
X136400000Y-76162500D03*
%TD*%
D24*
%TO.C,C17*%
X111068750Y-72362500D03*
X111068750Y-70637500D03*
%TD*%
D33*
%TO.C,R16*%
X124700000Y-69487500D03*
X124700000Y-71312500D03*
%TD*%
D28*
%TO.C,R59*%
X163487500Y-63700000D03*
X165312500Y-63700000D03*
%TD*%
D38*
%TO.C,U13*%
X122007500Y-49090000D03*
X122007500Y-48140000D03*
X122007500Y-47190000D03*
X119732500Y-47190000D03*
X119732500Y-49090000D03*
%TD*%
D33*
%TO.C,R11*%
X113730000Y-80487500D03*
X113730000Y-82312500D03*
%TD*%
D37*
%TO.C,L1*%
X160400000Y-50306250D03*
X160400000Y-53281250D03*
%TD*%
D35*
%TO.C,MCP2*%
X138400000Y-76800000D03*
X138400000Y-77300000D03*
X138400000Y-77800000D03*
X138400000Y-78300000D03*
X138400000Y-78800000D03*
X142625000Y-78800000D03*
X142625000Y-78300000D03*
X142625000Y-77800000D03*
X142625000Y-77300000D03*
X142625000Y-76800000D03*
%TD*%
D29*
%TO.C,C31*%
X134525000Y-76200000D03*
X132800000Y-76200000D03*
%TD*%
D23*
%TO.C,C122*%
X127387500Y-96987500D03*
X127387500Y-98712500D03*
%TD*%
%TO.C,C55*%
X162600000Y-50118750D03*
X162600000Y-51843750D03*
%TD*%
D27*
%TO.C,R33*%
X130512500Y-62262500D03*
X128687500Y-62262500D03*
%TD*%
D30*
%TO.C,SWd2*%
X154175000Y-81500000D03*
X158625000Y-81500000D03*
%TD*%
D23*
%TO.C,C54*%
X147037500Y-49618750D03*
X147037500Y-51343750D03*
%TD*%
D27*
%TO.C,R2*%
X164500000Y-55400000D03*
X162675000Y-55400000D03*
%TD*%
D22*
%TO.C,C36*%
X138125000Y-82826400D03*
X139850000Y-82826400D03*
%TD*%
D26*
%TO.C,R17*%
X119200000Y-71312500D03*
X119200000Y-69487500D03*
%TD*%
D28*
%TO.C,R1*%
X162637500Y-57100000D03*
X164462500Y-57100000D03*
%TD*%
D26*
%TO.C,R36*%
X128600000Y-67850000D03*
X128600000Y-66025000D03*
%TD*%
D28*
%TO.C,R58*%
X163487500Y-73800000D03*
X165312500Y-73800000D03*
%TD*%
D24*
%TO.C,C19*%
X119600000Y-58262500D03*
X119600000Y-56537500D03*
%TD*%
D29*
%TO.C,C125*%
X145100000Y-98200000D03*
X143375000Y-98200000D03*
%TD*%
D26*
%TO.C,R27*%
X148837500Y-51406250D03*
X148837500Y-49581250D03*
%TD*%
D23*
%TO.C,C27*%
X126700000Y-73587500D03*
X126700000Y-75312500D03*
%TD*%
D27*
%TO.C,R31*%
X134112500Y-60462500D03*
X132287500Y-60462500D03*
%TD*%
D22*
%TO.C,C118*%
X128537500Y-106500000D03*
X130262500Y-106500000D03*
%TD*%
D28*
%TO.C,R10*%
X115437500Y-80450000D03*
X117262500Y-80450000D03*
%TD*%
D27*
%TO.C,R44*%
X102520000Y-42490000D03*
X100695000Y-42490000D03*
%TD*%
D26*
%TO.C,TH2*%
X131800000Y-82912500D03*
X131800000Y-81087500D03*
%TD*%
D28*
%TO.C,R23*%
X145275000Y-78500000D03*
X147100000Y-78500000D03*
%TD*%
D24*
%TO.C,C16*%
X109458750Y-72362500D03*
X109458750Y-70637500D03*
%TD*%
D28*
%TO.C,R21*%
X129137500Y-85525000D03*
X130962500Y-85525000D03*
%TD*%
D22*
%TO.C,C21*%
X123087500Y-80445000D03*
X124812500Y-80445000D03*
%TD*%
D29*
%TO.C,C67*%
X144162500Y-60200000D03*
X142437500Y-60200000D03*
%TD*%
D28*
%TO.C,R30*%
X164050000Y-48350000D03*
X165875000Y-48350000D03*
%TD*%
D22*
%TO.C,C113*%
X63037500Y-60730000D03*
X64762500Y-60730000D03*
%TD*%
D24*
%TO.C,C24*%
X121075000Y-71262500D03*
X121075000Y-69537500D03*
%TD*%
D34*
%TO.C,U10*%
X137475000Y-67867500D03*
X137475000Y-66597500D03*
X137475000Y-65327500D03*
X137475000Y-64057500D03*
X132525000Y-64057500D03*
X132525000Y-65327500D03*
X132525000Y-66597500D03*
X132525000Y-67867500D03*
%TD*%
D26*
%TO.C,R54*%
X141500000Y-98212500D03*
X141500000Y-96387500D03*
%TD*%
D28*
%TO.C,R32*%
X136087500Y-60462500D03*
X137912500Y-60462500D03*
%TD*%
D39*
%TO.C,C58*%
X156400000Y-59062500D03*
X156400000Y-55937500D03*
%TD*%
D29*
%TO.C,C22*%
X117235000Y-82235000D03*
X115510000Y-82235000D03*
%TD*%
D33*
%TO.C,R53*%
X111200000Y-80887500D03*
X111200000Y-82712500D03*
%TD*%
D28*
%TO.C,R46*%
X128487500Y-101200000D03*
X130312500Y-101200000D03*
%TD*%
D29*
%TO.C,C37*%
X119012500Y-89200000D03*
X117287500Y-89200000D03*
%TD*%
%TO.C,C30*%
X134500000Y-87625000D03*
X132775000Y-87625000D03*
%TD*%
D24*
%TO.C,C18*%
X112700000Y-72350000D03*
X112700000Y-70625000D03*
%TD*%
D28*
%TO.C,R19*%
X128900000Y-76200000D03*
X130725000Y-76200000D03*
%TD*%
D27*
%TO.C,R43*%
X102520000Y-44290000D03*
X100695000Y-44290000D03*
%TD*%
D24*
%TO.C,C124*%
X109500000Y-82662500D03*
X109500000Y-80937500D03*
%TD*%
D23*
%TO.C,C104*%
X107320000Y-44327500D03*
X107320000Y-46052500D03*
%TD*%
D28*
%TO.C,R28*%
X148437500Y-47900000D03*
X150262500Y-47900000D03*
%TD*%
D24*
%TO.C,C1*%
X168650000Y-48362500D03*
X168650000Y-46637500D03*
%TD*%
D28*
%TO.C,R20*%
X128900000Y-78100000D03*
X130725000Y-78100000D03*
%TD*%
D33*
%TO.C,R13*%
X117300000Y-69487500D03*
X117300000Y-71312500D03*
%TD*%
D27*
%TO.C,R7*%
X165312500Y-99200000D03*
X163487500Y-99200000D03*
%TD*%
D24*
%TO.C,C23*%
X122875000Y-71262500D03*
X122875000Y-69537500D03*
%TD*%
D28*
%TO.C,R24*%
X148437500Y-46250000D03*
X150262500Y-46250000D03*
%TD*%
D23*
%TO.C,C28*%
X117275000Y-73087500D03*
X117275000Y-74812500D03*
%TD*%
M02*
