M48
; DRILL file KiCad 10.0.4 date 2026-07-08T21:49:43
; FORMAT={-:-/ absolute / metric / decimal}
; #@! TF.CreationDate,2026-07-08T21:49:43+03:00
; #@! TF.GenerationSoftware,Kicad,Pcbnew,10.0.4
; #@! TF.FileFunction,Plated,1,4,PTH
FMAT,2
METRIC
; #@! TA.AperFunction,Plated,PTH,ComponentDrill
T1C0.200
; #@! TA.AperFunction,Plated,PTH,ViaDrill
T2C0.300
; #@! TA.AperFunction,Plated,PTH,ComponentDrill
T3C0.600
; #@! TA.AperFunction,Plated,PTH,ComponentDrill
T4C0.800
; #@! TA.AperFunction,Plated,PTH,ComponentDrill
T5C1.000
; #@! TA.AperFunction,Plated,PTH,ComponentDrill
T6C2.700
%
G90
G05
T1
X160.985Y-61.665
X160.985Y-63.165
X161.735Y-60.915
X161.735Y-62.415
X161.735Y-63.915
X162.485Y-61.665
X162.485Y-63.165
X163.235Y-60.915
X163.235Y-62.415
X163.235Y-63.915
X163.985Y-61.665
X163.985Y-63.165
T2
X97.1Y-55.13
X97.1Y-56.56
X97.9Y-55.13
X97.9Y-56.56
X98.7Y-55.13
X98.7Y-56.56
X99.5Y-55.13
X99.5Y-56.56
X99.72Y-42.49
X99.72Y-44.29
X99.72Y-46.09
X100.3Y-55.13
X100.3Y-56.56
X100.721Y-55.855
X100.726Y-57.267
X100.957Y-47.852
X101.1Y-55.13
X101.1Y-56.56
X102.12Y-40.89
X102.77Y-52.44
X103.17Y-40.89
X103.92Y-62.39
X104.22Y-40.89
X104.72Y-41.727
X105.2Y-60.84
X105.2Y-62.09
X105.27Y-40.89
X105.4Y-69.0
X105.4Y-77.95
X106.1Y-79.7
X106.32Y-40.89
X106.32Y-41.79
X106.32Y-42.69
X106.32Y-43.64
X106.32Y-44.49
X106.32Y-45.39
X106.32Y-47.69
X106.32Y-48.59
X106.32Y-49.49
X106.32Y-50.39
X106.32Y-51.29
X106.8Y-68.1
X106.85Y-79.0
X107.282Y-56.977
X107.37Y-40.89
X107.37Y-41.79
X107.37Y-42.69
X107.37Y-47.69
X107.37Y-48.59
X107.37Y-49.49
X107.37Y-50.39
X107.8Y-79.7
X108.2Y-69.05
X108.22Y-54.24
X108.35Y-77.95
X108.42Y-40.89
X108.42Y-41.79
X108.42Y-42.69
X108.42Y-48.59
X108.42Y-49.49
X108.42Y-50.39
X108.42Y-51.29
X108.42Y-53.09
X108.47Y-43.59
X108.47Y-44.44
X108.47Y-45.34
X108.7Y-79.7
X109.42Y-48.59
X109.42Y-49.49
X109.42Y-50.39
X109.42Y-51.29
X109.42Y-52.19
X109.42Y-53.09
X109.45Y-69.55
X109.47Y-40.89
X109.47Y-41.79
X109.47Y-42.69
X109.5Y-79.7
X111.1Y-69.6
X111.2Y-79.7
X112.0Y-83.6
X112.5Y-81.0
X112.75Y-69.6
X112.877Y-83.628
X113.67Y-40.89
X113.67Y-41.79
X113.67Y-42.69
X113.725Y-48.591
X113.725Y-49.491
X113.725Y-50.391
X113.725Y-51.3
X113.725Y-52.2
X113.725Y-53.1
X113.725Y-54.05
X113.896Y-73.262
X113.912Y-72.362
X114.25Y-85.45
X114.5Y-76.7
X114.5Y-77.9
X114.62Y-43.79
X114.62Y-44.89
X114.67Y-40.89
X114.67Y-41.79
X114.67Y-42.69
X114.775Y-49.491
X114.775Y-50.391
X114.775Y-51.3
X114.775Y-52.2
X114.775Y-53.1
X114.775Y-54.05
X114.812Y-72.347
X115.77Y-40.89
X115.77Y-41.79
X115.77Y-42.69
X115.875Y-51.3
X115.875Y-52.2
X115.875Y-53.1
X115.875Y-54.05
X116.0Y-62.1
X116.05Y-87.5
X116.05Y-89.2
X116.35Y-83.15
X116.4Y-81.35
X116.92Y-40.89
X116.92Y-41.79
X116.92Y-42.69
X116.987Y-56.662
X117.025Y-51.3
X117.025Y-52.2
X117.025Y-53.1
X117.025Y-54.05
X117.15Y-62.95
X118.07Y-40.89
X118.07Y-41.79
X118.07Y-42.69
X118.175Y-51.3
X118.175Y-52.2
X118.175Y-53.1
X118.175Y-54.05
X118.662Y-56.537
X118.862Y-50.087
X119.22Y-40.89
X119.22Y-40.89
X119.22Y-41.79
X119.22Y-42.69
X119.22Y-43.79
X119.22Y-44.69
X119.22Y-45.64
X119.325Y-51.3
X119.325Y-51.3
X119.325Y-52.2
X119.325Y-53.1
X119.325Y-54.05
X119.5Y-77.8
X119.975Y-62.075
X120.0Y-60.775
X120.3Y-77.806
X120.35Y-87.5
X120.351Y-88.3
X120.425Y-51.3
X120.425Y-52.2
X120.425Y-53.1
X120.425Y-54.05
X120.65Y-93.95
X121.1Y-68.5
X121.17Y-44.59
X121.275Y-64.575
X121.275Y-65.475
X121.575Y-51.3
X121.575Y-52.2
X121.575Y-53.1
X121.575Y-54.05
X121.97Y-44.59
X122.337Y-56.537
X122.6Y-68.5
X122.7Y-57.4
X122.7Y-58.2
X122.725Y-51.3
X122.725Y-51.3
X122.725Y-52.2
X122.725Y-53.1
X122.725Y-54.05
X122.825Y-60.775
X123.099Y-46.44
X123.12Y-45.64
X123.22Y-48.14
X123.5Y-58.2
X123.8Y-51.3
X123.8Y-52.2
X123.8Y-53.1
X123.8Y-54.05
X124.45Y-81.4
X124.95Y-51.3
X124.95Y-52.2
X124.95Y-53.1
X124.95Y-54.05
X125.4Y-62.3
X125.8Y-72.4
X125.856Y-65.325
X125.872Y-80.445
X126.1Y-51.3
X126.1Y-51.3
X126.1Y-52.2
X126.1Y-53.1
X126.1Y-54.05
X126.175Y-62.112
X127.4Y-65.33
X127.4Y-103.0
X127.4Y-106.5
X127.65Y-62.9
X127.7Y-80.0
X128.4Y-97.0
X128.5Y-80.0
X128.65Y-111.3
X128.65Y-112.1
X129.331Y-95.35
X129.725Y-96.65
X130.0Y-64.6
X130.45Y-59.55
X131.844Y-93.75
X132.112Y-77.25
X132.3Y-86.625
X132.397Y-99.49
X132.588Y-79.95
X132.7Y-98.75
X132.775Y-68.775
X132.8Y-69.7
X132.8Y-70.6
X132.9Y-77.2
X132.952Y-73.443
X133.3Y-86.625
X133.75Y-73.5
X134.0Y-58.6
X134.381Y-95.225
X134.4Y-81.98
X134.4Y-82.92
X134.402Y-84.116
X134.55Y-73.5
X134.65Y-75.225
X134.8Y-70.45
X135.1Y-59.662
X135.1Y-60.462
X135.1Y-63.1
X135.1Y-111.2
X135.125Y-98.45
X135.2Y-81.55
X135.2Y-82.45
X135.2Y-83.375
X135.2Y-84.175
X135.431Y-74.4
X135.45Y-75.2
X136.2Y-104.5
X136.2Y-105.7
X136.3Y-58.6
X136.325Y-101.125
X136.4Y-79.65
X136.4Y-80.45
X136.4Y-81.25
X136.575Y-70.0
X136.638Y-97.316
X136.85Y-79.05
X136.938Y-86.725
X137.4Y-89.4
X137.4Y-90.2
X137.425Y-97.175
X137.875Y-107.225
X138.218Y-97.284
X138.387Y-87.075
X138.5Y-94.4
X138.55Y-68.65
X139.0Y-100.525
X139.325Y-73.094
X139.5Y-105.1
X139.5Y-105.9
X139.7Y-78.85
X139.7Y-108.3
X140.075Y-76.3
X140.45Y-70.015
X140.612Y-60.157
X140.821Y-82.801
X140.957Y-81.15
X141.224Y-76.327
X141.225Y-73.5
X141.475Y-108.275
X141.825Y-71.275
X141.9Y-55.2
X141.9Y-57.8
X142.0Y-105.725
X142.075Y-100.525
X142.4Y-52.2
X142.4Y-53.1
X142.537Y-45.981
X142.588Y-81.394
X142.6Y-65.1
X142.6Y-94.86
X143.167Y-44.384
X143.2Y-52.2
X143.2Y-53.1
X143.237Y-73.1
X143.275Y-108.225
X143.387Y-80.9
X143.393Y-81.801
X143.4Y-94.4
X143.4Y-95.2
X143.725Y-59.225
X144.188Y-81.418
X144.2Y-61.7
X144.2Y-94.86
X144.323Y-43.424
X144.637Y-46.444
X144.75Y-100.525
X144.769Y-59.256
X144.9Y-106.9
X144.95Y-75.2
X144.95Y-76.0
X145.2Y-45.4
X145.2Y-64.1
X145.2Y-65.5
X145.65Y-110.55
X145.9Y-64.8
X145.987Y-82.075
X146.162Y-96.55
X146.162Y-98.2
X146.2Y-68.5
X146.6Y-64.1
X146.6Y-65.5
X146.688Y-59.231
X146.7Y-61.35
X147.101Y-82.868
X147.114Y-76.999
X147.601Y-85.274
X147.901Y-82.875
X147.914Y-76.999
X148.401Y-85.306
X148.614Y-78.499
X149.414Y-78.499
X149.523Y-43.424
X149.6Y-55.2
X149.6Y-57.8
X149.7Y-69.15
X149.951Y-52.999
X150.0Y-100.575
X150.0Y-102.65
X150.0Y-104.85
X150.4Y-63.4
X150.4Y-66.7
X150.4Y-55.2
X150.4Y-57.8
X150.6Y-62.6
X150.7Y-52.5
X150.7Y-52.5
X150.7Y-53.4
X150.998Y-102.65
X151.0Y-100.55
X151.0Y-101.55
X151.0Y-103.75
X151.0Y-104.85
X151.0Y-105.95
X151.0Y-107.05
X151.1Y-74.8
X151.1Y-81.5
X151.35Y-46.3
X151.35Y-47.9
X151.61Y-49.6
X152.1Y-54.7
X152.4Y-65.0
X152.6Y-50.808
X153.53Y-47.18
X153.53Y-48.68
X154.78Y-59.05
X154.9Y-45.2
X155.088Y-50.85
X156.29Y-47.2
X156.29Y-48.7
X158.05Y-48.9
X158.54Y-57.79
X158.58Y-59.9
X159.49Y-45.5
X159.64Y-60.32
X160.79Y-57.9
X160.95Y-46.027
X161.11Y-58.97
X161.4Y-62.9
X161.4Y-63.7
X161.4Y-64.5
X161.4Y-65.4
X161.4Y-66.2
X161.4Y-67.0
X161.4Y-67.9
X161.4Y-68.7
X161.4Y-69.5
X161.4Y-70.5
X161.4Y-71.3
X161.4Y-72.1
X161.4Y-73.0
X161.4Y-73.8
X161.4Y-74.6
X161.4Y-75.6
X161.4Y-76.4
X161.4Y-77.2
X164.1Y-59.85
X164.6Y-42.85
X164.6Y-44.6
X165.1Y-59.0
X165.1Y-60.7
X165.6Y-55.4
X165.85Y-49.3
X165.9Y-45.5
X165.925Y-50.65
X166.1Y-59.85
X167.35Y-46.65
X168.7Y-45.4
T4
X94.35Y-96.2
X94.6Y-87.0
X94.65Y-62.1
X94.7Y-53.1
X97.85Y-96.2
X98.1Y-87.0
X98.15Y-62.1
X98.2Y-53.1
T5
X124.5Y-92.225
X124.5Y-94.765
X124.55Y-98.79
X124.55Y-101.33
X124.55Y-103.87
X124.55Y-106.41
X146.625Y-74.9
X149.165Y-74.9
X159.65Y-56.3
X159.65Y-58.84
X160.7Y-89.0
X164.4Y-101.9
X165.1Y-78.87
X165.1Y-81.41
X165.1Y-83.95
X165.1Y-86.49
X165.1Y-89.03
T6
X86.5Y-58.9
X86.5Y-66.1
X86.5Y-87.4
X86.5Y-94.6
X129.85Y-54.8
X137.05Y-54.8
T3
G00X79.95Y-55.75
M15
G01X81.05Y-55.75
M16
G05
G00X79.95Y-69.25
M15
G01X81.05Y-69.25
M16
G05
G00X79.95Y-84.25
M15
G01X81.05Y-84.25
M16
G05
G00X79.95Y-97.75
M15
G01X81.05Y-97.75
M16
G05
G00X126.7Y-48.25
M15
G01X126.7Y-49.35
M16
G05
G00X140.2Y-48.25
M15
G01X140.2Y-49.35
M16
G05
M30
